<?xml version="1.0" encoding="utf-8"?>
<!-- Generator: Adobe Illustrator 23.0.2, SVG Export Plug-In . SVG Version: 6.00 Build 0)  -->
<svg version="1.1" xmlns="http://www.w3.org/2000/svg" xmlns:xlink="http://www.w3.org/1999/xlink" x="0px" y="0px"
	 viewBox="0 0 500 413.6" style="enable-background:new 0 0 500 413.6;" xml:space="preserve">
<style type="text/css">
	.st0{display:none;}
	.st1{display:inline;}
	.st2{clip-path:url(#SVGID_2_);}
	.st3{clip-path:url(#SVGID_4_);}
	.st4{fill:#FFCA28;}
	.st5{clip-path:url(#SVGID_6_);}
	.st6{clip-path:url(#SVGID_8_);}
	.st7{fill:none;stroke:#424242;stroke-width:14;}
	.st8{clip-path:url(#SVGID_10_);}
	.st9{fill:#424242;}
	.st10{display:inline;fill:#424242;}
	.st11{display:inline;fill:#FFFFFF;}
	.st12{display:inline;fill:#424242;stroke:#FFFFFF;stroke-width:2.179;stroke-miterlimit:10;}
	.st13{clip-path:url(#SVGID_12_);}
	.st14{fill:none;stroke:#FFFFFF;stroke-width:5.448;stroke-miterlimit:10;}
	.st15{display:inline;fill:none;stroke:#FFFFFF;stroke-miterlimit:10;}
	.st16{display:inline;fill:#424242;stroke:#FFFFFF;stroke-width:5.448;stroke-miterlimit:10;}
	.st17{clip-path:url(#SVGID_14_);}
	.st18{fill:none;stroke:#FFFFFF;stroke-width:2.179;stroke-miterlimit:10;}
	.st19{clip-path:url(#SVGID_16_);}
	.st20{clip-path:url(#SVGID_18_);}
	.st21{fill:none;stroke:#FFFFFF;stroke-miterlimit:10;}
	.st22{clip-path:url(#SVGID_20_);}
	.st23{clip-path:url(#SVGID_22_);}
	.st24{clip-path:url(#SVGID_24_);}
	.st25{clip-path:url(#SVGID_26_);}
	.st26{fill:none;stroke:#FFFFFF;stroke-width:14;}
	.st27{clip-path:url(#SVGID_28_);}
	.st28{fill:#FFFFFF;}
	.st29{fill:#424242;stroke:#FFFFFF;stroke-width:2.179;stroke-miterlimit:10;}
	.st30{clip-path:url(#SVGID_30_);}
	.st31{fill:#424242;stroke:#FFFFFF;stroke-width:5.448;stroke-miterlimit:10;}
	.st32{clip-path:url(#SVGID_32_);}
	.st33{clip-path:url(#SVGID_34_);}
	.st34{clip-path:url(#SVGID_36_);}
</style>
<g id="Camada_1" class="st0">
	<g class="st1">
		<g>
			<defs>
				<rect id="SVGID_1_" x="125.1" y="18.7" width="269.9" height="269.9"/>
			</defs>
			<clipPath id="SVGID_2_">
				<use xlink:href="#SVGID_1_"  style="overflow:visible;"/>
			</clipPath>
			<g class="st2">
				<g>
					<g>
						<defs>
							<circle id="SVGID_3_" cx="260.1" cy="153.6" r="135"/>
						</defs>
						<clipPath id="SVGID_4_">
							<use xlink:href="#SVGID_3_"  style="overflow:visible;"/>
						</clipPath>
						<g class="st3">
							<path class="st4" d="M125.1,18.7H395v269.9H125.1V18.7z"/>
						</g>
					</g>
				</g>
			</g>
		</g>
	</g>
	<g class="st1">
		<g>
			<defs>
				<rect id="SVGID_5_" x="115" y="38" width="269.9" height="269.9"/>
			</defs>
			<clipPath id="SVGID_6_">
				<use xlink:href="#SVGID_5_"  style="overflow:visible;"/>
			</clipPath>
			<g class="st5">
				<g>
					<g>
						<defs>
							<circle id="SVGID_7_" cx="250" cy="173" r="135"/>
						</defs>
						<clipPath id="SVGID_8_">
							<use xlink:href="#SVGID_7_"  style="overflow:visible;"/>
						</clipPath>
						<g class="st6">
							<path class="st7" d="M250,38c-74.5,0-135,60.4-135,135s60.4,135,135,135s135-60.4,135-135S324.5,38,250,38z"/>
						</g>
					</g>
				</g>
			</g>
		</g>
	</g>
	<g class="st1">
		<g>
			<defs>
				<rect id="SVGID_9_" x="50.7" y="5.7" width="236" height="192.5"/>
			</defs>
			<clipPath id="SVGID_10_">
				<use xlink:href="#SVGID_9_"  style="overflow:visible;"/>
			</clipPath>
			<g class="st8">
				<path class="st9" d="M285.6,112.3c-0.3,0.8-6.5-0.6-7.3-0.8c-4.5-0.8-8.8-1.8-12.8-3.9c-4.4-2.3-8.4-5.3-13-7.4
					c-9.1-4.2-18.8-7.5-28.8-8.3s-20.4,1.1-28.8,6.6c-2.3,1.5-4.5,3.3-7.1,4.2c-6.5,2.3-13.4-1.2-20.1-3.1
					c-11.4-3.1-24.2-0.9-33.9,5.9c-2.8,2-6.6-0.8-5.5-4.1c2.3-6.7,4-13.6,5-20.6c0.5-3.1,1.2-6.1,2.4-9c2.7-6.8,5.6-12.1,9.9-19.3
					c3.3-4,6.6-7.9,9.8-11.9c1.8-2.1,3.8-4.4,6.6-4.7c1.7-0.1,3.3,0.5,4.8,1.2c3.4,1.5,6.7,3,10,4.7c0.8,0.4,1.8,1,2.1,1.9
					c0.2,0.5,0.1,1.1,0.3,1.7c0.2,0.7,0.8,1.2,1.5,1.7c2.3,1.7,4.9,3,7.7,3.8c0.8,1.8,2.7,2.9,4.8,2c1.7,2.5,4.9,2.8,7.5,2.9
					c-0.6,1.4,0.1,2.6,1.2,3.1c1.4,0.6,3,0.2,4.5-0.3s3-1,4.5-0.6c0.8,0.2,1.5,0.7,2.3,0.8c1.4,0.1,2.6-0.9,3.6-1.9
					c3.2-3.1,6.5-6.2,9.7-9.4c1-0.9,1.9-1.9,2.2-3.2c0.1-0.6,0.1-1.2-0.1-1.8c-0.5-2.1-1.4-4.1-2.5-5.9L217.8,23
					c-1.9-3.1-3.9-6.4-7-8.4c-3-2-6.7-2.6-10.2-3.2L173.7,7c-2.8-0.5-5.6-0.8-8.3-1s-5.5-0.1-8,0.8c-4.2,1.4-7.4,4.7-10.5,7.9
					c-5.8,6.1-11.6,12.2-17,18.7c-21,19.7-42.3,39.7-56.7,64.6c-4.4,7.6-8.1,15.6-13.2,22.8c-2.8,4-6,7.7-7.9,12.2
					c-1.8,4.3-2.1,9.6,0.8,14.2c0.2,0.3,0.5,0.7,0.8,0.9c4.2,3.4,9,5.9,13.9,8.2c12.1,5.7,24.7,10.2,37.6,13.5
					c5.7,1.4,11.6,2.6,17.4,3.8c16.8,3.3,34.5,6.1,50.7,0.4c8.9-3.1,16.9-8.7,25.7-10.8c18.3-6.5,39.9,7.2,51.4,20.6
					c2.6,3.1,5.6,8.4,6.8,13.3l21.5-10.9c-1.1-3.5-1.3-7-1.7-10.6C274.6,154.1,277.6,132.2,285.6,112.3z M179.6,38.8
					c-3.1-4.4-11-4.2-15.1-7.9c-1.6-1.4-2.6-3.4-3.5-5.3c-0.6-1.3-1.2-2.6-1.9-3.9c2.9,1.9,7,2.8,10.8,3.9c3.8,1.2,7.7,2.9,9.1,6.2
					C180,33.9,179.8,36.4,179.6,38.8z M196.2,48.7c-0.1,0.2-0.3,0.4-0.6,0.5s-0.5,0-0.8-0.1c-2.6-0.8-5.2-1.6-7.8-2.5
					c-0.2-0.8,0.9-1.5,1.8-1.7c0.9-0.2,2.1-0.8,1.9-1.6c0-0.3-0.3-0.6-0.5-0.8c-1.4-1.4-2.6-3-3.3-4.8c-0.9-2.2-1.1-4.6-2.1-6.7
					c-1-2.2-2.9-3.9-5.3-4.8c2.7,0.8,4.8,1.7,6.9,2.5c3.1,1.2,6.4,2.7,7.7,5.6c1.2,2.7,0.4,6,1.3,8.9C196.2,45,197.4,47,196.2,48.7z
					 M202.9,52.5c-1.7,0.6-3.7,0.2-5.8-0.4c2.7-0.7,3.9-4,3.7-6.8c-0.1-2.8-1.1-5.5-1-8.3c0.1-1.2,0.3-2.3,0.3-3.5
					c-0.2-2.9-2.7-5.3-2.7-8.2c0-0.3,0-0.7,0.2-1c0.3-0.3,0.7-0.5,1.1-0.5c1.2,0,2.3,0.8,3,1.7c0.8,0.9,1.3,2,2,3
					c0.6,0.8,1.4,1.6,1.9,2.5c0.4,0.8,0.4,1.7,0.4,2.6c0.2,3.9,0.4,7.8,0.6,11.8c0.1,1.1,0.1,2.3-0.2,3.3
					C206.1,50.4,204.7,51.9,202.9,52.5z M215.2,20.8c3.2,5,6.2,10.2,8.7,15.5c0.8,1.8,1.6,3.6,1.6,5.5c0,2.4-1.2,4.6-2.8,6.3
					s-3.6,3.1-6.1,4c1-2.7,4-4.6,4.1-7.5c0-1-0.3-1.9-0.7-2.8c-1.9-4.9-3.8-9.8-5.7-14.8c-0.4-1.1-0.9-2.3-0.8-3.5
					C213.5,22.5,214.1,21.2,215.2,20.8z M209.8,24.7c1.2,0.8,1.7,2.3,2,3.7c1.2,4.5,2.4,9,3.6,13.5c0.9,3.4,1.7,7.5-0.6,10.2
					c-1.8,2.1-5.1,2.5-8.5,1.9c2.1-1.2,3.3-3.7,3.7-6.1c0.3-2.4-0.1-4.9-0.5-7.3c-0.7-4.3-1.4-8.6-2.1-12.8c-0.1-0.7-0.2-1.4-0.1-2
					c0.2-0.7,0.7-1.3,1.4-1.4C209,24.4,209.4,24.5,209.8,24.7z M167.5,9.8c5-0.2,10,0.8,14.9,1.7c6.1,1.1,12.2,2.3,18.3,3.4
					c2.6,0.5,5.3,1,7.2,2.8c-2.1,0.1-3.6,3-5.7,3.8c-0.9,0.3-1.9,0.3-2.9,0.3c-2.5,0.2-5,1.3-6.8,3.1c-0.4,0.5-0.9,1-1.4,1.3
					c-1.1,0.7-2.6,0.4-3.7-0.2c-1.1-0.6-2-1.4-3.1-2.1c-3.7-2-8.7-0.7-12.8-2.2c-1.5-0.6-2.8-1.5-4.3-2.1c-2.3-1-5-1.2-7.5-1.8
					c-2.5-0.5-5.1-1.5-6.5-3.5C157.2,11.3,162.4,10,167.5,9.8z M75,142.7c-1.9,0.9-3.8,2.1-6,2.1c-3.3-0.1-5.6-3.1-7.4-5.8
					c-1-1.4-2-3-2.3-4.7c-0.7-3.7,1.6-7.2,3.8-10.2c5.9-8.4,11.2-17.2,16-26.3c2-3.9,4.1-7.4,6.4-10.6c1.5-4.1,3.6-8,6.1-11.5
					c7.6-10.9,18.4-19,28.2-28.5c-1.2,1.5-2.3,3-3.3,4.5c0.8-0.7,1.6-1.4,2.4-2c11.9-9.2,18-18.1,31.3-30.6
					c4.1,4.6,7.8,7.6,5.3,12.5c-3.6,7.1-10.8,11.6-15.1,18.3c-4.1,6.3-5.4,13.9-8.4,20.8c-1.8,4.3-4.2,8.3-5.2,12.9
					c-1,4.8-0.3,9.7-0.6,14.6c-0.4,5.6-2.3,11.2-6.3,15.2c-4.1,4.2-9.9,6.2-15.5,7.9c-5.6,1.7-11.5,3.1-16.2,6.5
					c-4.8,3.4-8.3,9.3-7,15.2C79.5,141.4,76.9,141.8,75,142.7z M122.7,116.5c-4.9,8.5-12.8,14.9-21.8,17.8
					c-5.7,1.8-12.2,2.4-16.6,6.5c2.5-4.9,6.1-9.4,11.1-11.6c2.3-1,4.8-1.4,7.2-2.1C109.9,125,116.4,120.8,122.7,116.5z M197.7,157
					c-16.5,13.6-39.3,19.5-60.3,15.4c-6.1-1.2-11.9-3.1-17.8-5c-14.1-4.6-28.5-9.3-40.7-17.8c9.1-0.4,17.1-5.5,25-9.9
					s17.1-8.3,25.8-6c10.6,2.7,18.3,13.8,29.2,14c-5.9,1.6-11.8,3.3-17.7,4.9c-4.3,1.1-8.7,2.3-13.1,1.8c10.2,2.8,21.1,2.9,31.4,0.4
					c5.9-1.4,11.6-3.7,17.4-5.3c5.9-1.6,12.1-2.5,18-1.2c1.6,0.4,5.4,0.8,5.7,3.7C200.9,154,199.2,155.7,197.7,157z M202.5,136.8
					c-3.2,1.5-5.8,4.1-9.2,5c-3.3,0.9-6.8-0.1-10.3-0.2c-8-0.2-15.9,4.3-23.8,2.7c-6.5-1.3-11.5-6.5-16.2-11.2
					c-4.8-4.7-10.5-9.4-17.2-9.2c3.1-2.7,6.3-5.4,9.4-8.2l0.1-0.1c-1.1-3.5-0.1-7.1,2-8.1c0.5,1.6,1.2,3.2,2.1,4.7
					c1.7-1.3,3.5-2.6,5.4-3.6c8.9-4.8,20-4.1,29.4-0.4c2.4,0.9,4.8,2.1,7.3,2.4c2.4,0.4,4.8,0,7.3,0c12.3-0.2,24.2,8.7,27.4,20.6
					c-0.4-0.5,2.2,4.2,3.5,9.3C215.7,135.7,208.3,134.1,202.5,136.8z"/>
			</g>
		</g>
	</g>
	<path class="st10" d="M122.7,116.5c-4.9,8.5-12.8,14.9-21.8,17.8c-5.7,1.8-12.2,2.4-16.6,6.5c2.5-4.9,6.1-9.4,11.1-11.6
		c2.3-1,4.8-1.4,7.2-2.1C109.9,125,116.4,120.8,122.7,116.5z"/>
	<path class="st10" d="M155.3,31.5c-3.6,7.1-10.8,11.6-15.1,18.3c-4.1,6.3-5.4,13.9-8.4,20.8c-1.8,4.3-4.2,8.3-5.2,12.9
		c-1,4.8-0.3,9.7-0.6,14.6c-0.4,5.6-2.3,11.2-6.3,15.2c-4.1,4.2-9.9,6.2-15.5,7.9c-5.6,1.7-11.5,3.1-16.2,6.5
		c-4.8,3.4-8.3,9.3-7,15.2c-1.5-1.5-4-1.1-6-0.3c-1.9,0.9-3.8,2.1-6,2.1c-3.3-0.1-5.6-3.1-7.4-5.8c-1-1.4-2-3-2.3-4.7
		c-0.7-3.7,1.6-7.2,3.8-10.2c5.9-8.4,11.2-17.2,16-26.3c2-3.9,4.1-7.4,6.4-10.6c1.5-4.1,3.6-8,6.1-11.5c7.6-10.9,18.4-19,28.2-28.5
		c-1.2,1.5-2.3,3-3.3,4.5c0.8-0.7,1.6-1.4,2.4-2c11.9-9.2,18-18.1,31.3-30.6C154.1,23.6,157.8,26.5,155.3,31.5z"/>
	<path class="st10" d="M179.6,38.8c-3.1-4.4-11-4.2-15.1-7.9c-1.6-1.4-2.6-3.4-3.5-5.3c-0.6-1.3-1.2-2.6-1.9-3.9
		c2.9,1.9,7,2.8,10.8,3.9c3.8,1.2,7.7,2.9,9.1,6.2C180,33.9,179.8,36.4,179.6,38.8z"/>
	<path class="st10" d="M196.2,48.7c-0.1,0.2-0.3,0.4-0.6,0.5s-0.5,0-0.8-0.1c-2.6-0.8-5.2-1.6-7.8-2.5c-0.2-0.8,0.9-1.5,1.8-1.7
		c0.9-0.2,2.1-0.8,1.9-1.6c0-0.3-0.3-0.6-0.5-0.8c-1.4-1.4-2.6-3-3.3-4.8c-0.9-2.2-1.1-4.6-2.1-6.7c-1-2.2-2.9-3.9-5.3-4.8
		c2.7,0.8,4.8,1.7,6.9,2.5c3.1,1.2,6.4,2.7,7.7,5.6c1.2,2.7,0.4,6,1.3,8.9C196.2,45,197.4,47,196.2,48.7z"/>
	<path class="st10" d="M197.7,157c-16.5,13.6-39.3,19.5-60.3,15.4c-6.1-1.2-11.9-3.1-17.8-5c-14.1-4.6-28.5-9.3-40.7-17.8
		c9.1-0.4,17.1-5.5,25-9.9s17.1-8.3,25.8-6c10.6,2.7,18.3,13.8,29.2,14c-5.9,1.6-11.8,3.3-17.7,4.9c-4.3,1.1-8.7,2.3-13.1,1.8
		c10.2,2.8,21.1,2.9,31.4,0.4c5.9-1.4,11.6-3.7,17.4-5.3c5.9-1.6,12.1-2.5,18-1.2c1.6,0.4,5.4,0.8,5.7,3.7
		C200.9,154,199.2,155.7,197.7,157z"/>
	<path class="st10" d="M207.8,17.7c-2.1,0.1-3.6,3-5.7,3.8c-0.9,0.3-1.9,0.3-2.9,0.3c-2.5,0.2-5,1.3-6.8,3.1c-0.4,0.5-0.9,1-1.4,1.3
		c-1.1,0.7-2.6,0.4-3.7-0.2c-1.1-0.6-2-1.4-3.1-2.1c-3.7-2-8.7-0.7-12.8-2.2c-1.5-0.6-2.8-1.5-4.3-2.1c-2.3-1-5-1.2-7.5-1.8
		c-2.5-0.5-5.1-1.5-6.5-3.5c4-3.1,9.2-4.4,14.3-4.6c5-0.2,10,0.8,14.9,1.7c6.1,1.1,12.2,2.3,18.3,3.4
		C203.2,15.4,206,15.9,207.8,17.7z"/>
	<path class="st10" d="M206.5,48.7c-0.5,1.8-1.9,3.2-3.6,3.8c-1.7,0.6-3.7,0.2-5.8-0.4c2.7-0.7,3.9-4,3.7-6.8
		c-0.1-2.8-1.1-5.5-1-8.3c0.1-1.2,0.3-2.3,0.3-3.5c-0.2-2.9-2.7-5.3-2.7-8.2c0-0.3,0-0.7,0.2-1c0.3-0.3,0.7-0.5,1.1-0.5
		c1.2,0,2.3,0.8,3,1.7c0.8,0.9,1.3,2,2,3c0.6,0.8,1.4,1.6,1.9,2.5c0.4,0.8,0.4,1.7,0.4,2.6c0.2,3.9,0.4,7.8,0.6,11.8
		C206.8,46.5,206.8,47.6,206.5,48.7z"/>
	<path class="st10" d="M214.7,52.2c-1.8,2.1-5.1,2.5-8.5,1.9c2.1-1.2,3.3-3.7,3.7-6.1c0.3-2.4-0.1-4.9-0.5-7.3
		c-0.7-4.3-1.4-8.6-2.1-12.8c-0.1-0.7-0.2-1.4-0.1-2c0.2-0.7,0.7-1.3,1.4-1.4c0.4,0,0.8,0.1,1.1,0.3c1.2,0.8,1.7,2.3,2,3.7
		c1.2,4.5,2.4,9,3.6,13.5C216.3,45.4,217.1,49.5,214.7,52.2z"/>
	<path class="st10" d="M219.8,140.4c-4.2-4.7-11.6-6.3-17.3-3.6c-3.2,1.5-5.8,4.1-9.2,5c-3.3,0.9-6.8-0.1-10.3-0.2
		c-8-0.2-15.9,4.3-23.8,2.7c-6.5-1.3-11.5-6.5-16.2-11.2c-4.8-4.7-10.5-9.4-17.2-9.2c3.1-2.7,6.3-5.4,9.4-8.2l0.1-0.1
		c-1.1-3.5-0.1-7.1,2-8.1c0.5,1.6,1.2,3.2,2.1,4.7c1.7-1.3,3.5-2.6,5.4-3.6c8.9-4.8,20-4.1,29.4-0.4c2.4,0.9,4.8,2.1,7.3,2.4
		c2.4,0.4,4.8,0,7.3,0c12.3-0.2,24.2,8.7,27.4,20.6C216,130.6,218.6,135.3,219.8,140.4z"/>
	<path class="st10" d="M225.5,41.9c0,2.4-1.2,4.6-2.8,6.3s-3.6,3.1-6.1,4c1-2.7,4-4.6,4.1-7.5c0-1-0.3-1.9-0.7-2.8
		c-1.9-4.9-3.8-9.8-5.7-14.8c-0.4-1.1-0.9-2.3-0.8-3.5c0-1.2,0.6-2.5,1.7-2.9c3.2,5,6.2,10.2,8.7,15.5
		C224.7,38.1,225.5,39.9,225.5,41.9z"/>
	<path class="st11" d="M259.5,162.4c-5.3-6.7-16.2-8.6-23.7-13.8c-10.4-7.1-13.5-19.5-19.5-29.8c-3.5-5.8-9.6-11.8-17-10.8
		c8.2-7.5,20.9-10.8,32.2-8.5c9.9,2.1,18.2,8,27.9,10.9C265.6,127,263.9,145,259.5,162.4z"/>
	<path class="st11" d="M219.8,140.4c-4.2-4.7-11.6-6.3-17.3-3.6c-3.2,1.5-5.8,4.1-9.2,5c-3.3,0.9-6.8-0.1-10.3-0.2
		c-8-0.2-15.9,4.3-23.8,2.7c-6.5-1.3-11.5-6.5-16.2-11.2c-4.8-4.7-10.5-9.4-17.2-9.2c3.1-2.7,6.3-5.4,9.4-8.2l0.1-0.1
		c1.4-1.2,2.7-2.4,4.2-3.5c1.7-1.3,3.5-2.6,5.4-3.6c8.9-4.8,20-4.1,29.4-0.4c2.4,0.9,4.8,2.1,7.3,2.4c2.4,0.4,4.8,0,7.3,0
		c12.3-0.2,24.2,8.7,27.4,20.6C216,130.6,218.6,135.3,219.8,140.4z"/>
	<path class="st11" d="M197.7,157c-16.5,13.6-39.3,19.5-60.3,15.4c-6.1-1.2-11.9-3.1-17.8-5c-14.1-4.6-28.5-9.3-40.7-17.8
		c9-0.4,17.1-5.5,25-9.9s17.1-8.3,25.8-6c10.6,2.7,18.3,13.8,29.2,14c-5.9,1.6-11.8,3.3-17.7,4.9c-4.3,1.2-8.7,2.3-13.1,1.8
		c10.2,2.8,21.1,2.9,31.4,0.4c5.9-1.4,11.6-3.7,17.4-5.3c5.8-1.6,12.1-2.5,18-1.2c1.6,0.4,5.4,0.8,5.7,3.7
		C200.9,154,199.2,155.7,197.7,157z"/>
	<path class="st11" d="M155.3,31.5c-3.6,7.1-10.8,11.6-15.1,18.3c-4.1,6.3-5.4,13.9-8.4,20.8c-1.8,4.3-4.2,8.3-5.2,12.9
		c-1,4.8-0.3,9.7-0.6,14.6c-0.4,5.6-2.3,11.2-6.3,15.2c-4.1,4.2-9.9,6.2-15.5,7.9c-5.6,1.7-11.5,3.1-16.2,6.5
		c-4.8,3.4-8.3,9.3-7,15.2c-1.5-1.5-4-1.1-6-0.3c-1.9,0.9-3.8,2.1-6,2.1c-3.3-0.1-5.6-3.1-7.4-5.8c-1-1.4-2-3-2.3-4.7
		c-0.7-3.7,1.6-7.2,3.8-10.2c5.9-8.4,11.2-17.2,16-26.3c2-3.9,4.1-7.4,6.4-10.6c4.2-6,8.8-11.3,14.3-16.9c0,0,0,0,0.1-0.1
		c0.3-0.3,0.6-0.6,0.9-0.9c5.2-5.3,10-12.4,15.6-17.5c0.8-0.7,1.6-1.4,2.4-2c11.9-9.2,18-18.1,31.3-30.6
		C154.1,23.6,157.8,26.5,155.3,31.5z"/>
	<path class="st11" d="M122.7,116.5c-4.9,8.5-12.8,14.9-21.8,17.8c-5.7,1.8-12.2,2.4-16.6,6.5c2.4-4.9,6.1-9.4,11.1-11.6
		c2.3-1,4.8-1.4,7.2-2.1C109.9,125,116.4,120.7,122.7,116.5z"/>
	<path class="st11" d="M179.6,38.8c-3.1-4.4-11-4.2-15.1-7.9c-1.6-1.4-2.6-3.4-3.5-5.3c-0.6-1.3-1.2-2.6-1.9-3.9
		c2.9,1.9,7,2.8,10.8,3.9c3.8,1.2,7.7,2.9,9.1,6.2C180,33.9,179.8,36.4,179.6,38.8z"/>
	<path class="st11" d="M196.2,48.7c-0.2,0.2-0.3,0.4-0.6,0.5s-0.5,0-0.8-0.1c-2.6-0.8-5.2-1.6-7.8-2.5c-0.2-0.8,0.9-1.5,1.8-1.7
		c0.9-0.2,2-0.8,1.9-1.6c0-0.3-0.3-0.6-0.5-0.8c-1.4-1.4-2.6-3-3.3-4.8c-0.9-2.2-1.1-4.6-2.1-6.7c-1-2.2-2.9-3.9-5.3-4.8
		c2.7,0.8,4.8,1.7,6.9,2.5c3.1,1.2,6.4,2.7,7.7,5.6c1.2,2.7,0.4,6,1.3,8.9C196.2,45,197.4,47,196.2,48.7z"/>
	<path class="st11" d="M206.5,48.7c-0.5,1.8-1.9,3.2-3.6,3.8c-1.7,0.6-3.7,0.2-5.8-0.4c2.7-0.7,3.9-4,3.8-6.8
		c-0.1-2.8-1.1-5.5-1-8.3c0.1-1.2,0.3-2.3,0.3-3.5c-0.2-2.9-2.7-5.3-2.7-8.2c0-0.3,0-0.7,0.2-1c0.3-0.3,0.7-0.5,1.1-0.5
		c1.2,0,2.3,0.8,3,1.7c0.8,0.9,1.3,2,2,3c0.6,0.8,1.4,1.6,1.9,2.5c0.4,0.8,0.4,1.7,0.4,2.6c0.2,3.9,0.4,7.8,0.6,11.8
		C206.8,46.5,206.8,47.6,206.5,48.7z"/>
	<path class="st11" d="M214.7,52.2c-1.8,2.1-5.1,2.5-8.5,1.9c2.1-1.2,3.3-3.7,3.7-6.1c0.3-2.4-0.1-4.9-0.5-7.3
		c-0.7-4.3-1.4-8.6-2.1-12.8c-0.1-0.7-0.2-1.4-0.1-2c0.2-0.7,0.7-1.3,1.4-1.4c0.4,0,0.8,0.1,1.1,0.3c1.2,0.8,1.7,2.3,2,3.7
		c1.2,4.5,2.4,9,3.6,13.5C216.3,45.4,217.1,49.5,214.7,52.2z"/>
	<path class="st11" d="M225.5,41.9c0,2.4-1.2,4.6-2.8,6.3s-3.6,3.1-6.1,4c1-2.7,4-4.6,4.1-7.5c0-1-0.3-1.9-0.7-2.8
		c-1.9-4.9-3.8-9.8-5.7-14.8c-0.4-1.1-0.9-2.3-0.8-3.5c0-1.2,0.6-2.5,1.7-2.9c3.2,5,6.2,10.2,8.7,15.5
		C224.7,38.1,225.5,39.9,225.5,41.9z"/>
	<path class="st11" d="M207.8,17.7c-2.1,0.1-3.6,3-5.7,3.8c-0.9,0.3-1.9,0.3-2.8,0.3c-2.5,0.2-5,1.3-6.8,3.1c-0.4,0.5-0.9,1-1.4,1.3
		c-1.1,0.7-2.6,0.4-3.7-0.2c-1.1-0.6-2-1.4-3.1-2.1c-3.7-2-8.7-0.7-12.8-2.2c-1.5-0.6-2.8-1.5-4.3-2.1c-2.3-1-5-1.2-7.5-1.8
		c-2.5-0.5-5.1-1.5-6.5-3.5c4-3.1,9.2-4.4,14.3-4.6c5-0.2,10,0.8,14.9,1.7c6.1,1.1,12.2,2.3,18.3,3.4
		C203.2,15.4,206,15.9,207.8,17.7z"/>
	<path class="st10" d="M119.6,47.1c-1.2,1.5-2.3,3-3.3,4.5c-6.8,10.1-11,21.9-11.9,34.1c-2.8-4.7-4.4-10.1-4.7-15.6l0,0
		c0,0,0,0.1-0.1,0.1c-8.4,12.9-13.6,27.7-15.1,43c-3.1-8.4-2.3-17.6,0.9-26.1c1.5-4.1,3.6-8,6-11.5C99,64.7,109.8,56.6,119.6,47.1z"
		/>
	<path class="st10" d="M163.6,120.5c-0.9,3.6-4.7,5-8.4,5.4c-3.4,0.4-7,0.3-10.6-1.2s-7.2-4.5-8.8-8.2c-0.1-0.3-0.2-0.6-0.3-0.9
		c-1.1-3.5-0.2-7.1,2-8.1c0.5,1.6,1.2,3.2,2.1,4.7c2.2,3.7,5.6,7,9.4,8.8C154.2,123.6,160,123.4,163.6,120.5z"/>
	<path class="st10" d="M241.5,117.9c8.9,4.9,17.3,10.7,24.9,17.2c1.8,1.5,3.5,3.1,4.6,5.1c1.1,2.2,1.3,4.7,1.4,7.1
		c0.1,2.8,0.5,6.3-0.4,9c-2.6-1.7-4.4-7.7-6.1-10.4c-2.2-3.5-4.6-6.9-7.1-10.2c-2.6-3.3-5.3-6.4-8.2-9.4
		C248,123.7,244.9,119.8,241.5,117.9z"/>
	<path class="st10" d="M116.7,269.2c1.1,7.9,4.3,15.2,9.2,21.2c0.9,1,2.3,1.4,3.5,0.9l77.5-33.9c1.3-11.7-3-21.9-12.2-25.7
		L118.5,266C117.2,266.6,116.5,267.9,116.7,269.2z"/>
	<path class="st12" d="M120.7,273.8l79.1-36"/>
	<path class="st10" d="M123.2,279.4l80.2-35.6"/>
	<g class="st1">
		<g>
			<defs>
				<rect id="SVGID_11_" x="50" y="162.2" width="235.3" height="178.5"/>
			</defs>
			<clipPath id="SVGID_12_">
				<use xlink:href="#SVGID_11_"  style="overflow:visible;"/>
			</clipPath>
			<g class="st13">
				<path class="st14" d="M123.2,279.4l80.2-35.6"/>
			</g>
		</g>
	</g>
	<path class="st15" d="M193.3,260.1L132,287.6c-1.5,0.7-3.7,0.2-4.7-1.1c-3.4-4-5.8-11.3-7.1-15.6c-0.5-1.9,0.4-3.9,2.2-4.8l72-32.7
		c0,0,12.1,5.7,10.1,21.3L193.3,260.1z"/>
	<path class="st10" d="M265.4,223.4c1,2.2,1.9,4.5,2.7,6.8c0.8,2.3,1.5,4.6,2.1,7c0.6,2.3,1.1,4.7,1.5,7.1c0.4,2.4,0.7,4.7,0.9,7.1
		c0.2,2.4,0.3,4.7,0.3,7.1s-0.1,4.7-0.3,7s-0.5,4.6-0.9,6.8c-0.4,2.2-0.9,4.4-1.5,6.6c-0.6,2.1-1.3,4.2-2.1,6.3
		c-0.8,2-1.7,4-2.7,5.9s-2,3.7-3.2,5.5c-1.1,1.8-2.4,3.4-3.7,5c-1.3,1.6-2.7,3.1-4.2,4.5s-3,2.7-4.6,3.9s-3.3,2.3-5,3.3
		s-3.5,1.9-5.3,2.7c-1.8,0.8-3.7,1.5-5.6,2.1c-1.9,0.6-3.9,1-5.8,1.4c-2,0.3-4,0.6-6,0.7s-4.1,0.1-6.1,0c-2.1-0.1-4.1-0.3-6.2-0.7
		c-2.1-0.3-4.1-0.8-6.2-1.4c-2.1-0.6-4.1-1.3-6.1-2.1c-2-0.8-4-1.7-6-2.7s-3.9-2.1-5.8-3.3c-1.9-1.2-3.8-2.5-5.6-3.9
		s-3.6-2.9-5.3-4.5s-3.4-3.3-5-5c-1.6-1.8-3.1-3.6-4.6-5.5s-2.8-3.9-4.2-5.9s-2.5-4.1-3.7-6.3c-1.1-2.1-2.2-4.3-3.2-6.6
		c-1-2.2-1.9-4.5-2.6-6.8c-0.8-2.3-1.5-4.6-2.1-7c-0.6-2.3-1.1-4.7-1.5-7.1c-0.4-2.4-0.7-4.7-0.9-7.1c-0.2-2.4-0.3-4.7-0.3-7.1
		s0.1-4.7,0.3-7s0.5-4.6,0.9-6.8s0.9-4.4,1.5-6.6c0.6-2.1,1.3-4.2,2.1-6.3s1.7-4,2.7-5.9s2-3.7,3.2-5.5c1.1-1.8,2.4-3.4,3.7-5
		s2.7-3.1,4.2-4.5s3-2.7,4.6-3.9s3.3-2.3,5-3.3s3.5-1.9,5.3-2.7s3.7-1.5,5.6-2.1c1.9-0.6,3.9-1,5.8-1.4c2-0.3,4-0.6,6-0.7
		c2-0.1,4.1-0.1,6.1,0c2.1,0.1,4.1,0.3,6.2,0.7c2.1,0.3,4.1,0.8,6.2,1.4c2.1,0.6,4.1,1.3,6.1,2.1s4,1.7,6,2.7s3.9,2.1,5.8,3.3
		c1.9,1.2,3.8,2.5,5.6,3.9s3.6,2.9,5.3,4.5s3.4,3.3,5,5c1.6,1.8,3.1,3.6,4.6,5.5s2.9,3.9,4.2,5.9s2.5,4.1,3.7,6.3
		C263.4,219,264.5,221.2,265.4,223.4z"/>
	<path class="st11" d="M179.4,182.4c-4.2,5.6-6.9,12.2-8.1,19.1c-1.3,6.8-1.1,13.9-0.1,20.7c2,13.8,7,27,13.3,39.4
		c6.4,12.3,14.8,23.7,25.3,32.8c5.2,4.5,11.1,8.5,17.5,11.1c3.2,1.3,6.5,2.3,10,2.9c3.4,0.5,7,0.7,10.4,0.3
		c-6.9,1.2-14.2,0.2-20.8-2.2c-6.6-2.5-12.7-6.4-18.2-10.8c-5.5-4.5-10.3-9.7-14.7-15.3c-4.3-5.6-8.2-11.5-11.5-17.8
		c-3.2-6.3-5.9-12.8-8.2-19.5c-2.2-6.7-4-13.6-4.8-20.6s-0.8-14.2,0.7-21.1C171.8,194.4,174.9,187.8,179.4,182.4z"/>
	<path class="st11" d="M226.2,314.5c-2.7-0.9-6.7-0.5-9.5-1c-31.2-5.9-52.9-32.9-59.9-62.7c-4.3-18.2-2.9-38.4,8.5-53.8
		c0.8-1.1,1.6-2.1,2.5-3c-1.4,1.4-1.9,5.3-2.4,7.1c-1.7,6.3-2.6,12.7-2.8,19.2c-0.8,33,19.9,65.5,45,85.2
		C207.7,305.4,221.9,313.6,226.2,314.5z"/>
	<path class="st11" d="M183,211.5c0.1-2.2,0.2-4.3,0.6-6.5c0.3-2.2,0.9-4.3,1.6-6.4c1.5-4.1,3.9-8.1,7.5-10.8
		c3.6-2.8,8.2-4.2,12.7-4.3c4.5,0,9,1.2,13.1,2.9c4.1,1.8,7.9,4.1,11.4,6.8s6.8,5.7,9.8,9c6,6.5,10.9,13.9,15,21.7
		c4,7.9,7,16.2,8.7,24.9c0.8,4.3,1.3,8.8,1.3,13.2c0,2.2-0.1,4.4-0.4,6.7c-0.3,2.2-0.7,4.4-1.4,6.6c-1.3,4.3-3.3,8.5-6.5,11.8
		c-3.2,3.3-7.5,5.4-12,5.9s-9-0.3-13.1-1.8s-7.9-3.8-11.4-6.4c3.7,2.3,7.6,4.3,11.7,5.6c4.1,1.3,8.4,1.8,12.6,1.1
		c4.1-0.7,7.9-2.8,10.7-5.8c2.8-3.1,4.6-6.9,5.7-11c2.1-8.2,1.6-16.9-0.1-25.2c-1.7-8.4-4.7-16.5-8.6-24.1
		c-3.9-7.6-8.6-14.8-14.4-21.2c-5.7-6.4-12.3-11.9-20-15.5c-3.8-1.8-7.9-2.9-12.1-3.1c-4.2-0.2-8.3,1-11.7,3.4s-6,6-7.7,9.9
		C184.3,202.9,183.4,207.2,183,211.5z"/>
	<path class="st11" d="M246.3,238.5c0.4,1.9,0.6,3.9,0.5,5.9s-0.4,4-1.3,5.8c-0.8,1.8-2.4,3.5-4.4,4.3s-4.2,0.8-6.2,0.3
		s-3.9-1.4-5.6-2.5c-1.7-1.1-3.3-2.4-4.7-3.8c-2.9-2.8-5.2-6.1-7.2-9.6c-1.9-3.5-3.5-7.2-4.4-11.1c-0.5-1.9-0.7-3.9-0.8-6
		c-0.1-2,0.1-4.1,0.5-6.1c0.5-2,1.4-4,2.9-5.5c0.4-0.3,0.8-0.8,1.2-1c0.5-0.3,0.9-0.6,1.4-0.8c1-0.4,2-0.6,3.1-0.6
		c2.1,0,4,0.6,5.8,1.5s3.4,2.1,4.8,3.4c-1.6-1.1-3.3-2.1-5-2.9c-1.8-0.7-3.7-1.2-5.5-1c-0.9,0.1-1.8,0.3-2.6,0.7
		c-0.4,0.2-0.8,0.5-1.1,0.7c-0.4,0.2-0.7,0.6-1,0.9c-1.2,1.3-1.9,3.1-2.3,4.9c-0.7,3.6-0.3,7.5,0.7,11.2c0.9,3.7,2.4,7.3,4.3,10.6
		c1.8,3.3,4.1,6.5,6.7,9.2c1.3,1.4,2.8,2.6,4.3,3.7c1.6,1,3.2,1.9,5,2.4s3.6,0.6,5.3,0s3.1-1.9,4-3.5s1.4-3.5,1.7-5.4
		C246.5,242.4,246.5,240.5,246.3,238.5z"/>
	<path class="st10" d="M224.5,216.7c1.8,9.1,6.1,18.1,12.3,24.8l75.1-33c-5.1-7.9-9.3-16.6-12.2-25.7L224.5,216.7z"/>
	<path class="st12" d="M225.6,225l68-31.5"/>
	<path class="st16" d="M228.1,230.6l68.6-31.6"/>
	<path class="st10" d="M396,161.2c1.1,2.5,2.1,5,3,7.5s1.7,5.1,2.5,7.6c0.7,2.6,1.4,5.1,1.9,7.7c0.6,2.6,1,5.1,1.4,7.7
		c0.4,2.6,0.6,5.1,0.8,7.6s0.3,5,0.2,7.4c0,2.5-0.1,4.9-0.3,7.2c-0.2,2.4-0.5,4.7-0.9,6.9c-0.4,2.3-0.9,4.4-1.5,6.6
		c-0.6,2.1-1.3,4.2-2,6.1c-0.8,2-1.6,3.9-2.6,5.7c-0.9,1.8-2,3.5-3.1,5.1s-2.3,3.1-3.6,4.5c-1.3,1.4-2.6,2.7-4,3.9s-2.9,2.3-4.4,3.2
		c-1.5,0.9-3.1,1.8-4.8,2.5c-1.6,0.7-3.3,1.3-5.1,1.8c-1.7,0.5-3.5,0.8-5.4,1.1s-3.7,0.3-5.6,0.3s-3.8-0.2-5.7-0.5
		c-1.9-0.3-3.9-0.7-5.8-1.2c-2-0.5-3.9-1.2-5.9-1.9c-2-0.8-3.9-1.7-5.9-2.7c-2-1-3.9-2.1-5.8-3.4c-1.9-1.2-3.8-2.6-5.7-4
		c-1.9-1.5-3.7-3-5.5-4.7s-3.6-3.4-5.3-5.2c-1.7-1.8-3.4-3.8-5-5.8s-3.2-4.1-4.7-6.2c-1.5-2.2-3-4.4-4.3-6.6c-1.4-2.3-2.7-4.6-3.9-7
		c-1.2-2.4-2.4-4.8-3.5-7.3s-2.1-5-3-7.5s-1.7-5.1-2.5-7.6c-0.7-2.6-1.4-5.1-1.9-7.7c-0.6-2.6-1-5.1-1.4-7.7
		c-0.4-2.6-0.6-5.1-0.8-7.6c-0.2-2.5-0.3-5-0.2-7.4c0-2.4,0.1-4.9,0.3-7.2c0.2-2.4,0.5-4.7,0.9-6.9c0.4-2.3,0.9-4.4,1.5-6.6
		c0.6-2.1,1.3-4.2,2-6.1c0.8-2,1.6-3.9,2.6-5.7c0.9-1.8,2-3.5,3.1-5.1s2.3-3.1,3.6-4.5c1.3-1.4,2.6-2.7,4-3.9s2.9-2.3,4.4-3.2
		c1.5-1,3.1-1.8,4.8-2.5c1.6-0.7,3.3-1.3,5.1-1.8c1.7-0.5,3.5-0.8,5.4-1.1c1.8-0.2,3.7-0.3,5.6-0.3s3.8,0.2,5.7,0.5
		c1.9,0.3,3.9,0.7,5.8,1.2c2,0.5,3.9,1.2,5.9,1.9c2,0.8,3.9,1.7,5.9,2.7s3.9,2.1,5.8,3.4c1.9,1.2,3.8,2.6,5.7,4
		c1.9,1.4,3.7,3,5.5,4.7s3.6,3.4,5.3,5.2c1.7,1.8,3.4,3.8,5,5.8s3.2,4.1,4.7,6.2c1.5,2.2,3,4.4,4.3,6.6c1.4,2.3,2.7,4.6,3.9,7
		C393.8,156.3,394.9,158.7,396,161.2z"/>
	<path class="st15" d="M289.5,188.8l-62.2,28.5c-1.8,0.8-2.7,2.8-2.2,4.8c1.2,4.3,3.7,11.7,7.2,15.7c1.1,1.3,3,1.7,4.6,0.9
		l61.3-27.5"/>
	<path class="st11" d="M320.6,115.6c-4.4,5.2-7.5,11.4-9.1,17.9c-1.7,6.5-2,13.3-1.6,20c1,13.5,4.8,26.6,10.1,39
		c5.3,12.4,12.6,24,22.1,33.6c4.7,4.8,10.1,9,16.1,12c3,1.5,6.2,2.7,9.5,3.5s6.7,1.1,10.1,1c-6.8,0.7-13.7-0.8-20-3.6
		c-6.2-2.9-11.8-7.1-16.8-11.8s-9.3-10.2-13.1-15.9c-3.8-5.7-7.1-11.8-9.8-18.1c-2.6-6.3-4.8-12.8-6.5-19.5
		c-1.7-6.6-2.9-13.4-3.2-20.3c-0.3-6.8,0.2-13.8,2.2-20.4C312.5,126.7,315.9,120.5,320.6,115.6z"/>
	<path class="st11" d="M356.6,246.9c-2.5-1.1-6.4-0.9-9.1-1.6c-29.7-7.9-48.7-35.5-53.4-64.9c-2.8-17.9-0.2-37.4,11.9-51.6
		c0.8-1,1.7-1.9,2.6-2.8c-1.4,1.2-2.2,5-2.8,6.7c-2.1,5.9-3.4,12.2-4,18.4c-3,31.9,14.6,64.9,37.5,85.7
		C339.4,236.8,352.5,245.7,356.6,246.9z"/>
	<path class="st11" d="M367.8,215.6c-1.7-0.7-4.2-0.6-6-1.1c-19.6-5.2-32.2-23.5-35.3-42.9c-1.9-11.8-0.1-24.7,7.9-34.1
		c0.5-0.6,1.1-1.3,1.7-1.8c-0.9,0.8-1.5,3.3-1.8,4.4c-1.4,3.9-2.2,8-2.6,12.2c-2,21.1,9.7,42.9,24.8,56.6
		C356.3,209,365,214.9,367.8,215.6z"/>
	<path class="st11" d="M322.1,144c0.2-2.1,0.5-4.2,1-6.3s1.2-4.1,2-6c1.7-3.9,4.3-7.5,8-10c3.6-2.5,8.2-3.6,12.5-3.3
		c4.4,0.3,8.6,1.7,12.4,3.7s7.4,4.5,10.6,7.4c3.2,2.9,6.1,6,8.8,9.4c5.3,6.7,9.6,14.2,12.9,22.1c3.3,7.9,5.6,16.2,6.7,24.7
		c0.5,4.3,0.6,8.6,0.3,12.9c-0.2,2.2-0.4,4.3-0.8,6.4c-0.4,2.1-1,4.2-1.7,6.3c-1.5,4.1-3.8,8-7.1,11c-3.3,3-7.6,4.8-12,5
		s-8.7-0.9-12.5-2.7c-3.9-1.8-7.4-4.2-10.6-7c3.4,2.5,7,4.7,10.9,6.2s8,2.4,12.1,1.9c4-0.4,7.9-2.2,10.7-5c2.9-2.8,4.9-6.4,6.2-10.3
		c2.6-7.8,2.7-16.2,1.6-24.4s-3.3-16.3-6.6-23.9c-3.2-7.7-7.3-15-12.4-21.5c-5-6.6-11.1-12.4-18.2-16.5c-3.6-2-7.5-3.4-11.5-3.8
		s-8.1,0.4-11.6,2.5s-6.2,5.4-8,9.1C323.9,135.7,322.8,139.8,322.1,144z"/>
	<path class="st11" d="M381.3,174.6c0.2,1.9,0.3,3.8,0.1,5.7c-0.2,1.9-0.7,3.8-1.6,5.6c-0.9,1.7-2.5,3.3-4.5,3.9
		c-2,0.7-4.1,0.5-6-0.1s-3.6-1.6-5.2-2.8c-1.5-1.2-3-2.6-4.3-4c-2.6-2.9-4.6-6.3-6.3-9.8c-1.6-3.5-2.8-7.2-3.4-11.1
		c-0.3-1.9-0.4-3.9-0.4-5.8c0-2,0.3-3.9,0.9-5.8c0.6-1.9,1.6-3.8,3.1-5.1c0.8-0.7,1.7-1.2,2.6-1.6c1-0.3,2-0.5,3-0.4
		c2,0.1,3.9,0.9,5.5,1.9c1.7,1,3.1,2.3,4.4,3.6c-1.5-1.2-3-2.3-4.7-3.1s-3.5-1.4-5.3-1.3c-0.9,0-1.8,0.2-2.6,0.5
		c-0.8,0.3-1.5,0.8-2.1,1.4c-1.2,1.2-2,2.9-2.5,4.6c-0.9,3.5-0.8,7.3-0.1,10.9c0.6,3.6,1.8,7.2,3.4,10.5c1.5,3.4,3.5,6.6,5.9,9.4
		c1.2,1.4,2.5,2.7,3.9,3.9c1.4,1.1,3,2.1,4.6,2.7c1.7,0.6,3.5,0.8,5.1,0.4c1.7-0.4,3.1-1.6,4.1-3.1s1.6-3.3,2-5.1
		C381.1,178.3,381.3,176.4,381.3,174.6z"/>
	<path class="st10" d="M361.3,150.8c1.8,9.1,6.1,18.1,12.3,24.8l75.1-33c1.3-11.7-3-22-12.2-25.7L361.3,150.8z"/>
	<path class="st10" d="M362.4,159.2l79.1-36"/>
	<g class="st1">
		<g>
			<defs>
				<rect id="SVGID_13_" x="329.3" y="90.2" width="120.7" height="102.7"/>
			</defs>
			<clipPath id="SVGID_14_">
				<use xlink:href="#SVGID_13_"  style="overflow:visible;"/>
			</clipPath>
			<g class="st17">
				<path class="st18" d="M362.4,159.2l79.1-36"/>
			</g>
		</g>
	</g>
	<path class="st10" d="M364.9,164.8l80.2-35.6"/>
	<g class="st1">
		<g>
			<defs>
				<rect id="SVGID_15_" x="282.7" y="47.5" width="167.3" height="198.7"/>
			</defs>
			<clipPath id="SVGID_16_">
				<use xlink:href="#SVGID_15_"  style="overflow:visible;"/>
			</clipPath>
			<g class="st19">
				<path class="st14" d="M364.9,164.8l80.2-35.6"/>
			</g>
		</g>
	</g>
	<g class="st1">
		<g>
			<defs>
				<rect id="SVGID_17_" x="346.7" y="103.5" width="103.3" height="85.3"/>
			</defs>
			<clipPath id="SVGID_18_">
				<use xlink:href="#SVGID_17_"  style="overflow:visible;"/>
			</clipPath>
			<g class="st20">
				<path class="st21" d="M435,145.4l-61.3,27.5c-1.6,0.7-3.5,0.4-4.6-0.9c-3.5-4-5.9-11.4-7.2-15.7c-0.5-1.9,0.4-3.9,2.2-4.8
					l72-32.7c0,0,12.1,5.7,10.1,21.3L435,145.4z"/>
			</g>
		</g>
	</g>
	<path class="st10" d="M270,109.6c0-0.3,0-0.4,0-0.4C270.1,109.3,270.1,109.5,270,109.6z"/>
	<path class="st11" d="M280,115.4c-3.4,6.9-7.3,11.3-10.8,21.5c-5.9,17.1-7.5,34.9-9.3,52.8c3.7-2.8,8-4.8,12.5-5.9
		c-0.8-10.9-1.4-21.8-1-32.7S276.3,125.7,280,115.4"/>
	<path class="st11" d="M241.1,165.8c-6.7-11.5-19.8-19.1-33.2-18.9c1.5,1.5,2.5,2.6,4,4.1c2,2,4.1,4.1,6.7,5.4
		c1.8,0.9,3.8,1.4,5.8,1.9c2.7,0.7,5.3,1.3,8,2C235.6,161.1,239.4,163.9,241.1,165.8z"/>
	<g class="st1">
		<g transform="translate(13.031254, 312.473711)">
			<g>
				<path class="st4" d="M31.6,21.9v8.4H16.9v8.3h13.5V47H16.9v16.8H7.4V21.9H31.6z"/>
			</g>
		</g>
	</g>
	<g class="st1">
		<g transform="translate(34.572855, 312.473711)">
			<g>
				<path class="st4" d="M24.1,21.9v41.8h-9.5V21.9H24.1z"/>
			</g>
		</g>
	</g>
	<g class="st1">
		<g transform="translate(46.274461, 312.473711)">
			<g>
				<path class="st4" d="M15.8,30.3v-8.4h29.4v8.4h-9.9v33.4h-9.5V30.3H15.8z"/>
			</g>
		</g>
	</g>
	<g class="st1">
		<g transform="translate(68.917831, 312.473711)">
			<g>
				<path class="st4" d="M60.6,63.7l-2-24.8h-0.3l-8.6,24.5H44l-8.6-24.5h-0.3l-2,24.8h-9.5l3.8-41.8h10.1L46.9,46l9.3-24.1h10.1
					l3.8,41.8C70.1,63.7,60.6,63.7,60.6,63.7z"/>
			</g>
		</g>
	</g>
	<g class="st1">
		<g transform="translate(104.858491, 312.473711)">
			<g>
				<path class="st4" d="M59.2,21.9l16.9,41.8H65.9l-3.1-8.4H46.9l-3.1,8.4H33.5l16.9-41.8C50.4,21.9,59.2,21.9,59.2,21.9z M59.5,47
					l-4.7-12.1h-0.1L50.1,47H59.5z"/>
			</g>
		</g>
	</g>
	<g class="st1">
		<g transform="translate(134.644404, 312.473711)">
			<g>
				<path class="st4" d="M57.4,37.8v25.9h-9.5V21.9h9.5L74,47.8h0.1V21.9h9.5v41.8h-9.5L57.4,37.8L57.4,37.8z"/>
			</g>
		</g>
	</g>
	<g class="st1">
		<g transform="translate(166.02599, 312.473711)">
			<g>
				<path class="st4" d="M79.6,21.9l16.9,41.8H86.3l-3.1-8.4H67.3l-3.1,8.4H53.9l16.9-41.8C70.8,21.9,79.6,21.9,79.6,21.9z M79.9,47
					l-4.7-12.1h-0.1L70.5,47H79.9z"/>
			</g>
		</g>
	</g>
	<g class="st1">
		<g transform="translate(195.811904, 312.473711)">
			<g>
				<path class="st4" d="M106.1,40.3v9.1c-1.1,5-3.5,8.7-7.1,11.3c-3.6,2.5-7.7,3.8-12.2,3.8c-5.7,0-10.5-2.1-14.4-6.3
					c-4-4.2-5.9-9.3-5.9-15.3c0-6.1,1.9-11.2,5.8-15.4s8.7-6.3,14.6-6.3c6.8,0,12.1,2.4,16.1,7.1l-6.2,6.8c-2.2-3.6-5.3-5.4-9.3-5.4
					c-2.9,0-5.4,1.3-7.5,3.8s-3.1,5.6-3.1,9.2c0,3.5,1,6.6,3.1,9.1s4.6,3.8,7.5,3.8c2.4,0,4.5-0.7,6.4-2.2c1.8-1.5,2.7-3.4,2.7-5.9
					H87v-7.4h19.1V40.3z"/>
			</g>
		</g>
	</g>
	<g class="st1">
		<g transform="translate(227.307484, 312.473711)">
			<g>
				<path class="st4" d="M102.7,21.9v8.4H88.3v8.3h13.8V47H88.3v8.4h14.4v8.4H78.8V21.9H102.7z"/>
			</g>
		</g>
	</g>
	<g class="st1">
		<g transform="translate(249.34299, 312.473711)">
		</g>
	</g>
	<g class="st1">
		<g transform="translate(259.714861, 312.473711)">
			<g>
				<path class="st4" d="M87,30.3v-8.4h29.4v8.4h-9.9v33.4H97V30.3H87z"/>
			</g>
		</g>
	</g>
	<g class="st1">
		<g transform="translate(282.358231, 312.473711)">
			<g>
				<path class="st4" d="M121.1,21.9v8.4h-14.4v8.3h13.8V47h-13.8v8.4h14.4v8.4H97.2V21.9H121.1z"/>
			</g>
		</g>
	</g>
	<g class="st1">
		<g transform="translate(304.393736, 312.473711)">
			<g>
				<path class="st4" d="M126.8,55.1c1.4,0,2.8-0.2,4.2-0.7c1.4-0.4,2.4-0.9,3-1.3l1-0.6l4,8.1c-0.1,0.1-0.3,0.2-0.6,0.4
					c-0.2,0.2-0.8,0.5-1.6,0.9c-0.9,0.5-1.8,0.9-2.8,1.2s-2.3,0.6-3.8,0.9c-1.6,0.3-3.2,0.4-4.9,0.4c-3.9,0-7.6-0.9-11.1-2.9
					c-3.5-1.9-6.3-4.5-8.4-7.9c-2.1-3.3-3.2-7-3.2-10.9c0-2.9,0.6-5.7,1.9-8.4s2.9-5,5-7c2.1-1.9,4.5-3.5,7.3-4.6
					c2.8-1.2,5.6-1.7,8.5-1.7c2.7,0,5.2,0.3,7.5,1c2.3,0.6,3.9,1.3,4.8,1.9l1.4,1l-4,8.1c-0.2-0.2-0.6-0.4-1.1-0.7s-1.4-0.7-2.8-1.1
					c-1.4-0.5-2.8-0.7-4.3-0.7c-2.3,0-4.4,0.4-6.2,1.1c-1.8,0.7-3.3,1.7-4.3,2.9c-1.1,1.2-1.9,2.5-2.4,3.9c-0.6,1.4-0.8,2.8-0.8,4.3
					c0,3.2,1.2,6,3.6,8.5C118.9,53.8,122.3,55.1,126.8,55.1z"/>
			</g>
		</g>
	</g>
	<g class="st1">
		<g transform="translate(333.001904, 312.473711)">
			<g>
				<path class="st4" d="M123.6,46.9v16.8H114V21.9h9.5v16.7H137V21.9h9.5v41.8H137V46.9H123.6z"/>
			</g>
		</g>
	</g>
	<g class="st1">
		<g transform="translate(26.99326, 334.641832)">
			<g>
				<path class="st9" d="M16,71.1h-2.1L9,59h2.2l3.8,9.9l3.8-9.9h2.1L16,71.1z"/>
			</g>
		</g>
	</g>
	<g class="st1">
		<g transform="translate(39.509519, 334.641832)">
			<g>
				<path class="st9" d="M15.6,60.7c1.2-1.2,2.8-1.8,4.6-1.8c1.8,0,3.3,0.6,4.6,1.8c1.2,1.2,1.9,2.6,1.9,4.4c0,1.7-0.6,3.2-1.9,4.4
					c-1.2,1.2-2.8,1.8-4.6,1.8c-1.8,0-3.3-0.6-4.6-1.8c-1.2-1.2-1.9-2.6-1.9-4.4C13.8,63.3,14.4,61.8,15.6,60.7z M20.2,60.7
					c-1.2,0-2.2,0.4-3.1,1.3c-0.8,0.8-1.3,1.8-1.3,3s0.4,2.2,1.3,3.1c0.9,0.8,1.9,1.3,3.1,1.3s2.2-0.4,3.1-1.3
					c0.8-0.8,1.3-1.9,1.3-3.1s-0.4-2.2-1.3-3C22.4,61.2,21.4,60.7,20.2,60.7z"/>
			</g>
		</g>
	</g>
	<g class="st1">
		<g transform="translate(53.58531, 334.641832)">
			<g>
				<path class="st9" d="M24.8,58.9c0.9,0,1.7,0.2,2.5,0.5s1.5,0.8,2.1,1.4l-1.2,1.5c-0.4-0.5-1-0.9-1.6-1.1
					c-0.6-0.3-1.2-0.4-1.8-0.4c-1.2,0-2.2,0.4-3.1,1.3c-0.8,0.8-1.3,1.8-1.3,3c0,1.2,0.4,2.2,1.3,3.1c0.8,0.8,1.9,1.2,3.1,1.2
					c1.3,0,2.4-0.5,3.4-1.4l1.2,1.3c-0.6,0.6-1.4,1.1-2.2,1.5c-0.8,0.3-1.7,0.5-2.5,0.5c-1.8,0-3.3-0.6-4.5-1.8
					c-1.2-1.2-1.8-2.6-1.8-4.4c0-1.7,0.6-3.2,1.9-4.3C21.5,59.5,23,58.9,24.8,58.9z"/>
			</g>
		</g>
	</g>
	<g class="st1">
		<g transform="translate(66.19255, 334.641832)">
			<g>
				<path class="st9" d="M30.7,57.6h-1.6L28,56.1l-1,1.5h-1.6l1.8-2.4H29L30.7,57.6z M32.3,60.8h-6.6v3.3h5.9v1.8h-5.9v3.4h6.8v1.8
					h-8.9V59h8.7V60.8z"/>
			</g>
		</g>
	</g>
	<g class="st1">
		<g transform="translate(78.266953, 334.641832)">
		</g>
	</g>
	<g class="st1">
		<g transform="translate(85.168936, 334.641832)">
			<g>
				<path class="st9" d="M42.8,71.1h-1.9V62l-3.8,7.8h-1.3L31.9,62v9.1H30V59h2.4l4,8l4-8h2.4C42.8,59,42.8,71.1,42.8,71.1z"/>
			</g>
		</g>
	</g>
	<g class="st1">
		<g transform="translate(100.739268, 334.641832)">
			<g>
				<path class="st9" d="M43,68.4h-6.1l-1.2,2.7h-2.1L39,59h2.1l5.3,12.1h-2.2L43,68.4z M42.2,66.5l-2.3-5.4l-2.3,5.4H42.2z"/>
			</g>
		</g>
	</g>
	<g class="st1">
		<g transform="translate(113.879345, 334.641832)">
			<g>
				<path class="st9" d="M41.6,71.1h-2V59h2V71.1z"/>
			</g>
		</g>
	</g>
	<g class="st1">
		<g transform="translate(121.353154, 334.641832)">
			<g>
				<path class="st9" d="M46,58.9c1.6,0,3,0.4,4.3,1.3L49.4,62c-1.2-0.8-2.4-1.1-3.6-1.1c-0.6,0-1.1,0.1-1.4,0.3
					c-0.3,0.2-0.5,0.5-0.5,0.9s0.2,0.7,0.5,1s0.7,0.5,1.2,0.6s1,0.3,1.6,0.5c0.6,0.2,1.1,0.4,1.6,0.6s0.9,0.6,1.2,1.1
					s0.5,1.1,0.5,1.7c0,1.1-0.4,1.9-1.3,2.6c-0.8,0.6-1.9,0.9-3.3,0.9c-0.9,0-1.8-0.2-2.7-0.5s-1.6-0.8-2.3-1.4l0.9-1.8
					c0.6,0.6,1.3,1,2,1.3s1.4,0.5,2.1,0.5c0.7,0,1.3-0.1,1.7-0.4s0.6-0.6,0.6-1.1c0-0.4-0.2-0.8-0.5-1c-0.3-0.3-0.7-0.5-1.2-0.6
					s-1-0.3-1.6-0.5s-1.1-0.4-1.6-0.6s-0.9-0.6-1.2-1c-0.3-0.5-0.5-1-0.5-1.7c0-1,0.4-1.8,1.2-2.5C43.6,59.2,44.7,58.9,46,58.9z"/>
			</g>
		</g>
	</g>
	<g class="st1">
		<g transform="translate(132.985695, 334.641832)">
		</g>
	</g>
	<g class="st1">
		<g transform="translate(139.887684, 334.641832)">
			<g>
				<path class="st9" d="M56.5,60.8h-3.8v10.3h-2.1V60.8h-3.8V59h9.7C56.5,59,56.5,60.8,56.5,60.8z"/>
			</g>
		</g>
	</g>
	<g class="st1">
		<g transform="translate(150.961398, 334.641832)">
			<g>
				<path class="st9" d="M60.6,60.8H54v3.3h5.9v1.8H54v3.4h6.8v1.8h-8.9V59h8.7C60.6,59,60.6,60.8,60.6,60.8z"/>
			</g>
		</g>
	</g>
	<g class="st1">
		<g transform="translate(163.035807, 334.641832)">
			<g>
				<path class="st9" d="M61.3,58.9c0.9,0,1.7,0.2,2.5,0.5s1.5,0.8,2.1,1.4l-1.2,1.5c-0.4-0.5-1-0.9-1.6-1.1
					c-0.6-0.3-1.2-0.4-1.8-0.4c-1.2,0-2.2,0.4-3.1,1.3c-0.8,0.8-1.3,1.8-1.3,3c0,1.2,0.4,2.2,1.3,3.1c0.8,0.8,1.9,1.2,3.1,1.2
					c1.3,0,2.4-0.5,3.4-1.4l1.2,1.3c-0.6,0.6-1.4,1.1-2.2,1.5c-0.8,0.3-1.7,0.5-2.5,0.5c-1.8,0-3.3-0.6-4.5-1.8
					c-1.2-1.2-1.8-2.6-1.8-4.4c0-1.7,0.6-3.2,1.9-4.3C58,59.5,59.5,58.9,61.3,58.9z"/>
			</g>
		</g>
	</g>
	<g class="st1">
		<g transform="translate(175.643053, 334.641832)">
			<g>
				<path class="st9" d="M70.7,71.1h-2.1v-5h-6.4v5h-2V59h2v5.3h6.4V59h2.1V71.1z"/>
			</g>
		</g>
	</g>
	<g class="st1">
		<g transform="translate(189.47191, 334.641832)">
			<g>
				<path class="st9" d="M65.1,69c0.3,0,0.5,0.1,0.7,0.3c0.2,0.2,0.3,0.5,0.3,0.8S66,70.7,65.8,71l-1,1.5h-1l0.7-1.5
					c-0.3-0.2-0.5-0.5-0.5-0.9c0-0.3,0.1-0.6,0.3-0.8S64.7,69,65.1,69z"/>
			</g>
		</g>
	</g>
	<g class="st1">
		<g transform="translate(195.802071, 334.641832)">
		</g>
	</g>
	<g class="st1">
		<g transform="translate(202.70406, 334.641832)">
			<g>
				<path class="st9" d="M74.6,71.1h-2.1L67.6,59h2.2l3.8,9.9l3.8-9.9h2.1L74.6,71.1z"/>
			</g>
		</g>
	</g>
	<g class="st1">
		<g transform="translate(215.220313, 334.641832)">
			<g>
				<path class="st9" d="M74.2,60.7c1.2-1.2,2.8-1.8,4.6-1.8c1.8,0,3.3,0.6,4.6,1.8c1.2,1.2,1.9,2.6,1.9,4.4c0,1.7-0.6,3.2-1.9,4.4
					c-1.2,1.2-2.8,1.8-4.6,1.8c-1.8,0-3.3-0.6-4.6-1.8c-1.2-1.2-1.9-2.6-1.9-4.4C72.3,63.3,72.9,61.8,74.2,60.7z M78.8,60.7
					c-1.2,0-2.2,0.4-3.1,1.3c-0.8,0.8-1.3,1.8-1.3,3s0.4,2.2,1.3,3.1c0.9,0.8,1.9,1.3,3.1,1.3s2.2-0.4,3.1-1.3
					c0.8-0.8,1.3-1.9,1.3-3.1s-0.4-2.2-1.3-3S80,60.7,78.8,60.7z"/>
			</g>
		</g>
	</g>
	<g class="st1">
		<g transform="translate(229.296111, 334.641832)">
			<g>
				<path class="st9" d="M83.4,58.9c0.9,0,1.7,0.2,2.5,0.5s1.5,0.8,2.1,1.4l-1.2,1.5c-0.4-0.5-1-0.9-1.6-1.1
					c-0.6-0.3-1.2-0.4-1.8-0.4c-1.2,0-2.2,0.4-3.1,1.3c-0.8,0.8-1.3,1.8-1.3,3c0,1.2,0.4,2.2,1.3,3.1c0.8,0.8,1.9,1.2,3.1,1.2
					c1.3,0,2.4-0.5,3.4-1.4l1.2,1.3c-0.6,0.6-1.4,1.1-2.2,1.5c-0.8,0.3-1.7,0.5-2.5,0.5c-1.8,0-3.3-0.6-4.5-1.8
					C77.6,68.2,77,66.8,77,65c0-1.7,0.6-3.2,1.9-4.3C80.1,59.5,81.6,58.9,83.4,58.9z"/>
			</g>
		</g>
	</g>
	<g class="st1">
		<g transform="translate(241.903356, 334.641832)">
			<g>
				<path class="st9" d="M89.3,57.6h-1.6l-1.1-1.5l-1.1,1.5h-1.6l1.8-2.4h1.8L89.3,57.6z M90.9,60.8h-6.6v3.3h5.9v1.8h-5.9v3.4h6.8
					v1.8h-8.9V59h8.7V60.8z"/>
			</g>
		</g>
	</g>
	<g class="st1">
		<g transform="translate(253.977765, 334.641832)">
		</g>
	</g>
	<g class="st1">
		<g transform="translate(260.879742, 334.641832)">
			<g>
				<path class="st9" d="M101.4,71.1h-1.9V62l-3.8,7.8h-1.3L90.5,62v9.1h-1.9V59H91l4,8l4-8h2.4V71.1z"/>
			</g>
		</g>
	</g>
	<g class="st1">
		<g transform="translate(276.450069, 334.641832)">
			<g>
				<path class="st9" d="M101.6,68.4h-6.1l-1.2,2.7h-2.1L97.5,59h2.1l5.3,12.1h-2.2L101.6,68.4z M100.8,66.5l-2.3-5.4l-2.3,5.4
					H100.8z"/>
			</g>
		</g>
	</g>
	<g class="st1">
		<g transform="translate(289.590151, 334.641832)">
			<g>
				<path class="st9" d="M100.2,71.1h-2V59h2V71.1z"/>
			</g>
		</g>
	</g>
	<g class="st1">
		<g transform="translate(297.063967, 334.641832)">
			<g>
				<path class="st9" d="M104.6,58.9c1.6,0,3,0.4,4.3,1.3L108,62c-1.2-0.8-2.4-1.1-3.6-1.1c-0.6,0-1.1,0.1-1.4,0.3s-0.5,0.5-0.5,0.9
					s0.2,0.7,0.5,1s0.7,0.5,1.2,0.6s1,0.3,1.6,0.5c0.6,0.2,1.1,0.4,1.6,0.6s0.9,0.6,1.2,1.1c0.3,0.5,0.5,1.1,0.5,1.7
					c0,1.1-0.4,1.9-1.3,2.6c-0.8,0.6-1.9,0.9-3.3,0.9c-0.9,0-1.8-0.2-2.7-0.5c-0.9-0.3-1.6-0.8-2.3-1.4l0.9-1.8c0.6,0.6,1.3,1,2,1.3
					s1.4,0.5,2.1,0.5s1.3-0.1,1.7-0.4c0.4-0.3,0.6-0.6,0.6-1.1c0-0.4-0.2-0.8-0.5-1c-0.3-0.3-0.7-0.5-1.2-0.6s-1-0.3-1.6-0.5
					s-1.1-0.4-1.6-0.6s-0.9-0.6-1.2-1c-0.3-0.5-0.5-1-0.5-1.7c0-1,0.4-1.8,1.2-2.5C102.2,59.2,103.3,58.9,104.6,58.9z"/>
			</g>
		</g>
	</g>
	<g class="st1">
		<g transform="translate(308.696496, 334.641832)">
		</g>
	</g>
	<g class="st1">
		<g transform="translate(315.598473, 334.641832)">
			<g>
				<path class="st9" d="M114.9,60.8h-6.1v3.5h5.5v1.8h-5.5v5h-2V59h8.1V60.8z"/>
			</g>
		</g>
	</g>
	<g class="st1">
		<g transform="translate(326.620186, 334.641832)">
			<g>
				<path class="st9" d="M112.5,71.1h-2V59h2V71.1z"/>
			</g>
		</g>
	</g>
	<g class="st1">
		<g transform="translate(334.094001, 334.641832)">
			<g>
				<path class="st9" d="M121.2,60.8h-3.8v10.3h-2.1V60.8h-3.8V59h9.7C121.2,59,121.2,60.8,121.2,60.8z"/>
			</g>
		</g>
	</g>
	<g class="st1">
		<g transform="translate(345.167716, 334.641832)">
			<g>
				<path class="st9" d="M116.2,69.3c0.2-0.2,0.5-0.3,0.8-0.3s0.6,0.1,0.8,0.3s0.3,0.5,0.3,0.8s-0.1,0.6-0.3,0.8
					c-0.2,0.2-0.5,0.3-0.8,0.3s-0.6-0.1-0.8-0.3c-0.2-0.2-0.3-0.5-0.3-0.8S116,69.5,116.2,69.3z"/>
			</g>
		</g>
	</g>
</g>
<g id="Camada_2">
	<g>
		<defs>
			<rect id="SVGID_19_" x="125.3" y="18.5" width="269.9" height="269.9"/>
		</defs>
		<clipPath id="SVGID_20_">
			<use xlink:href="#SVGID_19_"  style="overflow:visible;"/>
		</clipPath>
		<g class="st22">
			<g>
				<defs>
					<circle id="SVGID_21_" cx="260.3" cy="153.5" r="135"/>
				</defs>
				<clipPath id="SVGID_22_">
					<use xlink:href="#SVGID_21_"  style="overflow:visible;"/>
				</clipPath>
				<g class="st23">
					<path class="st4" d="M125.3,18.5h269.9v269.9H125.3V18.5z"/>
				</g>
			</g>
		</g>
	</g>
	<g>
		<defs>
			<rect id="SVGID_23_" x="115.2" y="37.9" width="269.9" height="269.9"/>
		</defs>
		<clipPath id="SVGID_24_">
			<use xlink:href="#SVGID_23_"  style="overflow:visible;"/>
		</clipPath>
		<g class="st24">
			<g>
				<defs>
					<path id="SVGID_25_" d="M250.2,37.9c-74.5,0-135,60.4-135,135s60.4,135,135,135s135-60.4,135-135S324.7,37.9,250.2,37.9z"/>
				</defs>
				<clipPath id="SVGID_26_">
					<use xlink:href="#SVGID_25_"  style="overflow:visible;"/>
				</clipPath>
				<g class="st25">
					<path class="st26" d="M250.2,37.9c-74.5,0-135,60.4-135,135s60.4,135,135,135s135-60.4,135-135S324.7,37.9,250.2,37.9z"/>
				</g>
			</g>
		</g>
	</g>
	<g>
		<defs>
			<rect id="SVGID_27_" x="50.9" y="5.6" width="236" height="192.5"/>
		</defs>
		<clipPath id="SVGID_28_">
			<use xlink:href="#SVGID_27_"  style="overflow:visible;"/>
		</clipPath>
		<g class="st27">
			<path class="st9" d="M285.8,112.1c-0.3,0.8-6.5-0.6-7.3-0.8c-4.5-0.8-8.8-1.8-12.8-3.9c-4.4-2.3-8.4-5.3-13-7.4
				c-9.1-4.2-18.8-7.5-28.8-8.3c-10-0.8-20.4,1.1-28.8,6.6c-2.3,1.5-4.5,3.3-7.1,4.2c-6.5,2.3-13.4-1.2-20.1-3.1
				c-11.4-3.1-24.2-0.9-33.9,5.9c-2.8,2-6.6-0.8-5.5-4.1c2.3-6.7,4-13.6,5-20.6c0.5-3.1,1.2-6.1,2.4-9c2.7-6.8,5.6-12.1,9.9-19.3
				c3.3-4,6.6-7.9,9.8-11.9c1.8-2.1,3.8-4.4,6.6-4.7c1.7-0.1,3.3,0.5,4.8,1.2c3.4,1.5,6.7,3,10,4.7c0.8,0.4,1.8,1,2.1,1.9
				c0.2,0.5,0.1,1.1,0.3,1.7c0.2,0.7,0.8,1.2,1.5,1.7c2.3,1.7,4.9,3,7.7,3.8c0.8,1.8,2.7,2.9,4.8,2c1.7,2.5,4.9,2.8,7.5,2.9
				c-0.6,1.4,0.1,2.6,1.2,3.1c1.4,0.6,3,0.2,4.5-0.3c1.5-0.5,3-1,4.5-0.6c0.8,0.2,1.5,0.7,2.3,0.8c1.4,0.1,2.6-0.9,3.6-1.9
				c3.2-3.1,6.5-6.2,9.7-9.4c1-0.9,1.9-1.9,2.2-3.2c0.1-0.6,0.1-1.2-0.1-1.8c-0.5-2.1-1.4-4.1-2.5-5.9l-8.3-13.6
				c-1.9-3.1-3.9-6.4-7-8.4c-3-2-6.7-2.6-10.2-3.2L174,6.7c-2.8-0.5-5.6-0.8-8.3-1c-2.7-0.2-5.5-0.1-8,0.8
				c-4.2,1.4-7.4,4.7-10.5,7.9c-5.8,6.1-11.6,12.2-17,18.7c-21,19.7-42.3,39.7-56.7,64.6c-4.4,7.6-8.1,15.6-13.2,22.8
				c-2.8,4-6,7.7-7.9,12.2c-1.8,4.3-2.1,9.6,0.8,14.2c0.2,0.3,0.5,0.7,0.8,0.9c4.2,3.4,9,5.9,13.9,8.2c12.1,5.7,24.7,10.2,37.6,13.5
				c5.7,1.4,11.6,2.6,17.4,3.8c16.8,3.3,34.5,6.1,50.7,0.4c8.9-3.1,16.9-8.7,25.7-10.8c18.3-6.5,39.9,7.2,51.4,20.6
				c2.6,3.1,5.6,8.4,6.8,13.3l21.5-10.9c-1.1-3.5-1.3-7-1.7-10.6C274.8,153.9,277.8,132,285.8,112.1z M179.8,38.6
				c-3.1-4.4-11-4.2-15.1-7.9c-1.6-1.4-2.6-3.4-3.5-5.3c-0.6-1.3-1.2-2.6-1.9-3.9c2.9,1.9,7,2.8,10.8,3.9c3.8,1.2,7.7,2.9,9.1,6.2
				C180.2,33.8,180,36.3,179.8,38.6z M196.4,48.6c-0.1,0.2-0.3,0.4-0.6,0.5c-0.3,0.1-0.5,0-0.8-0.1c-2.6-0.8-5.2-1.6-7.8-2.5
				c-0.2-0.8,0.9-1.5,1.8-1.7c0.9-0.2,2.1-0.8,1.9-1.6c0-0.3-0.3-0.6-0.5-0.8c-1.4-1.4-2.6-3-3.3-4.8c-0.9-2.2-1.1-4.6-2.1-6.7
				c-1-2.2-2.9-3.9-5.3-4.8c2.7,0.8,4.8,1.7,6.9,2.5c3.1,1.2,6.4,2.7,7.7,5.6c1.2,2.7,0.4,6,1.3,8.9
				C196.4,44.9,197.6,46.9,196.4,48.6z M203.1,52.3c-1.7,0.6-3.7,0.2-5.8-0.4c2.7-0.7,3.9-4,3.7-6.8c-0.1-2.8-1.1-5.5-1-8.3
				c0.1-1.2,0.3-2.3,0.3-3.5c-0.2-2.9-2.7-5.3-2.7-8.2c0-0.3,0-0.7,0.2-1c0.3-0.3,0.7-0.5,1.1-0.5c1.2,0,2.3,0.8,3,1.7
				c0.8,0.9,1.3,2,2,3c0.6,0.8,1.4,1.6,1.9,2.5c0.4,0.8,0.4,1.7,0.4,2.6c0.2,3.9,0.4,7.8,0.6,11.8c0.1,1.1,0.1,2.3-0.2,3.3
				C206.3,50.3,204.9,51.8,203.1,52.3z M215.4,20.6c3.2,5,6.2,10.2,8.7,15.5c0.8,1.8,1.6,3.6,1.6,5.5c0,2.4-1.2,4.6-2.8,6.3
				c-1.6,1.7-3.6,3.1-6.1,4c1-2.7,4-4.6,4.1-7.5c0-1-0.3-1.9-0.7-2.8c-1.9-4.9-3.8-9.8-5.7-14.8c-0.4-1.1-0.9-2.3-0.8-3.5
				C213.7,22.4,214.3,21.1,215.4,20.6z M209.9,24.6c1.2,0.8,1.7,2.3,2,3.7c1.2,4.5,2.4,9,3.6,13.5c0.9,3.4,1.7,7.5-0.6,10.2
				c-1.8,2.1-5.1,2.5-8.5,1.9c2.1-1.2,3.3-3.7,3.7-6.1c0.3-2.4-0.1-4.9-0.5-7.3c-0.7-4.3-1.4-8.6-2.1-12.8c-0.1-0.7-0.2-1.4-0.1-2
				c0.2-0.7,0.7-1.3,1.4-1.4C209.2,24.2,209.6,24.4,209.9,24.6z M167.7,9.7c5-0.2,10,0.8,14.9,1.7c6.1,1.1,12.2,2.3,18.3,3.4
				c2.6,0.5,5.3,1,7.2,2.8c-2.1,0.1-3.6,3-5.7,3.8c-0.9,0.3-1.9,0.3-2.9,0.3c-2.5,0.2-5,1.3-6.8,3.1c-0.4,0.5-0.9,1-1.4,1.3
				c-1.1,0.7-2.6,0.4-3.7-0.2c-1.1-0.6-2-1.4-3.1-2.1c-3.7-2-8.7-0.7-12.8-2.2c-1.5-0.6-2.8-1.5-4.3-2.1c-2.3-1-5-1.2-7.5-1.8
				c-2.5-0.5-5.1-1.5-6.5-3.5C157.4,11.2,162.6,9.8,167.7,9.7z M75.2,142.5c-1.9,0.9-3.8,2.1-6,2.1c-3.3-0.1-5.6-3.1-7.4-5.8
				c-1-1.4-2-3-2.3-4.7c-0.7-3.7,1.6-7.2,3.8-10.2c5.9-8.4,11.2-17.2,16-26.3c2-3.9,4.1-7.4,6.4-10.6c1.5-4.1,3.6-8,6.1-11.5
				c7.6-10.9,18.4-19,28.2-28.5c-1.2,1.5-2.3,3-3.3,4.5c0.8-0.7,1.6-1.4,2.4-2c11.9-9.2,18-18.1,31.3-30.6c4.1,4.6,7.8,7.6,5.3,12.5
				c-3.6,7.1-10.8,11.6-15.1,18.3c-4.1,6.3-5.4,13.9-8.4,20.8c-1.8,4.3-4.2,8.3-5.2,12.9c-1,4.8-0.3,9.7-0.6,14.6
				c-0.4,5.6-2.3,11.2-6.3,15.2c-4.1,4.2-9.9,6.2-15.5,7.9c-5.6,1.7-11.5,3.1-16.2,6.5c-4.8,3.4-8.3,9.3-7,15.2
				C79.7,141.3,77.1,141.7,75.2,142.5z M122.9,116.4c-4.9,8.5-12.8,14.9-21.8,17.8c-5.7,1.8-12.2,2.4-16.6,6.5
				c2.5-4.9,6.1-9.4,11.1-11.6c2.3-1,4.8-1.4,7.2-2.1C110.1,124.9,116.5,120.6,122.9,116.4z M197.9,156.9
				c-16.5,13.6-39.3,19.5-60.3,15.4c-6.1-1.2-11.9-3.1-17.8-5c-14.1-4.6-28.5-9.3-40.7-17.8c9.1-0.4,17.1-5.5,25-9.9
				c7.9-4.4,17.1-8.3,25.8-6c10.6,2.7,18.3,13.8,29.2,14c-5.9,1.6-11.8,3.3-17.7,4.9c-4.3,1.1-8.7,2.3-13.1,1.8
				c10.2,2.8,21.1,2.9,31.4,0.4c5.9-1.4,11.6-3.7,17.4-5.3c5.9-1.6,12.1-2.5,18-1.2c1.6,0.4,5.4,0.8,5.7,3.7
				C201.1,153.9,199.4,155.6,197.9,156.9z M202.7,136.7c-3.2,1.5-5.8,4.1-9.2,5c-3.3,0.9-6.8-0.1-10.3-0.2c-8-0.2-15.9,4.3-23.8,2.7
				c-6.5-1.3-11.5-6.5-16.2-11.2c-4.8-4.7-10.5-9.4-17.2-9.2c3.1-2.7,6.3-5.4,9.4-8.2c0,0,0.1-0.1,0.1-0.1c-1.1-3.5-0.1-7.1,2-8.1
				c0.5,1.6,1.2,3.2,2.1,4.7c1.7-1.3,3.5-2.6,5.4-3.6c8.9-4.8,20-4.1,29.4-0.4c2.4,0.9,4.8,2.1,7.3,2.4c2.4,0.4,4.8,0,7.3,0
				c12.3-0.2,24.2,8.7,27.4,20.6c-0.4-0.5,2.2,4.2,3.5,9.3C215.8,135.5,208.4,134,202.7,136.7z"/>
		</g>
	</g>
	<path class="st9" d="M122.9,116.4c-4.9,8.5-12.8,14.9-21.8,17.8c-5.7,1.8-12.2,2.4-16.6,6.5c2.5-4.9,6.1-9.4,11.1-11.6
		c2.3-1,4.8-1.4,7.2-2.1C110.1,124.9,116.5,120.6,122.9,116.4z"/>
	<path class="st9" d="M155.5,31.4c-3.6,7.1-10.8,11.6-15.1,18.3c-4.1,6.3-5.4,13.9-8.4,20.8c-1.8,4.3-4.2,8.3-5.2,12.9
		c-1,4.8-0.3,9.7-0.6,14.6c-0.4,5.6-2.3,11.2-6.3,15.2c-4.1,4.2-9.9,6.2-15.5,7.9c-5.6,1.7-11.5,3.1-16.2,6.5
		c-4.8,3.4-8.3,9.3-7,15.2c-1.5-1.5-4-1.1-6-0.3c-1.9,0.9-3.8,2.1-6,2.1c-3.3-0.1-5.6-3.1-7.4-5.8c-1-1.4-2-3-2.3-4.7
		c-0.7-3.7,1.6-7.2,3.8-10.2c5.9-8.4,11.2-17.2,16-26.3c2-3.9,4.1-7.4,6.4-10.6c1.5-4.1,3.6-8,6.1-11.5c7.6-10.9,18.4-19,28.2-28.5
		c-1.2,1.5-2.3,3-3.3,4.5c0.8-0.7,1.6-1.4,2.4-2c11.9-9.2,18-18.1,31.3-30.6C154.3,23.4,158,26.4,155.5,31.4z"/>
	<path class="st9" d="M179.8,38.6c-3.1-4.4-11-4.2-15.1-7.9c-1.6-1.4-2.6-3.4-3.5-5.3c-0.6-1.3-1.2-2.6-1.9-3.9
		c2.9,1.9,7,2.8,10.8,3.9c3.8,1.2,7.7,2.9,9.1,6.2C180.2,33.8,180,36.3,179.8,38.6z"/>
	<path class="st9" d="M196.4,48.6c-0.1,0.2-0.3,0.4-0.6,0.5c-0.3,0.1-0.5,0-0.8-0.1c-2.6-0.8-5.2-1.6-7.8-2.5
		c-0.2-0.8,0.9-1.5,1.8-1.7c0.9-0.2,2.1-0.8,1.9-1.6c0-0.3-0.3-0.6-0.5-0.8c-1.4-1.4-2.6-3-3.3-4.8c-0.9-2.2-1.1-4.6-2.1-6.7
		c-1-2.2-2.9-3.9-5.3-4.8c2.7,0.8,4.8,1.7,6.9,2.5c3.1,1.2,6.4,2.7,7.7,5.6c1.2,2.7,0.4,6,1.3,8.9C196.4,44.9,197.6,46.9,196.4,48.6
		z"/>
	<path class="st9" d="M197.9,156.9c-16.5,13.6-39.3,19.5-60.3,15.4c-6.1-1.2-11.9-3.1-17.8-5c-14.1-4.6-28.5-9.3-40.7-17.8
		c9.1-0.4,17.1-5.5,25-9.9c7.9-4.4,17.1-8.3,25.8-6c10.6,2.7,18.3,13.8,29.2,14c-5.9,1.6-11.8,3.3-17.7,4.9
		c-4.3,1.1-8.7,2.3-13.1,1.8c10.2,2.8,21.1,2.9,31.4,0.4c5.9-1.4,11.6-3.7,17.4-5.3c5.9-1.6,12.1-2.5,18-1.2
		c1.6,0.4,5.4,0.8,5.7,3.7C201.1,153.9,199.4,155.6,197.9,156.9z"/>
	<path class="st9" d="M208,17.5c-2.1,0.1-3.6,3-5.7,3.8c-0.9,0.3-1.9,0.3-2.9,0.3c-2.5,0.2-5,1.3-6.8,3.1c-0.4,0.5-0.9,1-1.4,1.3
		c-1.1,0.7-2.6,0.4-3.7-0.2c-1.1-0.6-2-1.4-3.1-2.1c-3.7-2-8.7-0.7-12.8-2.2c-1.5-0.6-2.8-1.5-4.3-2.1c-2.3-1-5-1.2-7.5-1.8
		c-2.5-0.5-5.1-1.5-6.5-3.5c4-3.1,9.2-4.4,14.3-4.6c5-0.2,10,0.8,14.9,1.7c6.1,1.1,12.2,2.3,18.3,3.4
		C203.4,15.2,206.1,15.8,208,17.5z"/>
	<path class="st9" d="M206.7,48.6c-0.5,1.8-1.9,3.2-3.6,3.8c-1.7,0.6-3.7,0.2-5.8-0.4c2.7-0.7,3.9-4,3.7-6.8c-0.1-2.8-1.1-5.5-1-8.3
		c0.1-1.2,0.3-2.3,0.3-3.5c-0.2-2.9-2.7-5.3-2.7-8.2c0-0.3,0-0.7,0.2-1c0.3-0.3,0.7-0.5,1.1-0.5c1.2,0,2.3,0.8,3,1.7
		c0.8,0.9,1.3,2,2,3c0.6,0.8,1.4,1.6,1.9,2.5c0.4,0.8,0.4,1.7,0.4,2.6c0.2,3.9,0.4,7.8,0.6,11.8C207,46.3,207,47.5,206.7,48.6z"/>
	<path class="st9" d="M214.9,52c-1.8,2.1-5.1,2.5-8.5,1.9c2.1-1.2,3.3-3.7,3.7-6.1c0.3-2.4-0.1-4.9-0.5-7.3
		c-0.7-4.3-1.4-8.6-2.1-12.8c-0.1-0.7-0.2-1.4-0.1-2c0.2-0.7,0.7-1.3,1.4-1.4c0.4,0,0.8,0.1,1.1,0.3c1.2,0.8,1.7,2.3,2,3.7
		c1.2,4.5,2.4,9,3.6,13.5C216.5,45.3,217.2,49.3,214.9,52z"/>
	<path class="st9" d="M220,140.2c-4.2-4.7-11.6-6.3-17.3-3.6c-3.2,1.5-5.8,4.1-9.2,5c-3.3,0.9-6.8-0.1-10.3-0.2
		c-8-0.2-15.9,4.3-23.8,2.7c-6.5-1.3-11.5-6.5-16.2-11.2c-4.8-4.7-10.5-9.4-17.2-9.2c3.1-2.7,6.3-5.4,9.4-8.2c0,0,0.1-0.1,0.1-0.1
		c-1.1-3.5-0.1-7.1,2-8.1c0.5,1.6,1.2,3.2,2.1,4.7c1.7-1.3,3.5-2.6,5.4-3.6c8.9-4.8,20-4.1,29.4-0.4c2.4,0.9,4.8,2.1,7.3,2.4
		c2.4,0.4,4.8,0,7.3,0c12.3-0.2,24.2,8.7,27.4,20.6C216.1,130.4,218.8,135.2,220,140.2z"/>
	<path class="st9" d="M225.7,41.7c0,2.4-1.2,4.6-2.8,6.3c-1.6,1.7-3.6,3.1-6.1,4c1-2.7,4-4.6,4.1-7.5c0-1-0.3-1.9-0.7-2.8
		c-1.9-4.9-3.8-9.8-5.7-14.8c-0.4-1.1-0.9-2.3-0.8-3.5c0-1.2,0.6-2.5,1.7-2.9c3.2,5,6.2,10.2,8.7,15.5
		C224.9,37.9,225.7,39.8,225.7,41.7z"/>
	<path class="st28" d="M259.7,162.2c-5.3-6.7-16.2-8.6-23.7-13.8c-10.4-7.1-13.5-19.5-19.5-29.8c-3.5-5.8-9.6-11.8-17-10.8
		c8.2-7.5,20.9-10.8,32.2-8.5c9.9,2.1,18.2,8,27.9,10.9C265.8,126.8,264.1,144.9,259.7,162.2z"/>
	<path class="st28" d="M220,140.2c-4.2-4.7-11.6-6.3-17.3-3.6c-3.2,1.5-5.8,4.1-9.2,5c-3.3,0.9-6.8-0.1-10.3-0.2
		c-8-0.2-15.9,4.3-23.8,2.7c-6.5-1.3-11.5-6.5-16.2-11.2c-4.8-4.7-10.5-9.4-17.2-9.2c3.1-2.7,6.3-5.4,9.4-8.2c0,0,0.1-0.1,0.1-0.1
		c1.4-1.2,2.7-2.4,4.2-3.5c1.7-1.3,3.5-2.6,5.4-3.6c8.9-4.8,20-4.1,29.4-0.4c2.4,0.9,4.8,2.1,7.3,2.4c2.4,0.4,4.8,0,7.3,0
		c12.3-0.2,24.2,8.7,27.4,20.6C216.1,130.4,218.8,135.2,220,140.2z"/>
	<path class="st28" d="M197.9,156.9c-16.5,13.6-39.3,19.5-60.3,15.4c-6.1-1.2-11.9-3.1-17.8-5c-14.1-4.6-28.5-9.3-40.7-17.8
		c9-0.4,17.1-5.5,25-9.9c7.9-4.4,17.1-8.3,25.8-6c10.6,2.7,18.3,13.8,29.2,14c-5.9,1.6-11.8,3.3-17.7,4.9c-4.3,1.2-8.7,2.3-13.1,1.8
		c10.2,2.8,21.1,2.9,31.4,0.4c5.9-1.4,11.6-3.7,17.4-5.3c5.8-1.6,12.1-2.5,18-1.2c1.6,0.4,5.4,0.8,5.7,3.7
		C201.1,153.9,199.4,155.6,197.9,156.9z"/>
	<path class="st28" d="M155.5,31.4c-3.6,7.1-10.8,11.6-15.1,18.3c-4.1,6.3-5.4,13.9-8.4,20.8c-1.8,4.3-4.2,8.3-5.2,12.9
		c-1,4.8-0.3,9.7-0.6,14.6c-0.4,5.6-2.3,11.2-6.3,15.2c-4.1,4.2-9.9,6.2-15.5,7.9c-5.6,1.7-11.5,3.1-16.2,6.5
		c-4.8,3.4-8.3,9.3-7,15.2c-1.5-1.5-4-1.1-6-0.3c-1.9,0.9-3.8,2.1-6,2.1c-3.3-0.1-5.6-3.1-7.4-5.8c-1-1.4-2-3-2.3-4.7
		c-0.7-3.7,1.6-7.2,3.8-10.2c5.9-8.4,11.2-17.2,16-26.3c2-3.9,4.1-7.4,6.4-10.6c4.2-6,8.8-11.3,14.3-16.9c0,0,0,0,0.1-0.1
		c0.3-0.3,0.6-0.6,0.9-0.9c5.2-5.3,10-12.4,15.6-17.5c0.8-0.7,1.6-1.4,2.4-2c11.9-9.2,18-18.1,31.3-30.6
		C154.3,23.4,158,26.4,155.5,31.4z"/>
	<path class="st28" d="M122.9,116.4c-4.9,8.5-12.8,14.9-21.8,17.8c-5.7,1.8-12.2,2.4-16.6,6.5c2.4-4.9,6.1-9.4,11.1-11.6
		c2.3-1,4.8-1.4,7.2-2.1C110.1,124.9,116.5,120.6,122.9,116.4z"/>
	<path class="st28" d="M179.8,38.6c-3.1-4.4-11-4.2-15.1-7.9c-1.6-1.4-2.6-3.4-3.5-5.3c-0.6-1.3-1.2-2.6-1.9-3.9
		c2.9,1.9,7,2.8,10.8,3.9c3.8,1.2,7.7,2.9,9.1,6.2C180.2,33.8,180,36.3,179.8,38.6z"/>
	<path class="st28" d="M196.4,48.6c-0.2,0.2-0.3,0.4-0.6,0.5c-0.3,0.1-0.5,0-0.8-0.1c-2.6-0.8-5.2-1.6-7.8-2.5
		c-0.2-0.8,0.9-1.5,1.8-1.7c0.9-0.2,2-0.8,1.9-1.6c0-0.3-0.3-0.6-0.5-0.8c-1.4-1.4-2.6-3-3.3-4.8c-0.9-2.2-1.1-4.6-2.1-6.7
		c-1-2.2-2.9-3.9-5.3-4.8c2.7,0.8,4.8,1.7,6.9,2.5c3.1,1.2,6.4,2.7,7.7,5.6c1.2,2.7,0.4,6,1.3,8.9C196.4,44.9,197.6,46.9,196.4,48.6
		z"/>
	<path class="st28" d="M206.7,48.5c-0.5,1.8-1.9,3.2-3.6,3.8c-1.7,0.6-3.7,0.2-5.8-0.4c2.7-0.7,3.9-4,3.8-6.8
		c-0.1-2.8-1.1-5.5-1-8.3c0.1-1.2,0.3-2.3,0.3-3.5c-0.2-2.9-2.7-5.3-2.7-8.2c0-0.3,0-0.7,0.2-1c0.3-0.3,0.7-0.5,1.1-0.5
		c1.2,0,2.3,0.8,3,1.7c0.8,0.9,1.3,2,2,3c0.6,0.8,1.4,1.6,1.9,2.5c0.4,0.8,0.4,1.7,0.4,2.6c0.2,3.9,0.4,7.8,0.6,11.8
		C207,46.3,207,47.5,206.7,48.5z"/>
	<path class="st28" d="M214.9,52c-1.8,2.1-5.1,2.5-8.5,1.9c2.1-1.2,3.3-3.7,3.7-6.1c0.3-2.4-0.1-4.9-0.5-7.3
		c-0.7-4.3-1.4-8.6-2.1-12.8c-0.1-0.7-0.2-1.4-0.1-2c0.2-0.7,0.7-1.3,1.4-1.4c0.4,0,0.8,0.1,1.1,0.3c1.2,0.8,1.7,2.3,2,3.7
		c1.2,4.5,2.4,9,3.6,13.5C216.5,45.3,217.2,49.3,214.9,52z"/>
	<path class="st28" d="M225.7,41.7c0,2.4-1.2,4.6-2.8,6.3c-1.6,1.7-3.6,3.1-6.1,4c1-2.7,4-4.6,4.1-7.5c0-1-0.3-1.9-0.7-2.8
		c-1.9-4.9-3.8-9.8-5.7-14.8c-0.4-1.1-0.9-2.3-0.8-3.5c0-1.2,0.6-2.5,1.7-2.9c3.2,5,6.2,10.2,8.7,15.5
		C224.9,37.9,225.7,39.8,225.7,41.7z"/>
	<path class="st28" d="M208,17.5c-2.1,0.1-3.6,3-5.7,3.8c-0.9,0.3-1.9,0.3-2.8,0.3c-2.5,0.2-5,1.3-6.8,3.1c-0.4,0.5-0.9,1-1.4,1.3
		c-1.1,0.7-2.6,0.4-3.7-0.2c-1.1-0.6-2-1.4-3.1-2.1c-3.7-2-8.7-0.7-12.8-2.2c-1.5-0.6-2.8-1.5-4.3-2.1c-2.3-1-5-1.2-7.5-1.8
		c-2.5-0.5-5.1-1.5-6.5-3.5c4-3.1,9.2-4.4,14.3-4.6c5-0.2,10,0.8,14.9,1.7c6.1,1.1,12.2,2.3,18.3,3.4
		C203.4,15.2,206.1,15.8,208,17.5z"/>
	<path class="st9" d="M119.8,47c-1.2,1.5-2.3,3-3.3,4.5c-6.8,10.1-11,21.9-11.9,34.1c-2.8-4.7-4.4-10.1-4.7-15.6v0
		c0,0,0,0.1-0.1,0.1c-8.4,12.9-13.6,27.7-15.1,43c-3.1-8.4-2.3-17.6,0.9-26.1c1.5-4.1,3.6-8,6-11.5C99.2,64.6,110,56.5,119.8,47z"/>
	<path class="st9" d="M163.8,120.3c-0.9,3.6-4.7,5-8.4,5.4c-3.4,0.4-7,0.3-10.6-1.2c-3.6-1.5-7.2-4.5-8.8-8.2
		c-0.1-0.3-0.2-0.6-0.3-0.9c-1.1-3.5-0.2-7.1,2-8.1c0.5,1.6,1.2,3.2,2.1,4.7c2.2,3.7,5.6,7,9.4,8.8
		C154.4,123.4,160.2,123.2,163.8,120.3z"/>
	<path class="st9" d="M241.7,117.8c8.9,4.9,17.3,10.7,24.9,17.2c1.8,1.5,3.5,3.1,4.6,5.1c1.1,2.2,1.3,4.7,1.4,7.1
		c0.1,2.8,0.5,6.3-0.4,9c-2.6-1.7-4.4-7.7-6.1-10.4c-2.2-3.5-4.6-6.9-7.1-10.2s-5.3-6.4-8.2-9.4
		C248.2,123.6,245.1,119.6,241.7,117.8z"/>
	<path class="st9" d="M116.9,269.1c1.1,7.9,4.3,15.2,9.2,21.2c0.9,1,2.3,1.4,3.5,0.9l77.5-33.9c1.3-11.7-3-21.9-12.2-25.7
		l-76.3,34.3C117.4,266.4,116.7,267.7,116.9,269.1z"/>
	<path class="st29" d="M120.9,273.7l79.1-36"/>
	<path class="st9" d="M123.4,279.3l80.2-35.6"/>
	<g>
		<defs>
			<rect id="SVGID_29_" x="50.2" y="162.1" width="235.3" height="178.5"/>
		</defs>
		<clipPath id="SVGID_30_">
			<use xlink:href="#SVGID_29_"  style="overflow:visible;"/>
		</clipPath>
		<g class="st30">
			<path class="st14" d="M123.4,279.3l80.2-35.6"/>
		</g>
	</g>
	<path class="st21" d="M193.5,259.9l-61.3,27.5c-1.5,0.7-3.7,0.2-4.7-1.1c-3.4-4-5.8-11.3-7.1-15.6c-0.5-1.9,0.4-3.9,2.2-4.8
		l72-32.7c0,0,12.1,5.7,10.1,21.3L193.5,259.9z"/>
	<path class="st9" d="M265.6,223.3c1,2.2,1.9,4.5,2.7,6.8c0.8,2.3,1.5,4.6,2.1,7c0.6,2.3,1.1,4.7,1.5,7.1c0.4,2.4,0.7,4.7,0.9,7.1
		c0.2,2.4,0.3,4.7,0.3,7.1c0,2.3-0.1,4.7-0.3,7s-0.5,4.6-0.9,6.8c-0.4,2.2-0.9,4.4-1.5,6.6c-0.6,2.1-1.3,4.2-2.1,6.3
		c-0.8,2-1.7,4-2.7,5.9s-2,3.7-3.2,5.5c-1.1,1.8-2.4,3.4-3.7,5c-1.3,1.6-2.7,3.1-4.2,4.5c-1.5,1.4-3,2.7-4.6,3.9
		c-1.6,1.2-3.3,2.3-5,3.3c-1.7,1-3.5,1.9-5.3,2.7c-1.8,0.8-3.7,1.5-5.6,2.1c-1.9,0.6-3.9,1-5.8,1.4c-2,0.3-4,0.6-6,0.7
		c-2,0.1-4.1,0.1-6.1,0c-2.1-0.1-4.1-0.3-6.2-0.7c-2.1-0.3-4.1-0.8-6.2-1.4c-2.1-0.6-4.1-1.3-6.1-2.1c-2-0.8-4-1.7-6-2.7
		c-2-1-3.9-2.1-5.8-3.3s-3.8-2.5-5.6-3.9c-1.8-1.4-3.6-2.9-5.3-4.5c-1.7-1.6-3.4-3.3-5-5c-1.6-1.8-3.1-3.6-4.6-5.5
		c-1.5-1.9-2.8-3.9-4.2-5.9s-2.5-4.1-3.7-6.3c-1.1-2.1-2.2-4.3-3.2-6.6c-1-2.2-1.9-4.5-2.6-6.8c-0.8-2.3-1.5-4.6-2.1-7
		c-0.6-2.3-1.1-4.7-1.5-7.1c-0.4-2.4-0.7-4.7-0.9-7.1c-0.2-2.4-0.3-4.7-0.3-7.1s0.1-4.7,0.3-7s0.5-4.6,0.9-6.8
		c0.4-2.2,0.9-4.4,1.5-6.6c0.6-2.1,1.3-4.2,2.1-6.3c0.8-2,1.7-4,2.7-5.9c1-1.9,2-3.7,3.2-5.5c1.1-1.8,2.4-3.4,3.7-5s2.7-3.1,4.2-4.5
		c1.5-1.4,3-2.7,4.6-3.9c1.6-1.2,3.3-2.3,5-3.3c1.7-1,3.5-1.9,5.3-2.7c1.8-0.8,3.7-1.5,5.6-2.1c1.9-0.6,3.9-1,5.8-1.4
		c2-0.3,4-0.6,6-0.7c2-0.1,4.1-0.1,6.1,0c2.1,0.1,4.1,0.3,6.2,0.7c2.1,0.3,4.1,0.8,6.2,1.4c2.1,0.6,4.1,1.3,6.1,2.1
		c2,0.8,4,1.7,6,2.7c2,1,3.9,2.1,5.8,3.3c1.9,1.2,3.8,2.5,5.6,3.9c1.8,1.4,3.6,2.9,5.3,4.5c1.7,1.6,3.4,3.3,5,5
		c1.6,1.8,3.1,3.6,4.6,5.5c1.5,1.9,2.9,3.9,4.2,5.9s2.5,4.1,3.7,6.3C263.6,218.9,264.6,221,265.6,223.3z"/>
	<path class="st28" d="M179.6,182.3c-4.2,5.6-6.9,12.2-8.1,19.1c-1.3,6.8-1.1,13.9-0.1,20.7c2,13.8,7,27,13.3,39.4
		c6.4,12.3,14.8,23.7,25.3,32.8c5.2,4.5,11.1,8.5,17.5,11.1c3.2,1.3,6.5,2.3,10,2.9c3.4,0.5,7,0.7,10.4,0.3
		c-6.9,1.2-14.2,0.2-20.8-2.2c-6.6-2.5-12.7-6.4-18.2-10.8c-5.5-4.5-10.3-9.7-14.7-15.3c-4.3-5.6-8.2-11.5-11.5-17.8
		c-3.2-6.3-5.9-12.8-8.2-19.5c-2.2-6.7-4-13.6-4.8-20.6c-0.8-7-0.8-14.2,0.7-21.1C172,194.3,175,187.7,179.6,182.3z"/>
	<path class="st28" d="M226.4,314.4c-2.7-0.9-6.7-0.5-9.5-1c-31.2-5.9-52.9-32.9-59.9-62.7c-4.3-18.2-2.9-38.4,8.5-53.8
		c0.8-1.1,1.6-2.1,2.5-3c-1.4,1.4-1.9,5.3-2.4,7.1c-1.7,6.3-2.6,12.7-2.8,19.2c-0.8,33,19.9,65.5,45,85.2
		C207.8,305.3,222.1,313.5,226.4,314.4z"/>
	<path class="st28" d="M183.2,211.3c0.1-2.2,0.2-4.3,0.6-6.5c0.3-2.2,0.9-4.3,1.6-6.4c1.5-4.1,3.9-8.1,7.5-10.8
		c3.6-2.8,8.2-4.2,12.7-4.3c4.5,0,9,1.2,13.1,2.9c4.1,1.8,7.9,4.1,11.4,6.8c3.5,2.7,6.8,5.7,9.8,9c6,6.5,10.9,13.9,15,21.7
		c4,7.9,7,16.2,8.7,24.9c0.8,4.3,1.3,8.8,1.3,13.2c0,2.2-0.1,4.4-0.4,6.7c-0.3,2.2-0.7,4.4-1.4,6.6c-1.3,4.3-3.3,8.5-6.5,11.8
		c-3.2,3.3-7.5,5.4-12,5.9c-4.5,0.5-9-0.3-13.1-1.8c-4.1-1.5-7.9-3.8-11.4-6.4c3.7,2.3,7.6,4.3,11.7,5.6c4.1,1.3,8.4,1.8,12.6,1.1
		c4.1-0.7,7.9-2.8,10.7-5.8c2.8-3.1,4.6-6.9,5.7-11c2.1-8.2,1.6-16.9-0.1-25.2c-1.7-8.4-4.7-16.5-8.6-24.1
		c-3.9-7.6-8.6-14.8-14.4-21.2c-5.7-6.4-12.3-11.9-20-15.5c-3.8-1.8-7.9-2.9-12.1-3.1c-4.2-0.2-8.3,1-11.7,3.4c-3.4,2.4-6,6-7.7,9.9
		C184.4,202.7,183.6,207,183.2,211.3z"/>
	<path class="st28" d="M246.5,238.4c0.4,1.9,0.6,3.9,0.5,5.9c-0.1,2-0.4,4-1.3,5.8c-0.8,1.8-2.4,3.5-4.4,4.3c-2,0.8-4.2,0.8-6.2,0.3
		c-2-0.5-3.9-1.4-5.6-2.5c-1.7-1.1-3.3-2.4-4.7-3.8c-2.9-2.8-5.2-6.1-7.2-9.6c-1.9-3.5-3.5-7.2-4.4-11.1c-0.5-1.9-0.7-3.9-0.8-6
		c-0.1-2,0.1-4.1,0.5-6.1c0.5-2,1.4-4,2.9-5.5c0.4-0.3,0.8-0.8,1.2-1c0.5-0.3,0.9-0.6,1.4-0.8c1-0.4,2-0.6,3.1-0.6
		c2.1,0,4,0.6,5.8,1.5c1.8,0.9,3.4,2.1,4.8,3.4c-1.6-1.1-3.3-2.1-5-2.9c-1.8-0.7-3.7-1.2-5.5-1c-0.9,0.1-1.8,0.3-2.6,0.7
		c-0.4,0.2-0.8,0.5-1.1,0.7c-0.4,0.2-0.7,0.6-1,0.9c-1.2,1.3-1.9,3.1-2.3,4.9c-0.7,3.6-0.3,7.5,0.7,11.2c0.9,3.7,2.4,7.3,4.3,10.6
		c1.8,3.3,4.1,6.5,6.7,9.2c1.3,1.4,2.8,2.6,4.3,3.7c1.6,1,3.2,1.9,5,2.4c1.8,0.5,3.6,0.6,5.3,0c1.7-0.6,3.1-1.9,4-3.5
		c0.9-1.6,1.4-3.5,1.7-5.4C246.7,242.3,246.7,240.3,246.5,238.4z"/>
	<path class="st9" d="M224.7,216.5c1.8,9.1,6.1,18.1,12.3,24.8l75.1-33c-5.1-7.9-9.3-16.6-12.2-25.7L224.7,216.5z"/>
	<path class="st29" d="M225.8,224.9l68-31.5"/>
	<path class="st31" d="M228.3,230.5l68.6-31.6"/>
	<path class="st9" d="M396.2,161c1.1,2.5,2.1,5,3,7.5c0.9,2.5,1.7,5.1,2.5,7.6c0.7,2.6,1.4,5.1,1.9,7.7c0.6,2.6,1,5.1,1.4,7.7
		c0.4,2.6,0.6,5.1,0.8,7.6s0.3,5,0.2,7.4c0,2.5-0.1,4.9-0.3,7.2c-0.2,2.4-0.5,4.7-0.9,6.9c-0.4,2.3-0.9,4.4-1.5,6.6
		c-0.6,2.1-1.3,4.2-2,6.1c-0.8,2-1.6,3.9-2.6,5.7c-0.9,1.8-2,3.5-3.1,5.1c-1.1,1.6-2.3,3.1-3.6,4.5c-1.3,1.4-2.6,2.7-4,3.9
		s-2.9,2.3-4.4,3.2c-1.5,1-3.1,1.8-4.8,2.5c-1.6,0.7-3.3,1.3-5.1,1.8c-1.7,0.5-3.5,0.8-5.4,1.1c-1.8,0.2-3.7,0.3-5.6,0.3
		c-1.9,0-3.8-0.2-5.7-0.5c-1.9-0.3-3.9-0.7-5.8-1.2c-2-0.5-3.9-1.2-5.9-1.9c-2-0.8-3.9-1.7-5.9-2.7c-2-1-3.9-2.1-5.8-3.4
		s-3.8-2.6-5.7-4c-1.9-1.5-3.7-3-5.5-4.7c-1.8-1.7-3.6-3.4-5.3-5.2c-1.7-1.8-3.4-3.8-5-5.8c-1.6-2-3.2-4.1-4.7-6.2s-3-4.4-4.3-6.6
		c-1.4-2.3-2.7-4.6-3.9-7c-1.2-2.4-2.4-4.8-3.5-7.3c-1.1-2.5-2.1-5-3-7.5c-0.9-2.5-1.7-5.1-2.5-7.6c-0.7-2.6-1.4-5.1-1.9-7.7
		c-0.6-2.6-1-5.1-1.4-7.7c-0.4-2.6-0.6-5.1-0.8-7.6c-0.2-2.5-0.3-5-0.2-7.4c0-2.4,0.1-4.9,0.3-7.2c0.2-2.4,0.5-4.7,0.9-6.9
		c0.4-2.3,0.9-4.4,1.5-6.6c0.6-2.1,1.3-4.2,2-6.1c0.8-2,1.6-3.9,2.6-5.7c0.9-1.8,2-3.5,3.1-5.1c1.1-1.6,2.3-3.1,3.6-4.5
		c1.3-1.4,2.6-2.7,4-3.9s2.9-2.3,4.4-3.2c1.5-1,3.1-1.8,4.8-2.5c1.6-0.7,3.3-1.3,5.1-1.8c1.7-0.5,3.5-0.8,5.4-1.1
		c1.8-0.2,3.7-0.3,5.6-0.3s3.8,0.2,5.7,0.5c1.9,0.3,3.9,0.7,5.8,1.2c2,0.5,3.9,1.2,5.9,1.9c2,0.8,3.9,1.7,5.9,2.7
		c2,1,3.9,2.1,5.8,3.4s3.8,2.6,5.7,4c1.9,1.4,3.7,3,5.5,4.7c1.8,1.7,3.6,3.4,5.3,5.2c1.7,1.8,3.4,3.8,5,5.8c1.6,2,3.2,4.1,4.7,6.2
		s3,4.4,4.3,6.6c1.4,2.3,2.7,4.6,3.9,7C393.9,156.1,395.1,158.5,396.2,161z"/>
	<path class="st21" d="M289.7,188.7l-62.2,28.5c-1.8,0.8-2.7,2.8-2.2,4.8c1.2,4.3,3.7,11.7,7.2,15.7c1.1,1.3,3,1.7,4.6,0.9
		l61.3-27.5"/>
	<path class="st28" d="M320.8,115.4c-4.4,5.2-7.5,11.4-9.1,17.9c-1.7,6.5-2,13.3-1.6,20c1,13.5,4.8,26.6,10.1,39
		c5.3,12.4,12.6,24,22.1,33.6c4.7,4.8,10.1,9,16.1,12c3,1.5,6.2,2.7,9.5,3.5c3.3,0.8,6.7,1.1,10.1,1c-6.8,0.7-13.7-0.8-20-3.6
		c-6.2-2.9-11.8-7.1-16.8-11.8c-5-4.7-9.3-10.2-13.1-15.9c-3.8-5.7-7.1-11.8-9.8-18.1c-2.6-6.3-4.8-12.8-6.5-19.5
		c-1.7-6.6-2.9-13.4-3.2-20.3c-0.3-6.8,0.2-13.8,2.2-20.4C312.7,126.5,316.1,120.3,320.8,115.4z"/>
	<path class="st28" d="M356.8,246.7c-2.5-1.1-6.4-0.9-9.1-1.6c-29.7-7.9-48.7-35.5-53.4-64.9c-2.8-17.9-0.2-37.4,11.9-51.6
		c0.8-1,1.7-1.9,2.6-2.8c-1.4,1.2-2.2,5-2.8,6.7c-2.1,5.9-3.4,12.2-4,18.4c-3,31.9,14.6,64.9,37.5,85.7
		C339.5,236.7,352.7,245.6,356.8,246.7z"/>
	<path class="st28" d="M367.9,215.5c-1.7-0.7-4.2-0.6-6-1.1c-19.6-5.2-32.2-23.5-35.3-42.9c-1.9-11.8-0.1-24.7,7.9-34.1
		c0.5-0.6,1.1-1.3,1.7-1.8c-0.9,0.8-1.5,3.3-1.8,4.4c-1.4,3.9-2.2,8-2.6,12.2c-2,21.1,9.7,42.9,24.8,56.6
		C356.5,208.8,365.2,214.7,367.9,215.5z"/>
	<path class="st28" d="M322.2,143.8c0.2-2.1,0.5-4.2,1-6.3c0.5-2.1,1.2-4.1,2-6c1.7-3.9,4.3-7.5,8-10c3.6-2.5,8.2-3.6,12.5-3.3
		c4.4,0.3,8.6,1.7,12.4,3.7c3.8,2,7.4,4.5,10.6,7.4c3.2,2.9,6.1,6,8.8,9.4c5.3,6.7,9.6,14.2,12.9,22.1c3.3,7.9,5.6,16.2,6.7,24.7
		c0.5,4.3,0.6,8.6,0.3,12.9c-0.2,2.2-0.4,4.3-0.8,6.4c-0.4,2.1-1,4.2-1.7,6.3c-1.5,4.1-3.8,8-7.1,11c-3.3,3-7.6,4.8-12,5
		c-4.4,0.2-8.7-0.9-12.5-2.7c-3.9-1.8-7.4-4.2-10.6-7c3.4,2.5,7,4.7,10.9,6.2c3.9,1.5,8,2.4,12.1,1.9c4-0.4,7.9-2.2,10.7-5
		c2.9-2.8,4.9-6.4,6.2-10.3c2.6-7.8,2.7-16.2,1.6-24.4c-1.1-8.2-3.3-16.3-6.6-23.9c-3.2-7.7-7.3-15-12.4-21.5
		c-5-6.6-11.1-12.4-18.2-16.5c-3.6-2-7.5-3.4-11.5-3.8c-4-0.4-8.1,0.4-11.6,2.5c-3.5,2.1-6.2,5.4-8,9.1
		C324.1,135.6,323,139.7,322.2,143.8z"/>
	<path class="st28" d="M381.4,174.4c0.2,1.9,0.3,3.8,0.1,5.7c-0.2,1.9-0.7,3.8-1.6,5.6c-0.9,1.7-2.5,3.3-4.5,3.9
		c-2,0.7-4.1,0.5-6-0.1c-1.9-0.6-3.6-1.6-5.2-2.8c-1.5-1.2-3-2.6-4.3-4c-2.6-2.9-4.6-6.3-6.3-9.8c-1.6-3.5-2.8-7.2-3.4-11.1
		c-0.3-1.9-0.4-3.9-0.4-5.8c0-2,0.3-3.9,0.9-5.8c0.6-1.9,1.6-3.8,3.1-5.1c0.8-0.7,1.7-1.2,2.6-1.6c1-0.3,2-0.5,3-0.4
		c2,0.1,3.9,0.9,5.5,1.9c1.7,1,3.1,2.3,4.4,3.6c-1.5-1.2-3-2.3-4.7-3.1c-1.7-0.8-3.5-1.4-5.3-1.3c-0.9,0-1.8,0.2-2.6,0.5
		c-0.8,0.3-1.5,0.8-2.1,1.4c-1.2,1.2-2,2.9-2.5,4.6c-0.9,3.5-0.8,7.3-0.1,10.9c0.6,3.6,1.8,7.2,3.4,10.5c1.5,3.4,3.5,6.6,5.9,9.4
		c1.2,1.4,2.5,2.7,3.9,3.9c1.4,1.1,3,2.1,4.6,2.7c1.7,0.6,3.5,0.8,5.1,0.4c1.7-0.4,3.1-1.6,4.1-3.1c1-1.5,1.6-3.3,2-5.1
		C381.3,178.2,381.5,176.3,381.4,174.4z"/>
	<path class="st9" d="M361.5,150.7c1.8,9.1,6.1,18.1,12.3,24.8l75.1-33c1.3-11.7-3-22-12.2-25.7L361.5,150.7z"/>
	<path class="st9" d="M362.6,159.1l79.1-36"/>
	<g>
		<defs>
			<rect id="SVGID_31_" x="329.5" y="90.1" width="120.7" height="102.7"/>
		</defs>
		<clipPath id="SVGID_32_">
			<use xlink:href="#SVGID_31_"  style="overflow:visible;"/>
		</clipPath>
		<g class="st32">
			<path class="st18" d="M362.6,159.1l79.1-36"/>
		</g>
	</g>
	<path class="st9" d="M365.1,164.7l80.2-35.6"/>
	<g>
		<defs>
			<rect id="SVGID_33_" x="282.9" y="47.4" width="167.3" height="198.7"/>
		</defs>
		<clipPath id="SVGID_34_">
			<use xlink:href="#SVGID_33_"  style="overflow:visible;"/>
		</clipPath>
		<g class="st33">
			<path class="st14" d="M365.1,164.7l80.2-35.6"/>
		</g>
	</g>
	<g>
		<defs>
			<rect id="SVGID_35_" x="346.9" y="103.4" width="103.3" height="85.3"/>
		</defs>
		<clipPath id="SVGID_36_">
			<use xlink:href="#SVGID_35_"  style="overflow:visible;"/>
		</clipPath>
		<g class="st34">
			<path class="st21" d="M435.2,145.3l-61.3,27.5c-1.6,0.7-3.5,0.4-4.6-0.9c-3.5-4-5.9-11.4-7.2-15.7c-0.5-1.9,0.4-3.9,2.2-4.7
				l72-32.7c0,0,12.1,5.7,10.1,21.3L435.2,145.3z"/>
		</g>
	</g>
	<path class="st9" d="M270.2,109.4c0-0.3,0-0.4,0-0.4C270.3,109.2,270.3,109.3,270.2,109.4z"/>
	<path class="st28" d="M280.2,115.3c-3.4,6.9-7.3,11.3-10.8,21.5c-5.9,17.1-7.5,34.9-9.3,52.8c3.7-2.8,8-4.8,12.5-5.9
		c-0.8-10.9-1.4-21.8-1-32.7S276.5,125.5,280.2,115.3"/>
	<path class="st28" d="M241.3,165.7c-6.7-11.5-19.8-19.1-33.2-18.9c1.5,1.5,2.5,2.6,4,4.1c2,2,4.1,4.1,6.7,5.4
		c1.8,0.9,3.8,1.4,5.8,1.9c2.7,0.7,5.3,1.3,8,2C235.7,161,239.6,163.8,241.3,165.7z"/>
	<g>
		<g transform="translate(13.031254, 312.473711)">
			<g>
				<path class="st4" d="M31.7,21.8v8.4H17.1v8.3h13.5v8.4H17.1v16.8H7.6V21.8H31.7z"/>
			</g>
		</g>
	</g>
	<g>
		<g transform="translate(34.572855, 312.473711)">
			<g>
				<path class="st4" d="M24.3,21.8v41.8h-9.5V21.8H24.3z"/>
			</g>
		</g>
	</g>
	<g>
		<g transform="translate(46.274461, 312.473711)">
			<g>
				<path class="st4" d="M16,30.1v-8.4h29.4v8.4h-9.9v33.4h-9.5V30.1H16z"/>
			</g>
		</g>
	</g>
	<g>
		<g transform="translate(68.917831, 312.473711)">
			<g>
				<path class="st4" d="M60.8,63.6l-2-24.8h-0.3L50,63.3h-5.7l-8.6-24.5h-0.3l-2,24.8H24l3.8-41.8h10.1l9.3,24.1l9.3-24.1h10.1
					l3.8,41.8H60.8z"/>
			</g>
		</g>
	</g>
	<g>
		<g transform="translate(104.858491, 312.473711)">
			<g>
				<path class="st4" d="M59.4,21.8l16.9,41.8H66.1L63,55.2H47.1L44,63.6H33.7l16.9-41.8H59.4z M59.7,46.8l-4.7-12.1H55l-4.7,12.1
					H59.7z"/>
			</g>
		</g>
	</g>
	<g>
		<g transform="translate(134.644404, 312.473711)">
			<g>
				<path class="st4" d="M57.6,37.6v25.9h-9.5V21.8h9.5l16.6,25.9h0.1V21.8h9.5v41.8h-9.5L57.7,37.6H57.6z"/>
			</g>
		</g>
	</g>
	<g>
		<g transform="translate(166.02599, 312.473711)">
			<g>
				<path class="st4" d="M79.8,21.8l16.9,41.8H86.4l-3.1-8.4H67.4l-3.1,8.4H54.1L71,21.8H79.8z M80.1,46.8l-4.7-12.1h-0.1l-4.7,12.1
					H80.1z"/>
			</g>
		</g>
	</g>
	<g>
		<g transform="translate(195.811904, 312.473711)">
			<g>
				<path class="st4" d="M106.3,40.1v9.1c-1.1,5-3.5,8.7-7.1,11.3c-3.6,2.5-7.7,3.8-12.2,3.8c-5.7,0-10.5-2.1-14.4-6.3
					c-4-4.2-5.9-9.3-5.9-15.3c0-6.1,1.9-11.2,5.8-15.4C76.3,23.1,81.2,21,87,21c6.8,0,12.1,2.4,16.1,7.1L96.9,35
					c-2.2-3.6-5.3-5.4-9.3-5.4c-2.9,0-5.4,1.3-7.5,3.8c-2.1,2.5-3.1,5.6-3.1,9.2c0,3.5,1,6.6,3.1,9.1c2.1,2.5,4.6,3.8,7.5,3.8
					c2.4,0,4.5-0.7,6.4-2.2c1.8-1.5,2.7-3.4,2.7-5.9H87v-7.4H106.3z"/>
			</g>
		</g>
	</g>
	<g>
		<g transform="translate(227.307484, 312.473711)">
			<g>
				<path class="st4" d="M102.9,21.8v8.4H88.5v8.3h13.8v8.4H88.5v8.4h14.4v8.4H79V21.8H102.9z"/>
			</g>
		</g>
	</g>
	<g>
		<g transform="translate(259.714861, 312.473711)">
			<g>
				<path class="st4" d="M87.2,30.1v-8.4h29.4v8.4h-9.9v33.4h-9.5V30.1H87.2z"/>
			</g>
		</g>
	</g>
	<g>
		<g transform="translate(282.358231, 312.473711)">
			<g>
				<path class="st4" d="M121.3,21.8v8.4h-14.4v8.3h13.8v8.4h-13.8v8.4h14.4v8.4H97.3V21.8H121.3z"/>
			</g>
		</g>
	</g>
	<g>
		<g transform="translate(304.393736, 312.473711)">
			<g>
				<path class="st4" d="M126.9,55c1.4,0,2.8-0.2,4.2-0.7c1.4-0.4,2.4-0.9,3-1.3l1-0.6l4,8.1c-0.1,0.1-0.3,0.2-0.6,0.4
					c-0.2,0.2-0.8,0.5-1.6,0.9c-0.9,0.5-1.8,0.9-2.8,1.2c-1,0.3-2.3,0.6-3.8,0.9c-1.6,0.3-3.2,0.4-4.9,0.4c-3.9,0-7.6-0.9-11.1-2.9
					c-3.5-1.9-6.3-4.5-8.4-7.9c-2.1-3.3-3.2-7-3.2-10.9c0-2.9,0.6-5.7,1.9-8.4c1.3-2.7,2.9-5,5-7c2.1-1.9,4.5-3.5,7.3-4.6
					c2.8-1.2,5.6-1.7,8.5-1.7c2.7,0,5.2,0.3,7.5,1c2.3,0.6,3.9,1.3,4.8,1.9l1.4,1l-4,8.1c-0.2-0.2-0.6-0.4-1.1-0.7
					c-0.5-0.3-1.4-0.7-2.8-1.1c-1.4-0.5-2.8-0.7-4.3-0.7c-2.3,0-4.4,0.4-6.2,1.1c-1.8,0.7-3.3,1.7-4.3,2.9c-1.1,1.2-1.9,2.5-2.4,3.9
					c-0.6,1.4-0.8,2.8-0.8,4.3c0,3.2,1.2,6,3.6,8.5C119.1,53.7,122.5,55,126.9,55z"/>
			</g>
		</g>
	</g>
	<g>
		<g transform="translate(333.001904, 312.473711)">
			<g>
				<path class="st4" d="M123.8,46.8v16.8h-9.5V21.8h9.5v16.7h13.5V21.8h9.5v41.8h-9.5V46.8H123.8z"/>
			</g>
		</g>
	</g>
	<g>
		<g transform="translate(26.99326, 334.641832)">
			<g>
				<path class="st28" d="M16.2,71h-2.1L9.2,58.8h2.2l3.8,9.9l3.8-9.9h2.1L16.2,71z"/>
			</g>
		</g>
	</g>
	<g>
		<g transform="translate(39.509519, 334.641832)">
			<g>
				<path class="st28" d="M15.8,60.5c1.2-1.2,2.8-1.8,4.6-1.8c1.8,0,3.3,0.6,4.6,1.8c1.2,1.2,1.9,2.6,1.9,4.4c0,1.7-0.6,3.2-1.9,4.4
					c-1.2,1.2-2.8,1.8-4.6,1.8c-1.8,0-3.3-0.6-4.6-1.8c-1.2-1.2-1.9-2.6-1.9-4.4C13.9,63.2,14.6,61.7,15.8,60.5z M20.4,60.6
					c-1.2,0-2.2,0.4-3.1,1.3c-0.8,0.8-1.3,1.8-1.3,3c0,1.2,0.4,2.2,1.3,3.1c0.9,0.8,1.9,1.3,3.1,1.3c1.2,0,2.2-0.4,3.1-1.3
					c0.8-0.8,1.3-1.9,1.3-3.1c0-1.2-0.4-2.2-1.3-3C22.6,61,21.6,60.6,20.4,60.6z"/>
			</g>
		</g>
	</g>
	<g>
		<g transform="translate(53.58531, 334.641832)">
			<g>
				<path class="st28" d="M25,58.8c0.9,0,1.7,0.2,2.5,0.5c0.8,0.3,1.5,0.8,2.1,1.4l-1.2,1.5c-0.4-0.5-1-0.9-1.6-1.1
					c-0.6-0.3-1.2-0.4-1.8-0.4c-1.2,0-2.2,0.4-3.1,1.3c-0.8,0.8-1.3,1.8-1.3,3c0,1.2,0.4,2.2,1.3,3.1c0.8,0.8,1.9,1.2,3.1,1.2
					c1.3,0,2.4-0.5,3.4-1.4l1.2,1.3c-0.6,0.6-1.4,1.1-2.2,1.5c-0.8,0.3-1.7,0.5-2.5,0.5c-1.8,0-3.3-0.6-4.5-1.8
					c-1.2-1.2-1.8-2.6-1.8-4.4c0-1.7,0.6-3.2,1.9-4.3C21.7,59.4,23.2,58.8,25,58.8z"/>
			</g>
		</g>
	</g>
	<g>
		<g transform="translate(66.19255, 334.641832)">
			<g>
				<path class="st28" d="M30.9,57.5h-1.6l-1.1-1.5l-1.1,1.5h-1.6l1.8-2.4h1.8L30.9,57.5z M32.5,60.7h-6.6v3.3h5.9v1.8h-5.9v3.4h6.8
					V71h-8.9V58.8h8.7V60.7z"/>
			</g>
		</g>
	</g>
	<g>
		<g transform="translate(85.168936, 334.641832)">
			<g>
				<path class="st28" d="M43,71h-1.9l0-9.1l-3.8,7.8h-1.3l-3.8-7.8V71h-1.9V58.8h2.4l4,8l4-8H43V71z"/>
			</g>
		</g>
	</g>
	<g>
		<g transform="translate(100.739268, 334.641832)">
			<g>
				<path class="st28" d="M43.2,68.2h-6.1L35.9,71h-2.1l5.4-12.1h2.1L46.5,71h-2.2L43.2,68.2z M42.4,66.4L40.1,61l-2.3,5.4H42.4z"/>
			</g>
		</g>
	</g>
	<g>
		<g transform="translate(113.879345, 334.641832)">
			<g>
				<path class="st28" d="M41.8,71h-2V58.8h2V71z"/>
			</g>
		</g>
	</g>
	<g>
		<g transform="translate(121.353154, 334.641832)">
			<g>
				<path class="st28" d="M46.2,58.7c1.6,0,3,0.4,4.3,1.3l-0.9,1.8c-1.2-0.8-2.4-1.1-3.6-1.1c-0.6,0-1.1,0.1-1.4,0.3
					c-0.3,0.2-0.5,0.5-0.5,0.9c0,0.4,0.2,0.7,0.5,1c0.3,0.3,0.7,0.5,1.2,0.6c0.5,0.1,1,0.3,1.6,0.5c0.6,0.2,1.1,0.4,1.6,0.6
					c0.5,0.2,0.9,0.6,1.2,1.1c0.3,0.5,0.5,1.1,0.5,1.7c0,1.1-0.4,1.9-1.3,2.6c-0.8,0.6-1.9,0.9-3.3,0.9c-0.9,0-1.8-0.2-2.7-0.5
					c-0.9-0.3-1.6-0.8-2.3-1.4l0.9-1.8c0.6,0.6,1.3,1,2,1.3c0.7,0.3,1.4,0.5,2.1,0.5c0.7,0,1.3-0.1,1.7-0.4c0.4-0.3,0.6-0.6,0.6-1.1
					c0-0.4-0.2-0.8-0.5-1c-0.3-0.3-0.7-0.5-1.2-0.6c-0.5-0.1-1-0.3-1.6-0.5c-0.6-0.2-1.1-0.4-1.6-0.6c-0.5-0.2-0.9-0.6-1.2-1
					c-0.3-0.5-0.5-1-0.5-1.7c0-1,0.4-1.8,1.2-2.5C43.8,59,44.9,58.7,46.2,58.7z"/>
			</g>
		</g>
	</g>
	<g>
		<g transform="translate(139.887684, 334.641832)">
			<g>
				<path class="st28" d="M56.7,60.7h-3.8V71h-2.1V60.7H47v-1.8h9.7V60.7z"/>
			</g>
		</g>
	</g>
	<g>
		<g transform="translate(150.961398, 334.641832)">
			<g>
				<path class="st28" d="M60.8,60.7h-6.6v3.3h5.9v1.8h-5.9v3.4H61V71h-8.9V58.8h8.7V60.7z"/>
			</g>
		</g>
	</g>
	<g>
		<g transform="translate(163.035807, 334.641832)">
			<g>
				<path class="st28" d="M61.5,58.8c0.9,0,1.7,0.2,2.5,0.5c0.8,0.3,1.5,0.8,2.1,1.4l-1.2,1.5c-0.4-0.5-1-0.9-1.6-1.1
					c-0.6-0.3-1.2-0.4-1.8-0.4c-1.2,0-2.2,0.4-3.1,1.3c-0.8,0.8-1.3,1.8-1.3,3c0,1.2,0.4,2.2,1.3,3.1c0.8,0.8,1.9,1.2,3.1,1.2
					c1.3,0,2.4-0.5,3.4-1.4l1.2,1.3c-0.6,0.6-1.4,1.1-2.2,1.5c-0.8,0.3-1.7,0.5-2.5,0.5c-1.8,0-3.3-0.6-4.5-1.8
					c-1.2-1.2-1.8-2.6-1.8-4.4c0-1.7,0.6-3.2,1.9-4.3C58.2,59.4,59.7,58.8,61.5,58.8z"/>
			</g>
		</g>
	</g>
	<g>
		<g transform="translate(175.643053, 334.641832)">
			<g>
				<path class="st28" d="M70.9,71h-2.1v-5h-6.4v5h-2V58.8h2v5.3h6.4v-5.3h2.1V71z"/>
			</g>
		</g>
	</g>
	<g>
		<g transform="translate(189.47191, 334.641832)">
			<g>
				<path class="st28" d="M65.2,68.8c0.3,0,0.5,0.1,0.7,0.3c0.2,0.2,0.3,0.5,0.3,0.8c0,0.3-0.1,0.6-0.3,0.9l-1,1.5h-1l0.7-1.5
					c-0.3-0.2-0.5-0.5-0.5-0.9c0-0.3,0.1-0.6,0.3-0.8C64.7,69,64.9,68.8,65.2,68.8z"/>
			</g>
		</g>
	</g>
	<g>
		<g transform="translate(202.70406, 334.641832)">
			<g>
				<path class="st28" d="M74.8,71h-2.1l-4.9-12.1H70l3.8,9.9l3.8-9.9h2.1L74.8,71z"/>
			</g>
		</g>
	</g>
	<g>
		<g transform="translate(215.220313, 334.641832)">
			<g>
				<path class="st28" d="M74.4,60.5c1.2-1.2,2.8-1.8,4.6-1.8c1.8,0,3.3,0.6,4.6,1.8c1.2,1.2,1.9,2.6,1.9,4.4c0,1.7-0.6,3.2-1.9,4.4
					c-1.2,1.2-2.8,1.8-4.6,1.8c-1.8,0-3.3-0.6-4.6-1.8c-1.2-1.2-1.9-2.6-1.9-4.4C72.5,63.2,73.1,61.7,74.4,60.5z M79,60.6
					c-1.2,0-2.2,0.4-3.1,1.3c-0.8,0.8-1.3,1.8-1.3,3c0,1.2,0.4,2.2,1.3,3.1c0.9,0.8,1.9,1.3,3.1,1.3c1.2,0,2.2-0.4,3.1-1.3
					c0.8-0.8,1.3-1.9,1.3-3.1c0-1.2-0.4-2.2-1.3-3C81.2,61,80.1,60.6,79,60.6z"/>
			</g>
		</g>
	</g>
	<g>
		<g transform="translate(229.296111, 334.641832)">
			<g>
				<path class="st28" d="M83.6,58.8c0.9,0,1.7,0.2,2.5,0.5c0.8,0.3,1.5,0.8,2.1,1.4L87,62.1c-0.4-0.5-1-0.9-1.6-1.1
					c-0.6-0.3-1.2-0.4-1.8-0.4c-1.2,0-2.2,0.4-3.1,1.3c-0.8,0.8-1.3,1.8-1.3,3c0,1.2,0.4,2.2,1.3,3.1c0.8,0.8,1.9,1.2,3.1,1.2
					c1.3,0,2.4-0.5,3.4-1.4l1.2,1.3c-0.6,0.6-1.4,1.1-2.2,1.5c-0.8,0.3-1.7,0.5-2.5,0.5c-1.8,0-3.3-0.6-4.5-1.8
					c-1.2-1.2-1.8-2.6-1.8-4.4c0-1.7,0.6-3.2,1.9-4.3C80.3,59.4,81.8,58.8,83.6,58.8z"/>
			</g>
		</g>
	</g>
	<g>
		<g transform="translate(241.903356, 334.641832)">
			<g>
				<path class="st28" d="M89.5,57.5h-1.6l-1.1-1.5l-1.1,1.5h-1.6l1.8-2.4h1.8L89.5,57.5z M91.1,60.7h-6.6v3.3h5.9v1.8h-5.9v3.4h6.8
					V71h-8.9V58.8h8.7V60.7z"/>
			</g>
		</g>
	</g>
	<g>
		<g transform="translate(260.879742, 334.641832)">
			<g>
				<path class="st28" d="M101.6,71h-1.9l0-9.1l-3.8,7.8h-1.3l-3.8-7.8V71h-1.9V58.8h2.4l4,8l4-8h2.4V71z"/>
			</g>
		</g>
	</g>
	<g>
		<g transform="translate(276.450069, 334.641832)">
			<g>
				<path class="st28" d="M101.8,68.2h-6.1L94.5,71h-2.1l5.4-12.1h2.1l5.3,12.1h-2.2L101.8,68.2z M101,66.4L98.7,61l-2.3,5.4H101z"
					/>
			</g>
		</g>
	</g>
	<g>
		<g transform="translate(289.590151, 334.641832)">
			<g>
				<path class="st28" d="M100.4,71h-2V58.8h2V71z"/>
			</g>
		</g>
	</g>
	<g>
		<g transform="translate(297.063967, 334.641832)">
			<g>
				<path class="st28" d="M104.8,58.7c1.6,0,3,0.4,4.3,1.3l-0.9,1.8c-1.2-0.8-2.4-1.1-3.6-1.1c-0.6,0-1.1,0.1-1.4,0.3
					c-0.3,0.2-0.5,0.5-0.5,0.9c0,0.4,0.2,0.7,0.5,1c0.3,0.3,0.7,0.5,1.2,0.6c0.5,0.1,1,0.3,1.6,0.5c0.6,0.2,1.1,0.4,1.6,0.6
					c0.5,0.2,0.9,0.6,1.2,1.1c0.3,0.5,0.5,1.1,0.5,1.7c0,1.1-0.4,1.9-1.3,2.6c-0.8,0.6-1.9,0.9-3.3,0.9c-0.9,0-1.8-0.2-2.7-0.5
					c-0.9-0.3-1.6-0.8-2.3-1.4l0.9-1.8c0.6,0.6,1.3,1,2,1.3c0.7,0.3,1.4,0.5,2.1,0.5c0.7,0,1.3-0.1,1.7-0.4c0.4-0.3,0.6-0.6,0.6-1.1
					c0-0.4-0.2-0.8-0.5-1c-0.3-0.3-0.7-0.5-1.2-0.6c-0.5-0.1-1-0.3-1.6-0.5c-0.6-0.2-1.1-0.4-1.6-0.6c-0.5-0.2-0.9-0.6-1.2-1
					c-0.3-0.5-0.5-1-0.5-1.7c0-1,0.4-1.8,1.2-2.5C102.4,59,103.5,58.7,104.8,58.7z"/>
			</g>
		</g>
	</g>
	<g>
		<g transform="translate(315.598473, 334.641832)">
			<g>
				<path class="st28" d="M115.1,60.7H109v3.5h5.5V66H109v5h-2V58.8h8.1L115.1,60.7z"/>
			</g>
		</g>
	</g>
	<g>
		<g transform="translate(326.620186, 334.641832)">
			<g>
				<path class="st28" d="M112.7,71h-2V58.8h2V71z"/>
			</g>
		</g>
	</g>
	<g>
		<g transform="translate(334.094001, 334.641832)">
			<g>
				<path class="st28" d="M121.4,60.7h-3.8V71h-2.1V60.7h-3.8v-1.8h9.7V60.7z"/>
			</g>
		</g>
	</g>
	<g>
		<g transform="translate(345.167716, 334.641832)">
			<g>
				<path class="st28" d="M116.3,69.1c0.2-0.2,0.5-0.3,0.8-0.3c0.3,0,0.6,0.1,0.8,0.3c0.2,0.2,0.3,0.5,0.3,0.8
					c0,0.3-0.1,0.6-0.3,0.8c-0.2,0.2-0.5,0.3-0.8,0.3c-0.3,0-0.6-0.1-0.8-0.3c-0.2-0.2-0.3-0.5-0.3-0.8
					C116,69.6,116.1,69.3,116.3,69.1z"/>
			</g>
		</g>
	</g>
</g>
</svg>
