<?xml version="1.0" encoding="utf-8"?>
<!-- Generator: Adobe Illustrator 23.0.2, SVG Export Plug-In . SVG Version: 6.00 Build 0)  -->
<svg version="1.1" xmlns="http://www.w3.org/2000/svg" xmlns:xlink="http://www.w3.org/1999/xlink" x="0px" y="0px"
	 viewBox="0 0 409 321.2" style="enable-background:new 0 0 409 321.2;" xml:space="preserve">
<style type="text/css">
	.st0{display:none;}
	.st1{display:inline;}
	.st2{clip-path:url(#SVGID_2_);}
	.st3{clip-path:url(#SVGID_4_);}
	.st4{fill:#757575;}
	.st5{clip-path:url(#SVGID_6_);}
	.st6{clip-path:url(#SVGID_8_);}
	.st7{fill:none;stroke:#FFFFFF;stroke-width:14;}
	.st8{clip-path:url(#SVGID_10_);}
	.st9{fill:#FFCA28;}
	.st10{display:inline;fill:#FFCA28;}
	.st11{display:inline;fill:#FFFFFF;}
	.st12{display:inline;fill:#FFCA28;stroke:#FFFFFF;stroke-width:2.179;stroke-miterlimit:10;}
	.st13{clip-path:url(#SVGID_12_);}
	.st14{fill:none;stroke:#FFFFFF;stroke-width:5.448;stroke-miterlimit:10;}
	.st15{display:inline;fill:none;stroke:#FFFFFF;stroke-miterlimit:10;}
	.st16{display:inline;fill:#FFCA28;stroke:#FFFFFF;stroke-width:5.448;stroke-miterlimit:10;}
	.st17{clip-path:url(#SVGID_14_);}
	.st18{fill:none;stroke:#FFFFFF;stroke-width:2.179;stroke-miterlimit:10;}
	.st19{clip-path:url(#SVGID_16_);}
	.st20{clip-path:url(#SVGID_18_);}
	.st21{fill:none;stroke:#FFFFFF;stroke-miterlimit:10;}
	.st22{clip-path:url(#SVGID_20_);}
	.st23{clip-path:url(#SVGID_22_);}
	.st24{clip-path:url(#SVGID_24_);}
	.st25{clip-path:url(#SVGID_26_);}
	.st26{fill:none;stroke:#424242;stroke-width:14;}
	.st27{clip-path:url(#SVGID_28_);}
	.st28{fill:#424242;}
	.st29{fill:#FFFFFF;}
	.st30{fill:#424242;stroke:#FFFFFF;stroke-width:2.179;stroke-miterlimit:10;}
	.st31{clip-path:url(#SVGID_30_);}
	.st32{fill:#424242;stroke:#FFFFFF;stroke-width:5.448;stroke-miterlimit:10;}
	.st33{clip-path:url(#SVGID_32_);}
	.st34{clip-path:url(#SVGID_34_);}
	.st35{clip-path:url(#SVGID_36_);}
</style>
<g id="Camada_1" class="st0">
	<g class="st1">
		<defs>
			<rect id="SVGID_1_" x="80.1" y="16.1" width="269.9" height="269.9"/>
		</defs>
		<clipPath id="SVGID_2_">
			<use xlink:href="#SVGID_1_"  style="overflow:visible;"/>
		</clipPath>
		<g class="st2">
			<g>
				<defs>
					<circle id="SVGID_3_" cx="215.1" cy="151.1" r="135"/>
				</defs>
				<clipPath id="SVGID_4_">
					<use xlink:href="#SVGID_3_"  style="overflow:visible;"/>
				</clipPath>
				<g class="st3">
					<path class="st4" d="M80.1,16.1H350V286H80.1V16.1z"/>
				</g>
			</g>
		</g>
	</g>
	<g class="st1">
		<defs>
			<rect id="SVGID_5_" x="70" y="35.5" width="269.9" height="269.9"/>
		</defs>
		<clipPath id="SVGID_6_">
			<use xlink:href="#SVGID_5_"  style="overflow:visible;"/>
		</clipPath>
		<g class="st5">
			<g>
				<defs>
					<path id="SVGID_7_" d="M205,35.5c-74.5,0-135,60.4-135,135s60.4,135,135,135s135-60.4,135-135S279.5,35.5,205,35.5z"/>
				</defs>
				<clipPath id="SVGID_8_">
					<use xlink:href="#SVGID_7_"  style="overflow:visible;"/>
				</clipPath>
				<g class="st6">
					<path class="st7" d="M205,35.5c-74.5,0-135,60.4-135,135s60.4,135,135,135s135-60.4,135-135S279.5,35.5,205,35.5z"/>
				</g>
			</g>
		</g>
	</g>
	<g class="st1">
		<defs>
			<rect id="SVGID_9_" x="5.7" y="3.1" width="236" height="192.5"/>
		</defs>
		<clipPath id="SVGID_10_">
			<use xlink:href="#SVGID_9_"  style="overflow:visible;"/>
		</clipPath>
		<g class="st8">
			<path class="st9" d="M240.6,109.7c-0.3,0.8-6.5-0.6-7.3-0.8c-4.5-0.8-8.8-1.8-12.8-3.9c-4.4-2.3-8.4-5.3-13-7.4
				c-9.1-4.2-18.8-7.5-28.8-8.3c-10-0.8-20.4,1.1-28.8,6.6c-2.3,1.5-4.5,3.3-7.1,4.2c-6.5,2.3-13.4-1.2-20.1-3.1
				c-11.4-3.1-24.2-0.9-33.9,5.9c-2.8,2-6.6-0.8-5.5-4.1c2.3-6.7,4-13.6,5-20.6c0.5-3.1,1.2-6.1,2.4-9c2.7-6.8,5.6-12.1,9.9-19.3
				c3.3-4,6.6-7.9,9.8-11.9c1.8-2.1,3.8-4.4,6.6-4.7c1.7-0.1,3.3,0.5,4.8,1.2c3.4,1.5,6.7,3,10,4.7c0.8,0.4,1.8,1,2.1,1.9
				c0.2,0.5,0.1,1.1,0.3,1.7c0.2,0.7,0.8,1.2,1.5,1.7c2.3,1.7,4.9,3,7.7,3.8c0.8,1.8,2.7,2.9,4.8,2c1.7,2.5,4.9,2.8,7.5,2.9
				c-0.6,1.4,0.1,2.6,1.2,3.1c1.4,0.6,3,0.2,4.5-0.3c1.5-0.5,3-1,4.5-0.6c0.8,0.2,1.5,0.7,2.3,0.8c1.4,0.1,2.6-0.9,3.6-1.9
				c3.2-3.1,6.5-6.2,9.7-9.4c1-0.9,1.9-1.9,2.2-3.2c0.1-0.6,0.1-1.2-0.1-1.8c-0.5-2.1-1.4-4.1-2.5-5.9l-8.3-13.6
				c-1.9-3.1-3.9-6.4-7-8.4c-3-2-6.7-2.6-10.2-3.2l-26.9-4.4c-2.8-0.5-5.6-0.8-8.3-1c-2.7-0.2-5.5-0.1-8,0.8
				c-4.2,1.4-7.4,4.7-10.5,7.9c-5.8,6.1-11.6,12.2-17,18.7c-21,19.7-42.3,39.7-56.7,64.6c-4.4,7.6-8.1,15.6-13.2,22.8
				c-2.8,4-6,7.7-7.9,12.2c-1.8,4.3-2.1,9.6,0.8,14.2c0.2,0.3,0.5,0.7,0.8,0.9c4.2,3.4,9,5.9,13.9,8.2c12.1,5.7,24.7,10.2,37.6,13.5
				c5.7,1.4,11.6,2.6,17.4,3.8c16.8,3.3,34.5,6.1,50.7,0.4c8.9-3.1,16.9-8.7,25.7-10.8c18.3-6.5,39.9,7.2,51.4,20.6
				c2.6,3.1,5.6,8.4,6.8,13.3l21.5-10.9c-1.1-3.5-1.3-7-1.7-10.6C229.6,151.5,232.6,129.6,240.6,109.7z M134.6,36.2
				c-3.1-4.4-11-4.2-15.1-7.9c-1.6-1.4-2.6-3.4-3.5-5.3c-0.6-1.3-1.2-2.6-1.9-3.9c2.9,1.9,7,2.8,10.8,3.9c3.8,1.2,7.7,2.9,9.1,6.2
				C135,31.4,134.8,33.9,134.6,36.2z M151.2,46.2c-0.1,0.2-0.3,0.4-0.6,0.5c-0.3,0.1-0.5,0-0.8-0.1c-2.6-0.8-5.2-1.6-7.8-2.5
				c-0.2-0.8,0.9-1.5,1.8-1.7c0.9-0.2,2.1-0.8,1.9-1.6c0-0.3-0.3-0.6-0.5-0.8c-1.4-1.4-2.6-3-3.3-4.8c-0.9-2.2-1.1-4.6-2.1-6.7
				c-1-2.2-2.9-3.9-5.3-4.8c2.7,0.8,4.8,1.7,6.9,2.5c3.1,1.2,6.4,2.7,7.7,5.6c1.2,2.7,0.4,6,1.3,8.9
				C151.2,42.5,152.4,44.5,151.2,46.2z M157.9,49.9c-1.7,0.6-3.7,0.2-5.8-0.4c2.7-0.7,3.9-4,3.7-6.8c-0.1-2.8-1.1-5.5-1-8.3
				c0.1-1.2,0.3-2.3,0.3-3.5c-0.2-2.9-2.7-5.3-2.7-8.2c0-0.3,0-0.7,0.2-1c0.3-0.3,0.7-0.5,1.1-0.5c1.2,0,2.3,0.8,3,1.7
				c0.8,0.9,1.3,2,2,3c0.6,0.8,1.4,1.6,1.9,2.5c0.4,0.8,0.4,1.7,0.4,2.6c0.2,3.9,0.4,7.8,0.6,11.8c0.1,1.1,0.1,2.3-0.2,3.3
				C161.1,47.9,159.7,49.3,157.9,49.9z M170.2,18.2c3.2,5,6.2,10.2,8.7,15.5c0.8,1.8,1.6,3.6,1.6,5.5c0,2.4-1.2,4.6-2.8,6.3
				c-1.6,1.7-3.6,3.1-6.1,4c1-2.7,4-4.6,4.1-7.5c0-1-0.3-1.9-0.7-2.8c-1.9-4.9-3.8-9.8-5.7-14.8c-0.4-1.1-0.9-2.3-0.8-3.5
				C168.5,19.9,169.1,18.7,170.2,18.2z M164.8,22.2c1.2,0.8,1.7,2.3,2,3.7c1.2,4.5,2.4,9,3.6,13.5c0.9,3.4,1.7,7.5-0.6,10.2
				c-1.8,2.1-5.1,2.5-8.5,1.9c2.1-1.2,3.3-3.7,3.7-6.1c0.3-2.4-0.1-4.9-0.5-7.3c-0.7-4.3-1.4-8.6-2.1-12.8c-0.1-0.7-0.2-1.4-0.1-2
				c0.2-0.7,0.7-1.3,1.4-1.4C164,21.8,164.4,22,164.8,22.2z M122.5,7.3c5-0.2,10,0.7,14.9,1.7c6.1,1.1,12.2,2.3,18.3,3.4
				c2.6,0.5,5.3,1,7.2,2.8c-2.1,0.1-3.6,3-5.7,3.8c-0.9,0.3-1.9,0.3-2.9,0.3c-2.5,0.2-5,1.3-6.8,3.1c-0.4,0.5-0.9,1-1.4,1.3
				c-1.1,0.7-2.6,0.4-3.7-0.2c-1.1-0.6-2-1.4-3.1-2.1c-3.7-2-8.7-0.7-12.8-2.2c-1.5-0.6-2.8-1.5-4.3-2.1c-2.3-1-5-1.2-7.5-1.8
				c-2.5-0.5-5.1-1.5-6.5-3.5C112.2,8.8,117.4,7.4,122.5,7.3z M30,140.1c-1.9,0.9-3.8,2.1-6,2.1c-3.3-0.1-5.6-3.1-7.4-5.8
				c-1-1.4-2-3-2.3-4.7c-0.7-3.7,1.6-7.2,3.8-10.2c5.9-8.4,11.2-17.2,16-26.3c2-3.9,4.1-7.4,6.4-10.6c1.5-4.1,3.6-8,6.1-11.5
				C54,62.2,64.8,54,74.6,44.5c-1.2,1.5-2.3,3-3.3,4.5c0.8-0.7,1.6-1.4,2.4-2c11.9-9.2,18-18.1,31.3-30.6c4.1,4.6,7.8,7.6,5.3,12.5
				c-3.6,7.1-10.8,11.6-15.1,18.3c-4.1,6.3-5.4,13.9-8.4,20.8c-1.8,4.3-4.2,8.3-5.2,12.9c-1,4.8-0.3,9.7-0.6,14.6
				c-0.4,5.6-2.3,11.2-6.3,15.2c-4.1,4.2-9.9,6.2-15.5,7.9c-5.6,1.7-11.5,3.1-16.2,6.5c-4.8,3.4-8.3,9.3-7,15.2
				C34.5,138.9,31.9,139.2,30,140.1z M77.7,114c-4.9,8.5-12.8,14.9-21.8,17.8c-5.7,1.8-12.2,2.4-16.6,6.5c2.5-4.9,6.1-9.4,11.1-11.6
				c2.3-1,4.8-1.4,7.2-2.1C64.9,122.5,71.4,118.2,77.7,114z M152.7,154.5c-16.5,13.6-39.3,19.5-60.3,15.4c-6.1-1.2-11.9-3.1-17.8-5
				c-14.1-4.6-28.5-9.3-40.7-17.8c9.1-0.4,17.1-5.5,25-9.9c7.9-4.4,17.1-8.3,25.8-6c10.6,2.7,18.3,13.8,29.2,14
				c-5.9,1.6-11.8,3.3-17.7,4.9c-4.3,1.1-8.7,2.3-13.1,1.8c10.2,2.8,21.1,2.9,31.4,0.4c5.9-1.4,11.6-3.7,17.4-5.3
				c5.9-1.6,12.1-2.5,18-1.2c1.6,0.4,5.4,0.8,5.7,3.7C155.9,151.5,154.2,153.2,152.7,154.5z M157.5,134.2c-3.2,1.5-5.8,4.1-9.2,5
				c-3.3,0.9-6.8-0.1-10.3-0.2c-8-0.2-15.9,4.3-23.8,2.7c-6.5-1.3-11.5-6.5-16.2-11.2c-4.8-4.7-10.5-9.4-17.2-9.2
				c3.1-2.7,6.3-5.4,9.4-8.2c0,0,0.1-0.1,0.1-0.1c-1.1-3.5-0.1-7.1,2-8.1c0.5,1.6,1.2,3.2,2.1,4.7c1.7-1.3,3.5-2.6,5.4-3.6
				c8.9-4.8,20-4.1,29.4-0.4c2.4,0.9,4.8,2.1,7.3,2.4c2.4,0.4,4.8,0,7.3,0c12.3-0.2,24.2,8.7,27.4,20.6c-0.4-0.5,2.2,4.2,3.5,9.3
				C170.7,133.1,163.3,131.6,157.5,134.2z"/>
		</g>
	</g>
	<path class="st10" d="M77.7,114c-4.9,8.5-12.8,14.9-21.8,17.8c-5.7,1.8-12.2,2.4-16.6,6.5c2.5-4.9,6.1-9.4,11.1-11.6
		c2.3-1,4.8-1.4,7.2-2.1C64.9,122.5,71.4,118.2,77.7,114z"/>
	<path class="st10" d="M110.3,29c-3.6,7.1-10.8,11.6-15.1,18.3c-4.1,6.3-5.4,13.9-8.4,20.8c-1.8,4.3-4.2,8.3-5.2,12.9
		c-1,4.8-0.3,9.7-0.6,14.6c-0.4,5.6-2.3,11.2-6.3,15.2c-4.1,4.2-9.9,6.2-15.5,7.9c-5.6,1.7-11.5,3.1-16.2,6.5
		c-4.8,3.4-8.3,9.3-7,15.2c-1.5-1.5-4-1.1-6-0.3c-1.9,0.9-3.8,2.1-6,2.1c-3.3-0.1-5.6-3.1-7.4-5.8c-1-1.4-2-3-2.3-4.7
		c-0.7-3.7,1.6-7.2,3.8-10.2c5.9-8.4,11.2-17.2,16-26.3c2-3.9,4.1-7.4,6.4-10.6c1.5-4.1,3.6-8,6.1-11.5C54,62.2,64.8,54,74.6,44.5
		c-1.2,1.5-2.3,3-3.3,4.5c0.8-0.7,1.6-1.4,2.4-2c11.9-9.2,18-18.1,31.3-30.6C109.1,21,112.8,24,110.3,29z"/>
	<path class="st10" d="M134.6,36.2c-3.1-4.4-11-4.2-15.1-7.9c-1.6-1.4-2.6-3.4-3.5-5.3c-0.6-1.3-1.2-2.6-1.9-3.9
		c2.9,1.9,7,2.8,10.8,3.9c3.8,1.2,7.7,2.9,9.1,6.2C135,31.4,134.8,33.9,134.6,36.2z"/>
	<path class="st10" d="M151.2,46.2c-0.1,0.2-0.3,0.4-0.6,0.5c-0.3,0.1-0.5,0-0.8-0.1c-2.6-0.8-5.2-1.6-7.8-2.5
		c-0.2-0.8,0.9-1.5,1.8-1.7c0.9-0.2,2.1-0.8,1.9-1.6c0-0.3-0.3-0.6-0.5-0.8c-1.4-1.4-2.6-3-3.3-4.8c-0.9-2.2-1.1-4.6-2.1-6.7
		c-1-2.2-2.9-3.9-5.3-4.8c2.7,0.8,4.8,1.7,6.9,2.5c3.1,1.2,6.4,2.7,7.7,5.6c1.2,2.7,0.4,6,1.3,8.9C151.2,42.5,152.4,44.5,151.2,46.2
		z"/>
	<path class="st10" d="M152.7,154.5c-16.5,13.6-39.3,19.5-60.3,15.4c-6.1-1.2-11.9-3.1-17.8-5c-14.1-4.6-28.5-9.3-40.7-17.8
		c9.1-0.4,17.1-5.5,25-9.9c7.9-4.4,17.1-8.3,25.8-6c10.6,2.7,18.3,13.8,29.2,14c-5.9,1.6-11.8,3.3-17.7,4.9
		c-4.3,1.1-8.7,2.3-13.1,1.8c10.2,2.8,21.1,2.9,31.4,0.4c5.9-1.4,11.6-3.7,17.4-5.3c5.9-1.6,12.1-2.5,18-1.2
		c1.6,0.4,5.4,0.8,5.7,3.7C155.9,151.5,154.2,153.2,152.7,154.5z"/>
	<path class="st10" d="M162.8,15.1c-2.1,0.1-3.6,3-5.7,3.8c-0.9,0.3-1.9,0.3-2.9,0.3c-2.5,0.2-5,1.3-6.8,3.1c-0.4,0.5-0.9,1-1.4,1.3
		c-1.1,0.7-2.6,0.4-3.7-0.2c-1.1-0.6-2-1.4-3.1-2.1c-3.7-2-8.7-0.7-12.8-2.2c-1.5-0.6-2.8-1.5-4.3-2.1c-2.3-1-5-1.2-7.5-1.8
		c-2.5-0.5-5.1-1.5-6.5-3.5c4-3.1,9.2-4.4,14.3-4.6c5-0.2,10,0.7,14.9,1.7c6.1,1.1,12.2,2.3,18.3,3.4
		C158.2,12.8,161,13.4,162.8,15.1z"/>
	<path class="st10" d="M161.5,46.1c-0.5,1.8-1.9,3.2-3.6,3.8c-1.7,0.6-3.7,0.2-5.8-0.4c2.7-0.7,3.9-4,3.7-6.8
		c-0.1-2.8-1.1-5.5-1-8.3c0.1-1.2,0.3-2.3,0.3-3.5c-0.2-2.9-2.7-5.3-2.7-8.2c0-0.3,0-0.7,0.2-1c0.3-0.3,0.7-0.5,1.1-0.5
		c1.2,0,2.3,0.8,3,1.7c0.8,0.9,1.3,2,2,3c0.6,0.8,1.4,1.6,1.9,2.5c0.4,0.8,0.4,1.7,0.4,2.6c0.2,3.9,0.4,7.8,0.6,11.8
		C161.8,43.9,161.8,45.1,161.5,46.1z"/>
	<path class="st10" d="M169.7,49.6c-1.8,2.1-5.1,2.5-8.5,1.9c2.1-1.2,3.3-3.7,3.7-6.1c0.3-2.4-0.1-4.9-0.5-7.3
		c-0.7-4.3-1.4-8.6-2.1-12.8c-0.1-0.7-0.2-1.4-0.1-2c0.2-0.7,0.7-1.3,1.4-1.4c0.4,0,0.8,0.1,1.1,0.3c1.2,0.8,1.7,2.3,2,3.7
		c1.2,4.5,2.4,9,3.6,13.5C171.3,42.9,172.1,46.9,169.7,49.6z"/>
	<path class="st10" d="M174.8,137.8c-4.2-4.7-11.6-6.3-17.3-3.6c-3.2,1.5-5.8,4.1-9.2,5c-3.3,0.9-6.8-0.1-10.3-0.2
		c-8-0.2-15.9,4.3-23.8,2.7c-6.5-1.3-11.5-6.5-16.2-11.2c-4.8-4.7-10.5-9.4-17.2-9.2c3.1-2.7,6.3-5.4,9.4-8.2c0,0,0.1-0.1,0.1-0.1
		c-1.1-3.5-0.1-7.1,2-8.1c0.5,1.6,1.2,3.2,2.1,4.7c1.7-1.3,3.5-2.6,5.4-3.6c8.9-4.8,20-4.1,29.4-0.4c2.4,0.9,4.8,2.1,7.3,2.4
		c2.4,0.4,4.8,0,7.3,0c12.3-0.2,24.2,8.7,27.4,20.6C171,128,173.6,132.8,174.8,137.8z"/>
	<path class="st10" d="M180.5,39.3c0,2.4-1.2,4.6-2.8,6.3c-1.6,1.7-3.6,3.1-6.1,4c1-2.7,4-4.6,4.1-7.5c0-1-0.3-1.9-0.7-2.8
		c-1.9-4.9-3.8-9.8-5.7-14.8c-0.4-1.1-0.9-2.3-0.8-3.5c0-1.2,0.6-2.5,1.7-2.9c3.2,5,6.2,10.2,8.7,15.5
		C179.7,35.5,180.5,37.4,180.5,39.3z"/>
	<path class="st11" d="M214.5,159.8c-5.3-6.7-16.2-8.6-23.7-13.8c-10.4-7.1-13.5-19.5-19.5-29.8c-3.5-5.8-9.6-11.8-17-10.8
		c8.2-7.5,20.9-10.8,32.2-8.5c9.9,2.1,18.2,8,27.9,10.9C220.6,124.4,218.9,142.4,214.5,159.8z"/>
	<path class="st11" d="M174.8,137.8c-4.2-4.7-11.6-6.3-17.3-3.6c-3.2,1.5-5.8,4.1-9.2,5c-3.3,0.9-6.8-0.1-10.3-0.2
		c-8-0.2-15.9,4.3-23.8,2.7c-6.5-1.3-11.5-6.5-16.2-11.2c-4.8-4.7-10.5-9.4-17.2-9.2c3.1-2.7,6.3-5.4,9.4-8.2c0,0,0.1-0.1,0.1-0.1
		c1.4-1.2,2.7-2.4,4.2-3.5c1.7-1.3,3.5-2.6,5.4-3.6c8.9-4.8,20-4.1,29.4-0.4c2.4,0.9,4.8,2.1,7.3,2.4c2.4,0.4,4.8,0,7.3,0
		c12.3-0.2,24.2,8.7,27.4,20.6C171,128,173.6,132.8,174.8,137.8z"/>
	<path class="st11" d="M152.7,154.5c-16.5,13.6-39.3,19.5-60.3,15.4c-6.1-1.2-11.9-3.1-17.8-5c-14.1-4.6-28.5-9.3-40.7-17.8
		c9-0.4,17.1-5.5,25-9.9c7.9-4.4,17.1-8.3,25.8-6c10.6,2.7,18.3,13.8,29.2,14c-5.9,1.6-11.8,3.3-17.7,4.9c-4.3,1.2-8.7,2.3-13.1,1.8
		c10.2,2.8,21.1,2.9,31.4,0.4c5.9-1.4,11.6-3.7,17.4-5.3c5.8-1.6,12.1-2.5,18-1.2c1.6,0.4,5.4,0.8,5.7,3.7
		C155.9,151.5,154.2,153.2,152.7,154.5z"/>
	<path class="st11" d="M110.3,29c-3.6,7.1-10.8,11.6-15.1,18.3c-4.1,6.3-5.4,13.9-8.4,20.8c-1.8,4.3-4.2,8.3-5.2,12.9
		c-1,4.8-0.3,9.7-0.6,14.6c-0.4,5.6-2.3,11.2-6.3,15.2c-4.1,4.2-9.9,6.2-15.5,7.9c-5.6,1.7-11.5,3.1-16.2,6.5
		c-4.8,3.4-8.3,9.3-7,15.2c-1.5-1.5-4-1.1-6-0.3c-1.9,0.9-3.8,2.1-6,2.1c-3.3-0.1-5.6-3.1-7.4-5.8c-1-1.4-2-3-2.3-4.7
		c-0.7-3.7,1.6-7.2,3.8-10.2c5.9-8.4,11.2-17.2,16-26.3c2-3.9,4.1-7.4,6.4-10.6c4.2-6,8.8-11.3,14.3-16.9c0,0,0,0,0.1-0.1
		c0.3-0.3,0.6-0.6,0.9-0.9c5.2-5.3,10-12.4,15.6-17.5c0.8-0.7,1.6-1.4,2.4-2c11.9-9.2,18-18.1,31.3-30.6C109.1,21,112.8,24,110.3,29
		z"/>
	<path class="st11" d="M77.7,114c-4.9,8.5-12.8,14.9-21.8,17.8c-5.7,1.8-12.2,2.4-16.6,6.5c2.4-4.9,6.1-9.4,11.1-11.6
		c2.3-1,4.8-1.4,7.2-2.1C64.9,122.5,71.4,118.2,77.7,114z"/>
	<path class="st11" d="M134.6,36.2c-3.1-4.4-11-4.2-15.1-7.9c-1.6-1.4-2.6-3.4-3.5-5.3c-0.6-1.3-1.2-2.6-1.9-3.9
		c2.9,1.9,7,2.8,10.8,3.9c3.8,1.2,7.7,2.9,9.1,6.2C135,31.4,134.8,33.9,134.6,36.2z"/>
	<path class="st11" d="M151.2,46.2c-0.2,0.2-0.3,0.4-0.6,0.5c-0.3,0.1-0.5,0-0.8-0.1c-2.6-0.8-5.2-1.6-7.8-2.5
		c-0.2-0.8,0.9-1.5,1.8-1.7c0.9-0.2,2-0.8,1.9-1.6c0-0.3-0.3-0.6-0.5-0.8c-1.4-1.4-2.6-3-3.3-4.8c-0.9-2.2-1.1-4.6-2.1-6.7
		c-1-2.2-2.9-3.9-5.3-4.8c2.7,0.8,4.8,1.7,6.9,2.5c3.1,1.2,6.4,2.7,7.7,5.6c1.2,2.7,0.4,6,1.3,8.9C151.2,42.5,152.4,44.5,151.2,46.2
		z"/>
	<path class="st11" d="M161.5,46.1c-0.5,1.8-1.9,3.2-3.6,3.8c-1.7,0.6-3.7,0.2-5.8-0.4c2.7-0.7,3.9-4,3.8-6.8
		c-0.1-2.8-1.1-5.5-1-8.3c0.1-1.2,0.3-2.3,0.3-3.5c-0.2-2.9-2.7-5.3-2.7-8.2c0-0.3,0-0.7,0.2-1c0.3-0.3,0.7-0.5,1.1-0.5
		c1.2,0,2.3,0.8,3,1.7c0.8,0.9,1.3,2,2,3c0.6,0.8,1.4,1.6,1.9,2.5c0.4,0.8,0.4,1.7,0.4,2.6c0.2,3.9,0.4,7.8,0.6,11.8
		C161.8,43.9,161.8,45.1,161.5,46.1z"/>
	<path class="st11" d="M169.7,49.6c-1.8,2.1-5.1,2.5-8.5,1.9c2.1-1.2,3.3-3.7,3.7-6.1c0.3-2.4-0.1-4.9-0.5-7.3
		c-0.7-4.3-1.4-8.6-2.1-12.8c-0.1-0.7-0.2-1.4-0.1-2c0.2-0.7,0.7-1.3,1.4-1.4c0.4,0,0.8,0.1,1.1,0.3c1.2,0.8,1.7,2.3,2,3.7
		c1.2,4.5,2.4,9,3.6,13.5C171.3,42.9,172.1,46.9,169.7,49.6z"/>
	<path class="st11" d="M180.5,39.3c0,2.4-1.2,4.6-2.8,6.3c-1.6,1.7-3.6,3.1-6.1,4c1-2.7,4-4.6,4.1-7.5c0-1-0.3-1.9-0.7-2.8
		c-1.9-4.9-3.8-9.8-5.7-14.8c-0.4-1.1-0.9-2.3-0.8-3.5c0-1.2,0.6-2.5,1.7-2.9c3.2,5,6.2,10.2,8.7,15.5
		C179.7,35.5,180.5,37.4,180.5,39.3z"/>
	<path class="st11" d="M162.8,15.1c-2.1,0.1-3.6,3-5.7,3.8c-0.9,0.3-1.9,0.3-2.8,0.3c-2.5,0.2-5,1.3-6.8,3.1c-0.4,0.5-0.9,1-1.4,1.3
		c-1.1,0.7-2.6,0.4-3.7-0.2c-1.1-0.6-2-1.4-3.1-2.1c-3.7-2-8.7-0.7-12.8-2.2c-1.5-0.6-2.8-1.5-4.3-2.1c-2.3-1-5-1.2-7.5-1.8
		c-2.5-0.5-5.1-1.5-6.5-3.5c4-3.1,9.2-4.4,14.3-4.6c5-0.2,10,0.8,14.9,1.7c6.1,1.1,12.2,2.3,18.3,3.4
		C158.2,12.8,161,13.4,162.8,15.1z"/>
	<path class="st10" d="M74.6,44.5c-1.2,1.5-2.3,3-3.3,4.5c-6.8,10.1-11,21.9-11.9,34.1C56.6,78.4,55,73,54.8,67.5v0
		c0,0,0,0.1-0.1,0.1c-8.4,12.9-13.6,27.7-15.1,43c-3.1-8.4-2.3-17.6,0.9-26.1c1.5-4.1,3.6-8,6-11.5C54,62.2,64.8,54,74.6,44.5z"/>
	<path class="st10" d="M118.6,117.9c-0.9,3.6-4.7,5-8.4,5.4c-3.4,0.4-7,0.3-10.6-1.2c-3.6-1.5-7.2-4.5-8.8-8.2
		c-0.1-0.3-0.2-0.6-0.3-0.9c-1.1-3.5-0.2-7.1,2-8.1c0.5,1.6,1.2,3.2,2.1,4.7c2.2,3.7,5.6,7,9.4,8.8C109.2,121,115,120.8,118.6,117.9
		z"/>
	<path class="st10" d="M196.5,115.4c8.9,4.9,17.3,10.7,24.9,17.2c1.8,1.5,3.5,3.1,4.6,5.1c1.1,2.2,1.3,4.7,1.4,7.1
		c0.1,2.8,0.5,6.3-0.4,9c-2.6-1.7-4.4-7.7-6.1-10.4c-2.2-3.5-4.6-6.9-7.1-10.2c-2.6-3.3-5.3-6.4-8.2-9.4
		C203,121.1,199.9,117.2,196.5,115.4z"/>
	<path class="st10" d="M71.7,266.6c1.1,7.9,4.3,15.2,9.2,21.2c0.9,1,2.3,1.4,3.5,0.9l77.5-33.9c1.3-11.7-3-21.9-12.2-25.7
		l-76.3,34.3C72.2,264,71.5,265.3,71.7,266.6z"/>
	<path class="st12" d="M75.7,271.3l79.1-36"/>
	<path class="st10" d="M78.2,276.9l80.2-35.6"/>
	<g class="st1">
		<defs>
			<rect id="SVGID_11_" x="5" y="159.7" width="235.3" height="178.5"/>
		</defs>
		<clipPath id="SVGID_12_">
			<use xlink:href="#SVGID_11_"  style="overflow:visible;"/>
		</clipPath>
		<g class="st13">
			<path class="st14" d="M78.2,276.9l80.2-35.6"/>
		</g>
	</g>
	<path class="st15" d="M148.3,257.5L87,285c-1.5,0.7-3.7,0.2-4.7-1.1c-3.4-4-5.8-11.3-7.1-15.6c-0.5-1.9,0.4-3.9,2.2-4.8l72-32.7
		c0,0,12.1,5.7,10.1,21.3L148.3,257.5z"/>
	<path class="st10" d="M220.4,220.9c1,2.2,1.9,4.5,2.7,6.8c0.8,2.3,1.5,4.6,2.1,7c0.6,2.3,1.1,4.7,1.5,7.1c0.4,2.4,0.7,4.7,0.9,7.1
		c0.2,2.4,0.3,4.7,0.3,7.1s-0.1,4.7-0.3,7s-0.5,4.6-0.9,6.8c-0.4,2.2-0.9,4.4-1.5,6.6c-0.6,2.1-1.3,4.2-2.1,6.3
		c-0.8,2-1.7,4-2.7,5.9s-2,3.7-3.2,5.5c-1.1,1.8-2.4,3.4-3.7,5c-1.3,1.6-2.7,3.1-4.2,4.5c-1.5,1.4-3,2.7-4.6,3.9s-3.3,2.3-5,3.3
		c-1.7,1-3.5,1.9-5.3,2.7c-1.8,0.8-3.7,1.5-5.6,2.1c-1.9,0.6-3.9,1-5.8,1.4c-2,0.3-4,0.6-6,0.7c-2,0.1-4.1,0.1-6.1,0
		c-2.1-0.1-4.1-0.3-6.2-0.7c-2.1-0.3-4.1-0.8-6.2-1.4c-2.1-0.6-4.1-1.3-6.1-2.1c-2-0.8-4-1.7-6-2.7c-2-1-3.9-2.1-5.8-3.3
		c-1.9-1.2-3.8-2.5-5.6-3.9c-1.8-1.4-3.6-2.9-5.3-4.5c-1.7-1.6-3.4-3.3-5-5c-1.6-1.8-3.1-3.6-4.6-5.5c-1.5-1.9-2.8-3.9-4.2-5.9
		s-2.5-4.1-3.7-6.3c-1.1-2.1-2.2-4.3-3.2-6.6c-1-2.2-1.9-4.5-2.6-6.8c-0.8-2.3-1.5-4.6-2.1-7c-0.6-2.3-1.1-4.7-1.5-7.1
		c-0.4-2.4-0.7-4.7-0.9-7.1c-0.2-2.4-0.3-4.7-0.3-7.1s0.1-4.7,0.3-7s0.5-4.6,0.9-6.8c0.4-2.2,0.9-4.4,1.5-6.6
		c0.6-2.1,1.3-4.2,2.1-6.3s1.7-4,2.7-5.9c1-1.9,2-3.7,3.2-5.5c1.1-1.8,2.4-3.4,3.7-5s2.7-3.1,4.2-4.5c1.5-1.4,3-2.7,4.6-3.9
		c1.6-1.2,3.3-2.3,5-3.3c1.7-1,3.5-1.9,5.3-2.7c1.8-0.8,3.7-1.5,5.6-2.1c1.9-0.6,3.9-1,5.8-1.4c2-0.3,4-0.6,6-0.7
		c2-0.1,4.1-0.1,6.1,0c2.1,0.1,4.1,0.3,6.2,0.7c2.1,0.3,4.1,0.8,6.2,1.4c2.1,0.6,4.1,1.3,6.1,2.1c2,0.8,4,1.7,6,2.7
		c2,1,3.9,2.1,5.8,3.3c1.9,1.2,3.8,2.5,5.6,3.9c1.8,1.4,3.6,2.9,5.3,4.5c1.7,1.6,3.4,3.3,5,5c1.6,1.8,3.1,3.6,4.6,5.5
		c1.5,1.9,2.9,3.9,4.2,5.9s2.5,4.1,3.7,6.3C218.4,216.4,219.5,218.6,220.4,220.9z"/>
	<path class="st11" d="M134.4,179.9c-4.2,5.6-6.9,12.2-8.1,19.1c-1.3,6.8-1.1,13.9-0.1,20.7c2,13.8,7,27,13.3,39.4
		c6.4,12.3,14.8,23.7,25.3,32.8c5.2,4.5,11.1,8.5,17.5,11.1c3.2,1.3,6.5,2.3,10,2.9c3.4,0.5,7,0.7,10.4,0.3
		c-6.9,1.2-14.2,0.2-20.8-2.2c-6.6-2.5-12.7-6.4-18.2-10.8c-5.5-4.5-10.3-9.7-14.7-15.3c-4.3-5.6-8.2-11.5-11.5-17.8
		c-3.2-6.3-5.9-12.8-8.2-19.5c-2.2-6.7-4-13.6-4.8-20.6c-0.8-7-0.8-14.2,0.7-21.1C126.8,191.9,129.9,185.2,134.4,179.9z"/>
	<path class="st11" d="M181.2,311.9c-2.7-0.9-6.7-0.5-9.5-1c-31.2-5.9-52.9-32.9-59.9-62.7c-4.3-18.2-2.9-38.4,8.5-53.8
		c0.8-1.1,1.6-2.1,2.5-3c-1.4,1.4-1.9,5.3-2.4,7.1c-1.7,6.3-2.6,12.7-2.8,19.2c-0.8,33,19.9,65.5,45,85.2
		C162.7,302.9,176.9,311,181.2,311.9z"/>
	<path class="st11" d="M138,208.9c0.1-2.2,0.2-4.3,0.6-6.5c0.3-2.2,0.9-4.3,1.6-6.4c1.5-4.1,3.9-8.1,7.5-10.8
		c3.6-2.8,8.2-4.2,12.7-4.3c4.5,0,9,1.2,13.1,2.9c4.1,1.8,7.9,4.1,11.4,6.8c3.5,2.7,6.8,5.7,9.8,9c6,6.5,10.9,13.9,15,21.7
		c4,7.9,7,16.2,8.7,24.9c0.8,4.3,1.3,8.8,1.3,13.2c0,2.2-0.1,4.4-0.4,6.7c-0.3,2.2-0.7,4.4-1.4,6.6c-1.3,4.3-3.3,8.5-6.5,11.8
		c-3.2,3.3-7.5,5.4-12,5.9c-4.5,0.5-9-0.3-13.1-1.8c-4.1-1.5-7.9-3.8-11.4-6.4c3.7,2.3,7.6,4.3,11.7,5.6c4.1,1.3,8.4,1.8,12.6,1.1
		c4.1-0.7,7.9-2.8,10.7-5.8c2.8-3.1,4.6-6.9,5.7-11c2.1-8.2,1.6-16.9-0.1-25.2c-1.7-8.4-4.7-16.5-8.6-24.1
		c-3.9-7.6-8.6-14.8-14.4-21.2c-5.7-6.4-12.3-11.9-20-15.5c-3.8-1.8-7.9-2.9-12.1-3.1c-4.2-0.2-8.3,1-11.7,3.4c-3.4,2.4-6,6-7.7,9.9
		C139.3,200.3,138.4,204.6,138,208.9z"/>
	<path class="st11" d="M201.3,236c0.4,1.9,0.6,3.9,0.5,5.9c-0.1,2-0.4,4-1.3,5.8c-0.8,1.8-2.4,3.5-4.4,4.3c-2,0.8-4.2,0.8-6.2,0.3
		c-2-0.5-3.9-1.4-5.6-2.5c-1.7-1.1-3.3-2.4-4.7-3.8c-2.9-2.8-5.2-6.1-7.2-9.6c-1.9-3.5-3.5-7.2-4.4-11.1c-0.5-1.9-0.7-3.9-0.8-6
		c-0.1-2,0.1-4.1,0.5-6.1c0.5-2,1.4-4,2.9-5.5c0.4-0.3,0.8-0.8,1.2-1c0.5-0.3,0.9-0.6,1.4-0.8c1-0.4,2-0.6,3.1-0.6
		c2.1,0,4,0.6,5.8,1.5c1.8,0.9,3.4,2.1,4.8,3.4c-1.6-1.1-3.3-2.1-5-2.9c-1.8-0.7-3.7-1.2-5.5-1c-0.9,0.1-1.8,0.3-2.6,0.7
		c-0.4,0.2-0.8,0.5-1.1,0.7c-0.4,0.2-0.7,0.6-1,0.9c-1.2,1.3-1.9,3.1-2.3,4.9c-0.7,3.6-0.3,7.5,0.7,11.2c0.9,3.7,2.4,7.3,4.3,10.6
		c1.8,3.3,4.1,6.5,6.7,9.2c1.3,1.4,2.8,2.6,4.3,3.7c1.6,1,3.2,1.9,5,2.4c1.8,0.5,3.6,0.6,5.3,0c1.7-0.6,3.1-1.9,4-3.5
		c0.9-1.6,1.4-3.5,1.7-5.4C201.5,239.9,201.5,237.9,201.3,236z"/>
	<path class="st10" d="M179.5,214.1c1.8,9.1,6.1,18.1,12.3,24.8l75.1-33c-5.1-7.9-9.3-16.6-12.2-25.7L179.5,214.1z"/>
	<path class="st12" d="M180.6,222.5l68-31.5"/>
	<path class="st16" d="M183.1,228.1l68.6-31.6"/>
	<path class="st10" d="M351,158.6c1.1,2.5,2.1,5,3,7.5c0.9,2.5,1.7,5.1,2.5,7.6c0.7,2.6,1.4,5.1,1.9,7.7c0.6,2.6,1,5.1,1.4,7.7
		c0.4,2.6,0.6,5.1,0.8,7.6s0.3,5,0.2,7.4c0,2.5-0.1,4.9-0.3,7.2c-0.2,2.4-0.5,4.7-0.9,6.9c-0.4,2.3-0.9,4.4-1.5,6.6
		c-0.6,2.1-1.3,4.2-2,6.1c-0.8,2-1.6,3.9-2.6,5.7c-0.9,1.8-2,3.5-3.1,5.1c-1.1,1.6-2.3,3.1-3.6,4.5c-1.3,1.4-2.6,2.7-4,3.9
		s-2.9,2.3-4.4,3.2s-3.1,1.8-4.8,2.5c-1.6,0.7-3.3,1.3-5.1,1.8c-1.7,0.5-3.5,0.8-5.4,1.1s-3.7,0.3-5.6,0.3s-3.8-0.2-5.7-0.5
		c-1.9-0.3-3.9-0.7-5.8-1.2c-2-0.5-3.9-1.2-5.9-1.9c-2-0.8-3.9-1.7-5.9-2.7c-2-1-3.9-2.1-5.8-3.4c-1.9-1.2-3.8-2.6-5.7-4
		c-1.9-1.5-3.7-3-5.5-4.7c-1.8-1.7-3.6-3.4-5.3-5.2c-1.7-1.8-3.4-3.8-5-5.8c-1.6-2-3.2-4.1-4.7-6.2c-1.5-2.2-3-4.4-4.3-6.6
		c-1.4-2.3-2.7-4.6-3.9-7c-1.2-2.4-2.4-4.8-3.5-7.3c-1.1-2.5-2.1-5-3-7.5c-0.9-2.5-1.7-5.1-2.5-7.6c-0.7-2.6-1.4-5.1-1.9-7.7
		c-0.6-2.6-1-5.1-1.4-7.7c-0.4-2.6-0.6-5.1-0.8-7.6c-0.2-2.5-0.3-5-0.2-7.4c0-2.4,0.1-4.9,0.3-7.2c0.2-2.4,0.5-4.7,0.9-6.9
		c0.4-2.3,0.9-4.4,1.5-6.6c0.6-2.1,1.3-4.2,2-6.1c0.8-2,1.6-3.9,2.6-5.7c0.9-1.8,2-3.5,3.1-5.1c1.1-1.6,2.3-3.1,3.6-4.5
		c1.3-1.4,2.6-2.7,4-3.9s2.9-2.3,4.4-3.2c1.5-1,3.1-1.8,4.8-2.5c1.6-0.7,3.3-1.3,5.1-1.8c1.7-0.5,3.5-0.8,5.4-1.1
		c1.8-0.2,3.7-0.3,5.6-0.3c1.9,0,3.8,0.2,5.7,0.5c1.9,0.3,3.9,0.7,5.8,1.2c2,0.5,3.9,1.2,5.9,1.9c2,0.8,3.9,1.7,5.9,2.7
		c2,1,3.9,2.1,5.8,3.4c1.9,1.2,3.8,2.6,5.7,4c1.9,1.4,3.7,3,5.5,4.7c1.8,1.7,3.6,3.4,5.3,5.2c1.7,1.8,3.4,3.8,5,5.8
		c1.6,2,3.2,4.1,4.7,6.2c1.5,2.2,3,4.4,4.3,6.6c1.4,2.3,2.7,4.6,3.9,7C348.8,153.7,349.9,156.1,351,158.6z"/>
	<path class="st15" d="M244.5,186.3l-62.2,28.5c-1.8,0.8-2.7,2.8-2.2,4.8c1.2,4.3,3.7,11.7,7.2,15.7c1.1,1.3,3,1.7,4.6,0.9
		l61.3-27.5"/>
	<path class="st11" d="M275.6,113c-4.4,5.2-7.5,11.4-9.1,17.9c-1.7,6.5-2,13.3-1.6,20c1,13.5,4.8,26.6,10.1,39
		c5.3,12.4,12.6,24,22.1,33.6c4.7,4.8,10.1,9,16.1,12c3,1.5,6.2,2.7,9.5,3.5c3.3,0.8,6.7,1.1,10.1,1c-6.8,0.7-13.7-0.8-20-3.6
		c-6.2-2.9-11.8-7.1-16.8-11.8c-5-4.7-9.3-10.2-13.1-15.9c-3.8-5.7-7.1-11.8-9.8-18.1c-2.6-6.3-4.8-12.8-6.5-19.5
		c-1.7-6.6-2.9-13.4-3.2-20.3c-0.3-6.8,0.2-13.8,2.2-20.4C267.5,124.1,270.9,117.9,275.6,113z"/>
	<path class="st11" d="M311.6,244.3c-2.5-1.1-6.4-0.9-9.1-1.6c-29.7-7.9-48.7-35.5-53.4-64.9c-2.8-17.9-0.2-37.4,11.9-51.6
		c0.8-1,1.7-1.9,2.6-2.8c-1.4,1.2-2.2,5-2.8,6.7c-2.1,5.9-3.4,12.2-4,18.4c-3,31.9,14.6,64.9,37.5,85.7
		C294.4,234.2,307.5,243.2,311.6,244.3z"/>
	<path class="st11" d="M322.8,213.1c-1.7-0.7-4.2-0.6-6-1.1c-19.6-5.2-32.2-23.5-35.3-42.9c-1.9-11.8-0.1-24.7,7.9-34.1
		c0.5-0.6,1.1-1.3,1.7-1.8c-0.9,0.8-1.5,3.3-1.8,4.4c-1.4,3.9-2.2,8-2.6,12.2c-2,21.1,9.7,42.9,24.8,56.6
		C311.3,206.4,320,212.3,322.8,213.1z"/>
	<path class="st11" d="M277.1,141.4c0.2-2.1,0.5-4.2,1-6.3c0.5-2.1,1.2-4.1,2-6c1.7-3.9,4.3-7.5,8-10c3.6-2.5,8.2-3.6,12.5-3.3
		c4.4,0.3,8.6,1.7,12.4,3.7c3.8,2,7.4,4.5,10.6,7.4c3.2,2.9,6.1,6,8.8,9.4c5.3,6.7,9.6,14.2,12.9,22.1c3.3,7.9,5.6,16.2,6.7,24.7
		c0.5,4.3,0.6,8.6,0.3,12.9c-0.2,2.2-0.4,4.3-0.8,6.4c-0.4,2.1-1,4.2-1.7,6.3c-1.5,4.1-3.8,8-7.1,11c-3.3,3-7.6,4.8-12,5
		c-4.4,0.2-8.7-0.9-12.5-2.7c-3.9-1.8-7.4-4.2-10.6-7c3.4,2.5,7,4.7,10.9,6.2c3.9,1.5,8,2.4,12.1,1.9c4-0.4,7.9-2.2,10.7-5
		c2.9-2.8,4.9-6.4,6.2-10.3c2.6-7.8,2.7-16.2,1.6-24.4c-1.1-8.2-3.3-16.3-6.6-23.9c-3.2-7.7-7.3-15-12.4-21.5
		c-5-6.6-11.1-12.4-18.2-16.5c-3.6-2-7.5-3.4-11.5-3.8c-4-0.4-8.1,0.4-11.6,2.5c-3.5,2.1-6.2,5.4-8,9.1
		C278.9,133.2,277.8,137.3,277.1,141.4z"/>
	<path class="st11" d="M336.3,172c0.2,1.9,0.3,3.8,0.1,5.7c-0.2,1.9-0.7,3.8-1.6,5.6c-0.9,1.7-2.5,3.3-4.5,3.9c-2,0.7-4.1,0.5-6-0.1
		c-1.9-0.6-3.6-1.6-5.2-2.8c-1.5-1.2-3-2.6-4.3-4c-2.6-2.9-4.6-6.3-6.3-9.8c-1.6-3.5-2.8-7.2-3.4-11.1c-0.3-1.9-0.4-3.9-0.4-5.8
		c0-2,0.3-3.9,0.9-5.8c0.6-1.9,1.6-3.8,3.1-5.1c0.8-0.7,1.7-1.2,2.6-1.6c1-0.3,2-0.5,3-0.4c2,0.1,3.9,0.9,5.5,1.9
		c1.7,1,3.1,2.3,4.4,3.6c-1.5-1.2-3-2.3-4.7-3.1c-1.7-0.8-3.5-1.4-5.3-1.3c-0.9,0-1.8,0.2-2.6,0.5c-0.8,0.3-1.5,0.8-2.1,1.4
		c-1.2,1.2-2,2.9-2.5,4.6c-0.9,3.5-0.8,7.3-0.1,10.9c0.6,3.6,1.8,7.2,3.4,10.5c1.5,3.4,3.5,6.6,5.9,9.4c1.2,1.4,2.5,2.7,3.9,3.9
		c1.4,1.1,3,2.1,4.6,2.7c1.7,0.6,3.5,0.8,5.1,0.4c1.7-0.4,3.1-1.6,4.1-3.1c1-1.5,1.6-3.3,2-5.1C336.1,175.8,336.3,173.9,336.3,172z"
		/>
	<path class="st10" d="M316.3,148.3c1.8,9.1,6.1,18.1,12.3,24.8l75.1-33c1.3-11.7-3-22-12.2-25.7L316.3,148.3z"/>
	<path class="st10" d="M317.4,156.6l79.1-36"/>
	<g class="st1">
		<defs>
			<rect id="SVGID_13_" x="284.3" y="87.7" width="120.7" height="102.7"/>
		</defs>
		<clipPath id="SVGID_14_">
			<use xlink:href="#SVGID_13_"  style="overflow:visible;"/>
		</clipPath>
		<g class="st17">
			<path class="st18" d="M317.4,156.6l79.1-36"/>
		</g>
	</g>
	<path class="st10" d="M319.9,162.2l80.2-35.6"/>
	<g class="st1">
		<defs>
			<rect id="SVGID_15_" x="237.7" y="45" width="167.3" height="198.7"/>
		</defs>
		<clipPath id="SVGID_16_">
			<use xlink:href="#SVGID_15_"  style="overflow:visible;"/>
		</clipPath>
		<g class="st19">
			<path class="st14" d="M319.9,162.2l80.2-35.6"/>
		</g>
	</g>
	<g class="st1">
		<defs>
			<rect id="SVGID_17_" x="301.7" y="101" width="103.3" height="85.3"/>
		</defs>
		<clipPath id="SVGID_18_">
			<use xlink:href="#SVGID_17_"  style="overflow:visible;"/>
		</clipPath>
		<g class="st20">
			<path class="st21" d="M390,142.9l-61.3,27.5c-1.6,0.7-3.5,0.4-4.6-0.9c-3.5-4-5.9-11.4-7.2-15.7c-0.5-1.9,0.4-3.9,2.2-4.8
				l72-32.7c0,0,12.1,5.7,10.1,21.3L390,142.9z"/>
		</g>
	</g>
	<path class="st10" d="M225,107c0-0.3,0-0.4,0-0.4C225.1,106.8,225.1,106.9,225,107z"/>
	<path class="st11" d="M235,112.9c-3.4,6.9-7.3,11.3-10.8,21.5c-5.9,17.1-7.5,34.9-9.3,52.8c3.7-2.8,8-4.8,12.5-5.9
		c-0.8-10.9-1.4-21.8-1-32.7S231.3,123.1,235,112.9"/>
	<path class="st11" d="M196.1,163.3c-6.7-11.5-19.8-19.1-33.2-18.9c1.5,1.5,2.5,2.6,4,4.1c2,2,4.1,4.1,6.7,5.4
		c1.8,0.9,3.8,1.4,5.8,1.9c2.7,0.7,5.3,1.3,8,2C190.6,158.6,194.4,161.4,196.1,163.3z"/>
</g>
<g id="Camada_2">
	<g>
		<defs>
			<rect id="SVGID_19_" x="80.1" y="16.1" width="269.9" height="269.9"/>
		</defs>
		<clipPath id="SVGID_20_">
			<use xlink:href="#SVGID_19_"  style="overflow:visible;"/>
		</clipPath>
		<g class="st22">
			<g>
				<defs>
					<circle id="SVGID_21_" cx="215.1" cy="151.1" r="135"/>
				</defs>
				<clipPath id="SVGID_22_">
					<use xlink:href="#SVGID_21_"  style="overflow:visible;"/>
				</clipPath>
				<g class="st23">
					<path class="st9" d="M80.1,16.1H350V286H80.1V16.1z"/>
				</g>
			</g>
		</g>
	</g>
	<g>
		<defs>
			<rect id="SVGID_23_" x="70" y="35.5" width="269.9" height="269.9"/>
		</defs>
		<clipPath id="SVGID_24_">
			<use xlink:href="#SVGID_23_"  style="overflow:visible;"/>
		</clipPath>
		<g class="st24">
			<g>
				<defs>
					<path id="SVGID_25_" d="M205,35.5c-74.5,0-135,60.4-135,135s60.4,135,135,135s135-60.4,135-135S279.5,35.5,205,35.5z"/>
				</defs>
				<clipPath id="SVGID_26_">
					<use xlink:href="#SVGID_25_"  style="overflow:visible;"/>
				</clipPath>
				<g class="st25">
					<path class="st26" d="M205,35.5c-74.5,0-135,60.4-135,135s60.4,135,135,135s135-60.4,135-135S279.5,35.5,205,35.5z"/>
				</g>
			</g>
		</g>
	</g>
	<g>
		<defs>
			<rect id="SVGID_27_" x="5.7" y="3.1" width="236" height="192.5"/>
		</defs>
		<clipPath id="SVGID_28_">
			<use xlink:href="#SVGID_27_"  style="overflow:visible;"/>
		</clipPath>
		<g class="st27">
			<path class="st28" d="M240.6,109.7c-0.3,0.8-6.5-0.6-7.3-0.8c-4.5-0.8-8.8-1.8-12.8-3.9c-4.4-2.3-8.4-5.3-13-7.4
				c-9.1-4.2-18.8-7.5-28.8-8.3c-10-0.8-20.4,1.1-28.8,6.6c-2.3,1.5-4.5,3.3-7.1,4.2c-6.5,2.3-13.4-1.2-20.1-3.1
				c-11.4-3.1-24.2-0.9-33.9,5.9c-2.8,2-6.6-0.8-5.5-4.1c2.3-6.7,4-13.6,5-20.6c0.5-3.1,1.2-6.1,2.4-9c2.7-6.8,5.6-12.1,9.9-19.3
				c3.3-4,6.6-7.9,9.8-11.9c1.8-2.1,3.8-4.4,6.6-4.7c1.7-0.1,3.3,0.5,4.8,1.2c3.4,1.5,6.7,3,10,4.7c0.8,0.4,1.8,1,2.1,1.9
				c0.2,0.5,0.1,1.1,0.3,1.7c0.2,0.7,0.8,1.2,1.5,1.7c2.3,1.7,4.9,3,7.7,3.8c0.8,1.8,2.7,2.9,4.8,2c1.7,2.5,4.9,2.8,7.5,2.9
				c-0.6,1.4,0.1,2.6,1.2,3.1c1.4,0.6,3,0.2,4.5-0.3c1.5-0.5,3-1,4.5-0.6c0.8,0.2,1.5,0.7,2.3,0.8c1.4,0.1,2.6-0.9,3.6-1.9
				c3.2-3.1,6.5-6.2,9.7-9.4c1-0.9,1.9-1.9,2.2-3.2c0.1-0.6,0.1-1.2-0.1-1.8c-0.5-2.1-1.4-4.1-2.5-5.9l-8.3-13.6
				c-1.9-3.1-3.9-6.4-7-8.4c-3-2-6.7-2.6-10.2-3.2l-26.9-4.4c-2.8-0.5-5.6-0.8-8.3-1c-2.7-0.2-5.5-0.1-8,0.8
				c-4.2,1.4-7.4,4.7-10.5,7.9c-5.8,6.1-11.6,12.2-17,18.7c-21,19.7-42.3,39.7-56.7,64.6c-4.4,7.6-8.1,15.6-13.2,22.8
				c-2.8,4-6,7.7-7.9,12.2c-1.8,4.3-2.1,9.6,0.8,14.2c0.2,0.3,0.5,0.7,0.8,0.9c4.2,3.4,9,5.9,13.9,8.2c12.1,5.7,24.7,10.2,37.6,13.5
				c5.7,1.4,11.6,2.6,17.4,3.8c16.8,3.3,34.5,6.1,50.7,0.4c8.9-3.1,16.9-8.7,25.7-10.8c18.3-6.5,39.9,7.2,51.4,20.6
				c2.6,3.1,5.6,8.4,6.8,13.3l21.5-10.9c-1.1-3.5-1.3-7-1.7-10.6C229.6,151.5,232.6,129.6,240.6,109.7z M134.6,36.2
				c-3.1-4.4-11-4.2-15.1-7.9c-1.6-1.4-2.6-3.4-3.5-5.3c-0.6-1.3-1.2-2.6-1.9-3.9c2.9,1.9,7,2.8,10.8,3.9c3.8,1.2,7.7,2.9,9.1,6.2
				C135,31.4,134.8,33.9,134.6,36.2z M151.2,46.2c-0.1,0.2-0.3,0.4-0.6,0.5c-0.3,0.1-0.5,0-0.8-0.1c-2.6-0.8-5.2-1.6-7.8-2.5
				c-0.2-0.8,0.9-1.5,1.8-1.7c0.9-0.2,2.1-0.8,1.9-1.6c0-0.3-0.3-0.6-0.5-0.8c-1.4-1.4-2.6-3-3.3-4.8c-0.9-2.2-1.1-4.6-2.1-6.7
				c-1-2.2-2.9-3.9-5.3-4.8c2.7,0.8,4.8,1.7,6.9,2.5c3.1,1.2,6.4,2.7,7.7,5.6c1.2,2.7,0.4,6,1.3,8.9
				C151.2,42.5,152.4,44.5,151.2,46.2z M157.9,49.9c-1.7,0.6-3.7,0.2-5.8-0.4c2.7-0.7,3.9-4,3.7-6.8c-0.1-2.8-1.1-5.5-1-8.3
				c0.1-1.2,0.3-2.3,0.3-3.5c-0.2-2.9-2.7-5.3-2.7-8.2c0-0.3,0-0.7,0.2-1c0.3-0.3,0.7-0.5,1.1-0.5c1.2,0,2.3,0.8,3,1.7
				c0.8,0.9,1.3,2,2,3c0.6,0.8,1.4,1.6,1.9,2.5c0.4,0.8,0.4,1.7,0.4,2.6c0.2,3.9,0.4,7.8,0.6,11.8c0.1,1.1,0.1,2.3-0.2,3.3
				C161.1,47.9,159.7,49.3,157.9,49.9z M170.2,18.2c3.2,5,6.2,10.2,8.7,15.5c0.8,1.8,1.6,3.6,1.6,5.5c0,2.4-1.2,4.6-2.8,6.3
				c-1.6,1.7-3.6,3.1-6.1,4c1-2.7,4-4.6,4.1-7.5c0-1-0.3-1.9-0.7-2.8c-1.9-4.9-3.8-9.8-5.7-14.8c-0.4-1.1-0.9-2.3-0.8-3.5
				C168.5,19.9,169.1,18.7,170.2,18.2z M164.8,22.2c1.2,0.8,1.7,2.3,2,3.7c1.2,4.5,2.4,9,3.6,13.5c0.9,3.4,1.7,7.5-0.6,10.2
				c-1.8,2.1-5.1,2.5-8.5,1.9c2.1-1.2,3.3-3.7,3.7-6.1c0.3-2.4-0.1-4.9-0.5-7.3c-0.7-4.3-1.4-8.6-2.1-12.8c-0.1-0.7-0.2-1.4-0.1-2
				c0.2-0.7,0.7-1.3,1.4-1.4C164,21.8,164.4,22,164.8,22.2z M122.5,7.3c5-0.2,10,0.7,14.9,1.7c6.1,1.1,12.2,2.3,18.3,3.4
				c2.6,0.5,5.3,1,7.2,2.8c-2.1,0.1-3.6,3-5.7,3.8c-0.9,0.3-1.9,0.3-2.9,0.3c-2.5,0.2-5,1.3-6.8,3.1c-0.4,0.5-0.9,1-1.4,1.3
				c-1.1,0.7-2.6,0.4-3.7-0.2c-1.1-0.6-2-1.4-3.1-2.1c-3.7-2-8.7-0.7-12.8-2.2c-1.5-0.6-2.8-1.5-4.3-2.1c-2.3-1-5-1.2-7.5-1.8
				c-2.5-0.5-5.1-1.5-6.5-3.5C112.2,8.8,117.4,7.4,122.5,7.3z M30,140.1c-1.9,0.9-3.8,2.1-6,2.1c-3.3-0.1-5.6-3.1-7.4-5.8
				c-1-1.4-2-3-2.3-4.7c-0.7-3.7,1.6-7.2,3.8-10.2c5.9-8.4,11.2-17.2,16-26.3c2-3.9,4.1-7.4,6.4-10.6c1.5-4.1,3.6-8,6.1-11.5
				C54,62.2,64.8,54,74.6,44.5c-1.2,1.5-2.3,3-3.3,4.5c0.8-0.7,1.6-1.4,2.4-2c11.9-9.2,18-18.1,31.3-30.6c4.1,4.6,7.8,7.6,5.3,12.5
				c-3.6,7.1-10.8,11.6-15.1,18.3c-4.1,6.3-5.4,13.9-8.4,20.8c-1.8,4.3-4.2,8.3-5.2,12.9c-1,4.8-0.3,9.7-0.6,14.6
				c-0.4,5.6-2.3,11.2-6.3,15.2c-4.1,4.2-9.9,6.2-15.5,7.9c-5.6,1.7-11.5,3.1-16.2,6.5c-4.8,3.4-8.3,9.3-7,15.2
				C34.5,138.9,31.9,139.2,30,140.1z M77.7,114c-4.9,8.5-12.8,14.9-21.8,17.8c-5.7,1.8-12.2,2.4-16.6,6.5c2.5-4.9,6.1-9.4,11.1-11.6
				c2.3-1,4.8-1.4,7.2-2.1C64.9,122.5,71.4,118.2,77.7,114z M152.7,154.5c-16.5,13.6-39.3,19.5-60.3,15.4c-6.1-1.2-11.9-3.1-17.8-5
				c-14.1-4.6-28.5-9.3-40.7-17.8c9.1-0.4,17.1-5.5,25-9.9c7.9-4.4,17.1-8.3,25.8-6c10.6,2.7,18.3,13.8,29.2,14
				c-5.9,1.6-11.8,3.3-17.7,4.9c-4.3,1.1-8.7,2.3-13.1,1.8c10.2,2.8,21.1,2.9,31.4,0.4c5.9-1.4,11.6-3.7,17.4-5.3
				c5.9-1.6,12.1-2.5,18-1.2c1.6,0.4,5.4,0.8,5.7,3.7C155.9,151.5,154.2,153.2,152.7,154.5z M157.5,134.2c-3.2,1.5-5.8,4.1-9.2,5
				c-3.3,0.9-6.8-0.1-10.3-0.2c-8-0.2-15.9,4.3-23.8,2.7c-6.5-1.3-11.5-6.5-16.2-11.2c-4.8-4.7-10.5-9.4-17.2-9.2
				c3.1-2.7,6.3-5.4,9.4-8.2c0,0,0.1-0.1,0.1-0.1c-1.1-3.5-0.1-7.1,2-8.1c0.5,1.6,1.2,3.2,2.1,4.7c1.7-1.3,3.5-2.6,5.4-3.6
				c8.9-4.8,20-4.1,29.4-0.4c2.4,0.9,4.8,2.1,7.3,2.4c2.4,0.4,4.8,0,7.3,0c12.3-0.2,24.2,8.7,27.4,20.6c-0.4-0.5,2.2,4.2,3.5,9.3
				C170.7,133.1,163.3,131.6,157.5,134.2z"/>
		</g>
	</g>
	<path class="st28" d="M77.7,114c-4.9,8.5-12.8,14.9-21.8,17.8c-5.7,1.8-12.2,2.4-16.6,6.5c2.5-4.9,6.1-9.4,11.1-11.6
		c2.3-1,4.8-1.4,7.2-2.1C64.9,122.5,71.4,118.2,77.7,114z"/>
	<path class="st28" d="M110.3,29c-3.6,7.1-10.8,11.6-15.1,18.3c-4.1,6.3-5.4,13.9-8.4,20.8c-1.8,4.3-4.2,8.3-5.2,12.9
		c-1,4.8-0.3,9.7-0.6,14.6c-0.4,5.6-2.3,11.2-6.3,15.2c-4.1,4.2-9.9,6.2-15.5,7.9c-5.6,1.7-11.5,3.1-16.2,6.5
		c-4.8,3.4-8.3,9.3-7,15.2c-1.5-1.5-4-1.1-6-0.3c-1.9,0.9-3.8,2.1-6,2.1c-3.3-0.1-5.6-3.1-7.4-5.8c-1-1.4-2-3-2.3-4.7
		c-0.7-3.7,1.6-7.2,3.8-10.2c5.9-8.4,11.2-17.2,16-26.3c2-3.9,4.1-7.4,6.4-10.6c1.5-4.1,3.6-8,6.1-11.5C54,62.2,64.8,54,74.6,44.5
		c-1.2,1.5-2.3,3-3.3,4.5c0.8-0.7,1.6-1.4,2.4-2c11.9-9.2,18-18.1,31.3-30.6C109.1,21,112.8,24,110.3,29z"/>
	<path class="st28" d="M134.6,36.2c-3.1-4.4-11-4.2-15.1-7.9c-1.6-1.4-2.6-3.4-3.5-5.3c-0.6-1.3-1.2-2.6-1.9-3.9
		c2.9,1.9,7,2.8,10.8,3.9c3.8,1.2,7.7,2.9,9.1,6.2C135,31.4,134.8,33.9,134.6,36.2z"/>
	<path class="st28" d="M151.2,46.2c-0.1,0.2-0.3,0.4-0.6,0.5c-0.3,0.1-0.5,0-0.8-0.1c-2.6-0.8-5.2-1.6-7.8-2.5
		c-0.2-0.8,0.9-1.5,1.8-1.7c0.9-0.2,2.1-0.8,1.9-1.6c0-0.3-0.3-0.6-0.5-0.8c-1.4-1.4-2.6-3-3.3-4.8c-0.9-2.2-1.1-4.6-2.1-6.7
		c-1-2.2-2.9-3.9-5.3-4.8c2.7,0.8,4.8,1.7,6.9,2.5c3.1,1.2,6.4,2.7,7.7,5.6c1.2,2.7,0.4,6,1.3,8.9C151.2,42.5,152.4,44.5,151.2,46.2
		z"/>
	<path class="st28" d="M152.7,154.5c-16.5,13.6-39.3,19.5-60.3,15.4c-6.1-1.2-11.9-3.1-17.8-5c-14.1-4.6-28.5-9.3-40.7-17.8
		c9.1-0.4,17.1-5.5,25-9.9c7.9-4.4,17.1-8.3,25.8-6c10.6,2.7,18.3,13.8,29.2,14c-5.9,1.6-11.8,3.3-17.7,4.9
		c-4.3,1.1-8.7,2.3-13.1,1.8c10.2,2.8,21.1,2.9,31.4,0.4c5.9-1.4,11.6-3.7,17.4-5.3c5.9-1.6,12.1-2.5,18-1.2
		c1.6,0.4,5.4,0.8,5.7,3.7C155.9,151.5,154.2,153.2,152.7,154.5z"/>
	<path class="st28" d="M162.8,15.1c-2.1,0.1-3.6,3-5.7,3.8c-0.9,0.3-1.9,0.3-2.9,0.3c-2.5,0.2-5,1.3-6.8,3.1c-0.4,0.5-0.9,1-1.4,1.3
		c-1.1,0.7-2.6,0.4-3.7-0.2c-1.1-0.6-2-1.4-3.1-2.1c-3.7-2-8.7-0.7-12.8-2.2c-1.5-0.6-2.8-1.5-4.3-2.1c-2.3-1-5-1.2-7.5-1.8
		c-2.5-0.5-5.1-1.5-6.5-3.5c4-3.1,9.2-4.4,14.3-4.6c5-0.2,10,0.7,14.9,1.7c6.1,1.1,12.2,2.3,18.3,3.4
		C158.2,12.8,161,13.4,162.8,15.1z"/>
	<path class="st28" d="M161.5,46.1c-0.5,1.8-1.9,3.2-3.6,3.8c-1.7,0.6-3.7,0.2-5.8-0.4c2.7-0.7,3.9-4,3.7-6.8
		c-0.1-2.8-1.1-5.5-1-8.3c0.1-1.2,0.3-2.3,0.3-3.5c-0.2-2.9-2.7-5.3-2.7-8.2c0-0.3,0-0.7,0.2-1c0.3-0.3,0.7-0.5,1.1-0.5
		c1.2,0,2.3,0.8,3,1.7c0.8,0.9,1.3,2,2,3c0.6,0.8,1.4,1.6,1.9,2.5c0.4,0.8,0.4,1.7,0.4,2.6c0.2,3.9,0.4,7.8,0.6,11.8
		C161.8,43.9,161.8,45.1,161.5,46.1z"/>
	<path class="st28" d="M169.7,49.6c-1.8,2.1-5.1,2.5-8.5,1.9c2.1-1.2,3.3-3.7,3.7-6.1c0.3-2.4-0.1-4.9-0.5-7.3
		c-0.7-4.3-1.4-8.6-2.1-12.8c-0.1-0.7-0.2-1.4-0.1-2c0.2-0.7,0.7-1.3,1.4-1.4c0.4,0,0.8,0.1,1.1,0.3c1.2,0.8,1.7,2.3,2,3.7
		c1.2,4.5,2.4,9,3.6,13.5C171.3,42.9,172.1,46.9,169.7,49.6z"/>
	<path class="st28" d="M174.8,137.8c-4.2-4.7-11.6-6.3-17.3-3.6c-3.2,1.5-5.8,4.1-9.2,5c-3.3,0.9-6.8-0.1-10.3-0.2
		c-8-0.2-15.9,4.3-23.8,2.7c-6.5-1.3-11.5-6.5-16.2-11.2c-4.8-4.7-10.5-9.4-17.2-9.2c3.1-2.7,6.3-5.4,9.4-8.2c0,0,0.1-0.1,0.1-0.1
		c-1.1-3.5-0.1-7.1,2-8.1c0.5,1.6,1.2,3.2,2.1,4.7c1.7-1.3,3.5-2.6,5.4-3.6c8.9-4.8,20-4.1,29.4-0.4c2.4,0.9,4.8,2.1,7.3,2.4
		c2.4,0.4,4.8,0,7.3,0c12.3-0.2,24.2,8.7,27.4,20.6C171,128,173.6,132.8,174.8,137.8z"/>
	<path class="st28" d="M180.5,39.3c0,2.4-1.2,4.6-2.8,6.3c-1.6,1.7-3.6,3.1-6.1,4c1-2.7,4-4.6,4.1-7.5c0-1-0.3-1.9-0.7-2.8
		c-1.9-4.9-3.8-9.8-5.7-14.8c-0.4-1.1-0.9-2.3-0.8-3.5c0-1.2,0.6-2.5,1.7-2.9c3.2,5,6.2,10.2,8.7,15.5
		C179.7,35.5,180.5,37.4,180.5,39.3z"/>
	<path class="st29" d="M214.5,159.8c-5.3-6.7-16.2-8.6-23.7-13.8c-10.4-7.1-13.5-19.5-19.5-29.8c-3.5-5.8-9.6-11.8-17-10.8
		c8.2-7.5,20.9-10.8,32.2-8.5c9.9,2.1,18.2,8,27.9,10.9C220.6,124.4,218.9,142.4,214.5,159.8z"/>
	<path class="st29" d="M174.8,137.8c-4.2-4.7-11.6-6.3-17.3-3.6c-3.2,1.5-5.8,4.1-9.2,5c-3.3,0.9-6.8-0.1-10.3-0.2
		c-8-0.2-15.9,4.3-23.8,2.7c-6.5-1.3-11.5-6.5-16.2-11.2c-4.8-4.7-10.5-9.4-17.2-9.2c3.1-2.7,6.3-5.4,9.4-8.2c0,0,0.1-0.1,0.1-0.1
		c1.4-1.2,2.7-2.4,4.2-3.5c1.7-1.3,3.5-2.6,5.4-3.6c8.9-4.8,20-4.1,29.4-0.4c2.4,0.9,4.8,2.1,7.3,2.4c2.4,0.4,4.8,0,7.3,0
		c12.3-0.2,24.2,8.7,27.4,20.6C171,128,173.6,132.8,174.8,137.8z"/>
	<path class="st29" d="M152.7,154.5c-16.5,13.6-39.3,19.5-60.3,15.4c-6.1-1.2-11.9-3.1-17.8-5c-14.1-4.6-28.5-9.3-40.7-17.8
		c9-0.4,17.1-5.5,25-9.9c7.9-4.4,17.1-8.3,25.8-6c10.6,2.7,18.3,13.8,29.2,14c-5.9,1.6-11.8,3.3-17.7,4.9c-4.3,1.2-8.7,2.3-13.1,1.8
		c10.2,2.8,21.1,2.9,31.4,0.4c5.9-1.4,11.6-3.7,17.4-5.3c5.8-1.6,12.1-2.5,18-1.2c1.6,0.4,5.4,0.8,5.7,3.7
		C155.9,151.5,154.2,153.2,152.7,154.5z"/>
	<path class="st29" d="M110.3,29c-3.6,7.1-10.8,11.6-15.1,18.3c-4.1,6.3-5.4,13.9-8.4,20.8c-1.8,4.3-4.2,8.3-5.2,12.9
		c-1,4.8-0.3,9.7-0.6,14.6c-0.4,5.6-2.3,11.2-6.3,15.2c-4.1,4.2-9.9,6.2-15.5,7.9c-5.6,1.7-11.5,3.1-16.2,6.5
		c-4.8,3.4-8.3,9.3-7,15.2c-1.5-1.5-4-1.1-6-0.3c-1.9,0.9-3.8,2.1-6,2.1c-3.3-0.1-5.6-3.1-7.4-5.8c-1-1.4-2-3-2.3-4.7
		c-0.7-3.7,1.6-7.2,3.8-10.2c5.9-8.4,11.2-17.2,16-26.3c2-3.9,4.1-7.4,6.4-10.6c4.2-6,8.8-11.3,14.3-16.9c0,0,0,0,0.1-0.1
		c0.3-0.3,0.6-0.6,0.9-0.9c5.2-5.3,10-12.4,15.6-17.5c0.8-0.7,1.6-1.4,2.4-2c11.9-9.2,18-18.1,31.3-30.6C109.1,21,112.8,24,110.3,29
		z"/>
	<path class="st29" d="M77.7,114c-4.9,8.5-12.8,14.9-21.8,17.8c-5.7,1.8-12.2,2.4-16.6,6.5c2.4-4.9,6.1-9.4,11.1-11.6
		c2.3-1,4.8-1.4,7.2-2.1C64.9,122.5,71.4,118.2,77.7,114z"/>
	<path class="st29" d="M134.6,36.2c-3.1-4.4-11-4.2-15.1-7.9c-1.6-1.4-2.6-3.4-3.5-5.3c-0.6-1.3-1.2-2.6-1.9-3.9
		c2.9,1.9,7,2.8,10.8,3.9c3.8,1.2,7.7,2.9,9.1,6.2C135,31.4,134.8,33.9,134.6,36.2z"/>
	<path class="st29" d="M151.2,46.2c-0.2,0.2-0.3,0.4-0.6,0.5c-0.3,0.1-0.5,0-0.8-0.1c-2.6-0.8-5.2-1.6-7.8-2.5
		c-0.2-0.8,0.9-1.5,1.8-1.7c0.9-0.2,2-0.8,1.9-1.6c0-0.3-0.3-0.6-0.5-0.8c-1.4-1.4-2.6-3-3.3-4.8c-0.9-2.2-1.1-4.6-2.1-6.7
		c-1-2.2-2.9-3.9-5.3-4.8c2.7,0.8,4.8,1.7,6.9,2.5c3.1,1.2,6.4,2.7,7.7,5.6c1.2,2.7,0.4,6,1.3,8.9C151.2,42.5,152.4,44.5,151.2,46.2
		z"/>
	<path class="st29" d="M161.5,46.1c-0.5,1.8-1.9,3.2-3.6,3.8c-1.7,0.6-3.7,0.2-5.8-0.4c2.7-0.7,3.9-4,3.8-6.8
		c-0.1-2.8-1.1-5.5-1-8.3c0.1-1.2,0.3-2.3,0.3-3.5c-0.2-2.9-2.7-5.3-2.7-8.2c0-0.3,0-0.7,0.2-1c0.3-0.3,0.7-0.5,1.1-0.5
		c1.2,0,2.3,0.8,3,1.7c0.8,0.9,1.3,2,2,3c0.6,0.8,1.4,1.6,1.9,2.5c0.4,0.8,0.4,1.7,0.4,2.6c0.2,3.9,0.4,7.8,0.6,11.8
		C161.8,43.9,161.8,45.1,161.5,46.1z"/>
	<path class="st29" d="M169.7,49.6c-1.8,2.1-5.1,2.5-8.5,1.9c2.1-1.2,3.3-3.7,3.7-6.1c0.3-2.4-0.1-4.9-0.5-7.3
		c-0.7-4.3-1.4-8.6-2.1-12.8c-0.1-0.7-0.2-1.4-0.1-2c0.2-0.7,0.7-1.3,1.4-1.4c0.4,0,0.8,0.1,1.1,0.3c1.2,0.8,1.7,2.3,2,3.7
		c1.2,4.5,2.4,9,3.6,13.5C171.3,42.9,172.1,46.9,169.7,49.6z"/>
	<path class="st29" d="M180.5,39.3c0,2.4-1.2,4.6-2.8,6.3c-1.6,1.7-3.6,3.1-6.1,4c1-2.7,4-4.6,4.1-7.5c0-1-0.3-1.9-0.7-2.8
		c-1.9-4.9-3.8-9.8-5.7-14.8c-0.4-1.1-0.9-2.3-0.8-3.5c0-1.2,0.6-2.5,1.7-2.9c3.2,5,6.2,10.2,8.7,15.5
		C179.7,35.5,180.5,37.4,180.5,39.3z"/>
	<path class="st29" d="M162.8,15.1c-2.1,0.1-3.6,3-5.7,3.8c-0.9,0.3-1.9,0.3-2.8,0.3c-2.5,0.2-5,1.3-6.8,3.1c-0.4,0.5-0.9,1-1.4,1.3
		c-1.1,0.7-2.6,0.4-3.7-0.2c-1.1-0.6-2-1.4-3.1-2.1c-3.7-2-8.7-0.7-12.8-2.2c-1.5-0.6-2.8-1.5-4.3-2.1c-2.3-1-5-1.2-7.5-1.8
		c-2.5-0.5-5.1-1.5-6.5-3.5c4-3.1,9.2-4.4,14.3-4.6c5-0.2,10,0.8,14.9,1.7c6.1,1.1,12.2,2.3,18.3,3.4
		C158.2,12.8,161,13.4,162.8,15.1z"/>
	<path class="st28" d="M74.6,44.5c-1.2,1.5-2.3,3-3.3,4.5c-6.8,10.1-11,21.9-11.9,34.1C56.6,78.4,55,73,54.8,67.5v0
		c0,0,0,0.1-0.1,0.1c-8.4,12.9-13.6,27.7-15.1,43c-3.1-8.4-2.3-17.6,0.9-26.1c1.5-4.1,3.6-8,6-11.5C54,62.2,64.8,54,74.6,44.5z"/>
	<path class="st28" d="M118.6,117.9c-0.9,3.6-4.7,5-8.4,5.4c-3.4,0.4-7,0.3-10.6-1.2c-3.6-1.5-7.2-4.5-8.8-8.2
		c-0.1-0.3-0.2-0.6-0.3-0.9c-1.1-3.5-0.2-7.1,2-8.1c0.5,1.6,1.2,3.2,2.1,4.7c2.2,3.7,5.6,7,9.4,8.8C109.2,121,115,120.8,118.6,117.9
		z"/>
	<path class="st28" d="M196.5,115.4c8.9,4.9,17.3,10.7,24.9,17.2c1.8,1.5,3.5,3.1,4.6,5.1c1.1,2.2,1.3,4.7,1.4,7.1
		c0.1,2.8,0.5,6.3-0.4,9c-2.6-1.7-4.4-7.7-6.1-10.4c-2.2-3.5-4.6-6.9-7.1-10.2c-2.6-3.3-5.3-6.4-8.2-9.4
		C203,121.1,199.9,117.2,196.5,115.4z"/>
	<path class="st28" d="M71.7,266.6c1.1,7.9,4.3,15.2,9.2,21.2c0.9,1,2.3,1.4,3.5,0.9l77.5-33.9c1.3-11.7-3-21.9-12.2-25.7
		l-76.3,34.3C72.2,264,71.5,265.3,71.7,266.6z"/>
	<path class="st30" d="M75.7,271.3l79.1-36"/>
	<path class="st28" d="M78.2,276.9l80.2-35.6"/>
	<g>
		<defs>
			<rect id="SVGID_29_" x="5" y="159.7" width="235.3" height="178.5"/>
		</defs>
		<clipPath id="SVGID_30_">
			<use xlink:href="#SVGID_29_"  style="overflow:visible;"/>
		</clipPath>
		<g class="st31">
			<path class="st14" d="M78.2,276.9l80.2-35.6"/>
		</g>
	</g>
	<path class="st21" d="M148.3,257.5L87,285c-1.5,0.7-3.7,0.2-4.7-1.1c-3.4-4-5.8-11.3-7.1-15.6c-0.5-1.9,0.4-3.9,2.2-4.8l72-32.7
		c0,0,12.1,5.7,10.1,21.3L148.3,257.5z"/>
	<path class="st28" d="M220.4,220.9c1,2.2,1.9,4.5,2.7,6.8c0.8,2.3,1.5,4.6,2.1,7c0.6,2.3,1.1,4.7,1.5,7.1c0.4,2.4,0.7,4.7,0.9,7.1
		c0.2,2.4,0.3,4.7,0.3,7.1s-0.1,4.7-0.3,7s-0.5,4.6-0.9,6.8c-0.4,2.2-0.9,4.4-1.5,6.6c-0.6,2.1-1.3,4.2-2.1,6.3
		c-0.8,2-1.7,4-2.7,5.9s-2,3.7-3.2,5.5c-1.1,1.8-2.4,3.4-3.7,5c-1.3,1.6-2.7,3.1-4.2,4.5c-1.5,1.4-3,2.7-4.6,3.9s-3.3,2.3-5,3.3
		c-1.7,1-3.5,1.9-5.3,2.7c-1.8,0.8-3.7,1.5-5.6,2.1c-1.9,0.6-3.9,1-5.8,1.4c-2,0.3-4,0.6-6,0.7c-2,0.1-4.1,0.1-6.1,0
		c-2.1-0.1-4.1-0.3-6.2-0.7c-2.1-0.3-4.1-0.8-6.2-1.4c-2.1-0.6-4.1-1.3-6.1-2.1c-2-0.8-4-1.7-6-2.7c-2-1-3.9-2.1-5.8-3.3
		c-1.9-1.2-3.8-2.5-5.6-3.9c-1.8-1.4-3.6-2.9-5.3-4.5c-1.7-1.6-3.4-3.3-5-5c-1.6-1.8-3.1-3.6-4.6-5.5c-1.5-1.9-2.8-3.9-4.2-5.9
		s-2.5-4.1-3.7-6.3c-1.1-2.1-2.2-4.3-3.2-6.6c-1-2.2-1.9-4.5-2.6-6.8c-0.8-2.3-1.5-4.6-2.1-7c-0.6-2.3-1.1-4.7-1.5-7.1
		c-0.4-2.4-0.7-4.7-0.9-7.1c-0.2-2.4-0.3-4.7-0.3-7.1s0.1-4.7,0.3-7s0.5-4.6,0.9-6.8c0.4-2.2,0.9-4.4,1.5-6.6
		c0.6-2.1,1.3-4.2,2.1-6.3s1.7-4,2.7-5.9c1-1.9,2-3.7,3.2-5.5c1.1-1.8,2.4-3.4,3.7-5s2.7-3.1,4.2-4.5c1.5-1.4,3-2.7,4.6-3.9
		c1.6-1.2,3.3-2.3,5-3.3c1.7-1,3.5-1.9,5.3-2.7c1.8-0.8,3.7-1.5,5.6-2.1c1.9-0.6,3.9-1,5.8-1.4c2-0.3,4-0.6,6-0.7
		c2-0.1,4.1-0.1,6.1,0c2.1,0.1,4.1,0.3,6.2,0.7c2.1,0.3,4.1,0.8,6.2,1.4c2.1,0.6,4.1,1.3,6.1,2.1c2,0.8,4,1.7,6,2.7
		c2,1,3.9,2.1,5.8,3.3c1.9,1.2,3.8,2.5,5.6,3.9c1.8,1.4,3.6,2.9,5.3,4.5c1.7,1.6,3.4,3.3,5,5c1.6,1.8,3.1,3.6,4.6,5.5
		c1.5,1.9,2.9,3.9,4.2,5.9s2.5,4.1,3.7,6.3C218.4,216.4,219.5,218.6,220.4,220.9z"/>
	<path class="st29" d="M134.4,179.9c-4.2,5.6-6.9,12.2-8.1,19.1c-1.3,6.8-1.1,13.9-0.1,20.7c2,13.8,7,27,13.3,39.4
		c6.4,12.3,14.8,23.7,25.3,32.8c5.2,4.5,11.1,8.5,17.5,11.1c3.2,1.3,6.5,2.3,10,2.9c3.4,0.5,7,0.7,10.4,0.3
		c-6.9,1.2-14.2,0.2-20.8-2.2c-6.6-2.5-12.7-6.4-18.2-10.8c-5.5-4.5-10.3-9.7-14.7-15.3c-4.3-5.6-8.2-11.5-11.5-17.8
		c-3.2-6.3-5.9-12.8-8.2-19.5c-2.2-6.7-4-13.6-4.8-20.6c-0.8-7-0.8-14.2,0.7-21.1C126.8,191.9,129.9,185.2,134.4,179.9z"/>
	<path class="st29" d="M181.2,311.9c-2.7-0.9-6.7-0.5-9.5-1c-31.2-5.9-52.9-32.9-59.9-62.7c-4.3-18.2-2.9-38.4,8.5-53.8
		c0.8-1.1,1.6-2.1,2.5-3c-1.4,1.4-1.9,5.3-2.4,7.1c-1.7,6.3-2.6,12.7-2.8,19.2c-0.8,33,19.9,65.5,45,85.2
		C162.7,302.9,176.9,311,181.2,311.9z"/>
	<path class="st29" d="M138,208.9c0.1-2.2,0.2-4.3,0.6-6.5c0.3-2.2,0.9-4.3,1.6-6.4c1.5-4.1,3.9-8.1,7.5-10.8
		c3.6-2.8,8.2-4.2,12.7-4.3c4.5,0,9,1.2,13.1,2.9c4.1,1.8,7.9,4.1,11.4,6.8c3.5,2.7,6.8,5.7,9.8,9c6,6.5,10.9,13.9,15,21.7
		c4,7.9,7,16.2,8.7,24.9c0.8,4.3,1.3,8.8,1.3,13.2c0,2.2-0.1,4.4-0.4,6.7c-0.3,2.2-0.7,4.4-1.4,6.6c-1.3,4.3-3.3,8.5-6.5,11.8
		c-3.2,3.3-7.5,5.4-12,5.9c-4.5,0.5-9-0.3-13.1-1.8c-4.1-1.5-7.9-3.8-11.4-6.4c3.7,2.3,7.6,4.3,11.7,5.6c4.1,1.3,8.4,1.8,12.6,1.1
		c4.1-0.7,7.9-2.8,10.7-5.8c2.8-3.1,4.6-6.9,5.7-11c2.1-8.2,1.6-16.9-0.1-25.2c-1.7-8.4-4.7-16.5-8.6-24.1
		c-3.9-7.6-8.6-14.8-14.4-21.2c-5.7-6.4-12.3-11.9-20-15.5c-3.8-1.8-7.9-2.9-12.1-3.1c-4.2-0.2-8.3,1-11.7,3.4c-3.4,2.4-6,6-7.7,9.9
		C139.3,200.3,138.4,204.6,138,208.9z"/>
	<path class="st29" d="M201.3,236c0.4,1.9,0.6,3.9,0.5,5.9c-0.1,2-0.4,4-1.3,5.8c-0.8,1.8-2.4,3.5-4.4,4.3c-2,0.8-4.2,0.8-6.2,0.3
		c-2-0.5-3.9-1.4-5.6-2.5c-1.7-1.1-3.3-2.4-4.7-3.8c-2.9-2.8-5.2-6.1-7.2-9.6c-1.9-3.5-3.5-7.2-4.4-11.1c-0.5-1.9-0.7-3.9-0.8-6
		c-0.1-2,0.1-4.1,0.5-6.1c0.5-2,1.4-4,2.9-5.5c0.4-0.3,0.8-0.8,1.2-1c0.5-0.3,0.9-0.6,1.4-0.8c1-0.4,2-0.6,3.1-0.6
		c2.1,0,4,0.6,5.8,1.5c1.8,0.9,3.4,2.1,4.8,3.4c-1.6-1.1-3.3-2.1-5-2.9c-1.8-0.7-3.7-1.2-5.5-1c-0.9,0.1-1.8,0.3-2.6,0.7
		c-0.4,0.2-0.8,0.5-1.1,0.7c-0.4,0.2-0.7,0.6-1,0.9c-1.2,1.3-1.9,3.1-2.3,4.9c-0.7,3.6-0.3,7.5,0.7,11.2c0.9,3.7,2.4,7.3,4.3,10.6
		c1.8,3.3,4.1,6.5,6.7,9.2c1.3,1.4,2.8,2.6,4.3,3.7c1.6,1,3.2,1.9,5,2.4c1.8,0.5,3.6,0.6,5.3,0c1.7-0.6,3.1-1.9,4-3.5
		c0.9-1.6,1.4-3.5,1.7-5.4C201.5,239.9,201.5,237.9,201.3,236z"/>
	<path class="st28" d="M179.5,214.1c1.8,9.1,6.1,18.1,12.3,24.8l75.1-33c-5.1-7.9-9.3-16.6-12.2-25.7L179.5,214.1z"/>
	<path class="st30" d="M180.6,222.5l68-31.5"/>
	<path class="st32" d="M183.1,228.1l68.6-31.6"/>
	<path class="st28" d="M351,158.6c1.1,2.5,2.1,5,3,7.5c0.9,2.5,1.7,5.1,2.5,7.6c0.7,2.6,1.4,5.1,1.9,7.7c0.6,2.6,1,5.1,1.4,7.7
		c0.4,2.6,0.6,5.1,0.8,7.6s0.3,5,0.2,7.4c0,2.5-0.1,4.9-0.3,7.2c-0.2,2.4-0.5,4.7-0.9,6.9c-0.4,2.3-0.9,4.4-1.5,6.6
		c-0.6,2.1-1.3,4.2-2,6.1c-0.8,2-1.6,3.9-2.6,5.7c-0.9,1.8-2,3.5-3.1,5.1c-1.1,1.6-2.3,3.1-3.6,4.5c-1.3,1.4-2.6,2.7-4,3.9
		s-2.9,2.3-4.4,3.2s-3.1,1.8-4.8,2.5c-1.6,0.7-3.3,1.3-5.1,1.8c-1.7,0.5-3.5,0.8-5.4,1.1s-3.7,0.3-5.6,0.3s-3.8-0.2-5.7-0.5
		c-1.9-0.3-3.9-0.7-5.8-1.2c-2-0.5-3.9-1.2-5.9-1.9c-2-0.8-3.9-1.7-5.9-2.7c-2-1-3.9-2.1-5.8-3.4c-1.9-1.2-3.8-2.6-5.7-4
		c-1.9-1.5-3.7-3-5.5-4.7c-1.8-1.7-3.6-3.4-5.3-5.2c-1.7-1.8-3.4-3.8-5-5.8c-1.6-2-3.2-4.1-4.7-6.2c-1.5-2.2-3-4.4-4.3-6.6
		c-1.4-2.3-2.7-4.6-3.9-7c-1.2-2.4-2.4-4.8-3.5-7.3c-1.1-2.5-2.1-5-3-7.5c-0.9-2.5-1.7-5.1-2.5-7.6c-0.7-2.6-1.4-5.1-1.9-7.7
		c-0.6-2.6-1-5.1-1.4-7.7c-0.4-2.6-0.6-5.1-0.8-7.6c-0.2-2.5-0.3-5-0.2-7.4c0-2.4,0.1-4.9,0.3-7.2c0.2-2.4,0.5-4.7,0.9-6.9
		c0.4-2.3,0.9-4.4,1.5-6.6c0.6-2.1,1.3-4.2,2-6.1c0.8-2,1.6-3.9,2.6-5.7c0.9-1.8,2-3.5,3.1-5.1c1.1-1.6,2.3-3.1,3.6-4.5
		c1.3-1.4,2.6-2.7,4-3.9s2.9-2.3,4.4-3.2c1.5-1,3.1-1.8,4.8-2.5c1.6-0.7,3.3-1.3,5.1-1.8c1.7-0.5,3.5-0.8,5.4-1.1
		c1.8-0.2,3.7-0.3,5.6-0.3c1.9,0,3.8,0.2,5.7,0.5c1.9,0.3,3.9,0.7,5.8,1.2c2,0.5,3.9,1.2,5.9,1.9c2,0.8,3.9,1.7,5.9,2.7
		c2,1,3.9,2.1,5.8,3.4c1.9,1.2,3.8,2.6,5.7,4c1.9,1.4,3.7,3,5.5,4.7c1.8,1.7,3.6,3.4,5.3,5.2c1.7,1.8,3.4,3.8,5,5.8
		c1.6,2,3.2,4.1,4.7,6.2c1.5,2.2,3,4.4,4.3,6.6c1.4,2.3,2.7,4.6,3.9,7C348.8,153.7,349.9,156.1,351,158.6z"/>
	<path class="st21" d="M244.5,186.3l-62.2,28.5c-1.8,0.8-2.7,2.8-2.2,4.8c1.2,4.3,3.7,11.7,7.2,15.7c1.1,1.3,3,1.7,4.6,0.9
		l61.3-27.5"/>
	<path class="st29" d="M275.6,113c-4.4,5.2-7.5,11.4-9.1,17.9c-1.7,6.5-2,13.3-1.6,20c1,13.5,4.8,26.6,10.1,39
		c5.3,12.4,12.6,24,22.1,33.6c4.7,4.8,10.1,9,16.1,12c3,1.5,6.2,2.7,9.5,3.5c3.3,0.8,6.7,1.1,10.1,1c-6.8,0.7-13.7-0.8-20-3.6
		c-6.2-2.9-11.8-7.1-16.8-11.8c-5-4.7-9.3-10.2-13.1-15.9c-3.8-5.7-7.1-11.8-9.8-18.1c-2.6-6.3-4.8-12.8-6.5-19.5
		c-1.7-6.6-2.9-13.4-3.2-20.3c-0.3-6.8,0.2-13.8,2.2-20.4C267.5,124.1,270.9,117.9,275.6,113z"/>
	<path class="st29" d="M311.6,244.3c-2.5-1.1-6.4-0.9-9.1-1.6c-29.7-7.9-48.7-35.5-53.4-64.9c-2.8-17.9-0.2-37.4,11.9-51.6
		c0.8-1,1.7-1.9,2.6-2.8c-1.4,1.2-2.2,5-2.8,6.7c-2.1,5.9-3.4,12.2-4,18.4c-3,31.9,14.6,64.9,37.5,85.7
		C294.4,234.2,307.5,243.2,311.6,244.3z"/>
	<path class="st29" d="M322.8,213.1c-1.7-0.7-4.2-0.6-6-1.1c-19.6-5.2-32.2-23.5-35.3-42.9c-1.9-11.8-0.1-24.7,7.9-34.1
		c0.5-0.6,1.1-1.3,1.7-1.8c-0.9,0.8-1.5,3.3-1.8,4.4c-1.4,3.9-2.2,8-2.6,12.2c-2,21.1,9.7,42.9,24.8,56.6
		C311.3,206.4,320,212.3,322.8,213.1z"/>
	<path class="st29" d="M277.1,141.4c0.2-2.1,0.5-4.2,1-6.3c0.5-2.1,1.2-4.1,2-6c1.7-3.9,4.3-7.5,8-10c3.6-2.5,8.2-3.6,12.5-3.3
		c4.4,0.3,8.6,1.7,12.4,3.7c3.8,2,7.4,4.5,10.6,7.4c3.2,2.9,6.1,6,8.8,9.4c5.3,6.7,9.6,14.2,12.9,22.1c3.3,7.9,5.6,16.2,6.7,24.7
		c0.5,4.3,0.6,8.6,0.3,12.9c-0.2,2.2-0.4,4.3-0.8,6.4c-0.4,2.1-1,4.2-1.7,6.3c-1.5,4.1-3.8,8-7.1,11c-3.3,3-7.6,4.8-12,5
		c-4.4,0.2-8.7-0.9-12.5-2.7c-3.9-1.8-7.4-4.2-10.6-7c3.4,2.5,7,4.7,10.9,6.2c3.9,1.5,8,2.4,12.1,1.9c4-0.4,7.9-2.2,10.7-5
		c2.9-2.8,4.9-6.4,6.2-10.3c2.6-7.8,2.7-16.2,1.6-24.4c-1.1-8.2-3.3-16.3-6.6-23.9c-3.2-7.7-7.3-15-12.4-21.5
		c-5-6.6-11.1-12.4-18.2-16.5c-3.6-2-7.5-3.4-11.5-3.8c-4-0.4-8.1,0.4-11.6,2.5c-3.5,2.1-6.2,5.4-8,9.1
		C278.9,133.2,277.8,137.3,277.1,141.4z"/>
	<path class="st29" d="M336.3,172c0.2,1.9,0.3,3.8,0.1,5.7c-0.2,1.9-0.7,3.8-1.6,5.6c-0.9,1.7-2.5,3.3-4.5,3.9c-2,0.7-4.1,0.5-6-0.1
		c-1.9-0.6-3.6-1.6-5.2-2.8c-1.5-1.2-3-2.6-4.3-4c-2.6-2.9-4.6-6.3-6.3-9.8c-1.6-3.5-2.8-7.2-3.4-11.1c-0.3-1.9-0.4-3.9-0.4-5.8
		c0-2,0.3-3.9,0.9-5.8c0.6-1.9,1.6-3.8,3.1-5.1c0.8-0.7,1.7-1.2,2.6-1.6c1-0.3,2-0.5,3-0.4c2,0.1,3.9,0.9,5.5,1.9
		c1.7,1,3.1,2.3,4.4,3.6c-1.5-1.2-3-2.3-4.7-3.1c-1.7-0.8-3.5-1.4-5.3-1.3c-0.9,0-1.8,0.2-2.6,0.5c-0.8,0.3-1.5,0.8-2.1,1.4
		c-1.2,1.2-2,2.9-2.5,4.6c-0.9,3.5-0.8,7.3-0.1,10.9c0.6,3.6,1.8,7.2,3.4,10.5c1.5,3.4,3.5,6.6,5.9,9.4c1.2,1.4,2.5,2.7,3.9,3.9
		c1.4,1.1,3,2.1,4.6,2.7c1.7,0.6,3.5,0.8,5.1,0.4c1.7-0.4,3.1-1.6,4.1-3.1c1-1.5,1.6-3.3,2-5.1C336.1,175.8,336.3,173.9,336.3,172z"
		/>
	<path class="st28" d="M316.3,148.3c1.8,9.1,6.1,18.1,12.3,24.8l75.1-33c1.3-11.7-3-22-12.2-25.7L316.3,148.3z"/>
	<path class="st28" d="M317.4,156.6l79.1-36"/>
	<g>
		<defs>
			<rect id="SVGID_31_" x="284.3" y="87.7" width="120.7" height="102.7"/>
		</defs>
		<clipPath id="SVGID_32_">
			<use xlink:href="#SVGID_31_"  style="overflow:visible;"/>
		</clipPath>
		<g class="st33">
			<path class="st18" d="M317.4,156.6l79.1-36"/>
		</g>
	</g>
	<path class="st28" d="M319.9,162.2l80.2-35.6"/>
	<g>
		<defs>
			<rect id="SVGID_33_" x="237.7" y="45" width="167.3" height="198.7"/>
		</defs>
		<clipPath id="SVGID_34_">
			<use xlink:href="#SVGID_33_"  style="overflow:visible;"/>
		</clipPath>
		<g class="st34">
			<path class="st14" d="M319.9,162.2l80.2-35.6"/>
		</g>
	</g>
	<g>
		<defs>
			<rect id="SVGID_35_" x="301.7" y="101" width="103.3" height="85.3"/>
		</defs>
		<clipPath id="SVGID_36_">
			<use xlink:href="#SVGID_35_"  style="overflow:visible;"/>
		</clipPath>
		<g class="st35">
			<path class="st21" d="M390,142.9l-61.3,27.5c-1.6,0.7-3.5,0.4-4.6-0.9c-3.5-4-5.9-11.4-7.2-15.7c-0.5-1.9,0.4-3.9,2.2-4.8
				l72-32.7c0,0,12.1,5.7,10.1,21.3L390,142.9z"/>
		</g>
	</g>
	<path class="st28" d="M225,107c0-0.3,0-0.4,0-0.4C225.1,106.8,225.1,106.9,225,107z"/>
	<path class="st29" d="M235,112.9c-3.4,6.9-7.3,11.3-10.8,21.5c-5.9,17.1-7.5,34.9-9.3,52.8c3.7-2.8,8-4.8,12.5-5.9
		c-0.8-10.9-1.4-21.8-1-32.7S231.3,123.1,235,112.9"/>
	<path class="st29" d="M196.1,163.3c-6.7-11.5-19.8-19.1-33.2-18.9c1.5,1.5,2.5,2.6,4,4.1c2,2,4.1,4.1,6.7,5.4
		c1.8,0.9,3.8,1.4,5.8,1.9c2.7,0.7,5.3,1.3,8,2C190.6,158.6,194.4,161.4,196.1,163.3z"/>
</g>
</svg>
