<?xml version="1.0" encoding="utf-8"?>
<!-- Generator: Adobe Illustrator 23.0.2, SVG Export Plug-In . SVG Version: 6.00 Build 0)  -->
<svg version="1.1" xmlns="http://www.w3.org/2000/svg" xmlns:xlink="http://www.w3.org/1999/xlink" x="0px" y="0px"
	 viewBox="0 0 225 225" style="enable-background:new 0 0 225 225;" xml:space="preserve">
<style type="text/css">
	.st0{display:none;}
	.st1{display:inline;fill:#F5BD06;}
	.st2{opacity:0.5;}
	.st3{fill:#FFFFFF;}
	.st4{opacity:0.4;}
	.st5{opacity:0.15;fill:#1E1E1C;}
	.st6{opacity:0.15;}
	.st7{fill:#1E1E1C;}
	.st8{fill:#3D3D3B;}
	.st9{fill:#878787;}
	.st10{fill:#CC3A38;}
	.st11{fill:#FAB334;}
	.st12{fill:#E94C4A;}
	.st13{fill:#EEEDED;}
	.st14{fill:#24759F;}
	.st15{opacity:0.5;fill:#FFFFFF;}
	.st16{enable-background:new    ;}
	.st17{fill:#C7C6C6;}
	.st18{fill:#EE9E60;}
	.st19{fill:#202020;}
	.st20{fill:#424242;}
	.st21{opacity:0.1;fill:#1E1E1C;}
	.st22{opacity:0.2;fill:#1E1E1C;}
	.st23{opacity:0.1;fill:#171716;}
	.st24{fill:#6E6E6E;}
	.st25{fill:#C0C0BF;}
	.st26{fill:#CF4718;}
	.st27{fill:#DADADA;}
	.st28{fill:#E94F1D;}
	.st29{fill:#499DC7;}
	.st30{fill:#67BBE7;}
	.st31{fill:#3C7D9E;}
	.st32{fill:#244B5F;}
	.st33{opacity:0.1;fill:#020203;}
	.st34{fill:#B68226;}
	.st35{fill:#DA990D;}
	.st36{opacity:0.75;fill:#1E1E1C;}
	.st37{opacity:0.3;fill:#1E1E1C;}
	.st38{fill:#CC922B;}
	.st39{fill:#F1AA0C;}
	.st40{fill:#95C122;}
	.st41{fill:#644F43;}
	.st42{fill:#FFFCF6;}
	.st43{fill:#EBB2B3;}
	.st44{opacity:0.3;}
	.st45{opacity:0.2;fill:#020203;}
</style>
<g id="Camada_1" class="st0">
	<rect class="st1" width="225" height="225"/>
</g>
<g id="Camada_2">
	<g>
		<g class="st2">
			<path class="st3" d="M76,56.2c-0.5-0.1-1.1-0.2-1.7-0.3c0,0-2.5-0.5-2.5-0.5c-0.7-0.1-1.2,0-1.5,0.2c0,0-0.1,0-0.1,0.1
				c0,0-0.1,0.1-0.1,0.1c0,0,0,0-0.1,0.1c0,0,0,0,0,0.1c0,0,0,0,0,0.1c0,0.1-0.1,0.1-0.1,0.2c-0.2,0.2-0.4,0.4-0.7,0.6
				c-0.1,0.1-0.1,0.2,0,0.3c0.1,0.1,0.4,0.1,0.5,0c0,0,0.1,0,0.1-0.1l0.1,0.3c0,0.1,0.2,0.2,0.4,0.1c0.1,0,0.2,0,0.2-0.1
				c0,0.1,0.2,0.2,0.4,0.1c0.1,0,0.2-0.1,0.3-0.2c0.1,0.1,0.2,0.1,0.3,0.1c0.2,0,0.3-0.1,0.3-0.2c0.1,0,0.2,0.1,0.3,0.1l0.5-0.1
				c0.2,0,0.3-0.1,0.3-0.2l0-0.1c0.3,0,0.6-0.1,0.9-0.1c1.7,1,1.9,1.7,3.3,2c-0.7-0.1-1.5,0.1-1.9,0.5C75,59.5,74.9,59.8,75,60
				c0,0,0,0,0,0.1c-0.5,0-1,0.2-1.4,0.4C73.2,60.7,73,61,73,61.3c-0.4,0.1-0.7,0.2-0.9,0.3c-0.5,0.2-0.8,0.4-1.1,0.6
				c0,0-0.8-0.4-0.8-0.4c0-0.1-0.1-0.2-0.1-0.3c-0.1-0.2-0.3-0.5-0.6-0.8c0.1,0,0.1-0.1,0.2-0.1c0.1-0.1-0.1-0.3-0.3-0.5
				c-0.3-0.3-0.7-0.4-0.9-0.3l-0.8-0.6c-0.2-0.1-0.3-0.2-0.5-0.2c0-0.2,0-0.4,0-0.6c0,0-0.3,0.1-0.3,0.1c0-0.2-0.1-0.3-0.3-0.6
				c0,0,0.1,0.3-0.7,0.7c0,0-0.1-0.2-0.1-0.2c-0.3,0.3-0.6,0.4-1,0.5c-0.6,0.2-0.8,0.3-0.8,0.3c0-0.1-0.4-0.2-0.4-0.2
				c0.1,0.3-0.4,0.5-1,1.2c-0.2,0.2-0.2,0.4-0.2,0.7c0,0,0,0.1,0,0.1c0.1,0.3,0.3,0.6,0.8,0.9l1,0.5c-0.2,0.1,0.1,0.4,0.6,0.5
				c0.4,0.2,0.7,0.3,0.9,0.2c0.1,0,0.1,0,0.1-0.1c0.6,0.2,1,0.3,1.4,0.4c0.2,0,0.3,0,0.5,0.1l0.8,0.5c-0.4,0.2-0.7,0.4-1.1,0.6
				c-0.2,0.1-0.4,0.3-0.5,0.5c-0.5,0-1,0.2-1.4,0.4c-0.4,0.2-0.7,0.5-0.7,0.8c0,0-0.1,0-0.1,0c-0.5-0.1-1,0-1.5,0.2
				c-0.7,0.3-1.1,0.7-0.9,1.1c-0.6-0.8-1.8-1-3.5-1.9c0.1-0.2,0.2-0.4,0.2-0.5l0.2,0c0.2,0,0.3-0.1,0.3-0.2c0,0,0.1-0.3,0.1-0.3
				c0-0.1,0-0.1-0.1-0.2c0.2,0,0.4,0,0.4-0.1c0-0.1,0-0.2-0.1-0.2c0.1,0,0.2-0.1,0.3-0.1c0-0.1-0.1-0.2-0.2-0.2
				c0.1,0,0.1-0.1,0.2-0.1c0-0.1-0.1-0.2-0.3-0.2l-0.5-0.1c0,0,0.1,0,0.1-0.1c0.2-0.1,0.2-0.2,0-0.3c-0.1-0.1-0.4-0.1-0.5,0
				c-0.3,0.2-0.7,0.3-1,0.4c-0.1,0-0.1,0-0.2,0c0,0,0,0-0.1,0c0,0-0.1,0-0.1,0c0,0-0.1,0-0.1,0c0,0-0.1,0-0.1,0c0,0-0.1,0-0.1,0
				c-0.1,0-0.1,0-0.1,0.1c-0.3,0.2-0.5,0.5-0.4,0.9l0.9,1.4c0.1,0.3,0.3,0.6,0.5,1c0.7,1.1,1.8,2,3.4,2.8c1.7,0,3.1-0.2,4.1-0.5
				c0.8-0.3,1.4-0.6,1.8-1.1c1,0.2,2,0.4,2.9,0.6c0.4,0.1,0.8,0.1,1.2,0.1c0.1,0,0.2,0,0.2,0c1.4,0.1,2.6,0.5,3.6,1.1l0.5,0.3
				c1.4-0.4,2.7-0.9,3.7-1.4c1-0.6,1.9-1.3,2.5-2.1l-0.5-0.3c-1-0.6-1.7-1.4-1.9-2.2c-0.1-0.2-0.1-0.5-0.3-0.7
				c-0.2-0.5-0.6-1.1-1-1.7c0.8-0.3,1.4-0.6,1.9-1c0.7-0.6,1-1.4,0.9-2.4c-0.2-0.1-0.4-0.2-0.5-0.3C79.1,57.1,77.6,56.6,76,56.2z"/>
		</g>
		<g class="st2">
			<path class="st3" d="M115.3,59.9l2.4,0.9c-0.2,0.3,0,0.7,0.6,0.9c0.6,0.2,1.3,0,1.6-0.3c0.1-0.1,0.1-0.3,0.1-0.5l2.8-0.8
				c0.2,0.1,0.4,0.2,0.6,0.3c0.9,0.3,2.1,0.1,2.5-0.5c0.5-0.5,0.1-1.2-0.8-1.5c-0.2,0-0.3-0.1-0.5-0.1l0.2-1.7c0.4,0,0.8-0.1,1-0.4
				c0.3-0.3,0.1-0.8-0.5-1c-0.5-0.2-1.1-0.1-1.5,0.2l-2.3-0.9c0.4-0.5,0.1-1.1-0.8-1.3c-0.8-0.2-1.9-0.1-2.3,0.4
				c-0.2,0.2-0.2,0.4-0.2,0.6l-3,0.9c-0.1,0-0.1-0.1-0.2-0.1c-0.6-0.2-1.3,0-1.6,0.3c-0.3,0.3-0.1,0.7,0.5,0.9l-0.2,1.4
				c-0.6,0.1-1.2,0.3-1.5,0.6c-0.5,0.6-0.1,1.3,0.9,1.6C113.8,60.2,114.7,60.2,115.3,59.9z M114.5,56.5c0.4,0,0.9-0.1,1.1-0.4
				c0.2-0.2,0.2-0.4,0-0.6l2.8-0.8c0.2,0.2,0.4,0.3,0.7,0.4c0.7,0.2,1.4,0.1,1.9-0.2l2.4,0.9c-0.1,0.3,0.1,0.6,0.6,0.7
				c0,0-0.2,1.7-0.2,1.7c-0.6,0-1.1,0.3-1.4,0.6c-0.2,0.3-0.3,0.6-0.1,0.8l-2.7,0.8c-0.1-0.1-0.2-0.1-0.4-0.2
				c-0.5-0.1-1-0.1-1.4,0.1l-2.3-0.9c0.1,0,0.1-0.1,0.1-0.1c0.5-0.6,0.1-1.3-0.9-1.6c-0.2-0.1-0.4-0.1-0.6-0.1L114.5,56.5z"/>
		</g>
		<g class="st2">
			<path class="st3" d="M95.8,94l3.3,1.3c-0.3,0.4,0,0.9,0.8,1.2c0.8,0.2,1.8,0,2.2-0.4c0.2-0.2,0.2-0.4,0.1-0.6l3.7-1.1
				c0.2,0.2,0.5,0.3,0.8,0.4c1.3,0.4,2.8,0.1,3.4-0.6c0.6-0.7,0.1-1.6-1.1-2c-0.2-0.1-0.4-0.1-0.6-0.1l0.3-2.3
				c0.6,0,1.1-0.2,1.3-0.5c0.4-0.5,0.1-1-0.7-1.3c-0.7-0.2-1.5-0.1-2,0.3l-3.1-1.2c0.6-0.7,0.1-1.5-1-1.8c-1.1-0.3-2.6-0.1-3.1,0.6
				c-0.2,0.3-0.3,0.5-0.2,0.8l-4.1,1.2c-0.1,0-0.1-0.1-0.2-0.1c-0.8-0.2-1.8,0-2.2,0.4c-0.4,0.5-0.1,1,0.7,1.3l-0.2,1.9
				c-0.9,0.1-1.7,0.4-2.1,0.9c-0.7,0.8-0.1,1.7,1.2,2.1C93.8,94.5,94.9,94.4,95.8,94z M94.7,89.5c0.6,0,1.2-0.2,1.5-0.5
				c0.2-0.3,0.2-0.5,0-0.8l3.8-1.1c0.2,0.2,0.6,0.4,1,0.6c0.9,0.3,1.9,0.2,2.6-0.2l3.3,1.3c-0.1,0.4,0.2,0.8,0.9,1c0,0,0,0,0.1,0
				l-0.3,2.3c-0.8,0.1-1.6,0.3-2,0.8c-0.3,0.4-0.3,0.8-0.1,1.1l-3.7,1c-0.1-0.1-0.3-0.2-0.5-0.2c-0.6-0.2-1.3-0.1-1.8,0.1l-3.1-1.2
				c0.1-0.1,0.1-0.1,0.2-0.2c0.7-0.8,0.1-1.7-1.2-2.1c-0.3-0.1-0.5-0.1-0.8-0.1L94.7,89.5z"/>
		</g>
		<g class="st2">
			<path class="st3" d="M206.3,116.1l-9.2,5.3l-1.7-1c-0.5-0.3-0.5-0.8,0-1.1l7.3-4.2c0.5-0.3,1.3-0.3,1.9,0L206.3,116.1z
				 M197.1,121.1l8.7-5l-1.4-0.8c-0.4-0.2-0.9-0.2-1.3,0l-7.3,4.2c-0.4,0.2-0.4,0.5,0,0.8L197.1,121.1z"/>
			<path class="st3" d="M199.6,123.4l6,3.5l10.1-5.8l-6-3.5L199.6,123.4z M205.8,122.3l3.1-1.8l0.5,0.3l-3.1,1.8L205.8,122.3z
				 M202.5,122.7c0.5-0.3,1.2-0.3,1.7,0c0.5,0.3,0.5,0.7,0,1c-0.5,0.3-1.2,0.3-1.7,0C202,123.4,202,123,202.5,122.7z M213.7,121.2
				l-7.8,4.5l-0.5-0.3l7.8-4.5L213.7,121.2z M212.5,120.4l-7.8,4.5l-0.5-0.3l7.8-4.5L212.5,120.4z M209.9,119l-4.9,2.8l-0.5-0.3
				l4.9-2.8L209.9,119z"/>
			<g>
				<path class="st3" d="M199.7,123.1l-1-0.6c-0.6-0.4-0.6-1,0-1.3l7.3-4.2c0.6-0.4,1.7-0.4,2.3,0l1,0.6l0.3-0.2l-1-0.6
					c-0.8-0.5-2.1-0.5-2.8,0l-7.3,4.2c-0.8,0.5-0.8,1.2,0,1.6l1,0.6L199.7,123.1z"/>
				<polygon class="st3" points="205.6,126.6 205.7,126.5 200.2,123.3 200.1,123.4 				"/>
				<polygon class="st3" points="209.7,117.8 209.7,117.8 215.2,121 215.3,121 				"/>
				<path class="st3" d="M215.7,121.3l1.9,1.1c0.6,0.4,0.6,1,0,1.3l-7.3,4.2c-0.6,0.4-1.7,0.4-2.3,0l-1.9-1.1l-0.3,0.2l1.9,1.1
					c0.8,0.5,2.1,0.5,2.8,0l7.3-4.2c0.8-0.5,0.8-1.2,0-1.6l-1.9-1.1L215.7,121.3z"/>
			</g>
		</g>
		<g class="st2">
			<path class="st3" d="M131.9,164.4l-9.2,5.3l-1.7-1c-0.5-0.3-0.5-0.8,0-1.1l7.3-4.2c0.5-0.3,1.3-0.3,1.9,0L131.9,164.4z
				 M122.7,169.4l8.7-5l-1.4-0.8c-0.4-0.2-0.9-0.2-1.3,0l-7.3,4.2c-0.4,0.2-0.4,0.5,0,0.8L122.7,169.4z"/>
			<path class="st3" d="M125.2,171.7l6,3.5l10.1-5.8l-6-3.5L125.2,171.7z M131.3,170.6l3.1-1.8l0.5,0.3l-3.1,1.8L131.3,170.6z
				 M128,171.1c0.5-0.3,1.2-0.3,1.7,0c0.5,0.3,0.5,0.7,0,1c-0.5,0.3-1.2,0.3-1.7,0C127.6,171.8,127.6,171.3,128,171.1z M139.3,169.6
				l-7.8,4.5l-0.5-0.3l7.8-4.5L139.3,169.6z M138,168.8l-7.8,4.5l-0.5-0.3l7.8-4.5L138,168.8z M135.5,167.4l-4.9,2.8l-0.5-0.3
				l4.9-2.8L135.5,167.4z"/>
			<g>
				<path class="st3" d="M125.2,171.4l-1-0.6c-0.6-0.4-0.6-1,0-1.3l7.3-4.2c0.6-0.4,1.7-0.4,2.3,0l1,0.6l0.3-0.2l-1-0.6
					c-0.8-0.5-2.1-0.5-2.8,0l-7.3,4.2c-0.8,0.5-0.8,1.2,0,1.6l1,0.6L125.2,171.4z"/>
				<polygon class="st3" points="131.2,174.9 131.2,174.9 125.7,171.7 125.7,171.7 				"/>
				<polygon class="st3" points="135.3,166.2 135.2,166.2 140.8,169.4 140.8,169.4 				"/>
				<path class="st3" d="M141.3,169.7l1.9,1.1c0.6,0.4,0.6,1,0,1.3l-7.3,4.2c-0.6,0.4-1.7,0.4-2.3,0l-1.9-1.1l-0.3,0.2l1.9,1.1
					c0.8,0.5,2.1,0.5,2.8,0l7.3-4.2c0.8-0.5,0.8-1.2,0-1.6l-1.9-1.1L141.3,169.7z"/>
			</g>
		</g>
		<g class="st2">
			<path class="st3" d="M168.9,147.2l-1.2-1.2c0,0,0,0,0.1,0l7.2-3.8c0.5-0.3,1-0.5,1.6-0.8l0.2-0.1l2.3-1l1-0.4l2.8-1.2
				c0.2-0.1,0.4-0.2,0.6-0.3c1.6-0.7,3.1-1.6,4.3-2.5c1.7-1.3,2.7-2,4.2-3.9c0,0,0-0.1,0-0.1c0,0,1.1,0.4,1.1,0.4
				c0.3,0.1,0.4,0.3,0.3,0.4c-0.6,1.2-1.9,2.4-3.3,3.6c-0.8,0.7-1.8,1.3-2.8,1.9l-10.5,5.5c-0.1,0-0.2,0.1-0.3,0.1l-3.6,2.1
				c-0.4,0.3-0.9,0.5-1.5,0.7l-1.8,0.6c-0.1,0.1-0.3,0.1-0.5,0C169.1,147.3,169,147.2,168.9,147.2z"/>
			<path class="st3" d="M162.7,142.7c-0.8-0.8-1.9-1.7-2.5-2.2c-0.1-0.1-0.1-0.2-0.1-0.3c0-0.1,0.2-0.2,0.3-0.2l0.1,0
				c0.5-0.1,1.3,0.2,2.2,0.5c1.2,0.4,1.6,0.1,2.2,0.2C163.3,141.6,164.4,142.2,162.7,142.7z"/>
			<path class="st3" d="M182.4,133.7c0.1,0.2-0.1,0.4-0.4,0.4c-0.3,0-0.6-0.1-0.7-0.3l-0.5-1.1c-0.1-0.2,0.1-0.4,0.4-0.4
				c0.3,0,0.6,0.1,0.7,0.3L182.4,133.7z"/>
			<path class="st3" d="M180.8,134.1c0.1,0.2-0.1,0.4-0.4,0.4c-0.3,0.1-0.6-0.1-0.7-0.2l-0.6-1c-0.1-0.2,0.1-0.4,0.4-0.4
				c0.3-0.1,0.6,0.1,0.7,0.2L180.8,134.1z"/>
			<path class="st3" d="M179.2,134.5c0.1,0.2-0.1,0.4-0.4,0.4c-0.3,0-0.6-0.1-0.7-0.3l-0.5-1.1c-0.1-0.2,0.1-0.4,0.4-0.4
				c0.3,0,0.6,0.1,0.7,0.3L179.2,134.5z"/>
			<path class="st3" d="M177.5,134.8c0.1,0.2-0.1,0.4-0.4,0.4c-0.3,0-0.6-0.1-0.7-0.3l-0.5-1.1c-0.1-0.2,0.1-0.4,0.4-0.4
				c0.3,0,0.6,0.1,0.7,0.3L177.5,134.8z"/>
			<path class="st3" d="M175.7,135.1c0,0.2-0.2,0.4-0.5,0.4c-0.3,0-0.6-0.1-0.7-0.3l-0.2-1.2c0-0.2,0.2-0.4,0.5-0.4
				c0.3,0,0.6,0.1,0.7,0.3L175.7,135.1z"/>
			<path class="st3" d="M173.6,135.2c0,0.2-0.3,0.4-0.6,0.4c-0.3,0-0.6-0.2-0.6-0.4l0-1.2c0-0.2,0.3-0.4,0.6-0.4
				c0.3,0,0.6,0.2,0.6,0.4L173.6,135.2z"/>
			<path class="st3" d="M168.5,133.2c-0.1,0.1-0.2,0.2-0.3,0.2c-0.3,0.2-0.4,0.5-0.3,0.7c0.2,0.5,1.4,0.9,2.2,1c0,0,0,0,0,0.1
				c0,0,0,0.1,0,0.1c0,0.1-0.1,0.3-0.2,0.5c-1.4-0.3-2.9-0.8-3.2-1.5c-0.2-0.4,0.1-0.9,0.9-1.3C167.8,132.8,168.1,132.9,168.5,133.2
				L168.5,133.2L168.5,133.2L168.5,133.2z"/>
			<path class="st3" d="M170,138c0.1-0.1,0.2-0.3,0.3-0.4c4.1-0.5,8.2-0.5,11.8,0.4c0,0-0.2,0.1-0.2,0.1l-3.2,1.4
				c-2.8-0.7-6.2-1-9.4-0.7C169.6,138.5,169.8,138.2,170,138z"/>
			<path class="st3" d="M175.4,140.8c-2.4-0.7-5-1-7.7-0.9c0.1-0.1,0.2-0.1,0.3-0.2c0.3-0.2,0.5-0.3,0.7-0.5c3.2-0.3,6.1-0.1,9,0.6
				l-2,0.9C175.5,140.8,175.5,140.8,175.4,140.8z"/>
			<path class="st3" d="M191.7,131.7c-1.5,2-2.5,2.7-4.2,3.9c-0.8,0.6-1.7,1.2-2.6,1.7c-0.5,0.3-1.1,0.6-1.7,0.9
				c-0.2,0.1-0.4,0.2-0.6,0.3l-2.8,1.2l-1,0.4l-2.3,1l-0.2,0.1c-0.6,0.2-1.1,0.5-1.6,0.8l-7.2,3.8c0,0,0,0-0.1,0
				c-1.5-0.6-3.2-1.6-4.4-2.8c0.2,0,0.3-0.1,0.5-0.1c1.1,1.1,2.6,2.1,3.9,2.6l6.9-3.7c0.6-0.3,1.1-0.5,1.6-0.8l0.2-0.1l2.3-1l1-0.4
				l2.8-1.2l0.2-0.1c0.1-0.1,0.3-0.1,0.4-0.2c0.6-0.3,1.1-0.5,1.7-0.8c0.9-0.5,1.8-1.1,2.6-1.7l0.3-0.2c1.5-1.1,2.4-1.8,3.9-3.6
				c-0.2-0.2-1.5-0.7-2.3-0.6c-1.3,0-2.8,0.5-4.7,1.1c-0.2,0.1-1.5,0.5-1.7,0.5c0-0.1-0.1-0.2-0.2-0.3c2.2-0.7,5-1.6,6.5-1.6
				c1-0.1,2.7,0.5,2.9,0.9C191.7,131.7,191.7,131.7,191.7,131.7z"/>
			<path class="st3" d="M170.4,135.4c0,0,0-0.1,0-0.1c0,0,0-0.1,0-0.1c0.1-0.1,0.2-0.2,0.3-0.3c0.2-0.1,0.5-0.2,0.8-0.2
				c0.1,0,0.2,0,0.4,0l0,0.3c-0.1,0-0.2,0-0.4,0c-0.2,0-0.3,0-0.4,0.1c-0.1,0-0.1,0.1-0.2,0.2c-0.1,0.2-0.1,0.4-0.2,0.6
				c-0.3,0.7-0.7,1.4-1.2,2c-0.4,0.4-0.8,0.9-1.2,1.2c-0.2,0.2-0.5,0.4-0.7,0.5c-0.2,0.1-0.4,0.3-0.7,0.4c-0.2,0.1-0.5,0.3-0.7,0.4
				c-0.4,0.2-0.7,0.3-1.1,0.4c0,0,0.3-0.5,0.3-0.5c0.2-0.1,0.2-0.1,0.4-0.2c0.3-0.1,0.5-0.2,0.7-0.4c0.2-0.1,0.4-0.2,0.6-0.4
				c0.2-0.2,0.5-0.3,0.7-0.5c0.5-0.4,0.9-0.8,1.2-1.2c0.6-0.7,0.9-1.4,1.1-1.9C170.3,135.7,170.4,135.6,170.4,135.4z"/>
			<path class="st3" d="M171.9,134.1c-0.6,0-1.2-0.1-1.7-0.2c-0.7-0.1-1.2-0.3-1.6-0.4c0.1-0.1,0.2-0.1,0.3-0.2l0.1,0
				c0.4,0.1,0.8,0.3,1.4,0.4c0.6,0.1,1.1,0.1,1.6,0.2c0,0.1,0,0.1,0,0.2L171.9,134.1z"/>
		</g>
		<g class="st2">
			<path class="st3" d="M62.8,100.8c2.3,0.2,4.6-0.3,6-1.4c1.4-1.1,1.8-2.5,0.9-3.7c-0.9-1.2-2.8-2.1-5.1-2.3
				c-1.1-0.1-2.2,0-3.2,0.2l-0.2-0.2c1.1-0.3,2.4-0.4,3.6-0.2c3,0.4,4.5,1.6,5.1,2.3c0.2,0.3,0.7,0.4,1.2,0.3c0-0.1-0.1-0.2-0.1-0.3
				c-1-1.5-3.3-2.6-6.1-2.9c-1.5-0.1-3,0-4.3,0.3l-0.4-0.3l10.5-0.4c0.1,0.2,0.3,0.4,0.5,0.5c0.8,0.5,2.1,0.5,2.9,0l-0.1,0l0.1,0
				l0.4-0.3l0.7,0.1L75,92.7c-0.1,0.1-0.1,0.2,0,0.3c0.1,0.1,0.3,0.1,0.5,0l1.3-0.8c0.1-0.1,0.1-0.2,0-0.3c-0.1-0.1-0.3-0.1-0.5,0
				l-0.5,0.3l-0.7-0.1l1.4-0.9c0.3,0.1,0.6,0.2,1,0.3c0.2,0,0.3,0.1,0.5,0.1c0.2-0.3,0-0.6-0.5-0.7c-0.1,0-0.2-0.1-0.3-0.1l0.2-0.1
				c0.6,0.2,1.3,0.3,2,0.4c2.3,0.2,4.6-0.2,6.1-1.3c1.5-1,1.9-2.4,1.2-3.7c-0.8-1.3-2.7-2.2-5-2.4c-2.3-0.2-4.6,0.2-6.1,1.3
				c-0.6,0.4-1,0.9-1.3,1.4l-0.4-0.1c0.4-0.8,1.3-1.5,2.5-2.1c0.2-0.1,0.5-0.2,0.8-0.3c0.4-0.1,0.6-0.4,0.5-0.7
				c-0.6,0.1-1.2,0.3-1.8,0.6c-1.4,0.6-2.4,1.4-2.8,2.4l-3.6-0.5l-0.6-0.9l-0.1,0l-0.3-0.4c1-0.5,1.1-0.5,1.3-0.7
				c0.2-0.2,0.1-1.3-1.2-0.6c-1.3,0.7-3.3,2.4-3.1,2.5c0.2,0.1,1.2-0.3,2.4-0.9l0.3,0.4l-0.1,0l0.5,0.8l-9.8,5.7l-2.3-1.9l0.8-0.4
				c0.3-0.2,0.4-0.4,0.3-0.7L57.5,88c0-0.1,0-0.2,0.1-0.2l0.2-0.1c0.1,0,0.3-0.1,0.4-0.1l1.3-0.7c0.3-0.2,0.3-0.4,0.1-0.5
				c-0.2-0.1-0.6-0.1-0.9,0.1l-1.3,0.7c-0.1,0.1-0.2,0.2-0.2,0.2L57,87.4c-0.3,0.2-0.4,0.4-0.3,0.6l0.2,0.4c0,0.1,0,0.2-0.1,0.2
				L56,89.2c-0.1,0-0.1,0-0.2,0c-0.2,0.1-0.2,0.2-0.1,0.3l2.8,2.4c0,0,0.7,0.6,0.7,0.6l0.7,0.6c-0.9,0.3-1.6,0.6-2.3,1.1
				c-0.4,0.3-0.8,0.6-1.1,1c0.5,0.1,1,0,1.3-0.2c0.2-0.1,0.3-0.3,0.5-0.4c0.6-0.4,1.3-0.8,2.1-1l0.2,0.2c-0.8,0.2-1.5,0.6-2.1,1
				c-1.4,1.1-1.8,2.5-0.9,3.7C58.5,99.7,60.5,100.6,62.8,100.8z M72.8,86.5c-0.1,0.4-0.2,0.9-0.1,1.3c0.1,0.7,0.5,1.3,1.1,1.8
				l-1.5,0.8l-2.6-4.3L72.8,86.5z M72.4,90.6l1.6-0.8c0.2,0.2,0.5,0.4,0.8,0.6l-0.9,0.5c-0.4-0.2-0.9-0.2-1.3-0.2L72.4,90.6z
				 M75.5,89.9c-0.3-0.2-0.5-0.4-0.8-0.6l0.2-0.1c0.2,0.2,0.4,0.4,0.7,0.6L75.5,89.9z M83.4,89.6l-1.4-1.3L81.5,88l0.1,0
				c0.1,0,0.1-0.1,0.2-0.1l1.1,0.3l2,0.6c-0.2,0.2-0.3,0.3-0.5,0.5C84,89.3,83.7,89.5,83.4,89.6z M85.3,87l-3.4,0.1
				c0-0.1-0.1-0.1-0.1-0.2l2.8-1.1c0.2,0.2,0.3,0.3,0.4,0.5C85.2,86.6,85.3,86.8,85.3,87z M77.7,85.1l1.9,1.6c0,0,0,0-0.1,0
				c0,0-0.2,0.1-0.2,0.1l-3-0.9c0.2-0.2,0.3-0.3,0.5-0.5C77.1,85.3,77.4,85.2,77.7,85.1z M76.1,86.2l2.1,0.6l-2.3-0.3
				C76,86.4,76,86.3,76.1,86.2z M75.7,86.9l2.7,0.4l-2.8,0.1C75.7,87.2,75.7,87.1,75.7,86.9z M81.1,88l-0.3,0.2l0-0.1
				C80.9,88.1,81,88.1,81.1,88L81.1,88z M80.4,88.5l-1.5,1l0.3-0.4l0.9-1c0.1,0,0.2,0,0.3,0L80.4,88.5z M76.6,89l1.6-0.6l-1.4,0.8
				C76.8,89.1,76.7,89,76.6,89z M76.4,88.8c-0.1-0.1-0.1-0.1-0.2-0.2l2.1-1.1l0.9,0c0,0.1,0.1,0.1,0.1,0.2L76.4,88.8z M76.1,88.5
				c-0.1-0.1-0.1-0.1-0.2-0.2c-0.1-0.2-0.2-0.4-0.3-0.7l2.3-0.1L76.1,88.5z M80,84.5l0.2,2c-0.1,0-0.2,0-0.3,0.1L78,84.9
				C78.6,84.7,79.3,84.6,80,84.5z M81.4,84.6c0.4,0,0.8,0.1,1.1,0.2L81,86.5c-0.1,0-0.2,0-0.3,0l-0.2-2
				C80.8,84.5,81.1,84.5,81.4,84.6z M84.5,85.7l-2.9,1.1c0,0,0,0-0.1,0c-0.1,0-0.1-0.1-0.2-0.1l1.5-1.8C83.5,85.1,84,85.4,84.5,85.7
				z M84.9,88.5L83.2,88l-1.3-0.4c0-0.1,0.1-0.1,0.1-0.2l3.4-0.1C85.4,87.7,85.2,88.1,84.9,88.5z M81,90.1l-0.2-1.5l0-0.3l0.4-0.2
				l0.4,0.3l1.5,1.3C82.4,89.9,81.7,90.1,81,90.1z M79.7,90.1c-0.4,0-0.8-0.1-1.1-0.2c0,0,1.9-1.3,1.9-1.3l0,0.1l0.1,1.4
				C80.3,90.1,80,90.1,79.7,90.1z M78.2,89.8c-0.3-0.1-0.5-0.2-0.8-0.3l2.1-1.2l-0.9,1L78.2,89.8z M74.1,86.7
				c-0.2,0.6-0.1,1.3,0.3,1.9c0.1,0.2,0.3,0.4,0.4,0.5l-0.2,0.1c-0.4-0.4-0.8-0.9-0.9-1.5c-0.1-0.4-0.1-0.8,0-1.1L74.1,86.7z
				 M77,90.7c-0.3-0.1-0.6-0.3-1-0.4l0.2-0.1c0.3,0.2,0.6,0.3,1,0.4L77,90.7z M74.9,92.1l-0.2,0c0.1-0.3,0-0.6-0.3-0.8l0.9-0.5
				c0.3,0.2,0.7,0.3,1,0.5L74.9,92.1z M59.7,92.2l-0.4-0.3l9.6-5.6l2.7,4.5L71.3,91l0.1,0l-0.1,0c-0.1,0.1-0.2,0.1-0.3,0.2l-0.3-0.1
				L69.9,91l0.3-0.2c0.1-0.1,0.1-0.2,0-0.3c-0.1-0.1-0.3-0.1-0.5,0l-1.3,0.8c-0.1,0.1-0.1,0.2,0,0.3c0.1,0.1,0.3,0.1,0.5,0l0.5-0.3
				l1.2,0.2l0.2,0c0,0.1,0,0.1-0.1,0.2L59.7,92.2z M66.7,99.3l-2.4-1.9l3.7,1c-0.1,0.2-0.3,0.3-0.5,0.5C67.3,99,67,99.1,66.7,99.3z
				 M63,94.3l0.3,1.5l0.2,0.4l-1.3-1.8C62.5,94.4,62.8,94.3,63,94.3z M60.7,94.9l2.3,1.9c0,0-3.7-0.9-3.7-0.9
				c0.1-0.2,0.3-0.3,0.5-0.5C60.1,95.2,60.4,95,60.7,94.9z M58.9,97.5l1.5-0.1l2.5-0.1l-1.4,0.6l-1.9,0.8c-0.2-0.2-0.3-0.3-0.4-0.5
				C59,97.9,58.9,97.7,58.9,97.5z M58.9,97.2c0-0.4,0.1-0.8,0.3-1.2l3.7,1l-3.1,0.2L58.9,97.2z M64,97.5l2.4,1.9
				c-0.6,0.2-1.3,0.4-2,0.4l-0.2-1.1L64,97.5z M61.5,94.6l0.9,1.3L61,94.7C61.2,94.7,61.4,94.6,61.5,94.6z M64.4,94.3
				c0.4,0,0.8,0.1,1.1,0.2l-1.7,2.1l-0.4-2.3C63.7,94.3,64.1,94.3,64.4,94.3z M67.5,95.4l-3.3,1.4l1.7-2.1
				C66.5,94.8,67.1,95,67.5,95.4z M67.7,95.5c0.2,0.2,0.3,0.3,0.4,0.5c0.1,0.2,0.2,0.4,0.3,0.7l-4.1,0.2L67.7,95.5z M68.5,96.9
				c0,0.4-0.1,0.8-0.3,1.2l-3.7-1L68.5,96.9z M63,99.8c-0.4,0-0.8-0.1-1.1-0.2l1.1-1.4l0.6-0.8l0.2,1.1l0.2,1.3
				C63.6,99.9,63.3,99.9,63,99.8z M59.9,98.8l2.1-0.9l1.2-0.5l-0.6,0.7l-1.1,1.4C60.9,99.4,60.3,99.1,59.9,98.8z"/>
		</g>
		<g class="st2">
			<path class="st3" d="M146.8,86.6c0.1-0.1,0.3-0.1,0.4-0.1c0.1,0,0.1,0.1,0.1,0.1c0,0,0,0.1-0.1,0.1l-2.1,1.5l2.6-0.4l2.5-1.9
				c0.1-0.1,0.3-0.1,0.4-0.1c0.1,0,0.1,0.1,0.1,0.1c0,0,0,0.1-0.1,0.1l-2.3,1.7l2.9-0.4l1.8-1.4c0.1-0.1,0.3-0.1,0.4-0.1
				c0.1,0,0.1,0.1,0.1,0.1c0,0,0,0.1-0.1,0.1l-1.6,1.2l5.2-0.8c-1.1-0.3-4.7-1.4-8-0.9c-3.6,0.6-5,1.7-5.7,2.8
				c0,0.1-0.1,0.1-0.1,0.2l1.2-0.2L146.8,86.6z"/>
			<path class="st3" d="M152.3,88.3C152.3,88.3,152.3,88.3,152.3,88.3c0,0.1-0.1,0.2-0.2,0.2c-0.1,0.1-0.3,0.1-0.4,0l-0.9-0.8
				l-2.9,0.4l1,1.2c0,0,0,0,0,0.1c0,0-0.1,0.1-0.2,0.1c-0.1,0.1-0.3,0.1-0.3,0l-1.1-1.4l-2.6,0.4l0.9,1.2c0,0,0,0,0,0.1
				c0,0-0.1,0.1-0.2,0.1c-0.1,0.1-0.3,0.1-0.3,0l-1-1.3l-1.2,0.2c0,0.1-0.1,0.2-0.1,0.3c-0.3,1.1,0.7,1.9,4.2,1.4
				c3.3-0.5,8.1-3.1,9.6-3.8l-5.2,0.8L152.3,88.3z"/>
			<path class="st3" d="M134.9,90.2l-0.2,0.1c0,0-0.1,0-0.1,0c-0.1,0-0.1,0-0.2,0.1c-0.3,0.1-0.4,0.3-0.3,0.4
				c0.1,0.2,0.4,0.2,0.7,0.1c0.2,0,0.3-0.1,0.5-0.1l0.2,0c3.7-0.8,7.2,0.7,9,1.7c0.8,0.4,1.3,0.8,1.3,0.8c0.2,0.1,0.5,0.2,0.8,0.1
				c0,0,0,0,0.1,0c0.2-0.1,0.2-0.3,0-0.4c0,0-0.5-0.4-1.4-0.8c-1.3-0.7-3.5-1.7-6.1-2l3.1-0.7c0-0.1,0-0.2,0-0.3
				c0-0.1,0.1-0.2,0.1-0.3l0.1-0.1c0,0-7.3,1.5-7.3,1.5C135,90.2,134.9,90.2,134.9,90.2z"/>
			<path class="st3" d="M147.4,91c-0.6,0.1-1.1,0.1-1.5,0.2c-0.1,0.1-0.2,0.2-0.3,0.3c0.1,0,0.1,0.1,0.2,0.1
				c0.9,0.5,1.5,0.9,1.5,0.9c0.4,0.3,0.4,0.8-0.1,1.1l-0.1,0.1c-0.6,0.3-1.5,0.2-2-0.1c0,0-0.4-0.3-1.2-0.7
				c-0.1-0.1-0.2-0.1-0.3-0.2c-5.4,1.5-5.8,6.9-0.8,9.8c5.4,3.1,13.1,2.4,18.5-0.7c5.4-3.1,6.6-7.5,1.2-10.6c-2.5-1.4-5.9-2.1-9.1-2
				C151.4,89.9,149.2,90.7,147.4,91z M145.3,98.7c0.9,1.6,4.4,3,1.2,3.5c-1.7,0.2-5.1-1.6-5.8-3.2c-0.7-1.7,1-3.4,2.6-3.2
				C145.9,96.1,144.3,96.9,145.3,98.7z"/>
		</g>
		<g class="st2">
			<path class="st3" d="M187.2,48.9c-1.4-0.8-3.4-1-5.1-0.6c-2.2-1.6-4.6-3-7.2-4.3c0.8-1,0.5-2.2-0.9-3c-1.8-1.1-4.7-1.1-6.5-0.1
				c-1.8,1-1.9,2.7-0.1,3.8c1.4,0.8,3.4,1,5.1,0.6c2.2,1.6,4.6,3,7.2,4.3c-0.8,1-0.5,2.2,0.9,3c1.8,1.1,4.7,1.1,6.5,0.1
				C188.9,51.6,189,50,187.2,48.9z"/>
		</g>
		<g class="st4">
			<path class="st3" d="M139.4,74.9c-1.1-0.7-2.8-0.8-4.2-0.5c-1.8-1.3-3.8-2.5-6-3.6c0.6-0.8,0.4-1.8-0.7-2.5
				c-1.5-0.9-3.9-0.9-5.4-0.1s-1.6,2.2-0.1,3.1c1.1,0.7,2.8,0.8,4.2,0.5c1.8,1.3,3.8,2.5,6,3.6c-0.6,0.8-0.4,1.8,0.7,2.5
				c1.5,0.9,3.9,0.9,5.4,0.1C140.8,77.2,140.9,75.8,139.4,74.9z"/>
		</g>
		<g class="st2">
			<path class="st3" d="M184.4,100.4c-0.1-1-1.3-1.8-2.8-2.1c0.1-1.7-0.1-3.5-0.6-5.2c1.5-0.4,2.4-1.3,2.3-2.2
				c-0.1-1.3-2-2.2-4.3-2.2c-2.2,0.1-3.9,1.2-3.7,2.5c0.1,1,1.3,1.8,2.8,2.1c-0.1,1.7,0.1,3.5,0.6,5.2c-1.5,0.4-2.4,1.3-2.3,2.2
				c0.1,1.3,2,2.2,4.3,2.2C182.9,102.8,184.6,101.7,184.4,100.4z"/>
		</g>
		<g class="st2">
			<path class="st3" d="M198.4,171.7c-0.1-1.1-1.4-2-3.1-2.3c0.1-2-0.2-3.9-0.7-5.8c1.6-0.4,2.7-1.4,2.6-2.5
				c-0.2-1.4-2.3-2.5-4.8-2.4c-2.5,0.1-4.4,1.3-4.2,2.8c0.1,1.1,1.4,2,3.1,2.3c-0.1,2,0.2,3.9,0.7,5.8c-1.6,0.4-2.7,1.4-2.6,2.5
				c0.2,1.4,2.3,2.5,4.8,2.4C196.7,174.3,198.6,173.1,198.4,171.7z"/>
		</g>
		<g class="st2">
			<path class="st3" d="M107.5,127.7c-0.4,0.3-0.8,0.5-1,0.8c0,0,0,0.1,0,0.1l0.2,0.1c0,0.1,0.4,0.3,0.6,0.3c0.4,0,0.8-0.1,1.4-0.2
				c0.7-0.2,2.3-0.3,3.1-0.1c0.4,0.1,0.5,0.3,0.6,0.2c0.1,0,0.2-0.1,0.2-0.1l6.6,4.2c0,0,0,0,0.1,0c0,0,0.1,0,0.1,0.1
				c0,0,0.1,0,0.1,0.1c0.5,0.2,1.1,0.3,1.7,0.2c1.5-0.2,6.4-1.2,6.4-1.2s0.6,3.4,0.8,4.1c-0.4,0.3-0.8,0.6-1.3,1.1
				c-2,2.1-0.1,1.4-2.9,4.6c0,0-0.1,0-0.1,0c0,0-0.1,0-0.1,0c-0.2,0.1-0.5,0.3-0.7,0.5c-0.4,0.2-0.8,0.5-0.9,0.8l-0.4,0.2
				c0,0,0,0,0,0.1c0,0,0,0,0,0.1l0.4,0.2c0.1,0.1,0.2,0.1,0.4,0.2l1,0.3c0,0,0.1,0,0.1,0l2.3,0.8c0.3,0.1,0.6,0.2,0.9,0.3
				c0.6,0.1,1.1,0.2,1.6,0.2c0.1,0,0.1,0,0.2-0.1l0.1-0.2c0.1,0,0.3-0.4-0.3-0.7c-2.1-0.9-2.2-2-1.7-2.3c0.1-0.1-0.2-0.1-0.3-0.1
				l5.3-5.1c0.1-0.1,0.2-0.3,0.3-0.4c0-0.1,0.1-0.1,0.1-0.2c0.1-0.9,0.3-4.8,0.3-4.8l1.1-0.7l7.5-2.5l-0.2,0.4l-0.5,1.2
				c-0.1,0.3,0,0.6,0.4,0.8l2.8,1.5c0,0,0.3,0.2,0.3,0.2l2.3,1.2c-0.2,0.2,0,0.4,0.4,0.7l0.9,0.6c0,0,0,0.1,0.1,0.1l0.5,0.3
				c0.1,0.1,0.3,0.1,0.4,0l0.1-0.1c0.1-0.1,0.1-0.1,0.1-0.2l0.1,0c0.1,0,0.2,0.1,0.3,0.1c0.1,0,0.2,0,0.3-0.1l0.1-0.1
				c0.1,0,0.1-0.1,0.1-0.2c0,0,0-0.1-0.1-0.1l0.2,0.1c0.1,0.1,0.4,0.1,0.5,0l0.1-0.1c0.1,0,0.1-0.1,0.1-0.2c0-0.1,0-0.1-0.1-0.2
				c0.1,0,0.1,0,0.2,0c0.1,0,0.2,0,0.3-0.1l0.1-0.1c0.2-0.1,0.2-0.2,0-0.3l-0.6-0.3c0,0-0.1,0-0.1-0.1l0-0.2c0,0,0-0.1-0.1-0.1
				c0,0-0.9-0.4-1-0.4c-0.3-0.1-0.6-0.1-1-0.1l-0.2,0l-4.1-2.9l0.3-0.8l0.8-2.2c0.1-0.2,0-0.4-0.1-0.5c0,0,0-0.1,0-0.1
				c-0.1-0.2-0.2-0.4-0.3-0.6l0.9-0.3c0,0,0.1,0.1,0.1,0.1l0.4,0.2c0.6,0.3,1.1,0.3,1.7,0l2.3-1.2c0,0,0.1,0,0.1-0.1
				c0.5-0.3,0.7-0.5,0.9-0.8c1,0.1,1.5-0.7-0.7-1.9c-1.3-0.7-2.6-0.8-4,0c-0.9,0.5-2.1,1.4-1.9,1.7l-1.4,0.5
				c-0.8-0.6-1.9-1.1-3.4-1.4c0,0-0.2-0.1-0.2-0.1c-0.1,0-0.1,0-0.2,0c0,0-0.1,0-0.1,0l-5.6-1c-0.5-0.1-1,0-1.4,0.1l-5.5,2.8
				c-0.4-0.1-0.8-0.1-1.2,0.1l-1.1,0.5c0,0-0.6,0.2-0.6,0.2c-0.1,0.1-0.2,0.2-0.1,0.2l0.1,0.1c0.1,0.1,0.2,0.1,0.3,0.1l-0.1,0
				c-0.2,0.1-0.2,0.2-0.1,0.3l0.1,0.1c0.1,0,0.2,0.1,0.3,0.1c0.1,0,0.1,0,0.2,0l-0.2,0.1c-0.2,0.1-0.2,0.2,0,0.3l0.1,0.1
				c0.1,0,0.2,0.1,0.3,0.1c0.1,0,0.2,0,0.3,0c-0.1,0.1-0.1,0.2,0,0.3l0.1,0.1c0.1,0,0.2,0.1,0.3,0.1c0.1,0,0.2,0,0.3,0l0.7-0.3
				c0,0,0.1,0,0.1-0.1l0.4,0c0.1,0,0.1,0,0.2,0c0,0,0.8-0.5,0.8-0.5c0.2-0.2,0.3-0.4,0.2-0.5l0-0.1l5.4-2.1l3.6,0.7
				c-2.2,1.3-4.9,2.8-6.2,4.1c0,0-1.4,0.3-1.5,0.3c0,0-6.9,1.9-7.8,2.2c-0.2-0.1-0.5-0.3-0.7-0.4c-2.5-1.4-2.4-0.6-6.3-2.9
				c0.1,0,0.1,0,0.1-0.1c0,0,0,0,0-0.1c-0.1-0.1-0.3-0.4-0.5-0.6c-0.2-0.3-0.6-0.6-0.9-0.8l-0.2-0.3c0,0,0,0-0.1,0c0,0-0.1,0-0.1,0
				l-0.5,0.1c-0.1,0-0.3,0.1-0.4,0.1l-0.9,0.4c0,0,0,0-0.1,0l-2.2,0.9C108,127.4,107.7,127.5,107.5,127.7z"/>
		</g>
		<g class="st2">
			<path class="st3" d="M190.5,80.7c-0.2,0.2-0.4,0.3-0.6,0.5c0,0,0,0,0,0.1l0.1,0.1c0,0.1,0.2,0.2,0.4,0.1c0.2,0,0.5-0.1,0.8-0.1
				c0.4-0.1,1.3-0.2,1.8-0.1c0.2,0,0.3,0.1,0.3,0.1c0.1,0,0.1,0,0.1-0.1l3.8,2.4c0.1,0,0.1,0,0.1,0.1c0,0,0,0,0.1,0
				c0.3,0.1,0.6,0.2,1,0.1c0.9-0.1,3.7-0.7,3.7-0.7s0.3,1.9,0.5,2.4c-0.2,0.2-0.5,0.4-0.7,0.6c-1.1,1.2,0,0.8-1.7,2.7c0,0,0,0,0,0
				c0,0,0,0-0.1,0c-0.1,0.1-0.3,0.2-0.4,0.3c-0.3,0.1-0.4,0.3-0.5,0.5l-0.2,0.1c0,0.1,0.2,0.2,0.2,0.2c0.1,0,0.1,0.1,0.2,0.1
				l0.6,0.2c0,0,1.4,0.5,1.4,0.5c0.2,0.1,0.3,0.1,0.5,0.1c0.3,0.1,0.6,0.1,0.9,0.1c0,0,0.1,0,0.1,0l0.1-0.1c0.1,0,0.2-0.2-0.2-0.4
				c-1.2-0.5-1.3-1.1-1-1.3c0.1,0-0.1,0-0.2,0l3-2.9c0.1-0.1,0.1-0.1,0.2-0.2c0,0,0-0.1,0-0.1c0.1-0.5,0.2-2.7,0.2-2.7l0.6-0.4
				l4.3-1.4l-0.1,0.2l-0.3,0.7c-0.1,0.2,0,0.3,0.2,0.5l1.6,0.9c0,0,0.2,0.1,0.2,0.1l1.3,0.7c-0.1,0.1,0,0.3,0.2,0.4l0.5,0.3
				c0,0,0,0,0,0.1l0.3,0.2c0.1,0,0.2,0,0.2,0l0.1,0c0.1,0,0.1-0.1,0-0.1c0.1,0,0.1,0.1,0.2,0.1c0.1,0,0.1,0,0.1,0l0.1,0
				c0,0,0.1-0.1,0.1-0.1c0,0,0,0,0-0.1l0.1,0.1c0.1,0,0.2,0,0.3,0l0.1,0c0,0,0.1-0.1,0.1-0.1c0,0,0-0.1-0.1-0.1c0,0,0.1,0,0.1,0
				c0.1,0,0.1,0,0.1,0l0.1,0c0.1,0,0.1-0.1,0-0.2l-0.3-0.2c0,0-0.1,0-0.1,0l0-0.1c0,0,0,0,0-0.1c0,0-0.5-0.2-0.6-0.2
				c-0.2-0.1-0.4-0.1-0.6,0l-0.1,0l-2.4-1.7l0.2-0.5l0.5-1.2c0-0.1,0-0.2-0.1-0.3c0,0,0,0,0-0.1c0-0.1-0.1-0.2-0.2-0.3l0.5-0.2
				c0,0,0,0,0.1,0.1l0.2,0.1c0.3,0.2,0.7,0.2,1,0l1.3-0.7c0,0,0,0,0.1,0c0.3-0.1,0.4-0.3,0.5-0.4c0.6,0,0.9-0.4-0.4-1.1
				c-0.7-0.4-1.5-0.4-2.3,0c-0.5,0.3-1.2,0.8-1.1,1l-0.8,0.3c-0.5-0.3-1.1-0.6-1.9-0.8c0,0-0.1,0-0.1,0c0,0-0.1,0-0.1,0
				c0,0-3.3-0.6-3.3-0.6c-0.3-0.1-0.6,0-0.8,0.1l-3.2,1.6c-0.2-0.1-0.4,0-0.7,0.1l-0.6,0.3c0,0-0.3,0.1-0.3,0.1
				c-0.1,0-0.1,0.1,0,0.1l0,0c0,0,0.1,0.1,0.2,0l-0.1,0c-0.1,0-0.1,0.1,0,0.2l0.1,0c0,0,0.1,0,0.2,0c0,0,0.1,0,0.1,0L200,80
				c-0.1,0-0.1,0.1,0,0.2l0.1,0c0,0,0.1,0,0.2,0c0.1,0,0.1,0,0.2,0c-0.1,0-0.1,0.1,0,0.1l0.1,0c0,0,0.1,0,0.2,0c0.1,0,0.1,0,0.2,0
				l0.4-0.2c0,0,0,0,0.1,0l0.2,0c0,0,0.1,0,0.1,0c0,0,0.5-0.3,0.5-0.3c0.1-0.1,0.2-0.2,0.1-0.3l0-0.1l3.1-1.2l2,0.4
				c-1.2,0.7-2.8,1.6-3.6,2.3c0,0-0.8,0.2-0.9,0.2c0,0-4,1.1-4.5,1.2c-0.1-0.1-0.3-0.2-0.4-0.3c-1.4-0.8-1.4-0.4-3.6-1.6
				c0,0,0.1,0,0.1,0c-0.1-0.1-0.2-0.2-0.3-0.4c-0.1-0.2-0.3-0.4-0.5-0.5l-0.1-0.2c0,0,0,0,0,0c0,0,0,0-0.1,0l-0.3,0.1
				c-0.1,0-0.2,0-0.2,0.1l-0.5,0.2c0,0-1.3,0.5-1.3,0.5C190.8,80.5,190.6,80.6,190.5,80.7z"/>
		</g>
		<g class="st2">
			<path class="st3" d="M119.2,114.9c-0.1-0.2-0.2-0.4-0.4-0.6l8.9-3.3c0.7,0.5,1.9,0.7,3,0.5c1.7-0.2,2.7-1.2,2.3-2.2
				c-0.4-1-2.1-1.6-3.7-1.3c-0.6,0.1-1.1,0.3-1.5,0.5l-6.4-2.5c0.3-0.5,0.4-1.1,0.2-1.6c-0.6-1.5-3.2-2.4-5.7-2.1
				c-2.6,0.3-4.2,1.8-3.6,3.3c0.3,0.8,1.3,1.5,2.5,1.8l-0.1,5.6c-0.1,0-0.3,0-0.4,0c-2.2,0.3-3.6,1.6-3.1,2.9c0.5,1.3,2.7,2.1,5,1.8
				C118.4,117.4,119.8,116.2,119.2,114.9z M115.9,107.7c0.7,0.1,1.4,0.1,2.1,0c1.2-0.2,2.2-0.6,2.8-1.1l6.3,2.5
				c-0.3,0.3-0.4,0.7-0.2,1.1c0,0.1,0.1,0.2,0.2,0.3l-9,3.3c-0.6-0.4-1.4-0.6-2.3-0.7L115.9,107.7z"/>
		</g>
		<g>
			<g>
				<path class="st3" d="M158.4,70.6c-0.1,0-0.2,0-0.2-0.1c-0.1-0.1,0-0.3,0.1-0.3l1.3-0.8c0.1-0.1,0.3,0,0.3,0.1
					c0.1,0.1,0,0.3-0.1,0.3l-1.3,0.8C158.5,70.6,158.4,70.6,158.4,70.6z"/>
			</g>
			<g>
				<path class="st3" d="M93.6,108c-0.1,0-0.2,0-0.2-0.1c-0.1-0.1,0-0.3,0.1-0.3l2.6-1.5c0.1-0.1,0.3,0,0.3,0.1
					c0.1,0.1,0,0.3-0.1,0.3l-2.6,1.5C93.7,108,93.6,108,93.6,108z M97.9,105.5c-0.1,0-0.2,0-0.2-0.1c-0.1-0.1,0-0.3,0.1-0.3l2.6-1.5
					c0.1-0.1,0.3,0,0.3,0.1c0.1,0.1,0,0.3-0.1,0.3l-2.6,1.5C98,105.5,98,105.5,97.9,105.5z M102.2,103c-0.1,0-0.2,0-0.2-0.1
					c-0.1-0.1,0-0.3,0.1-0.3l2.6-1.5c0.1-0.1,0.3,0,0.3,0.1c0.1,0.1,0,0.3-0.1,0.3l-2.6,1.5C102.3,103,102.3,103,102.2,103z
					 M106.6,100.5c-0.1,0-0.2,0-0.2-0.1c-0.1-0.1,0-0.3,0.1-0.3l2.6-1.5c0.1-0.1,0.3,0,0.3,0.1c0.1,0.1,0,0.3-0.1,0.3l-2.6,1.5
					C106.6,100.5,106.6,100.5,106.6,100.5z M110.9,98c-0.1,0-0.2,0-0.2-0.1c-0.1-0.1,0-0.3,0.1-0.3l2.6-1.5c0.1-0.1,0.3,0,0.3,0.1
					c0.1,0.1,0,0.3-0.1,0.3L111,98C111,98,110.9,98,110.9,98z M115.2,95.5c-0.1,0-0.2,0-0.2-0.1c-0.1-0.1,0-0.3,0.1-0.3l2.6-1.5
					c0.1-0.1,0.3,0,0.3,0.1c0.1,0.1,0,0.3-0.1,0.3l-2.6,1.5C115.3,95.5,115.2,95.5,115.2,95.5z M119.5,93c-0.1,0-0.2,0-0.2-0.1
					c-0.1-0.1,0-0.3,0.1-0.3l2.6-1.5c0.1-0.1,0.3,0,0.3,0.1c0.1,0.1,0,0.3-0.1,0.3l-2.6,1.5C119.6,93,119.6,93,119.5,93z
					 M123.8,90.6c-0.1,0-0.2,0-0.2-0.1c-0.1-0.1,0-0.3,0.1-0.3l2.6-1.5c0.1-0.1,0.3,0,0.3,0.1c0.1,0.1,0,0.3-0.1,0.3l-2.6,1.5
					C123.9,90.5,123.9,90.6,123.8,90.6z M128.1,88.1c-0.1,0-0.2,0-0.2-0.1c-0.1-0.1,0-0.3,0.1-0.3l2.6-1.5c0.1-0.1,0.3,0,0.3,0.1
					c0.1,0.1,0,0.3-0.1,0.3l-2.6,1.5C128.2,88,128.2,88.1,128.1,88.1z M132.5,85.6c-0.1,0-0.2,0-0.2-0.1c-0.1-0.1,0-0.3,0.1-0.3
					l2.6-1.5c0.1-0.1,0.3,0,0.3,0.1c0.1,0.1,0,0.3-0.1,0.3l-2.6,1.5C132.6,85.6,132.5,85.6,132.5,85.6z M136.8,83.1
					c-0.1,0-0.2,0-0.2-0.1c-0.1-0.1,0-0.3,0.1-0.3l2.6-1.5c0.1-0.1,0.3,0,0.3,0.1c0.1,0.1,0,0.3-0.1,0.3l-2.6,1.5
					C136.9,83.1,136.8,83.1,136.8,83.1z M141.1,80.6c-0.1,0-0.2,0-0.2-0.1c-0.1-0.1,0-0.3,0.1-0.3l2.6-1.5c0.1-0.1,0.3,0,0.3,0.1
					c0.1,0.1,0,0.3-0.1,0.3l-2.6,1.5C141.2,80.6,141.2,80.6,141.1,80.6z M145.4,78.1c-0.1,0-0.2,0-0.2-0.1c-0.1-0.1,0-0.3,0.1-0.3
					l2.6-1.5c0.1-0.1,0.3,0,0.3,0.1c0.1,0.1,0,0.3-0.1,0.3l-2.6,1.5C145.5,78.1,145.5,78.1,145.4,78.1z M149.7,75.6
					c-0.1,0-0.2,0-0.2-0.1c-0.1-0.1,0-0.3,0.1-0.3l2.6-1.5c0.1-0.1,0.3,0,0.3,0.1c0.1,0.1,0,0.3-0.1,0.3l-2.6,1.5
					C149.8,75.6,149.8,75.6,149.7,75.6z M154.1,73.1c-0.1,0-0.2,0-0.2-0.1c-0.1-0.1,0-0.3,0.1-0.3l2.6-1.5c0.1-0.1,0.3,0,0.3,0.1
					c0.1,0.1,0,0.3-0.1,0.3l-2.6,1.5C154.2,73.1,154.1,73.1,154.1,73.1z"/>
			</g>
			<g>
				<path class="st3" d="M90.6,109.8c-0.1,0-0.2,0-0.2-0.1c-0.1-0.1,0-0.3,0.1-0.3l1.3-0.8c0.1-0.1,0.3,0,0.3,0.1
					c0.1,0.1,0,0.3-0.1,0.3l-1.3,0.8C90.6,109.8,90.6,109.8,90.6,109.8z"/>
			</g>
		</g>
		<g>
			<g>
				<path class="st3" d="M118.7,95c0,0-0.1,0-0.1,0l-1.3-0.8c-0.1-0.1-0.2-0.2-0.1-0.3c0.1-0.1,0.2-0.2,0.3-0.1l1.3,0.8
					c0.1,0.1,0.2,0.2,0.1,0.3C118.8,95,118.7,95,118.7,95z"/>
			</g>
			<g>
				<path class="st3" d="M162.8,120.5c0,0-0.1,0-0.1,0l-2.7-1.5c-0.1-0.1-0.2-0.2-0.1-0.3c0.1-0.1,0.2-0.2,0.3-0.1l2.7,1.5
					c0.1,0.1,0.2,0.2,0.1,0.3C163,120.5,162.9,120.5,162.8,120.5z M158.4,118c0,0-0.1,0-0.1,0l-2.7-1.5c-0.1-0.1-0.2-0.2-0.1-0.3
					c0.1-0.1,0.2-0.2,0.3-0.1l2.7,1.5c0.1,0.1,0.2,0.2,0.1,0.3C158.6,118,158.5,118,158.4,118z M154,115.4c0,0-0.1,0-0.1,0l-2.7-1.5
					c-0.1-0.1-0.2-0.2-0.1-0.3c0.1-0.1,0.2-0.2,0.3-0.1l2.7,1.5c0.1,0.1,0.2,0.2,0.1,0.3C154.2,115.4,154.1,115.4,154,115.4z
					 M149.6,112.9c0,0-0.1,0-0.1,0l-2.7-1.5c-0.1-0.1-0.2-0.2-0.1-0.3c0.1-0.1,0.2-0.2,0.3-0.1l2.7,1.5c0.1,0.1,0.2,0.2,0.1,0.3
					C149.8,112.9,149.7,112.9,149.6,112.9z M145.2,110.3c0,0-0.1,0-0.1,0l-2.7-1.5c-0.1-0.1-0.2-0.2-0.1-0.3
					c0.1-0.1,0.2-0.2,0.3-0.1l2.7,1.5c0.1,0.1,0.2,0.2,0.1,0.3C145.3,110.3,145.2,110.3,145.2,110.3z M140.7,107.8c0,0-0.1,0-0.1,0
					l-2.7-1.5c-0.1-0.1-0.2-0.2-0.1-0.3c0.1-0.1,0.2-0.2,0.3-0.1l2.7,1.5c0.1,0.1,0.2,0.2,0.1,0.3
					C140.9,107.7,140.8,107.8,140.7,107.8z M136.3,105.2c0,0-0.1,0-0.1,0l-2.7-1.5c-0.1-0.1-0.2-0.2-0.1-0.3
					c0.1-0.1,0.2-0.2,0.3-0.1l2.7,1.5c0.1,0.1,0.2,0.2,0.1,0.3C136.5,105.2,136.4,105.2,136.3,105.2z M131.9,102.7c0,0-0.1,0-0.1,0
					l-2.7-1.5c-0.1-0.1-0.2-0.2-0.1-0.3c0.1-0.1,0.2-0.2,0.3-0.1l2.7,1.5c0.1,0.1,0.2,0.2,0.1,0.3
					C132.1,102.6,132,102.7,131.9,102.7z M127.5,100.1c0,0-0.1,0-0.1,0l-2.7-1.5c-0.1-0.1-0.2-0.2-0.1-0.3c0.1-0.1,0.2-0.2,0.3-0.1
					l2.7,1.5c0.1,0.1,0.2,0.2,0.1,0.3C127.7,100.1,127.6,100.1,127.5,100.1z M123.1,97.6c0,0-0.1,0-0.1,0l-2.7-1.5
					c-0.1-0.1-0.2-0.2-0.1-0.3c0.1-0.1,0.2-0.2,0.3-0.1l2.7,1.5c0.1,0.1,0.2,0.2,0.1,0.3C123.2,97.5,123.2,97.6,123.1,97.6z"/>
			</g>
			<g>
				<path class="st3" d="M165.9,122.3c0,0-0.1,0-0.1,0l-1.3-0.8c-0.1-0.1-0.2-0.2-0.1-0.3c0.1-0.1,0.2-0.2,0.3-0.1l1.3,0.8
					c0.1,0.1,0.2,0.2,0.1,0.3C166.1,122.3,166,122.3,165.9,122.3z"/>
			</g>
		</g>
		<g>
			<g>
				<path class="st3" d="M171.1,79.2c0,0-0.1,0-0.1,0l-1.3-0.8c-0.1-0.1-0.2-0.2-0.1-0.3c0.1-0.1,0.2-0.2,0.3-0.1l1.3,0.8
					c0.1,0.1,0.2,0.2,0.1,0.3C171.3,79.1,171.2,79.2,171.1,79.2z"/>
			</g>
			<g>
				<path class="st3" d="M209.5,101.4c0,0-0.1,0-0.1,0l-2.6-1.5c-0.1-0.1-0.2-0.2-0.1-0.3c0.1-0.1,0.2-0.2,0.3-0.1l2.6,1.5
					c0.1,0.1,0.2,0.2,0.1,0.3C209.7,101.3,209.6,101.4,209.5,101.4z M205.3,98.9c0,0-0.1,0-0.1,0l-2.6-1.5c-0.1-0.1-0.2-0.2-0.1-0.3
					c0.1-0.1,0.2-0.2,0.3-0.1l2.6,1.5c0.1,0.1,0.2,0.2,0.1,0.3C205.4,98.9,205.4,98.9,205.3,98.9z M201,96.4c0,0-0.1,0-0.1,0
					l-2.6-1.5c-0.1-0.1-0.2-0.2-0.1-0.3c0.1-0.1,0.2-0.2,0.3-0.1l2.6,1.5c0.1,0.1,0.2,0.2,0.1,0.3C201.2,96.4,201.1,96.4,201,96.4z
					 M196.7,94c0,0-0.1,0-0.1,0l-2.6-1.5c-0.1-0.1-0.2-0.2-0.1-0.3c0.1-0.1,0.2-0.2,0.3-0.1l2.6,1.5c0.1,0.1,0.2,0.2,0.1,0.3
					C196.9,93.9,196.8,94,196.7,94z M192.5,91.5c0,0-0.1,0-0.1,0l-2.6-1.5c-0.1-0.1-0.2-0.2-0.1-0.3c0.1-0.1,0.2-0.2,0.3-0.1
					l2.6,1.5c0.1,0.1,0.2,0.2,0.1,0.3C192.6,91.5,192.5,91.5,192.5,91.5z M188.2,89c0,0-0.1,0-0.1,0l-2.6-1.5
					c-0.1-0.1-0.2-0.2-0.1-0.3c0.1-0.1,0.2-0.2,0.3-0.1l2.6,1.5c0.1,0.1,0.2,0.2,0.1,0.3C188.4,89,188.3,89,188.2,89z M183.9,86.6
					c0,0-0.1,0-0.1,0l-2.6-1.5c-0.1-0.1-0.2-0.2-0.1-0.3c0.1-0.1,0.2-0.2,0.3-0.1l2.6,1.5c0.1,0.1,0.2,0.2,0.1,0.3
					C184.1,86.5,184,86.6,183.9,86.6z M179.6,84.1c0,0-0.1,0-0.1,0l-2.6-1.5c-0.1-0.1-0.2-0.2-0.1-0.3c0.1-0.1,0.2-0.2,0.3-0.1
					l2.6,1.5c0.1,0.1,0.2,0.2,0.1,0.3C179.8,84.1,179.7,84.1,179.6,84.1z M175.4,81.6c0,0-0.1,0-0.1,0l-2.6-1.5
					c-0.1-0.1-0.2-0.2-0.1-0.3c0.1-0.1,0.2-0.2,0.3-0.1l2.6,1.5c0.1,0.1,0.2,0.2,0.1,0.3C175.5,81.6,175.5,81.6,175.4,81.6z"/>
			</g>
			<g>
				<path class="st3" d="M211.3,103.9c-0.1,0-0.2,0-0.2-0.1c-0.1-0.1,0-0.3,0.1-0.3l0.9-0.5l-0.9-0.5c-0.1-0.1-0.2-0.2-0.1-0.3
					c0.1-0.1,0.2-0.2,0.3-0.1l1.7,1l-1.7,1C211.3,103.8,211.3,103.9,211.3,103.9z"/>
			</g>
			<g>
				<path class="st3" d="M130.3,150.6c-0.1,0-0.2,0-0.2-0.1c-0.1-0.1,0-0.3,0.1-0.3l2.6-1.5c0.1-0.1,0.3,0,0.3,0.1
					c0.1,0.1,0,0.3-0.1,0.3l-2.6,1.5C130.4,150.6,130.4,150.6,130.3,150.6z M134.6,148.1c-0.1,0-0.2,0-0.2-0.1
					c-0.1-0.1,0-0.3,0.1-0.3l2.6-1.5c0.1-0.1,0.3,0,0.3,0.1c0.1,0.1,0,0.3-0.1,0.3l-2.6,1.5C134.7,148.1,134.6,148.1,134.6,148.1z
					 M138.8,145.7c-0.1,0-0.2,0-0.2-0.1c-0.1-0.1,0-0.3,0.1-0.3l2.6-1.5c0.1-0.1,0.3,0,0.3,0.1c0.1,0.1,0,0.3-0.1,0.3l-2.6,1.5
					C138.9,145.7,138.9,145.7,138.8,145.7z M143.1,143.2c-0.1,0-0.2,0-0.2-0.1c-0.1-0.1,0-0.3,0.1-0.3l2.6-1.5
					c0.1-0.1,0.3,0,0.3,0.1c0.1,0.1,0,0.3-0.1,0.3l-2.6,1.5C143.2,143.2,143.1,143.2,143.1,143.2z M147.4,140.8
					c-0.1,0-0.2,0-0.2-0.1c-0.1-0.1,0-0.3,0.1-0.3l2.6-1.5c0.1-0.1,0.3,0,0.3,0.1c0.1,0.1,0,0.3-0.1,0.3l-2.6,1.5
					C147.4,140.7,147.4,140.8,147.4,140.8z M151.6,138.3c-0.1,0-0.2,0-0.2-0.1c-0.1-0.1,0-0.3,0.1-0.3l2.6-1.5
					c0.1-0.1,0.3,0,0.3,0.1c0.1,0.1,0,0.3-0.1,0.3l-2.6,1.5C151.7,138.3,151.7,138.3,151.6,138.3z M155.9,135.8
					c-0.1,0-0.2,0-0.2-0.1c-0.1-0.1,0-0.3,0.1-0.3l2.6-1.5c0.1-0.1,0.3,0,0.3,0.1c0.1,0.1,0,0.3-0.1,0.3l-2.6,1.5
					C156,135.8,155.9,135.8,155.9,135.8z M160.1,133.4c-0.1,0-0.2,0-0.2-0.1c-0.1-0.1,0-0.3,0.1-0.3l2.6-1.5c0.1-0.1,0.3,0,0.3,0.1
					c0.1,0.1,0,0.3-0.1,0.3l-2.6,1.5C160.2,133.4,160.2,133.4,160.1,133.4z M164.4,130.9c-0.1,0-0.2,0-0.2-0.1
					c-0.1-0.1,0-0.3,0.1-0.3l2.6-1.5c0.1-0.1,0.3,0,0.3,0.1c0.1,0.1,0,0.3-0.1,0.3l-2.6,1.5C164.5,130.9,164.4,130.9,164.4,130.9z
					 M168.7,128.5c-0.1,0-0.2,0-0.2-0.1c-0.1-0.1,0-0.3,0.1-0.3l2.6-1.5c0.1-0.1,0.3,0,0.3,0.1c0.1,0.1,0,0.3-0.1,0.3l-2.6,1.5
					C168.7,128.4,168.7,128.5,168.7,128.5z M172.9,126c-0.1,0-0.2,0-0.2-0.1c-0.1-0.1,0-0.3,0.1-0.3l2.6-1.5c0.1-0.1,0.3,0,0.3,0.1
					c0.1,0.1,0,0.3-0.1,0.3L173,126C173,126,173,126,172.9,126z M177.2,123.5c-0.1,0-0.2,0-0.2-0.1c-0.1-0.1,0-0.3,0.1-0.3l2.6-1.5
					c0.1-0.1,0.3,0,0.3,0.1c0.1,0.1,0,0.3-0.1,0.3l-2.6,1.5C177.3,123.5,177.2,123.5,177.2,123.5z M181.4,121.1
					c-0.1,0-0.2,0-0.2-0.1c-0.1-0.1,0-0.3,0.1-0.3l2.6-1.5c0.1-0.1,0.3,0,0.3,0.1c0.1,0.1,0,0.3-0.1,0.3l-2.6,1.5
					C181.5,121.1,181.5,121.1,181.4,121.1z M185.7,118.6c-0.1,0-0.2,0-0.2-0.1c-0.1-0.1,0-0.3,0.1-0.3l2.6-1.5
					c0.1-0.1,0.3,0,0.3,0.1c0.1,0.1,0,0.3-0.1,0.3l-2.6,1.5C185.8,118.6,185.7,118.6,185.7,118.6z M190,116.2c-0.1,0-0.2,0-0.2-0.1
					c-0.1-0.1,0-0.3,0.1-0.3l2.6-1.5c0.1-0.1,0.3,0,0.3,0.1c0.1,0.1,0,0.3-0.1,0.3l-2.6,1.5C190,116.1,190,116.2,190,116.2z
					 M194.2,113.7c-0.1,0-0.2,0-0.2-0.1c-0.1-0.1,0-0.3,0.1-0.3l2.6-1.5c0.1-0.1,0.3,0,0.3,0.1c0.1,0.1,0,0.3-0.1,0.3l-2.6,1.5
					C194.3,113.7,194.3,113.7,194.2,113.7z M198.5,111.2c-0.1,0-0.2,0-0.2-0.1c-0.1-0.1,0-0.3,0.1-0.3l2.6-1.5
					c0.1-0.1,0.3,0,0.3,0.1c0.1,0.1,0,0.3-0.1,0.3l-2.6,1.5C198.6,111.2,198.5,111.2,198.5,111.2z M202.7,108.8
					c-0.1,0-0.2,0-0.2-0.1c-0.1-0.1,0-0.3,0.1-0.3l2.6-1.5c0.1-0.1,0.3,0,0.3,0.1c0.1,0.1,0,0.3-0.1,0.3l-2.6,1.5
					C202.8,108.8,202.8,108.8,202.7,108.8z M207,106.3c-0.1,0-0.2,0-0.2-0.1c-0.1-0.1,0-0.3,0.1-0.3l2.6-1.5c0.1-0.1,0.3,0,0.3,0.1
					c0.1,0.1,0,0.3-0.1,0.3l-2.6,1.5C207.1,106.3,207,106.3,207,106.3z"/>
			</g>
			<g>
				<path class="st3" d="M127.3,152.3c-0.1,0-0.2,0-0.2-0.1c-0.1-0.1,0-0.3,0.1-0.3l1.3-0.8c0.1-0.1,0.3,0,0.3,0.1
					c0.1,0.1,0,0.3-0.1,0.3l-1.3,0.8C127.4,152.3,127.4,152.3,127.3,152.3z"/>
			</g>
		</g>
		<g>
			<g>
				<path class="st3" d="M164.3,112.3c0,0-0.1,0-0.1,0l-1.3-0.8c-0.1-0.1-0.2-0.2-0.1-0.3c0.1-0.1,0.2-0.2,0.3-0.1l1.3,0.8
					c0.1,0.1,0.2,0.2,0.1,0.3C164.5,112.2,164.4,112.3,164.3,112.3z"/>
			</g>
			<g>
				<path class="st3" d="M205.9,136.3c0,0-0.1,0-0.1,0l-2.5-1.4c-0.1-0.1-0.2-0.2-0.1-0.3c0.1-0.1,0.2-0.2,0.3-0.1l2.5,1.4
					c0.1,0.1,0.2,0.2,0.1,0.3C206.1,136.2,206,136.3,205.9,136.3z M201.7,133.9c0,0-0.1,0-0.1,0l-2.5-1.4c-0.1-0.1-0.2-0.2-0.1-0.3
					c0.1-0.1,0.2-0.2,0.3-0.1l2.5,1.4c0.1,0.1,0.2,0.2,0.1,0.3C201.9,133.8,201.8,133.9,201.7,133.9z M197.6,131.5c0,0-0.1,0-0.1,0
					L195,130c-0.1-0.1-0.2-0.2-0.1-0.3c0.1-0.1,0.2-0.2,0.3-0.1l2.5,1.4c0.1,0.1,0.2,0.2,0.1,0.3
					C197.7,131.4,197.7,131.5,197.6,131.5z M193.4,129.1c0,0-0.1,0-0.1,0l-2.5-1.4c-0.1-0.1-0.2-0.2-0.1-0.3
					c0.1-0.1,0.2-0.2,0.3-0.1l2.5,1.4c0.1,0.1,0.2,0.2,0.1,0.3C193.6,129,193.5,129.1,193.4,129.1z M189.3,126.7c0,0-0.1,0-0.1,0
					l-2.5-1.4c-0.1-0.1-0.2-0.2-0.1-0.3c0.1-0.1,0.2-0.2,0.3-0.1l2.5,1.4c0.1,0.1,0.2,0.2,0.1,0.3
					C189.4,126.6,189.4,126.7,189.3,126.7z M185.1,124.3c0,0-0.1,0-0.1,0l-2.5-1.4c-0.1-0.1-0.2-0.2-0.1-0.3
					c0.1-0.1,0.2-0.2,0.3-0.1l2.5,1.4c0.1,0.1,0.2,0.2,0.1,0.3C185.3,124.2,185.2,124.3,185.1,124.3z M181,121.9c0,0-0.1,0-0.1,0
					l-2.5-1.4c-0.1-0.1-0.2-0.2-0.1-0.3c0.1-0.1,0.2-0.2,0.3-0.1l2.5,1.4c0.1,0.1,0.2,0.2,0.1,0.3C181.1,121.8,181,121.9,181,121.9z
					 M176.8,119.5c0,0-0.1,0-0.1,0l-2.5-1.4c-0.1-0.1-0.2-0.2-0.1-0.3c0.1-0.1,0.2-0.2,0.3-0.1l2.5,1.4c0.1,0.1,0.2,0.2,0.1,0.3
					C177,119.4,176.9,119.5,176.8,119.5z M172.7,117.1c0,0-0.1,0-0.1,0l-2.5-1.4c-0.1-0.1-0.2-0.2-0.1-0.3c0.1-0.1,0.2-0.2,0.3-0.1
					l2.5,1.4c0.1,0.1,0.2,0.2,0.1,0.3C172.8,117,172.7,117.1,172.7,117.1z M168.5,114.7c0,0-0.1,0-0.1,0l-2.5-1.4
					c-0.1-0.1-0.2-0.2-0.1-0.3c0.1-0.1,0.2-0.2,0.3-0.1l2.5,1.4c0.1,0.1,0.2,0.2,0.1,0.3C168.7,114.6,168.6,114.7,168.5,114.7z"/>
			</g>
			<g>
				<path class="st3" d="M207.5,138.7c-0.1,0-0.2,0-0.2-0.1c-0.1-0.1,0-0.3,0.1-0.3l0.9-0.5l-0.9-0.5c-0.1-0.1-0.2-0.2-0.1-0.3
					c0.1-0.1,0.2-0.2,0.3-0.1l1.7,1l-1.7,1C207.6,138.7,207.6,138.7,207.5,138.7z"/>
			</g>
			<g>
				<path class="st3" d="M166,162.7c-0.1,0-0.2,0-0.2-0.1c-0.1-0.1,0-0.3,0.1-0.3l2.5-1.4c0.1-0.1,0.3,0,0.3,0.1
					c0.1,0.1,0,0.3-0.1,0.3l-2.5,1.4C166.1,162.7,166,162.7,166,162.7z M170.2,160.3c-0.1,0-0.2,0-0.2-0.1c-0.1-0.1,0-0.3,0.1-0.3
					l2.5-1.4c0.1-0.1,0.3,0,0.3,0.1c0.1,0.1,0,0.3-0.1,0.3l-2.5,1.4C170.2,160.3,170.2,160.3,170.2,160.3z M174.3,157.9
					c-0.1,0-0.2,0-0.2-0.1c-0.1-0.1,0-0.3,0.1-0.3l2.5-1.4c0.1-0.1,0.3,0,0.3,0.1c0.1,0.1,0,0.3-0.1,0.3l-2.5,1.4
					C174.4,157.9,174.4,157.9,174.3,157.9z M178.5,155.5c-0.1,0-0.2,0-0.2-0.1c-0.1-0.1,0-0.3,0.1-0.3l2.5-1.4
					c0.1-0.1,0.3,0,0.3,0.1c0.1,0.1,0,0.3-0.1,0.3l-2.5,1.4C178.6,155.5,178.5,155.5,178.5,155.5z M182.6,153.1
					c-0.1,0-0.2,0-0.2-0.1c-0.1-0.1,0-0.3,0.1-0.3l2.5-1.4c0.1-0.1,0.3,0,0.3,0.1c0.1,0.1,0,0.3-0.1,0.3l-2.5,1.4
					C182.7,153.1,182.7,153.1,182.6,153.1z M186.8,150.7c-0.1,0-0.2,0-0.2-0.1c-0.1-0.1,0-0.3,0.1-0.3l2.5-1.4
					c0.1-0.1,0.3,0,0.3,0.1c0.1,0.1,0,0.3-0.1,0.3l-2.5,1.4C186.9,150.7,186.8,150.7,186.8,150.7z M190.9,148.3
					c-0.1,0-0.2,0-0.2-0.1c-0.1-0.1,0-0.3,0.1-0.3l2.5-1.4c0.1-0.1,0.3,0,0.3,0.1c0.1,0.1,0,0.3-0.1,0.3l-2.5,1.4
					C191,148.3,191,148.3,190.9,148.3z M195.1,145.9c-0.1,0-0.2,0-0.2-0.1c-0.1-0.1,0-0.3,0.1-0.3l2.5-1.4c0.1-0.1,0.3,0,0.3,0.1
					c0.1,0.1,0,0.3-0.1,0.3l-2.5,1.4C195.2,145.9,195.1,145.9,195.1,145.9z M199.2,143.5c-0.1,0-0.2,0-0.2-0.1
					c-0.1-0.1,0-0.3,0.1-0.3l2.5-1.4c0.1-0.1,0.3,0,0.3,0.1c0.1,0.1,0,0.3-0.1,0.3l-2.5,1.4C199.3,143.5,199.3,143.5,199.2,143.5z
					 M203.4,141.1c-0.1,0-0.2,0-0.2-0.1c-0.1-0.1,0-0.3,0.1-0.3l2.5-1.4c0.1-0.1,0.3,0,0.3,0.1c0.1,0.1,0,0.3-0.1,0.3l-2.5,1.4
					C203.5,141.1,203.4,141.1,203.4,141.1z"/>
			</g>
			<g>
				<path class="st3" d="M163,164.4c-0.1,0-0.2,0-0.2-0.1c-0.1-0.1,0-0.3,0.1-0.3l1.3-0.8c0.1-0.1,0.3,0,0.3,0.1
					c0.1,0.1,0,0.3-0.1,0.3l-1.3,0.8C163.1,164.4,163.1,164.4,163,164.4z"/>
			</g>
		</g>
		<g>
			<g>
				<path class="st3" d="M110.8,142.8c0,0-0.1,0-0.1,0l-1.3-0.8c-0.1-0.1-0.2-0.2-0.1-0.3c0.1-0.1,0.2-0.2,0.3-0.1l1.3,0.8
					c0.1,0.1,0.2,0.2,0.1,0.3C111,142.7,110.9,142.8,110.8,142.8z"/>
			</g>
			<g>
				<path class="st3" d="M165.7,174.5c0,0-0.1,0-0.1,0L163,173c-0.1-0.1-0.2-0.2-0.1-0.3c0.1-0.1,0.2-0.2,0.3-0.1l2.5,1.5
					c0.1,0.1,0.2,0.2,0.1,0.3C165.9,174.4,165.8,174.5,165.7,174.5z M161.5,172.1c0,0-0.1,0-0.1,0l-2.5-1.5
					c-0.1-0.1-0.2-0.2-0.1-0.3c0.1-0.1,0.2-0.2,0.3-0.1l2.5,1.5c0.1,0.1,0.2,0.2,0.1,0.3C161.7,172,161.6,172.1,161.5,172.1z
					 M157.3,169.6c0,0-0.1,0-0.1,0l-2.5-1.5c-0.1-0.1-0.2-0.2-0.1-0.3c0.1-0.1,0.2-0.2,0.3-0.1l2.5,1.5c0.1,0.1,0.2,0.2,0.1,0.3
					C157.4,169.6,157.3,169.6,157.3,169.6z M153,167.2c0,0-0.1,0-0.1,0l-2.5-1.5c-0.1-0.1-0.2-0.2-0.1-0.3c0.1-0.1,0.2-0.2,0.3-0.1
					l2.5,1.5c0.1,0.1,0.2,0.2,0.1,0.3C153.2,167.1,153.1,167.2,153,167.2z M148.8,164.7c0,0-0.1,0-0.1,0l-2.5-1.5
					c-0.1-0.1-0.2-0.2-0.1-0.3c0.1-0.1,0.2-0.2,0.3-0.1l2.5,1.5c0.1,0.1,0.2,0.2,0.1,0.3C149,164.7,148.9,164.7,148.8,164.7z
					 M144.6,162.3c0,0-0.1,0-0.1,0l-2.5-1.5c-0.1-0.1-0.2-0.2-0.1-0.3c0.1-0.1,0.2-0.2,0.3-0.1l2.5,1.5c0.1,0.1,0.2,0.2,0.1,0.3
					C144.8,162.3,144.7,162.3,144.6,162.3z M140.4,159.9c0,0-0.1,0-0.1,0l-2.5-1.5c-0.1-0.1-0.2-0.2-0.1-0.3
					c0.1-0.1,0.2-0.2,0.3-0.1l2.5,1.5c0.1,0.1,0.2,0.2,0.1,0.3C140.5,159.8,140.4,159.9,140.4,159.9z M136.1,157.4c0,0-0.1,0-0.1,0
					l-2.5-1.5c-0.1-0.1-0.2-0.2-0.1-0.3c0.1-0.1,0.2-0.2,0.3-0.1l2.5,1.5c0.1,0.1,0.2,0.2,0.1,0.3
					C136.3,157.4,136.2,157.4,136.1,157.4z M131.9,155c0,0-0.1,0-0.1,0l-2.5-1.5c-0.1-0.1-0.2-0.2-0.1-0.3c0.1-0.1,0.2-0.2,0.3-0.1
					l2.5,1.5c0.1,0.1,0.2,0.2,0.1,0.3C132.1,154.9,132,155,131.9,155z M127.7,152.5c0,0-0.1,0-0.1,0L125,151
					c-0.1-0.1-0.2-0.2-0.1-0.3c0.1-0.1,0.2-0.2,0.3-0.1l2.5,1.5c0.1,0.1,0.2,0.2,0.1,0.3C127.9,152.5,127.8,152.5,127.7,152.5z
					 M123.5,150.1c0,0-0.1,0-0.1,0l-2.5-1.5c-0.1-0.1-0.2-0.2-0.1-0.3c0.1-0.1,0.2-0.2,0.3-0.1l2.5,1.5c0.1,0.1,0.2,0.2,0.1,0.3
					C123.6,150.1,123.5,150.1,123.5,150.1z M119.2,147.7c0,0-0.1,0-0.1,0l-2.5-1.5c-0.1-0.1-0.2-0.2-0.1-0.3
					c0.1-0.1,0.2-0.2,0.3-0.1l2.5,1.5c0.1,0.1,0.2,0.2,0.1,0.3C119.4,147.6,119.3,147.7,119.2,147.7z M115,145.2c0,0-0.1,0-0.1,0
					l-2.5-1.5c-0.1-0.1-0.2-0.2-0.1-0.3c0.1-0.1,0.2-0.2,0.3-0.1l2.5,1.5c0.1,0.1,0.2,0.2,0.1,0.3
					C115.2,145.2,115.1,145.2,115,145.2z"/>
			</g>
			<g>
				<path class="st3" d="M168.7,176.2c0,0-0.1,0-0.1,0l-1.3-0.8c-0.1-0.1-0.2-0.2-0.1-0.3c0.1-0.1,0.2-0.2,0.3-0.1l1.3,0.8
					c0.1,0.1,0.2,0.2,0.1,0.3C168.9,176.2,168.8,176.2,168.7,176.2z"/>
			</g>
		</g>
		<g>
			<g>
				<path class="st3" d="M102.6,65.9c0,0-0.1,0-0.1,0l-1.3-0.8c-0.1-0.1-0.2-0.2-0.1-0.3c0.1-0.1,0.2-0.2,0.3-0.1l1.3,0.8
					c0.1,0.1,0.2,0.2,0.1,0.3C102.7,65.8,102.7,65.9,102.6,65.9z"/>
			</g>
			<g>
				<path class="st3" d="M131.6,82.6c0,0-0.1,0-0.1,0l-2.5-1.4c-0.1-0.1-0.2-0.2-0.1-0.3c0.1-0.1,0.2-0.2,0.3-0.1l2.5,1.4
					c0.1,0.1,0.2,0.2,0.1,0.3C131.8,82.6,131.7,82.6,131.6,82.6z M127.5,80.2c0,0-0.1,0-0.1,0l-2.5-1.4c-0.1-0.1-0.2-0.2-0.1-0.3
					c0.1-0.1,0.2-0.2,0.3-0.1l2.5,1.4c0.1,0.1,0.2,0.2,0.1,0.3C127.6,80.2,127.6,80.2,127.5,80.2z M123.3,77.8c0,0-0.1,0-0.1,0
					l-2.5-1.4c-0.1-0.1-0.2-0.2-0.1-0.3c0.1-0.1,0.2-0.2,0.3-0.1l2.5,1.4c0.1,0.1,0.2,0.2,0.1,0.3C123.5,77.8,123.4,77.8,123.3,77.8
					z M119.2,75.4c0,0-0.1,0-0.1,0l-2.5-1.4c-0.1-0.1-0.2-0.2-0.1-0.3c0.1-0.1,0.2-0.2,0.3-0.1l2.5,1.4c0.1,0.1,0.2,0.2,0.1,0.3
					C119.3,75.4,119.3,75.4,119.2,75.4z M115,73c0,0-0.1,0-0.1,0l-2.5-1.4c-0.1-0.1-0.2-0.2-0.1-0.3c0.1-0.1,0.2-0.2,0.3-0.1
					l2.5,1.4c0.1,0.1,0.2,0.2,0.1,0.3C115.2,73,115.1,73,115,73z M110.9,70.6c0,0-0.1,0-0.1,0l-2.5-1.4c-0.1-0.1-0.2-0.2-0.1-0.3
					c0.1-0.1,0.2-0.2,0.3-0.1l2.5,1.4c0.1,0.1,0.2,0.2,0.1,0.3C111,70.6,111,70.6,110.9,70.6z M106.7,68.3c0,0-0.1,0-0.1,0l-2.5-1.4
					c-0.1-0.1-0.2-0.2-0.1-0.3c0.1-0.1,0.2-0.2,0.3-0.1l2.5,1.4c0.1,0.1,0.2,0.2,0.1,0.3C106.9,68.2,106.8,68.3,106.7,68.3z"/>
			</g>
			<g>
				<path class="st3" d="M134.6,84.3c0,0-0.1,0-0.1,0l-1.3-0.8c-0.1-0.1-0.2-0.2-0.1-0.3c0.1-0.1,0.2-0.2,0.3-0.1l1.3,0.8
					c0.1,0.1,0.2,0.2,0.1,0.3C134.8,84.3,134.7,84.3,134.6,84.3z"/>
			</g>
		</g>
		<g>
			<g>
				<path class="st3" d="M178.9,78.4c0,0-0.1,0-0.1,0l-1.3-0.8c-0.1-0.1-0.2-0.2-0.1-0.3c0.1-0.1,0.2-0.2,0.3-0.1l1.3,0.8
					c0.1,0.1,0.2,0.2,0.1,0.3C179.1,78.4,179,78.4,178.9,78.4z"/>
			</g>
			<g>
				<path class="st3" d="M175.9,76.7c0,0-0.1,0-0.1,0l-2.5-1.5c-0.1-0.1-0.2-0.2-0.1-0.3c0.1-0.1,0.2-0.2,0.3-0.1l2.5,1.5
					c0.1,0.1,0.2,0.2,0.1,0.3C176.1,76.6,176,76.7,175.9,76.7z M171.7,74.2c0,0-0.1,0-0.1,0l-2.5-1.5c-0.1-0.1-0.2-0.2-0.1-0.3
					c0.1-0.1,0.2-0.2,0.3-0.1l2.5,1.5c0.1,0.1,0.2,0.2,0.1,0.3C171.9,74.2,171.8,74.2,171.7,74.2z M167.5,71.8c0,0-0.1,0-0.1,0
					l-2.5-1.5c-0.1-0.1-0.2-0.2-0.1-0.3c0.1-0.1,0.2-0.2,0.3-0.1l2.5,1.5c0.1,0.1,0.2,0.2,0.1,0.3C167.7,71.8,167.6,71.8,167.5,71.8
					z M163.3,69.4c0,0-0.1,0-0.1,0l-2.5-1.5c-0.1-0.1-0.2-0.2-0.1-0.3c0.1-0.1,0.2-0.2,0.3-0.1l2.5,1.5c0.1,0.1,0.2,0.2,0.1,0.3
					C163.5,69.3,163.4,69.4,163.3,69.4z M159.1,67c0,0-0.1,0-0.1,0l-2.5-1.5c-0.1-0.1-0.2-0.2-0.1-0.3c0.1-0.1,0.2-0.2,0.3-0.1
					l2.5,1.5c0.1,0.1,0.2,0.2,0.1,0.3C159.3,66.9,159.2,67,159.1,67z M154.9,64.5c0,0-0.1,0-0.1,0l-2.5-1.5
					c-0.1-0.1-0.2-0.2-0.1-0.3c0.1-0.1,0.2-0.2,0.3-0.1l2.5,1.5c0.1,0.1,0.2,0.2,0.1,0.3C155.1,64.5,155,64.5,154.9,64.5z
					 M150.7,62.1c0,0-0.1,0-0.1,0l-2.5-1.5c-0.1-0.1-0.2-0.2-0.1-0.3c0.1-0.1,0.2-0.2,0.3-0.1l2.5,1.5c0.1,0.1,0.2,0.2,0.1,0.3
					C150.9,62.1,150.8,62.1,150.7,62.1z M146.5,59.7c0,0-0.1,0-0.1,0l-2.5-1.5c-0.1-0.1-0.2-0.2-0.1-0.3c0.1-0.1,0.2-0.2,0.3-0.1
					l2.5,1.5c0.1,0.1,0.2,0.2,0.1,0.3C146.7,59.6,146.6,59.7,146.5,59.7z M142.3,57.3c0,0-0.1,0-0.1,0l-2.5-1.5
					c-0.1-0.1-0.2-0.2-0.1-0.3c0.1-0.1,0.2-0.2,0.3-0.1l2.5,1.5c0.1,0.1,0.2,0.2,0.1,0.3C142.5,57.2,142.4,57.3,142.3,57.3z
					 M138.1,54.8c0,0-0.1,0-0.1,0l-2.5-1.5c-0.1-0.1-0.2-0.2-0.1-0.3c0.1-0.1,0.2-0.2,0.3-0.1l2.5,1.5c0.1,0.1,0.2,0.2,0.1,0.3
					C138.2,54.8,138.2,54.8,138.1,54.8z M133.9,52.4c0,0-0.1,0-0.1,0l-2.5-1.5c-0.1-0.1-0.2-0.2-0.1-0.3c0.1-0.1,0.2-0.2,0.3-0.1
					l2.5,1.5c0.1,0.1,0.2,0.2,0.1,0.3C134,52.4,134,52.4,133.9,52.4z M129.7,50c0,0-0.1,0-0.1,0l-2.5-1.5c-0.1-0.1-0.2-0.2-0.1-0.3
					c0.1-0.1,0.2-0.2,0.3-0.1l2.5,1.5c0.1,0.1,0.2,0.2,0.1,0.3C129.8,49.9,129.8,50,129.7,50z"/>
			</g>
			<g>
				<path class="st3" d="M125.5,47.5c0,0-0.1,0-0.1,0l-1.2-0.7l-1.2,0.7c-0.1,0.1-0.3,0-0.3-0.1c-0.1-0.1,0-0.3,0.1-0.3l1.4-0.8
					l1.4,0.8c0.1,0.1,0.2,0.2,0.1,0.3C125.6,47.5,125.6,47.5,125.5,47.5z"/>
			</g>
			<g>
				<path class="st3" d="M36,97.7c-0.1,0-0.2,0-0.2-0.1c-0.1-0.1,0-0.3,0.1-0.3l2.6-1.5c0.1-0.1,0.3,0,0.3,0.1
					c0.1,0.1,0,0.3-0.1,0.3l-2.6,1.5C36.1,97.7,36.1,97.7,36,97.7z M40.4,95.2c-0.1,0-0.2,0-0.2-0.1c-0.1-0.1,0-0.3,0.1-0.3l2.6-1.5
					c0.1-0.1,0.3,0,0.3,0.1c0.1,0.1,0,0.3-0.1,0.3l-2.6,1.5C40.5,95.2,40.4,95.2,40.4,95.2z M44.7,92.7c-0.1,0-0.2,0-0.2-0.1
					c-0.1-0.1,0-0.3,0.1-0.3l2.6-1.5c0.1-0.1,0.3,0,0.3,0.1c0.1,0.1,0,0.3-0.1,0.3l-2.6,1.5C44.8,92.7,44.8,92.7,44.7,92.7z
					 M49,90.2c-0.1,0-0.2,0-0.2-0.1c-0.1-0.1,0-0.3,0.1-0.3l2.6-1.5c0.1-0.1,0.3,0,0.3,0.1c0.1,0.1,0,0.3-0.1,0.3l-2.6,1.5
					C49.1,90.2,49.1,90.2,49,90.2z M53.4,87.7c-0.1,0-0.2,0-0.2-0.1c-0.1-0.1,0-0.3,0.1-0.3l2.6-1.5c0.1-0.1,0.3,0,0.3,0.1
					c0.1,0.1,0,0.3-0.1,0.3l-2.6,1.5C53.5,87.6,53.4,87.7,53.4,87.7z M57.7,85.2c-0.1,0-0.2,0-0.2-0.1c-0.1-0.1,0-0.3,0.1-0.3
					l2.6-1.5c0.1-0.1,0.3,0,0.3,0.1c0.1,0.1,0,0.3-0.1,0.3l-2.6,1.5C57.8,85.1,57.8,85.2,57.7,85.2z M62.1,82.6
					c-0.1,0-0.2,0-0.2-0.1c-0.1-0.1,0-0.3,0.1-0.3l2.6-1.5c0.1-0.1,0.3,0,0.3,0.1c0.1,0.1,0,0.3-0.1,0.3l-2.6,1.5
					C62.2,82.6,62.1,82.6,62.1,82.6z M66.4,80.1c-0.1,0-0.2,0-0.2-0.1c-0.1-0.1,0-0.3,0.1-0.3l2.6-1.5c0.1-0.1,0.3,0,0.3,0.1
					c0.1,0.1,0,0.3-0.1,0.3l-2.6,1.5C66.5,80.1,66.5,80.1,66.4,80.1z M70.8,77.6c-0.1,0-0.2,0-0.2-0.1c-0.1-0.1,0-0.3,0.1-0.3
					l2.6-1.5c0.1-0.1,0.3,0,0.3,0.1c0.1,0.1,0,0.3-0.1,0.3l-2.6,1.5C70.8,77.6,70.8,77.6,70.8,77.6z M75.1,75.1
					c-0.1,0-0.2,0-0.2-0.1c-0.1-0.1,0-0.3,0.1-0.3l2.6-1.5c0.1-0.1,0.3,0,0.3,0.1c0.1,0.1,0,0.3-0.1,0.3l-2.6,1.5
					C75.2,75.1,75.1,75.1,75.1,75.1z M79.4,72.6c-0.1,0-0.2,0-0.2-0.1c-0.1-0.1,0-0.3,0.1-0.3l2.6-1.5c0.1-0.1,0.3,0,0.3,0.1
					c0.1,0.1,0,0.3-0.1,0.3l-2.6,1.5C79.5,72.6,79.5,72.6,79.4,72.6z M83.8,70.1c-0.1,0-0.2,0-0.2-0.1c-0.1-0.1,0-0.3,0.1-0.3
					l2.6-1.5c0.1-0.1,0.3,0,0.3,0.1c0.1,0.1,0,0.3-0.1,0.3l-2.6,1.5C83.9,70.1,83.8,70.1,83.8,70.1z M88.1,67.6
					c-0.1,0-0.2,0-0.2-0.1c-0.1-0.1,0-0.3,0.1-0.3l2.6-1.5c0.1-0.1,0.3,0,0.3,0.1c0.1,0.1,0,0.3-0.1,0.3l-2.6,1.5
					C88.2,67.6,88.2,67.6,88.1,67.6z M92.5,65.1c-0.1,0-0.2,0-0.2-0.1c-0.1-0.1,0-0.3,0.1-0.3l2.6-1.5c0.1-0.1,0.3,0,0.3,0.1
					c0.1,0.1,0,0.3-0.1,0.3l-2.6,1.5C92.6,65.1,92.5,65.1,92.5,65.1z M96.8,62.6c-0.1,0-0.2,0-0.2-0.1c-0.1-0.1,0-0.3,0.1-0.3
					l2.6-1.5c0.1-0.1,0.3,0,0.3,0.1c0.1,0.1,0,0.3-0.1,0.3l-2.6,1.5C96.9,62.6,96.9,62.6,96.8,62.6z M101.2,60.1
					c-0.1,0-0.2,0-0.2-0.1c-0.1-0.1,0-0.3,0.1-0.3l2.6-1.5c0.1-0.1,0.3,0,0.3,0.1c0.1,0.1,0,0.3-0.1,0.3l-2.6,1.5
					C101.2,60.1,101.2,60.1,101.2,60.1z M105.5,57.6c-0.1,0-0.2,0-0.2-0.1c-0.1-0.1,0-0.3,0.1-0.3l2.6-1.5c0.1-0.1,0.3,0,0.3,0.1
					c0.1,0.1,0,0.3-0.1,0.3l-2.6,1.5C105.6,57.6,105.5,57.6,105.5,57.6z M109.8,55.1c-0.1,0-0.2,0-0.2-0.1c-0.1-0.1,0-0.3,0.1-0.3
					l2.6-1.5c0.1-0.1,0.3,0,0.3,0.1c0.1,0.1,0,0.3-0.1,0.3L110,55C109.9,55.1,109.9,55.1,109.8,55.1z M114.2,52.6
					c-0.1,0-0.2,0-0.2-0.1c-0.1-0.1,0-0.3,0.1-0.3l2.6-1.5c0.1-0.1,0.3,0,0.3,0.1c0.1,0.1,0,0.3-0.1,0.3l-2.6,1.5
					C114.3,52.5,114.2,52.6,114.2,52.6z M118.5,50.1c-0.1,0-0.2,0-0.2-0.1c-0.1-0.1,0-0.3,0.1-0.3l2.6-1.5c0.1-0.1,0.3,0,0.3,0.1
					c0.1,0.1,0,0.3-0.1,0.3l-2.6,1.5C118.6,50,118.6,50.1,118.5,50.1z"/>
			</g>
			<g>
				<path class="st3" d="M33,99.4c-0.1,0-0.2,0-0.2-0.1c-0.1-0.1,0-0.3,0.1-0.3l1.3-0.8c0.1-0.1,0.3,0,0.3,0.1
					c0.1,0.1,0,0.3-0.1,0.3l-1.3,0.8C33.1,99.4,33,99.4,33,99.4z"/>
			</g>
		</g>
		<g>
			<path class="st5" d="M94,148.7c-7.7-4.4-20.1-4.4-27.7,0c-6,3.4-7.3,8.5-3.9,12.7c-10.7-4.6-25.8-4.1-35.5,1.5
				c-10.6,6.1-10.6,16.1,0,22.2c10.6,6.1,27.8,6.1,38.5,0c8.8-5.1,10.3-12.8,4.5-18.8c7.6,2.7,17.6,2.2,24.2-1.6
				C101.7,160.3,101.7,153.2,94,148.7z"/>
			<g class="st6">
				<ellipse class="st7" cx="104.1" cy="145.4" rx="17.8" ry="10.3"/>
			</g>
			<g>
				<path class="st8" d="M120.2,124.9v20.3c0.2,2.1-1.1,4.2-3.9,5.8c-5.2,3-13.6,3-18.8,0c-2.6-1.5-3.9-3.5-3.9-5.4v-20.7H120.2z"/>
				<path class="st9" d="M97.5,119.5c-5.2,3-5.2,7.8,0,10.8c5.2,3,13.6,3,18.8,0c5.2-3,5.2-7.9,0-10.8
					C111.1,116.5,102.7,116.5,97.5,119.5z"/>
				<g>
					<path class="st8" d="M118.1,118.6v3.6c0.1,1.8-1,3.5-3.3,4.9c-4.4,2.5-11.5,2.5-15.9,0c-2.2-1.3-3.3-2.9-3.3-4.6v-3.9H118.1z"
						/>
					<path class="st9" d="M98.9,114c-4.4,2.5-4.4,6.6,0,9.2c4.4,2.5,11.5,2.5,15.9,0c4.4-2.5,4.4-6.7,0-9.2
						C110.5,111.5,103.3,111.5,98.9,114z"/>
				</g>
				<path class="st3" d="M116.3,148.2c-1.8,1.1-4,1.7-6.4,2c-2,0.3-4,0.3-6,0c-2.3-0.3-4.6-1-6.4-2c-2.6-1.5-3.9-3.5-3.9-5.4v-15.5
					c0,2,1.3,3.9,3.9,5.4c5.2,3,13.6,3,18.8,0c2.5-1.4,3.8-3.3,3.9-5.1v14.9C120.3,144.5,119,146.7,116.3,148.2z"/>
				<path class="st10" d="M116.3,146.4c-0.7,0.4-1.5,0.8-2.3,1.1c-1.3,0.5-2.7,0.8-4.1,1c-2,0.3-4,0.3-6,0c-1.4-0.2-2.8-0.5-4.1-1
					c-0.8-0.3-1.6-0.7-2.3-1.1c-2.6-1.5-3.9-3.5-3.9-5.4v-11.7c0,2,1.3,3.9,3.9,5.4c5.2,3,13.6,3,18.8,0c2.5-1.4,3.8-3.3,3.9-5.1
					v11.1C120.3,142.7,119,144.8,116.3,146.4z"/>
				<path class="st11" d="M114,146.6c0,0.3,0,0.5-0.1,0.8c-1.3,0.5-2.7,0.8-4.1,1c-2,0.3-4,0.3-6,0c-1.4-0.2-2.8-0.5-4.1-1
					c0-0.3-0.1-0.5-0.1-0.8c0-3.8,3.2-6.8,7.1-6.8C110.8,139.8,114,142.8,114,146.6z"/>
				<path class="st8" d="M115.4,140.8c-0.1-0.8-0.5-1.5-0.9-2c-0.2-0.2-0.3-0.3-0.5-0.5c-0.3-0.3-0.5-0.5-0.7-0.8
					c-0.3-0.2-0.5-0.2-0.8-0.1c0,0-0.1,0-0.1,0c0,0-0.1,0-0.1,0c0,0,0,0-0.1,0c0,0,0,0-0.1,0c0,0,0,0-0.1,0
					c-0.1,0.1-0.1,0.1-0.1,0.1c-0.2,0.2-0.4,0.3-0.7,0.4c-0.1,0-0.2,0.1-0.2,0.2c0,0.1,0.1,0.2,0.2,0.1c0,0,0.1,0,0.1,0
					c-0.1,0.1-0.1,0.2-0.2,0.3c-0.1,0.1,0,0.2,0.1,0.2c0.1,0,0.1,0,0.2,0c0,0.1,0,0.2,0.1,0.2c0.1,0,0.2,0,0.2-0.1
					c0,0.1,0,0.1,0.1,0.1c0.1,0,0.2,0,0.3-0.1c0,0,0,0.1,0.1,0.1c0.1,0,0.2,0,0.3,0c0.1,0,0.2,0,0.2-0.1c0,0,0-0.1,0.1-0.1
					c0.2,0,0.3,0,0.5,0c0.1,1.1-0.2,1.8,0.2,2.3c-0.6-0.5-1.8,0.2-1.9,0.8c-0.4-0.4-1.7-0.2-1.8,0.5c-0.3-0.4-1.4-0.4-1.6,0.1
					c0-0.2,0-0.4,0-0.5c0.1-0.1,0.1-0.1,0.2-0.2c0.1-0.2,0.2-0.4,0.3-0.7c0.1,0,0.1,0,0.1,0c0.1-0.1,0.2-0.2,0.2-0.5
					c0-0.3,0-0.5-0.2-0.5c0-0.2,0-0.4,0-0.6c0-0.1,0-0.2-0.1-0.3c0.1-0.1,0.3-0.3,0.4-0.4c0,0-0.2,0-0.2,0c0.1-0.2,0.2-0.3,0.3-0.5
					c0,0-0.2,0.3-0.8,0.3c0,0,0.1-0.2,0.1-0.2c-0.3,0.1-0.5,0.1-0.8,0c-0.2-0.1-0.4-0.1-0.5-0.1c0,0-0.1,0-0.1,0
					c0.1-0.1,0-0.3,0-0.2c-0.2,0.2-0.5,0.2-1.2,0.3c-0.2,0.1-0.4,0.1-0.6,0.3c0,0-0.1,0-0.1,0.1c-0.2,0.2-0.3,0.5-0.3,0.7
					c0,0.2,0,0.4,0,0.6c-0.2,0-0.2,0.2-0.2,0.5c0,0.2,0.1,0.4,0.2,0.5c0,0,0.1,0,0.1,0c0.1,0.3,0.2,0.6,0.3,0.7
					c0.1,0.1,0.1,0.1,0.2,0.2c0,0.2,0,0.4,0,0.5c-0.2-0.4-1.3-0.5-1.6-0.1c-0.1-0.3-0.8-0.9-1.8-0.5c0,0-0.7-1.5-1.9-0.8
					c0.4-0.5,0.1-1.2,0.2-2.3h0.1c0.1,0,0.3,0,0.4,0c0,0,0,0.1,0.1,0.1c0.1,0.1,0.2,0.1,0.2,0.1c0.1,0,0.2,0,0.3,0
					c0.1,0,0.1-0.1,0.1-0.1c0.1,0.1,0.2,0.2,0.3,0.1c0.1,0,0.1-0.1,0.1-0.1c0.1,0.1,0.1,0.1,0.2,0.1c0.1,0,0.1-0.1,0.1-0.2
					c0.1,0,0.1,0,0.2,0c0.1,0,0.1-0.1,0.1-0.2c-0.1-0.1-0.1-0.2-0.2-0.3c0,0,0.1,0,0.1,0c0.1,0,0.2,0,0.2-0.1c0-0.1-0.1-0.2-0.2-0.2
					c-0.2-0.1-0.5-0.2-0.7-0.4c0,0-0.1-0.1-0.1-0.1c-0.1,0-0.1-0.1-0.1-0.1c0,0,0,0-0.1,0c0,0,0,0-0.1,0c0,0-0.1,0-0.1,0
					c0,0-0.1,0-0.1,0c-0.2-0.1-0.5-0.1-0.8,0.1c-0.2,0.3-0.5,0.5-0.7,0.8c-0.2,0.1-0.4,0.3-0.5,0.5c-0.5,0.6-0.9,1.3-1,2.3
					c0.6,1,1.2,1.7,1.9,2.2c0.5,0.3,1.1,0.5,1.6,0.6c0.2,0.6,0.5,1.1,0.7,1.6c0.1,0.2,0.3,0.4,0.4,0.6c0,0,0.1,0.1,0.1,0.1
					c0.5,0.7,0.7,1.4,0.7,2c0,0,0,0.1,0,0.1c2,0.3,4,0.3,6,0c0,0,0-0.1,0-0.1c0-0.7,0.3-1.4,0.8-2.1c0.1-0.2,0.3-0.4,0.4-0.6
					c0.3-0.5,0.5-1,0.7-1.6c0.6-0.1,1.1-0.3,1.6-0.6c0.7-0.5,1.4-1.2,1.9-2.2C115.4,141,115.4,140.9,115.4,140.8z"/>
			</g>
			<g>
				<g>
					
						<ellipse transform="matrix(0.807 -0.5905 0.5905 0.807 -56.6842 71.2626)" class="st10" cx="80.7" cy="122.4" rx="17.8" ry="17.8"/>
					<g>
						<path class="st12" d="M98.5,122.4l-0.1,33.4c0,2.6-1.7,5.2-5.2,7.3c-6.9,4-18.2,4-25.2,0c-3.5-2-5.3-4.7-5.3-7.4l0.1-33.4
							c0,2.7,1.7,5.3,5.3,7.4c7,4,18.3,4,25.2,0C96.8,127.7,98.5,125,98.5,122.4z"/>
					</g>
					<g>
						<g>
							<path class="st13" d="M98.5,129.3v20.2c-0.4,2.3-2.1,4.8-5.2,6.6c-6.9,4-18.2,4-25.2,0c-3.5-2-5.4-5.1-5.4-7.7l0.1-19.1
								c0,2.6,1.8,5.3,5.3,7.3c7,4,18.3,4,25.2,0C96.8,134.6,98.5,131.9,98.5,129.3z"/>
						</g>
						<g>
							<path class="st3" d="M98.5,129.3v20.2c-0.4,2.3-2.1,4.8-5.2,6.6c-6.9,4-18.2,4-25.2,0c-3.5-2-5.4-5.1-5.4-7.7l0.1-19.1
								c0,2.6,1.8,5.3,5.3,7.3c7,4,18.3,4,25.2,0C96.8,134.6,98.5,131.9,98.5,129.3z"/>
						</g>
					</g>
					<g>
						<path class="st10" d="M93.3,115.1c7,4,7,10.6,0.1,14.6c-6.9,4-18.2,4-25.2,0c-7-4-7-10.6-0.1-14.6C75,111,86.3,111,93.3,115.1
							z"/>
					</g>
					<g>
						<path class="st14" d="M64,138.3c0.9,0.8,1.9,1.5,2.9,2.2c0.4,0.2,0.7,0.6,0.9,1.1c0.3,0.5,0.4,1,0.4,1.5c0,1,0,1.9,0,2.9
							c0,0.5-0.1,0.8-0.4,1c-0.3,0.2-0.6,0.2-0.9-0.1c-0.4-0.3-0.8-0.6-1.3-0.9c0,1,0,1.9,0,2.9c-0.5-0.4-1.1-0.8-1.6-1.3
							C64,144.5,64,141.4,64,138.3z M66.4,141.9c-0.3-0.2-0.6-0.4-0.8-0.6c0,1,0,1.9,0,2.9c0.3,0.2,0.6,0.4,0.8,0.6
							C66.4,143.9,66.4,142.9,66.4,141.9z"/>
						<path class="st14" d="M69,141.7c1,0.5,2.1,1,3.2,1.4c0.4,0.1,0.7,0.4,1,0.8c0.3,0.4,0.4,0.9,0.4,1.4c0,1,0,1.9,0,2.9
							c0,0.3-0.1,0.6-0.3,0.7c-0.2,0.2-0.4,0.2-0.7,0.1c0.3,0.9,0.6,1.7,0.9,2.6c0,0.4,0,0.8,0,1.2c-0.6-0.2-1.3-0.4-1.9-0.6
							c0-0.4,0-0.8,0-1.2c-0.3-0.9-0.6-1.8-0.9-2.7c0,1.2,0,2.3,0,3.5c-0.6-0.3-1.2-0.5-1.8-0.8C69,147.9,69,144.8,69,141.7z
							 M71.8,144.7c-0.3-0.1-0.6-0.2-0.9-0.4c0,0.8,0,1.5,0,2.3c0.3,0.1,0.6,0.3,0.9,0.4C71.8,146.2,71.8,145.5,71.8,144.7z"/>
						<path class="st14" d="M74.6,145.6c0-0.5,0.1-0.9,0.4-1.1c0.3-0.3,0.6-0.4,1-0.3c0.6,0.1,1.3,0.2,1.9,0.3c0.4,0,0.8,0.2,1,0.6
							c0.3,0.4,0.4,0.8,0.4,1.3c0,1.9,0,3.9,0,5.8c0,0.5-0.1,0.9-0.4,1.2c-0.3,0.3-0.6,0.5-1,0.4c-0.6-0.1-1.3-0.2-1.9-0.3
							c-0.4-0.1-0.7-0.3-1-0.7c-0.3-0.4-0.4-0.8-0.4-1.3C74.6,149.4,74.6,147.5,74.6,145.6z M77.5,146.1c-0.3,0-0.6-0.1-1-0.1
							c0,1.9,0,3.9,0,5.8c0.3,0.1,0.6,0.1,1,0.1C77.5,150,77.5,148,77.5,146.1z"/>
						<path class="st14" d="M81.4,146.3c-0.4,0-0.8,0-1.2,0c0-0.6,0-1.2,0-1.7c1.5,0,2.9-0.1,4.4-0.3c0,0.6,0,1.2,0,1.7
							c-0.4,0.1-0.8,0.1-1.2,0.2c0,2.5,0,5,0,7.5c-0.6,0.1-1.3,0.1-2,0.1C81.4,151.3,81.4,148.8,81.4,146.3z"/>
						<path class="st14" d="M85.3,144.2c1.4-0.3,2.9-0.7,4.3-1.2c0,0.6,0,1.2,0,1.7c-0.8,0.3-1.6,0.5-2.3,0.8c0,0.6,0,1.2,0,1.7
							c0.6-0.2,1.3-0.4,1.9-0.6c0,0.6,0,1.2,0,1.7c-0.6,0.2-1.2,0.4-1.9,0.6c0,0.8,0,1.5,0,2.3c0.8-0.2,1.6-0.5,2.3-0.8
							c0,0.6,0,1.2,0,1.7c-1.4,0.5-2.8,0.9-4.3,1.2C85.3,150.3,85.3,147.2,85.3,144.2z"/>
						<path class="st14" d="M90,142.8c0.6-0.2,1.2-0.5,1.8-0.8c0,3.1,0,6.2,0,9.3c-0.6,0.3-1.2,0.6-1.8,0.8
							C90,149,90,145.9,90,142.8z"/>
						<path class="st14" d="M92.7,141.5c0.5-0.3,1-0.6,1.5-0.9c0.5,1,1,2,1.5,3c0-1.3,0-2.7,0-4c0.5-0.4,1.1-0.8,1.6-1.3
							c0,3.1,0,6.2,0,9.3c-0.5,0.4-0.9,0.8-1.4,1.1c-0.5-1-1-2-1.5-3c0,1.3,0,2.7,0,4c-0.6,0.4-1.1,0.7-1.7,1
							C92.7,147.7,92.7,144.6,92.7,141.5z"/>
					</g>
					<path class="st15" d="M92.1,123c0-8.5-7-15.5-15.5-15.5c-0.1,0-0.2,0-0.3,0c1.5-0.5,3-0.7,4.7-0.7c8.5,0,15.5,7,15.5,15.5
						c0,0,0.1,33.4,0.1,33.4c0,1.9-1.5,3.9-4.1,5.4c-0.1,0-0.2,0.1-0.2,0.1L92.1,123z"/>
					<g>
						<g class="st16">
							<g>
								<path class="st17" d="M93.4,104.6l0,4.7c0,1.9-1.2,3.7-3.7,5.2c-5,2.9-13,2.9-18,0c-2.5-1.4-3.8-3.3-3.8-5.2l0-4.7
									c0,1.9,1.2,3.8,3.8,5.2c5,2.9,13,2.9,18,0C92.1,108.3,93.4,106.5,93.4,104.6z"/>
							</g>
							<g>
								<path class="st3" d="M89.6,99.3c5,2.9,5,7.5,0.1,10.4c-5,2.9-13,2.9-18,0c-5-2.9-5-7.5-0.1-10.4
									C76.6,96.5,84.6,96.5,89.6,99.3z"/>
							</g>
						</g>
					</g>
				</g>
			</g>
			<g>
				<path class="st18" d="M69,51.9c-6.6,4.9-14.2,8-19.9,8l-3.1-12.4c2.3-1,4.6-1.2,6.9-0.1c2.5-2.1,5.1-3.2,8.1-1.6
					c0.2-3,0.7-6.1,1.2-8.9c0.5-2.9,0.8-5.6,0.4-7.6h5.7C69,37.3,71.4,44.6,69,51.9z"/>
				<g>
					<path class="st19" d="M38.8,178.9c-2-1.2-3.3-2.8-4-4.6l0-6.6l-8.6,0.6l0.3,7.1c-0.7,1.5-0.9,3-0.9,4.5
						c3.8,2.4,7.9,4.2,12.7,5.1c2.9-0.1,4.9-0.8,5.2-2.7C43,180.7,41.3,179.8,38.8,178.9z"/>
					<path class="st3" d="M43.5,182.2c-1.1,2.2-4,2.7-5.9,2.4c-4.6-0.8-10.3-3-11.9-4.7c0,0.4,0,0.9,0,1.3c1.4,1.9,7.6,3.8,12.3,4.9
						c2.4,0.4,3.7-0.2,4.7-1.2C43.4,184.2,43.7,183.2,43.5,182.2C43.5,182.3,43.5,182.2,43.5,182.2z"/>
				</g>
				<g>
					<path class="st19" d="M58.4,165.4c-2-1.2-3.3-2.8-4-4.6l0-6.6l-8.6,0.6l0.3,7.1c-0.7,1.5-0.9,3-0.9,4.5
						c3.8,2.4,7.9,4.2,12.7,5.1c2.9-0.1,4.9-0.8,5.2-2.7C62.6,167.2,60.9,166.3,58.4,165.4z"/>
					<path class="st3" d="M63.1,168.8c-1.1,2.2-4,2.7-5.9,2.4c-4.6-0.8-10.3-3-11.9-4.7c0,0.4,0,0.9,0,1.3c1.4,1.9,7.6,3.8,12.3,4.9
						c2.4,0.4,3.7-0.2,4.7-1.2C63,170.7,63.4,169.7,63.1,168.8C63.1,168.8,63.1,168.8,63.1,168.8z"/>
				</g>
				<g>
					<g>
						<path class="st20" d="M53.6,96.8l5.2,28.2c-0.7,13.6-3,32.7-4.5,34.5c0,0.5,0,1.4,0,1.9c-0.1,2.6-8.5,2.6-8.6,0.8
							c0-0.5,0-0.5-0.1-1.5c-1.9-2.4-0.6-22.1,1-31.3c-2-7.6-6.6-19.6-6.5-26.7L53.6,96.8z"/>
					</g>
				</g>
				<path class="st20" d="M45.7,111.1l-3,25.8c-3.1,14.1-6.2,33.6-7.8,35.2c-0.1,0.4,0,1.9-0.4,2.4c-1,1.4-5.6,4-8.6,1.3
					c-0.2-0.1,0-2.4-0.1-2.6c-0.3-0.4-0.4-1.2-0.6-2.2c-0.8-6.6,1.1-24.1,4.7-33.9c-1.2-7.8-0.8-15.9-1.3-23.3
					c-1.2-3.9-1.1-8.7,0.2-13.3c0.1-0.3,0.1-0.5,0.2-0.8c0,0,0.8-0.2,2.1-0.5c0.4-0.1,0.8-0.2,1.3-0.3c1.5-0.3,3.4-0.8,5.4-1.2
					c0.4-0.1,0.8-0.2,1.1-0.3c3.6-0.8,7.3-1.6,9.4-2.1c0.9-0.2,1.4-0.3,1.7-0.4l3.1-2.8c0,0.1,0,0.2,0,0.3
					C54.3,102.4,53.7,106.7,45.7,111.1z"/>
				<g>
					<path class="st20" d="M53.4,92.4c-0.8,4.5-11.9,10.7-20.2,9.7c-0.4,0-0.8-0.1-1.2-0.2c0,0-0.1,0-0.1,0c-1-0.2-2-0.6-2.9-1.1
						c0-0.1,0-0.3-0.1-0.4c-0.1-0.7-0.2-1.8-0.3-2.4c0-0.3-0.1-0.6-0.1-0.6c1,0.5,2.3,0.7,3.8,0.8c1.7,0.1,3.6-0.1,5.6-0.5
						c0.4-0.1,0.8-0.2,1.1-0.3c5.7-1.4,11.6-4.5,13.9-8.6c0.1,0.5,0.1,1,0.2,1.5c0,0.6,0,1.2,0.1,1.8C53.3,92.3,53.3,92.4,53.4,92.4
						z"/>
					<g>
						<path class="st3" d="M53.6,88.4c0.1,0.7-0.1,1.3-0.3,2c-0.7,1.8-2.4,3.5-4.7,5c-4.5,2.9-11,4.8-15.9,4.1
							c-0.5-0.1-1-0.2-1.4-0.3c-0.8-0.2-1.5-0.5-2.2-0.9c-0.2-0.1-0.3-0.2-0.4-0.3c-1-0.9-0.8-2.3-1.5-5c-0.6-3.3-1.2-6.3-1.7-9.1
							c-1-5.9-1.8-10.6-2.2-14.3c-0.1-0.8-0.2-1.6-0.3-2.3c-0.1-1-0.2-2-0.3-2.8c-0.1-0.7-0.1-1.4-0.1-1.9c0-0.7,0.9-4.6,0.9-5.1
							c1.6-3.3,5.8-6.3,8.5-6.9c5.3-3,7.4-2.5,10.4-2.8c1.3-0.1,5.5-1.3,6.4-0.7C55.9,52.3,52.6,76.7,53.6,88.4z"/>
					</g>
				</g>
				<g>
					<path class="st18" d="M42.5,39.8L32,39.4c0,0-0.2,11.3-0.2,11.3c-0.1,0.3,2.7,5.8,8.2,4.1C42.4,54.1,42.4,50.7,42.5,39.8z"/>
					<path class="st21" d="M40.7,51.2c-5.1,0-4.9-8.1-4.9-8.1l8.9,1.8C44.7,44.8,45.9,50.7,40.7,51.2z"/>
					<g>
						<path class="st18" d="M47.2,41.3l-0.9,0.3c0.1,1.2,1.2,6.9-2.3,7.1c-1.6,0.1-4.3,0.5-6.8-2.6c-0.5-0.6-0.9-1.3-1.1-2
							c-0.2-0.6-0.4-1.3-0.4-2l-0.2,0c-1.5,0.1-4.2,1.3-4.8,0c-0.9-1.8-1.3-3.7-1.5-5.7c0-0.8-0.1-1.1,0-1.8
							c0.8-6.9,5.7-7.3,8.8-7.5c2.8-0.1,5.5,1,7.1,3.7c0.7,1.2,1.2,2.8,1.4,4.7c-0.2,0.6-0.4,1.1-0.4,1.1l1.5,3.3
							C48.1,40.5,47.8,41.1,47.2,41.3z"/>
						<path class="st7" d="M32,44.5c6.3,0.8,2.4-6,2.4-6s1-0.6,1.5,0c1-0.1,1.3-0.4,2.2-0.5c-0.6-3.2-2.7-9.6,6.1-8.5
							c0.1-1.2-0.8-3.2-6.8-3c-4.6,0.2-9,2.9-8.9,7.5C28.6,38.4,30.5,44.6,32,44.5z"/>
						<path class="st18" d="M33.3,39.2c0.1,1.4,1.4,3,2.4,2.9c0.9-0.1,0.8-1.2,0.7-2.7c-0.1-1,0.1-2.3-1-2.5
							C34.5,36.7,33.2,37.1,33.3,39.2z"/>
					</g>
				</g>
				<path class="st3" d="M34.6,139.8c-4.2,11.5-6.1,23.3-5.8,34.2l-1.4-0.3c-0.3-11.1,1.6-22.7,5.9-34.4c0.4-1,0.4-2,0.2-3
					c-1.7-7.9-1.5-15.8-1.1-21.8c0.1-0.6,0-1.3-0.2-2c-0.7-2.9-0.8-6.4-0.3-10.5c0.4,0.1,0.9,0.2,1.4,0.2c-0.4,3.9-0.3,7.2,0.3,10
					c0.2,0.9,0.3,1.7,0.2,2.4c-0.4,5.9-0.6,13.6,1.1,21.4C35.1,137.2,35,138.6,34.6,139.8z"/>
				<path class="st22" d="M32.4,113.4c-1.3-4-1.3-7.8-0.4-11.5c0.2-0.8,0.4-1.7,0.7-2.5c-1.4-0.2-2.6-0.7-4.1-1.3
					c0.1,0.7,0.2,1.6,0.3,2.3c-1.3,4.6-1.4,9.4-0.2,13.3c0.4,7.4,0.1,15.5,1.3,23.3c-3.6,9.7-5.5,27.3-4.7,33.9
					c1.7-13.8,3.9-26.6,8.3-33.8C31.9,129.8,31.5,121.8,32.4,113.4z"/>
				<g>
					<path class="st18" d="M60.3,26.3c0.2,0.8,0.7,1.4,1,2.1c0.2,0.4,0.3,0.8,0.6,1.1c0.1,0.1,0.3,0.2,0.5,0.3
						c0.5,0.2,0.9,0.4,1.4,0.6c0.6,0.2,1.2,0.4,1.8,0.4c0.6,0,1.2,0,1.7-0.2c0.5-0.2,1-0.5,1.3-1c0.5-0.7,0.6-1.5,0.6-2.3
						c0-0.8-0.2-1.6-0.2-2.4c0-0.3,0-0.6-0.2-0.9c-0.2-0.3-0.4-0.5-0.7-0.7c-0.5-0.3-0.9-0.6-1.4-0.9c-0.2-0.1-0.4-0.3-0.7-0.3
						c-0.2,0-0.4,0-0.5,0.1c-1.2,0.3-2.4,0.6-3.6,0.9c-0.1,0-0.2,0.1-0.3,0.1c-0.2,0.2-0.1,0.4-0.2,0.6c-0.1,0.1-0.3,0.2-0.4,0.3
						C60.2,24.6,60.1,25.5,60.3,26.3z"/>
					<path class="st23" d="M62.5,27.7c0.2,0.7,2.4,0.8,2.8,2.7c1.3,0.4,1.8,0.3,2.4,0.1c-0.8-0.1-1.5-1.2-1.5-2
						c-0.1-1.4,0.9-2.3,1.6-3.4c-0.8,0.2-1.5,0.4-2.3,0.6c0,0.4,0,0.9,0,1.3c0,0.4,0,0.8-0.2,1.2c-0.5,0.7-1.8-0.2-2.6-0.6
						c-0.1-0.1-0.2-0.2-0.2-0.3c-0.1-0.3-0.2-0.6-0.3-1c0-0.2-0.1-0.3,0-0.5c0.1-0.6,1-0.8,0.9-1.4c-0.1,0.6-1,0.7-1.2,1.3
						C61.9,25.9,62.5,27.5,62.5,27.7z"/>
				</g>
				<path class="st3" d="M53,47.4c-2.3-1.1-4.6-0.9-6.9,0.1l3.1,12.4c3,0,6.5-0.8,10.1-2.3c1.5-2.5,0.1-10.9-2.6-12.3
					C55.3,45.6,54.1,46.4,53,47.4z"/>
				<path class="st21" d="M63.3,47.6c-0.6-0.7-1.3-1.3-2.2-1.8c0.2-3,0.7-6.1,1.2-8.9C62.6,41.1,62.5,44.9,63.3,47.6z"/>
				<path class="st22" d="M30.2,73.4l-2.5-3.9c0-1.2,0.1-2.3,0.3-3.4c-1.1-0.2-5.4,2.5-5.4,2.5c0.3,0.3,0.5,0.7,0.6,1.2
					c0.5,3.7,1.2,8.4,2.2,14.3c0.5,2.8,1.1,5.8,1.7,9.1c0.6,2.7,0.4,4.1,1.5,5c0,0,0,0.1,0,0.2c1.5,0.6,2.6,1.4,4,1.5
					c0,0,0-0.1,0-0.1c-0.1-0.2-0.1-0.4-0.1-0.6c-0.1-0.2-0.1-0.5-0.2-0.7c-0.3-3.3-0.8-6.2-1.2-8.8C30.4,77.7,47,74.7,52.9,68.2
					C49.1,70.9,34.7,78.6,30.2,73.4z"/>
				<g>
					<g>
						<path class="st18" d="M14.1,110l-0.2,1.5l0,0.1l-0.2,1.9l0.2,1.4c0,0.7-0.4,1-0.8,1c-0.2,0-0.3-0.1-0.4-0.3l-0.4-1.6l-0.1-1.7
							c0,0-0.1-1.3,0-1.5l0.5-0.2l1-0.5L14.1,110z"/>
						<path class="st21" d="M12.8,109.7l1.1,0.1l0,0.4l0,1.4l0,3.4c0,0.7-0.4,1-0.8,1c0-0.5,0-1.2-0.3-1.7c0.2-0.4,0.1-0.8-0.1-1.5
							c0.2-0.4,0.2-1.2,0.2-2.1C12.8,110.3,12.8,110,12.8,109.7z"/>
						<path class="st18" d="M13,111l0.9-0.2l1.2-0.2l0.3-0.1l-0.3,1.2l-0.5,1.6l0,2.1l0.3,1.4c0.1,0.8-0.4,1.2-0.8,1.1
							c-0.2,0-0.3-0.1-0.4-0.3l-0.7-2l-0.2-2.3C13,113.3,12.9,111.2,13,111z"/>
						<path class="st21" d="M13.9,110.5l1.3,0.1v0.1l0,1.1l-0.5,1.6l0,2.1l0.3,1.4c0.1,0.8-0.4,1.2-0.8,1.1c0.1-0.4,0-1.4-0.3-2.1
							c0.2-0.5,0.1-0.9-0.1-1.7c0.3-0.6,0.2-1.8,0.2-3.2C13.9,110.7,13.9,110.6,13.9,110.5z"/>
						<path class="st18" d="M14.1,112.6l1.2-0.2l1.1-0.2l0.2,0l0,0.1l-0.8,2.7l0,2.1l0.3,1.5c0,0.4-0.1,0.7-0.2,0.9
							c-0.3,0.3-0.8,0.3-0.9-0.1l-0.7-2.1l-0.2-2.4C14.1,115,14,112.8,14.1,112.6z"/>
						<path class="st21" d="M15.3,111.6l1.1,0.6l0.2,0.1l-0.8,2.7l0,2.1l0.3,1.5c0,0.4-0.1,0.7-0.2,0.9c0-0.6-0.2-1.2-0.5-1.8
							c0.1-0.8,0-1.6-0.3-2.4c0.3-0.5,0.2-1.7,0.2-3C15.4,112.2,15.3,111.9,15.3,111.6z"/>
						<path class="st18" d="M14.7,101.4c0.3,1,1.7,1.7,3,1.7c0.7,0,1.3-0.2,1.9-0.6l-0.5,4.7c0.8,1.3,1.1,2.8,0.9,4.3l-0.4,0.3
							l-1.6,1.2l-0.3,0.1l-1.6,0.4c-1.3-0.5-2.9-1.2-3.7-2.7c0.6-2,1.2-3.8,2.1-5L14.7,101.4z"/>
						<path class="st18" d="M15.6,113.1l2-0.3l0.3-0.1l0.1,0l0.2,0l-0.2,0.7l-0.2,0.7l-0.4,1.4l0,2.1l0.3,1.5c0.1,0.7-0.2,1-0.6,1.1
							c-0.3,0.1-0.5,0-0.6-0.3l-0.7-2.1l-0.2-2.4C15.6,115.5,15.5,113.3,15.6,113.1z"/>
						<path class="st18" d="M19.5,111.4c0.2,0,0.3,0.1,0.5,0.2c-0.1,1.7-0.5,3.4-0.5,3.5l0.3,2.1c0,0.1,0,0.3,0,0.4
							c-0.1,0.4-0.4,0.5-0.7,0.4c-0.2-0.1-0.5-0.3-0.7-0.6c-0.3-0.5-0.5-1.7-0.6-2.3l-0.1-0.8l-0.1-0.6l0-0.4l-0.1-0.4l-0.1-0.9
							C18.1,111.2,18.8,111.1,19.5,111.4z"/>
						<path class="st21" d="M18,112.3c0,0.1,0,0.3,0,0.4c0,0.2,0,0.5,0,0.7c0,0.9,0.1,1.7,0.4,2.4c0.1,0.7,0.4,1.4,0.8,2
							c-0.2-0.1-0.5-0.3-0.7-0.6c-0.3-0.5-0.5-1.7-0.6-2.3l-0.1-0.8l-0.4,1.4l0,2.1l0.3,1.5c0.1,0.7-0.2,1-0.6,1.1
							c0.5-0.7,0.3-1.5-0.1-2.4c0.3-0.6,0.1-1.4-0.2-2.3c0.4-0.5,0.7-1.2,0.9-2c0.1-0.3,0.2-0.6,0.2-0.9
							C17.9,112.6,18,112.4,18,112.3z"/>
						<path class="st21" d="M19.6,102.6l-0.5,4.7c0.8,1.3,1.1,2.8,0.9,4.3c-0.1,1.7-0.5,3.4-0.5,3.5l0.3,2.1c0,0.1,0,0.3,0,0.4
							c-0.2-1.1-0.5-2.1-0.8-2.7c0.5-0.8,0.6-1.8,0.5-2.9c0-0.2,0-0.3-0.1-0.5c0.3-1.4-0.6-3.3-1.5-4c1-1.2,0.6-3-0.3-4.3
							C18.4,103.1,19.1,102.9,19.6,102.6z"/>
					</g>
					<path class="st18" d="M20.9,58.2c-4.5,3.7-6.2,15.1-8.2,23c-0.5,8.1,0.4,16.6,1.4,25.2c0,3,4.5,1.9,5.2-0.4
						c1.2-9.4,2.2-15.1,2-22.1c4-4.3,4.1-8.9,6.5-15.6C28.9,61.7,25.5,56.1,20.9,58.2z"/>
					<path class="st3" d="M28,68.2c1.7-6.5-0.7-14.8-7.1-10.2c-2.8,2.3-5.2,8.9-6.6,14.5c0,2.1,8.3,5.5,11.2,4.4
						C26.4,74.5,27.4,70.9,28,68.2z"/>
				</g>
			</g>
			<polygon class="st5" points="85.1,172.7 86.1,173.3 97.7,180.1 115.2,170 112.4,168.4 122.9,163.7 118.1,161.9 103.5,163.2 
				102.5,162.6 			"/>
			<g>
				<g>
					<g>
						<g>
							<path class="st24" d="M122.9,163.7l-14.9,4.9c-0.6,0.2-1.4,0-1.9-0.4l-7.5-6.7c-0.5-0.4-0.4-0.9,0.2-1.1l14.9-4.9
								c0.6-0.2,1.4,0,1.9,0.4l7.5,6.7C123.6,163,123.5,163.5,122.9,163.7z"/>
							<path class="st25" d="M123,163.5l-14.9,4.9c-0.6,0.2-1.4,0-1.9-0.4l-7.5-6.7c-0.5-0.4-0.4-0.9,0.2-1.1l14.9-4.9
								c0.6-0.2,1.4,0,1.9,0.4l7.5,6.7C123.6,162.8,123.5,163.3,123,163.5z"/>
							<g>
								<g>
									<g>
										<path class="st3" d="M111.1,157l1.3-0.4c0.1,0,0.2,0,0.3,0.1c0.2,0.2,0.4,0.6,0.3,0.9c0,0.1-0.1,0.2-0.2,0.3l-1.3,0.4
											c-0.4,0.1-0.7-0.1-0.9-0.4C110.6,157.5,110.8,157.1,111.1,157z"/>
										<path class="st26" d="M112.7,156.6c0.2,0.2,0.4,0.6,0.3,0.9c0,0.1-0.1,0.2-0.2,0.3l1.1-0.3l0.6-0.2
											c0.4-0.1,0.5-0.5,0.4-0.8c-0.1-0.4-0.5-0.6-0.8-0.4l-0.6,0.2l-1.1,0.3C112.5,156.5,112.6,156.5,112.7,156.6z"/>
									</g>
									<g>
										<path class="st3" d="M113.2,158.8l1.3-0.4c0.1,0,0.2,0,0.3,0.1c0.2,0.2,0.4,0.6,0.3,0.9c0,0.1-0.1,0.2-0.2,0.3l-1.3,0.4
											c-0.4,0.1-0.7-0.1-0.9-0.4C112.6,159.3,112.8,158.9,113.2,158.8z"/>
										<path class="st26" d="M114.8,158.5c0.2,0.2,0.4,0.6,0.3,0.9c0,0.1-0.1,0.2-0.2,0.3l1.1-0.3l0.6-0.2
											c0.4-0.1,0.5-0.5,0.4-0.8c-0.1-0.4-0.5-0.6-0.8-0.4l-0.6,0.2l-1.1,0.3C114.6,158.4,114.7,158.4,114.8,158.5z"/>
									</g>
									<g>
										<path class="st3" d="M115.3,160.7l1.3-0.4c0.1,0,0.2,0,0.3,0.1c0.2,0.2,0.4,0.6,0.3,0.9c0,0.1-0.1,0.2-0.2,0.3l-1.3,0.4
											c-0.4,0.1-0.7-0.1-0.9-0.4C114.7,161.2,114.9,160.8,115.3,160.7z"/>
										<path class="st26" d="M116.9,160.4c0.2,0.2,0.4,0.6,0.3,0.9c0,0.1-0.1,0.2-0.2,0.3l1.1-0.3l0.6-0.2
											c0.4-0.1,0.5-0.5,0.4-0.8c-0.1-0.4-0.5-0.6-0.8-0.4l-0.6,0.2l-1.1,0.3C116.6,160.2,116.8,160.3,116.9,160.4z"/>
									</g>
									<g>
										<path class="st3" d="M117.3,162.6l1.3-0.4c0.1,0,0.2,0,0.3,0.1c0.2,0.2,0.4,0.6,0.3,0.9c0,0.1-0.1,0.2-0.2,0.3l-1.3,0.4
											c-0.4,0.1-0.7-0.1-0.9-0.4C116.8,163.1,117,162.7,117.3,162.6z"/>
										<path class="st26" d="M118.9,162.2c0.2,0.2,0.4,0.6,0.3,0.9c0,0.1-0.1,0.2-0.2,0.3l1.1-0.3l0.6-0.2
											c0.4-0.1,0.5-0.5,0.4-0.8c-0.1-0.4-0.5-0.6-0.8-0.4l-0.6,0.2l-1.1,0.3C118.7,162.1,118.8,162.1,118.9,162.2z"/>
									</g>
								</g>
								<g>
									<g>
										<path class="st3" d="M106.2,158.6l1.3-0.4c0.1,0,0.2,0,0.3,0.1c0.2,0.2,0.4,0.6,0.3,0.9c0,0.1-0.1,0.2-0.2,0.3l-1.3,0.4
											c-0.4,0.1-0.7-0.1-0.9-0.4C105.7,159.1,105.9,158.7,106.2,158.6z"/>
										<path class="st26" d="M107.8,158.3c0.2,0.2,0.4,0.6,0.3,0.9c0,0.1-0.1,0.2-0.2,0.3l1.1-0.3l0.6-0.2
											c0.4-0.1,0.5-0.5,0.4-0.8c-0.1-0.4-0.5-0.6-0.8-0.4l-0.6,0.2l-1.1,0.3C107.6,158.1,107.7,158.2,107.8,158.3z"/>
									</g>
									<g>
										<path class="st3" d="M108.3,160.5l1.3-0.4c0.1,0,0.2,0,0.3,0.1c0.2,0.2,0.4,0.6,0.3,0.9c0,0.1-0.1,0.2-0.2,0.3l-1.3,0.4
											c-0.4,0.1-0.7-0.1-0.9-0.4C107.7,160.9,107.9,160.6,108.3,160.5z"/>
										<path class="st26" d="M109.9,160.1c0.2,0.2,0.4,0.6,0.3,0.9c0,0.1-0.1,0.2-0.2,0.3l1.1-0.3l0.6-0.2
											c0.4-0.1,0.5-0.5,0.4-0.8c-0.1-0.4-0.5-0.6-0.8-0.4l-0.6,0.2l-1.1,0.3C109.7,160,109.8,160,109.9,160.1z"/>
									</g>
									<g>
										<path class="st3" d="M110.4,162.3l1.3-0.4c0.1,0,0.2,0,0.3,0.1c0.2,0.2,0.4,0.6,0.3,0.9c0,0.1-0.1,0.2-0.2,0.3l-1.3,0.4
											c-0.4,0.1-0.7-0.1-0.9-0.4C109.8,162.8,110,162.4,110.4,162.3z"/>
										<path class="st26" d="M112,162c0.2,0.2,0.4,0.6,0.3,0.9c0,0.1-0.1,0.2-0.2,0.3l1.1-0.3l0.6-0.2c0.4-0.1,0.5-0.5,0.4-0.8
											c-0.1-0.4-0.5-0.6-0.8-0.4l-0.6,0.2l-1.1,0.3C111.8,161.9,111.9,161.9,112,162z"/>
									</g>
									<g>
										<path class="st3" d="M112.4,164.2l1.3-0.4c0.1,0,0.2,0,0.3,0.1c0.2,0.2,0.4,0.6,0.3,0.9c0,0.1-0.1,0.2-0.2,0.3l-1.3,0.4
											c-0.4,0.1-0.7-0.1-0.9-0.4C111.9,164.7,112.1,164.3,112.4,164.2z"/>
										<path class="st26" d="M114.1,163.9c0.2,0.2,0.4,0.6,0.3,0.9c0,0.1-0.1,0.2-0.2,0.3l1.1-0.3l0.6-0.2
											c0.4-0.1,0.5-0.5,0.4-0.8c-0.1-0.4-0.5-0.6-0.8-0.4l-0.6,0.2l-1.1,0.3C113.8,163.7,113.9,163.8,114.1,163.9z"/>
									</g>
								</g>
								<g>
									<g>
										<path class="st3" d="M101.3,160.2l1.3-0.4c0.1,0,0.2,0,0.3,0.1c0.2,0.2,0.4,0.6,0.3,0.9c0,0.1-0.1,0.2-0.2,0.3l-1.3,0.4
											c-0.4,0.1-0.7-0.1-0.9-0.4C100.8,160.7,101,160.3,101.3,160.2z"/>
										<path class="st26" d="M102.9,159.9c0.2,0.2,0.4,0.6,0.3,0.9c0,0.1-0.1,0.2-0.2,0.3l1.1-0.3l0.6-0.2
											c0.4-0.1,0.5-0.5,0.4-0.8c-0.1-0.4-0.5-0.6-0.8-0.4l-0.6,0.2l-1.1,0.3C102.7,159.7,102.8,159.8,102.9,159.9z"/>
									</g>
									<g>
										<path class="st3" d="M103.4,162.1l1.3-0.4c0.1,0,0.2,0,0.3,0.1c0.2,0.2,0.4,0.6,0.3,0.9c0,0.1-0.1,0.2-0.2,0.3l-1.3,0.4
											c-0.4,0.1-0.7-0.1-0.9-0.4C102.9,162.6,103,162.2,103.4,162.1z"/>
										<path class="st26" d="M105,161.7c0.2,0.2,0.4,0.6,0.3,0.9c0,0.1-0.1,0.2-0.2,0.3l1.1-0.3l0.6-0.2c0.4-0.1,0.5-0.5,0.4-0.8
											c-0.1-0.4-0.5-0.6-0.8-0.4l-0.6,0.2l-1.1,0.3C104.8,161.6,104.9,161.6,105,161.7z"/>
									</g>
									<g>
										<path class="st3" d="M105.5,163.9l1.3-0.4c0.1,0,0.2,0,0.3,0.1c0.2,0.2,0.4,0.6,0.3,0.9c0,0.1-0.1,0.2-0.2,0.3l-1.3,0.4
											c-0.4,0.1-0.7-0.1-0.9-0.4C104.9,164.4,105.1,164.1,105.5,163.9z"/>
										<path class="st26" d="M107.1,163.6c0.2,0.2,0.4,0.6,0.3,0.9c0,0.1-0.1,0.2-0.2,0.3l1.1-0.3l0.6-0.2
											c0.4-0.1,0.5-0.5,0.4-0.8c-0.1-0.4-0.5-0.6-0.8-0.4l-0.6,0.2l-1.1,0.3C106.9,163.5,107,163.5,107.1,163.6z"/>
									</g>
									<g>
										<path class="st3" d="M107.5,165.8l1.3-0.4c0.1,0,0.2,0,0.3,0.1c0.2,0.2,0.4,0.6,0.3,0.9c0,0.1-0.1,0.2-0.2,0.3l-1.3,0.4
											c-0.4,0.1-0.7-0.1-0.9-0.4C107,166.3,107.2,165.9,107.5,165.8z"/>
										<path class="st26" d="M109.2,165.5c0.2,0.2,0.4,0.6,0.3,0.9c0,0.1-0.1,0.2-0.2,0.3l1.1-0.3l0.6-0.2
											c0.4-0.1,0.5-0.5,0.4-0.8c-0.1-0.4-0.5-0.6-0.8-0.4l-0.6,0.2l-1.1,0.3C108.9,165.3,109.1,165.4,109.2,165.5z"/>
									</g>
								</g>
							</g>
						</g>
						<g>
							<path class="st9" d="M120.8,158.6l-13.6,7.8c-0.5,0.3-1.4,0.3-1.9,0l-8.7-5c-0.5-0.3-0.5-0.8,0-1.1l13.6-7.8
								c0.5-0.3,1.4-0.3,1.9,0l8.7,5C121.3,157.8,121.3,158.3,120.8,158.6z"/>
							<path class="st27" d="M120.8,158.3l-13.6,7.8c-0.5,0.3-1.4,0.3-1.9,0l-8.7-5c-0.5-0.3-0.5-0.8,0-1.1l13.6-7.8
								c0.5-0.3,1.4-0.3,1.9,0l8.7,5C121.3,157.5,121.3,158,120.8,158.3z"/>
							<g>
								<g>
									<g>
										<path class="st3" d="M107.9,154.4l1.2-0.7c0.1,0,0.2,0,0.3,0c0.3,0.2,0.5,0.5,0.5,0.8c0,0.1-0.1,0.3-0.1,0.3l-1.2,0.7
											c-0.3,0.2-0.7,0.1-0.9-0.2C107.4,155,107.6,154.6,107.9,154.4z"/>
										<path class="st28" d="M109.4,153.7c0.3,0.2,0.5,0.5,0.5,0.8c0,0.1-0.1,0.3-0.1,0.3l1-0.6l0.5-0.3c0.3-0.2,0.4-0.6,0.3-0.9
											c-0.2-0.3-0.6-0.4-0.9-0.3l-0.5,0.3l-1,0.6C109.1,153.7,109.3,153.7,109.4,153.7z"/>
									</g>
									<g>
										<path class="st3" d="M110.3,155.8l1.2-0.7c0.1,0,0.2,0,0.3,0c0.3,0.2,0.5,0.5,0.5,0.8c0,0.1-0.1,0.3-0.1,0.3L111,157
											c-0.3,0.2-0.7,0.1-0.9-0.2C109.9,156.4,110,156,110.3,155.8z"/>
										<path class="st28" d="M111.8,155.1c0.3,0.2,0.5,0.5,0.5,0.8c0,0.1-0.1,0.3-0.1,0.3l1-0.6l0.5-0.3c0.3-0.2,0.4-0.6,0.3-0.9
											c-0.2-0.3-0.6-0.4-0.9-0.3l-0.5,0.3l-1,0.6C111.6,155.1,111.7,155.1,111.8,155.1z"/>
									</g>
									<g>
										<path class="st3" d="M112.7,157.2l1.2-0.7c0.1,0,0.2,0,0.3,0c0.3,0.2,0.5,0.5,0.5,0.8c0,0.1-0.1,0.3-0.1,0.3l-1.2,0.7
											c-0.3,0.2-0.7,0.1-0.9-0.2C112.3,157.8,112.4,157.4,112.7,157.2z"/>
										<path class="st28" d="M114.2,156.6c0.3,0.2,0.5,0.5,0.5,0.8c0,0.1-0.1,0.3-0.1,0.3l1-0.6l0.5-0.3c0.3-0.2,0.4-0.6,0.3-0.9
											c-0.2-0.3-0.6-0.4-0.9-0.3l-0.5,0.3l-1,0.6C114,156.5,114.1,156.5,114.2,156.6z"/>
									</g>
									<g>
										<path class="st3" d="M115.1,158.6l1.2-0.7c0.1,0,0.2,0,0.3,0c0.3,0.2,0.5,0.5,0.5,0.8c0,0.1,0,0.3-0.1,0.3l-1.2,0.7
											c-0.3,0.2-0.7,0.1-0.9-0.2C114.7,159.2,114.8,158.8,115.1,158.6z"/>
										<path class="st28" d="M116.6,158c0.3,0.2,0.5,0.5,0.5,0.8c0,0.1,0,0.3-0.1,0.3l1-0.6l0.5-0.3c0.3-0.2,0.4-0.6,0.3-0.9
											c-0.2-0.3-0.6-0.4-0.9-0.3l-0.5,0.3l-1,0.6C116.4,157.9,116.5,157.9,116.6,158z"/>
									</g>
								</g>
								<g>
									<g>
										<path class="st3" d="M103.4,157l1.2-0.7c0.1,0,0.2,0,0.3,0c0.3,0.2,0.5,0.5,0.5,0.8c0,0.1-0.1,0.3-0.1,0.3l-1.2,0.7
											c-0.3,0.2-0.7,0.1-0.9-0.2C103,157.6,103.1,157.2,103.4,157z"/>
										<path class="st28" d="M104.9,156.3c0.3,0.2,0.5,0.5,0.5,0.8c0,0.1-0.1,0.3-0.1,0.3l1-0.6l0.5-0.3c0.3-0.2,0.4-0.6,0.3-0.9
											c-0.2-0.3-0.6-0.4-0.9-0.3l-0.5,0.3l-1,0.6C104.7,156.2,104.8,156.2,104.9,156.3z"/>
									</g>
									<g>
										<path class="st3" d="M105.8,158.4l1.2-0.7c0.1,0,0.2,0,0.3,0c0.3,0.2,0.5,0.5,0.5,0.8c0,0.1-0.1,0.3-0.1,0.3l-1.2,0.7
											c-0.3,0.2-0.7,0.1-0.9-0.2C105.4,159,105.5,158.6,105.8,158.4z"/>
										<path class="st28" d="M107.3,157.7c0.3,0.2,0.5,0.5,0.5,0.8c0,0.1-0.1,0.3-0.1,0.3l1-0.6l0.5-0.3c0.3-0.2,0.4-0.6,0.3-0.9
											c-0.2-0.3-0.6-0.4-0.9-0.3l-0.5,0.3l-1,0.6C107.1,157.6,107.2,157.7,107.3,157.7z"/>
									</g>
									<g>
										<path class="st3" d="M108.2,159.8l1.2-0.7c0.1,0,0.2,0,0.3,0c0.3,0.2,0.5,0.5,0.5,0.8c0,0.1-0.1,0.3-0.1,0.3l-1.2,0.7
											c-0.3,0.2-0.7,0.1-0.9-0.2C107.8,160.4,107.9,160,108.2,159.8z"/>
										<path class="st28" d="M109.8,159.1c0.3,0.2,0.5,0.5,0.5,0.8c0,0.1-0.1,0.3-0.1,0.3l1-0.6l0.5-0.3c0.3-0.2,0.4-0.6,0.3-0.9
											c-0.2-0.3-0.6-0.4-0.9-0.3l-0.5,0.3l-1,0.6C109.5,159.1,109.6,159.1,109.8,159.1z"/>
									</g>
									<g>
										<path class="st3" d="M110.6,161.2l1.2-0.7c0.1,0,0.2,0,0.3,0c0.3,0.2,0.5,0.5,0.5,0.8c0,0.1-0.1,0.3-0.1,0.3l-1.2,0.7
											c-0.3,0.2-0.7,0.1-0.9-0.2C110.2,161.8,110.3,161.4,110.6,161.2z"/>
										<path class="st28" d="M112.2,160.5c0.3,0.2,0.5,0.5,0.5,0.8c0,0.1-0.1,0.3-0.1,0.3l1-0.6l0.5-0.3c0.3-0.2,0.4-0.6,0.3-0.9
											c-0.2-0.3-0.6-0.4-0.9-0.3l-0.5,0.3l-1,0.6C111.9,160.5,112,160.5,112.2,160.5z"/>
									</g>
								</g>
								<g>
									<g>
										<path class="st3" d="M99,159.6l1.2-0.7c0.1,0,0.2,0,0.3,0c0.3,0.2,0.5,0.5,0.5,0.8c0,0.1,0,0.3-0.1,0.3l-1.2,0.7
											c-0.3,0.2-0.7,0.1-0.9-0.2C98.5,160.2,98.6,159.7,99,159.6z"/>
										<path class="st28" d="M100.5,158.9c0.3,0.2,0.5,0.5,0.5,0.8c0,0.1,0,0.3-0.1,0.3l1-0.6l0.5-0.3c0.3-0.2,0.4-0.6,0.3-0.9
											c-0.2-0.3-0.6-0.4-0.9-0.3l-0.5,0.3l-1,0.6C100.2,158.8,100.3,158.8,100.5,158.9z"/>
									</g>
									<g>
										<path class="st3" d="M101.4,161l1.2-0.7c0.1,0,0.2,0,0.3,0c0.3,0.2,0.5,0.5,0.5,0.8c0,0.1-0.1,0.3-0.1,0.3l-1.2,0.7
											c-0.3,0.2-0.7,0.1-0.9-0.2C100.9,161.6,101,161.1,101.4,161z"/>
										<path class="st28" d="M102.9,160.3c0.3,0.2,0.5,0.5,0.5,0.8c0,0.1-0.1,0.3-0.1,0.3l1-0.6l0.5-0.3c0.3-0.2,0.4-0.6,0.3-0.9
											c-0.2-0.3-0.6-0.4-0.9-0.3l-0.5,0.3l-1,0.6C102.6,160.2,102.8,160.2,102.9,160.3z"/>
									</g>
									<g>
										<path class="st3" d="M103.8,162.4l1.2-0.7c0.1,0,0.2,0,0.3,0c0.3,0.2,0.5,0.5,0.5,0.8c0,0.1-0.1,0.3-0.1,0.3l-1.2,0.7
											c-0.3,0.2-0.7,0.1-0.9-0.2C103.3,163,103.5,162.6,103.8,162.4z"/>
										<path class="st28" d="M105.3,161.7c0.3,0.2,0.5,0.5,0.5,0.8c0,0.1-0.1,0.3-0.1,0.3l1-0.6l0.5-0.3c0.3-0.2,0.4-0.6,0.3-0.9
											c-0.2-0.3-0.6-0.4-0.9-0.3l-0.5,0.3l-1,0.6C105,161.6,105.2,161.6,105.3,161.7z"/>
									</g>
									<g>
										<path class="st3" d="M106.2,163.8l1.2-0.7c0.1,0,0.2,0,0.3,0c0.3,0.2,0.5,0.5,0.5,0.8c0,0.1-0.1,0.3-0.1,0.3l-1.2,0.7
											c-0.3,0.2-0.7,0.1-0.9-0.2C105.8,164.4,105.9,164,106.2,163.8z"/>
										<path class="st28" d="M107.7,163.1c0.3,0.2,0.5,0.5,0.5,0.8c0,0.1-0.1,0.3-0.1,0.3l1-0.6l0.5-0.3c0.3-0.2,0.4-0.6,0.3-0.9
											c-0.2-0.3-0.6-0.4-0.9-0.3l-0.5,0.3l-1,0.6C107.5,163,107.6,163,107.7,163.1z"/>
									</g>
								</g>
							</g>
						</g>
					</g>
					<g>
						<polygon class="st12" points="98.3,178.4 111.9,170.5 111.9,152.2 98.3,160.1 						"/>
						<g>
							<polygon class="st29" points="98.3,178.4 111.9,170.5 111.9,159.5 98.3,167.4 							"/>
							<polygon class="st10" points="88.4,154.4 88.4,172.7 98.3,178.4 98.3,160.1 89.2,154.8 							"/>
							<polygon class="st30" points="88.4,154.4 89.2,154.8 98.3,160.1 111.9,152.2 102.8,146.9 102,146.5 							"/>
						</g>
						<polygon class="st29" points="98.3,166 111.9,158.1 111.9,152.2 98.3,160.1 						"/>
						<polygon class="st31" points="88.4,161.7 88.4,172.7 98.3,178.4 98.3,167.4 						"/>
						<polygon class="st31" points="88.4,154.4 88.4,160.3 98.3,166 98.3,160.1 						"/>
						<g>
							<polygon class="st3" points="104.5,167.5 111,163.8 111,163.1 104.5,166.9 							"/>
							<polygon class="st3" points="106.4,167.6 111,164.9 111,164.3 106.4,166.9 							"/>
							<polygon class="st3" points="105.7,169.2 111,166.1 111,165.5 105.7,168.5 							"/>
							<polygon class="st3" points="107,169.6 111,167.3 111,166.6 107,169 							"/>
							<polygon class="st3" points="106,171.4 111,168.5 111,167.8 106,170.7 							"/>
						</g>
						<g>
							<polygon class="st3" points="96.6,169.9 96.6,170.6 89.7,166.7 89.7,166 							"/>
							<polygon class="st3" points="96.6,171.1 96.6,171.8 89.7,167.8 89.7,167.2 							"/>
							<polygon class="st3" points="96.6,172.3 96.6,172.9 89.7,169 89.7,168.4 							"/>
							<polygon class="st3" points="96.6,174.1 89.7,170.2 89.7,169.6 96.6,173.5 							"/>
							<polygon class="st3" points="96.6,174.6 96.6,175.3 89.7,171.4 89.7,170.7 							"/>
						</g>
						<path class="st12" d="M99.4,173.3c0,1.5,1,2,2.3,1.3c1.3-0.7,2.3-2.5,2.3-4c0-1.5-1-2-2.3-1.3
							C100.4,170.1,99.4,171.9,99.4,173.3z"/>
					</g>
					<g>
						<path class="st3" d="M101.6,160.3c0-0.2,0.1-0.4,0.2-0.5c0.1-0.2,0.2-0.3,0.4-0.4l0.7-0.4c0.2-0.1,0.3-0.1,0.4,0
							c0.1,0.1,0.2,0.2,0.2,0.4l0,2.7l-0.7,0.4v-1l-0.4,0.2v1l-0.7,0.4V160.3z M102.6,159.7l-0.4,0.2v1l0.4-0.2V159.7z"/>
						<path class="st3" d="M106.5,158.2c0.1,0,0.1,0.1,0.1,0.2v1c0,0.2-0.1,0.4-0.2,0.5c-0.1,0.2-0.2,0.3-0.4,0.4l-1.3,0.7v-3.4
							l1.3-0.7c0.2-0.1,0.3-0.1,0.4,0c0.1,0.1,0.2,0.2,0.2,0.4v0.3c0,0.1,0,0.2-0.1,0.4C106.5,158.1,106.5,158.1,106.5,158.2
							C106.5,158.2,106.5,158.2,106.5,158.2z M105.9,157.8l-0.4,0.2v0.6l0.4-0.2V157.8z M105.9,159.1l-0.4,0.2v0.8l0.4-0.2V159.1z"
							/>
						<path class="st3" d="M108.1,156.5c0-0.2,0.1-0.4,0.2-0.5c0.1-0.2,0.2-0.3,0.4-0.4l0.7-0.4c0.2-0.1,0.3-0.1,0.4,0
							c0.1,0.1,0.2,0.2,0.2,0.4v0.6l-0.7,0.4v-0.6l-0.4,0.2v2.1l0.4-0.2v-0.6l0.7-0.4v0.6c0,0.2-0.1,0.4-0.2,0.5
							c-0.1,0.2-0.2,0.3-0.4,0.4l-0.7,0.4c-0.2,0.1-0.3,0.1-0.4,0c-0.1-0.1-0.2-0.2-0.2-0.4V156.5z"/>
					</g>
				</g>
			</g>
		</g>
		<g>
			<g>
				<path class="st3" d="M88.5,44l0,30.3c-0.1,1.7,0.9,3.4,3.2,4.8c4.3,2.5,11.2,2.5,15.5,0c2.1-1.2,3.2-2.9,3.2-4.5l0-30.5L88.5,44
					z"/>
				<path class="st3" d="M107.1,39.5c4.3,2.5,4.3,6.5,0,8.9c-4.3,2.5-11.2,2.5-15.5,0c-4.3-2.5-4.3-6.5,0-8.9c0.7-0.4,1.4-0.7,2.2-1
					C98,37.1,103.5,37.4,107.1,39.5z"/>
				<path class="st29" d="M107.2,52.5c-4.3,2.5-11.2,2.5-15.5,0c-2.1-1.2-3.1-2.8-3.2-4.3l0,21.8c-0.1,1.7,0.9,3.4,3.2,4.8
					c4.3,2.5,11.2,2.5,15.5,0c2.1-1.2,3.2-2.9,3.2-4.5l0-22.3C110.4,49.7,109.3,51.3,107.2,52.5z"/>
				<path class="st32" d="M107.2,54.6c-4.3,2.5-11.2,2.5-15.5,0c-2.1-1.2-3.1-2.8-3.2-4.3l0,17.7c-0.1,1.7,0.9,3.4,3.2,4.8
					c4.3,2.5,11.2,2.5,15.5,0c2.1-1.2,3.2-2.9,3.2-4.5l0-18.1C110.4,51.8,109.3,53.4,107.2,54.6z"/>
				<path class="st29" d="M99.4,73.1c-2.7,0-5.2-0.6-7-1.6c-1.7-1-2.6-2.2-2.5-3.4l0-0.1l0-12.7c0.3,0.2,0.6,0.4,1,0.6
					c2.3,1.3,5.3,2,8.5,2c3.2,0,6.2-0.7,8.5-2.1c0.4-0.2,0.7-0.4,1-0.6l0,13c0,1.1-0.9,2.3-2.5,3.2C104.6,72.5,102.1,73.1,99.4,73.1
					z"/>
				<path class="st32" d="M93.8,67.8c-0.1,0.5-0.2,1-0.4,1.5c1.7,1,3.9,1.6,6.1,1.6c2.2,0,4.3-0.6,6-1.5c-0.1-0.5-0.2-1-0.4-1.5
					C102,69.9,96.9,69.9,93.8,67.8z"/>
				<path class="st3" d="M103,63c0,2.3-1.6,4.2-3.6,4.2c-2,0-3.6-1.9-3.6-4.2c0-2.3,1.6-4.2,3.6-4.2C101.4,58.8,103,60.7,103,63z"/>
				<path class="st3" d="M99.4,25.7L95,24.2c-0.5,8-6.6,7.1-6.6,19.8h21.9c0-12.6-6-11.8-6.6-19.8L99.4,25.7z"/>
				<g>
					<path class="st10" d="M94.5,20.2l0,3.4c-0.1,0.8,0.4,1.5,1.4,2.1c1.9,1.1,5,1.1,6.9,0c1-0.6,1.4-1.3,1.4-2l0-3.6L94.5,20.2z"/>
					<path class="st12" d="M102.8,18.2c1.9,1.1,1.9,2.9,0,4c-1.9,1.1-5,1.1-6.9,0c-1.9-1.1-1.9-2.9,0-4
						C97.8,17.1,100.9,17.1,102.8,18.2z"/>
				</g>
			</g>
		</g>
		<g>
			<g>
				<g>
					<g>
						<path class="st3" d="M190.4,68c1.1,0.6,1.1,1.7,0,2.3l-17.5,10.2c-1.1,0.6-2.9,0.6-4,0l-39.8-23c-1.1-0.6-1.1-1.7,0-2.3
							L146.6,45c1.1-0.6,2.9-0.6,4,0L190.4,68z"/>
					</g>
					<path class="st9" d="M191.6,73.2c-0.1-1.4-0.3-2.8-0.4-4.1c0,0.4-0.2,0.9-0.8,1.2l-17.5,10.2c-1.1,0.6-2.9,0.6-4,0l-39.8-23
						c-0.6-0.3-0.9-0.8-0.8-1.3c-0.3,2.5-0.5,5-0.8,7.5c-0.1,0.6,0.3,1.2,1.1,1.6l39.8,23c1.4,0.8,3.7,0.8,5.1,0l17.5-10.2
						c0.8-0.4,1.1-1,1-1.6C191.9,75.5,191.7,74.3,191.6,73.2z"/>
				</g>
				<g>
					<path class="st13" d="M141.7,52.9c0,4.1-2.5,6.1-5.6,6.1c-3.1,0-5.6-1.9-5.6-6.1s2.5-8.8,5.6-8.8
						C139.2,44,141.7,48.8,141.7,52.9z"/>
					<path class="st33" d="M140.4,47.5c0.5,1.3,0.8,2.8,0.8,4.2c0,4.1-2.5,6.1-5.6,6.1c-2,0-3.7-0.8-4.7-2.5
						c0.8,2.5,2.8,3.7,5.3,3.7c3.1,0,5.6-1.9,5.6-6.1C141.7,51,141.2,49.1,140.4,47.5z"/>
					<path class="st3" d="M133.3,47.6c0.7,0.3,1-0.6,1.4-1c0.4-0.4,0.6-1.2,0.2-1.4C133.9,44.9,132.3,47.2,133.3,47.6z"/>
				</g>
				<g>
					<path class="st27" d="M152.4,46.3c0,4.1-2.5,6.1-5.6,6.1c-3.1,0-5.6-1.9-5.6-6.1c0-4.1,2.5-8.8,5.6-8.8
						C149.9,37.4,152.4,42.1,152.4,46.3z"/>
					<path class="st33" d="M151.1,40.9c0.5,1.3,0.8,2.8,0.8,4.2c0,4.1-2.5,6.1-5.6,6.1c-2,0-3.7-0.8-4.7-2.5
						c0.8,2.5,2.8,3.7,5.3,3.7c3.1,0,5.6-1.9,5.6-6.1C152.4,44.4,151.9,42.5,151.1,40.9z"/>
					<path class="st3" d="M144,41c0.7,0.3,1-0.6,1.4-1c0.4-0.4,0.6-1.2,0.2-1.4C144.5,38.3,143,40.6,144,41z"/>
				</g>
				<g>
					<path class="st27" d="M161,51.3c0,4.1-2.5,6.1-5.6,6.1c-3.1,0-5.6-1.9-5.6-6.1c0-4.1,2.5-8.8,5.6-8.8
						C158.5,42.5,161,47.2,161,51.3z"/>
					<path class="st33" d="M159.6,45.9c0.5,1.3,0.8,2.8,0.8,4.2c0,4.1-2.5,6.1-5.6,6.1c-2,0-3.7-0.8-4.7-2.5
						c0.8,2.5,2.8,3.7,5.3,3.7c3.1,0,5.6-1.9,5.6-6.1C161,49.5,160.5,47.5,159.6,45.9z"/>
					<path class="st3" d="M152.6,46c0.7,0.3,1-0.6,1.4-1c0.4-0.4,0.6-1.2,0.2-1.4C153.1,43.3,151.6,45.6,152.6,46z"/>
				</g>
				<g>
					<path class="st27" d="M169.5,56.3c0,4.1-2.5,6.1-5.6,6.1c-3.1,0-5.6-1.9-5.6-6.1c0-4.1,2.5-8.8,5.6-8.8
						C167,47.5,169.5,52.2,169.5,56.3z"/>
					<path class="st33" d="M168.2,50.9c0.5,1.3,0.8,2.8,0.8,4.2c0,4.1-2.5,6.1-5.6,6.1c-2,0-3.7-0.8-4.7-2.5
						c0.8,2.5,2.8,3.7,5.3,3.7c3.1,0,5.6-1.9,5.6-6.1C169.5,54.5,169,52.5,168.2,50.9z"/>
					<path class="st3" d="M161.2,51.1c0.7,0.3,1-0.6,1.4-1c0.4-0.4,0.6-1.2,0.2-1.4C161.7,48.4,160.1,50.7,161.2,51.1z"/>
				</g>
				<g>
					<path class="st27" d="M178.1,61.4c0,4.1-2.5,6.1-5.6,6.1c-3.1,0-5.6-1.9-5.6-6.1s2.5-8.8,5.6-8.8
						C175.6,52.5,178.1,57.3,178.1,61.4z"/>
					<path class="st33" d="M176.8,56c0.5,1.3,0.8,2.8,0.8,4.2c0,4.1-2.5,6.1-5.6,6.1c-2,0-3.7-0.8-4.7-2.5c0.8,2.5,2.8,3.7,5.3,3.7
						c3.1,0,5.6-1.9,5.6-6.1C178.1,59.5,177.6,57.6,176.8,56z"/>
					<path class="st3" d="M169.7,56.1c0.7,0.3,1-0.6,1.4-1c0.4-0.4,0.6-1.2,0.2-1.4C170.3,53.4,168.7,55.7,169.7,56.1z"/>
				</g>
				<g>
					<path class="st27" d="M186.7,66.4c0,4.1-2.5,6.1-5.6,6.1s-5.6-1.9-5.6-6.1c0-4.1,2.5-8.8,5.6-8.8S186.7,62.3,186.7,66.4z"/>
					<path class="st33" d="M185.4,61c0.5,1.3,0.8,2.8,0.8,4.2c0,4.1-2.5,6.1-5.6,6.1c-2,0-3.7-0.8-4.7-2.5c0.8,2.5,2.8,3.7,5.3,3.7
						c3.1,0,5.6-1.9,5.6-6.1C186.7,64.6,186.2,62.6,185.4,61z"/>
					<path class="st3" d="M178.3,61.1c0.7,0.3,1-0.6,1.4-1c0.4-0.4,0.6-1.2,0.2-1.4C178.8,58.4,177.3,60.7,178.3,61.1z"/>
				</g>
				<g>
					<path class="st13" d="M150.3,57.9c0,4.1-2.5,6.1-5.6,6.1c-3.1,0-5.6-1.9-5.6-6.1c0-4.1,2.5-8.8,5.6-8.8
						C147.8,49.1,150.3,53.8,150.3,57.9z"/>
					<path class="st33" d="M149,52.5c0.5,1.3,0.8,2.8,0.8,4.2c0,4.1-2.5,6.1-5.6,6.1c-2,0-3.7-0.8-4.7-2.5c0.8,2.5,2.8,3.7,5.3,3.7
						c3.1,0,5.6-1.9,5.6-6.1C150.3,56.1,149.8,54.1,149,52.5z"/>
					<path class="st3" d="M141.9,52.6c0.7,0.3,1-0.6,1.4-1c0.4-0.4,0.6-1.2,0.2-1.4C142.4,49.9,140.9,52.2,141.9,52.6z"/>
				</g>
				<g>
					<path class="st13" d="M158.9,63c0,4.1-2.5,6.1-5.6,6.1c-3.1,0-5.6-1.9-5.6-6.1s2.5-8.8,5.6-8.8C156.4,54.1,158.9,58.8,158.9,63
						z"/>
					<path class="st33" d="M157.5,57.6c0.5,1.3,0.8,2.8,0.8,4.2c0,4.1-2.5,6.1-5.6,6.1c-2,0-3.7-0.8-4.7-2.5
						c0.8,2.5,2.8,3.7,5.3,3.7c3.1,0,5.6-1.9,5.6-6.1C158.9,61.1,158.4,59.2,157.5,57.6z"/>
					<path class="st3" d="M150.5,57.7c0.7,0.3,1-0.6,1.4-1c0.4-0.4,0.6-1.2,0.2-1.4C151,55,149.5,57.3,150.5,57.7z"/>
				</g>
				<g>
					<path class="st13" d="M167.5,68c0,4.1-2.5,6.1-5.6,6.1c-3.1,0-5.6-1.9-5.6-6.1c0-4.1,2.5-8.8,5.6-8.8
						C164.9,59.2,167.5,63.9,167.5,68z"/>
					<path class="st33" d="M166.1,62.6c0.5,1.3,0.8,2.8,0.8,4.2c0,4.1-2.5,6.1-5.6,6.1c-2,0-3.7-0.8-4.7-2.5
						c0.8,2.5,2.8,3.7,5.3,3.7c3.1,0,5.6-1.9,5.6-6.1C167.5,66.2,166.9,64.2,166.1,62.6z"/>
					<path class="st3" d="M159.1,62.7c0.7,0.3,1-0.6,1.4-1c0.4-0.4,0.6-1.2,0.2-1.4C159.6,60,158.1,62.3,159.1,62.7z"/>
				</g>
				<g>
					<path class="st13" d="M176,73c0,4.1-2.5,6.1-5.6,6.1s-5.6-1.9-5.6-6.1c0-4.1,2.5-8.8,5.6-8.8S176,68.9,176,73z"/>
					<path class="st33" d="M174.7,67.6c0.5,1.3,0.8,2.8,0.8,4.2c0,4.1-2.5,6.1-5.6,6.1c-2,0-3.7-0.8-4.7-2.5
						c0.8,2.5,2.8,3.7,5.3,3.7c3.1,0,5.6-1.9,5.6-6.1C176,71.2,175.5,69.2,174.7,67.6z"/>
					<path class="st3" d="M167.6,67.8c0.7,0.3,1-0.6,1.4-1c0.4-0.4,0.6-1.2,0.2-1.4C168.2,65.1,166.6,67.4,167.6,67.8z"/>
				</g>
			</g>
		</g>
		<g>
			<g>
				<g>
					<g>
						<path class="st34" d="M192.2,98.5C192.2,98.5,192.2,98.6,192.2,98.5c0,0.1-1-0.4-1-0.4l-3.2-1.8c2.5-2.4,3.1-6,3.7-9h1.8
							l0.5,0.8c-1.5,3.4-2,7.2-1.9,9.8C192.2,98.1,192.2,98.3,192.2,98.5z"/>
						<path class="st35" d="M163.3,118.9c-6.8,0-11.9-2.8-15.1-6.7c0,0-0.1-0.1-0.1-0.2c-0.2-0.2-0.3-0.4-0.5-0.6l0.6-2.8
							c0.5,0.1,1,0.2,1.5,0.3c14.3,2.8,27.4-1.9,36.8-11.6c0.5-0.5,1.2-0.8,1.7-1c1.6-0.8,2.7-0.6,3.6,0.7c0.2,0.2,0.3,0.5,0.5,0.8
							c0,0,0,0,0,0.1c0,0.2,0,0.4,0,0.6c0,0,0,0.1,0,0.1C192.3,107.9,181.2,118.8,163.3,118.9z"/>
						<path class="st36" d="M150,109.6l-0.4,2l-1.4,0.5c-0.2-0.2-0.4-0.5-0.6-0.8l0.6-2.8c0.5,0.1,1,0.2,1.5,0.3L150,109.6z"/>
						<path class="st37" d="M148.9,110.1c5.3,5.9,14.4,6.5,21.6,4.5c4.8-1.4,9.3-3.3,13.2-6.6c3.5-2.9,5.8-6.9,8-10.9
							c-1.5,4.2-3.6,8-6.7,11.2c-3.8,4-8.9,6.1-14.1,7.6c-3.3,0.9-6.8,1.3-10.2,0.8C156.3,116,151.5,113.9,148.9,110.1z"/>
						<path class="st21" d="M192.2,98.6c0.1,9.3-11,20.2-28.9,20.3c-6.8,0-11.9-2.8-15.1-6.7c0,0-0.1-0.1-0.1-0.2l1.6-1.1
							c4.5,4.5,10.4,6.1,17.4,5.2c6.7-1.1,12.5-3.4,16.2-7.1c3.5-2.9,6.3-6.9,7.9-10.9c0.1-0.3,0.3-0.7,0.4-1c0,0,0.4-3.3,0.4-3.3
							l2-5.7c-1.5,3.4-2,7.2-1.9,9.8c0,0,0,0,0,0.1C192.2,98.1,192.2,98.3,192.2,98.6C192.2,98.5,192.2,98.6,192.2,98.6L192.2,98.6z
							"/>
					</g>
					<g>
						<path class="st38" d="M193.8,98.2c0,0,0,0.1,0,0.1c0,0-1.2-0.4-1.2-0.4l-3.8-1.2c2.1-3.1,2.9-6.2,2.9-9.5h1.8l0.5,0.8
							c-0.9,3.8-1.2,6.7-0.5,9.4C193.6,97.7,193.7,98,193.8,98.2z"/>
						<path class="st39" d="M167.6,125.4c-7.2,1.5-13.2-0.4-17.5-3.7c-0.1,0-0.1-0.1-0.2-0.1c-0.2-0.2-0.4-0.4-0.7-0.5v-3
							c0.5,0,1.1,0,1.6,0c15.7-0.1,30.5-10.2,36.4-19.8c0.6-0.6,1.1-1.1,1.5-1.4c1.5-1.2,2.7-1.1,4,0c0.2,0.2,0.5,0.5,0.7,0.7
							c0,0,0,0,0.1,0.1c0.1,0.2,0.1,0.4,0.2,0.6c0,0,0,0.1,0,0.1C195.9,107.9,186.5,121.5,167.6,125.4z"/>
						<path class="st36" d="M151.4,118.7v2.1l-1.3,0.9c-0.3-0.2-0.6-0.4-0.8-0.7v-3c0.5,0,1.1,0,1.6,0L151.4,118.7z"/>
						<path class="st37" d="M150.4,119.4c6.9,4.9,16.6,3.7,23.8,0c4.8-2.5,9.1-5.4,12.5-9.6c3.1-3.8,4.7-8.4,6.1-13
							c-0.7,4.7-2.1,9.1-4.7,13.1c-3.2,4.9-8.1,8.2-13.2,10.8c-3.3,1.6-6.9,2.8-10.6,3C159.6,124,154,122.7,150.4,119.4z"/>
						<path class="st21" d="M193.8,98.3c2.1,9.6-7.3,23.2-26.2,27.1c-7.2,1.5-13.2-0.4-17.5-3.7c-0.1,0-0.1-0.1-0.2-0.1l1.5-1.5
							c5.8,3.6,12.3,4.1,19.6,1.6c6.9-2.6,12.4-6.2,15.6-10.8c3.1-3.8,5.2-8.5,6-13c0.1-0.4,0.2-0.8,0.2-1.2c0,0-0.3-3.5-0.3-3.5
							l1.5-5.2c-0.9,3.8-1.2,6.7-0.5,9.4c0,0,0,0,0.1,0.1c0.1,0.2,0.1,0.4,0.2,0.6C193.8,98.2,193.8,98.2,193.8,98.3L193.8,98.3z"/>
					</g>
				</g>
				<g>
					<path class="st12" d="M192.7,116.2c0,7-5.7,11.5-12.7,11.5c-3.3,0-6.4-1.2-8.6-3.3c-2.5-2.3-4.1-5.5-4.1-9.2
						c0-7,4.6-11.4,12.7-9.1c1.1-0.4,2.1-0.7,3-0.9c5.8-1,9.2,2.8,9.6,9.5C192.7,115.1,192.7,115.7,192.7,116.2z"/>
					<path class="st22" d="M179.5,107.5c-0.6,1.2-2.3,1.4-4.5,1c2.1,0.4,4,1.8,5.9,3.5c-0.3-1.9,0.9-3.6,2.7-4.8
						C181.8,107.2,180.6,108.4,179.5,107.5z"/>
					<path class="st22" d="M192.6,114.6c-10.4-1.8-10.9-6.6-9.6-9.5C188.8,104.1,192.2,108,192.6,114.6z"/>
					<path class="st40" d="M183.7,102.2c-1.6,0.5-5.6,11,10.6,9.8c-1.5-1.7-2.1-2.8-3.5-5.6C189.6,104,186.2,101.4,183.7,102.2z"/>
					<path class="st41" d="M179.5,109.6c-0.8-4.2-0.3-8.7,2.3-11.8l0.8,1.1c0.5,5,9.5,12.2,9.3,12c-0.1-0.1-8.9-6.4-9.8-11.3
						c-1.8,3-2.5,6.3-2.2,10H179.5z"/>
					<path class="st3" d="M170,113.3c1.5,0.4,2.1-1.4,2.8-2.4c0.7-0.9,1.1-2.8,0.1-3C170.6,107.3,167.8,112.6,170,113.3z"/>
					<path class="st22" d="M192.7,116.2c0,7-5.7,11.5-12.7,11.5c-3.3,0-6.4-1.2-8.6-3.3C180.8,128.1,188.2,124.9,192.7,116.2z"/>
				</g>
			</g>
		</g>
		<g>
			<g>
				<g>
					<polygon class="st42" points="193.3,149.8 193,150 191,151.3 187.7,153.3 184.9,155.1 184.3,154.4 181.3,150.9 182.3,150.2 
						188.9,146.1 190.4,145.2 					"/>
					<path class="st41" d="M187.7,153.6c-0.7,0.9-2.1,2.9-3.3,4.9c-3.7,6.5-2.8,11.1-6.2,18.2c-2,3.4-4.7,6.9-9.1,8.7
						c-0.1,0-0.9,0.2-1,0.2c-6.9,0.7-13.4-1.3-17.9-5.3c-2.1-1.9-3.7-4.2-4.6-6.8c-1.9-5.4-2.2-12.4,3.3-18c1.5-1.5,3.5-3,5.9-4.2
						c7.3-3.7,14.3-2,17.6-1.4c4.8,0.9,8.2,0.9,9.7,0.5c0.1,0,0.1,0,0.2,0c0.1,0.1,0.2,0.3,0.1,0.4c-0.2,0.3,0,0.7,0.3,0.6l1.7-0.2
						c0.2,0,0.4,0.2,0.2,0.4l-0.9,1.4c-0.2,0.3,0,0.6,0.3,0.6l0.5,0l2.8-0.2c0.1,0,0.2,0.1,0.3,0.2
						C187.8,153.4,187.8,153.5,187.7,153.6z"/>
					<path class="st42" d="M196.4,151.1c-1.6,1.1-4.2,0.6-5.5,0.2c-0.4-0.2-0.9-0.4-1.3-0.5c-0.2-0.1-0.5-0.1-0.7-0.1
						c-0.1-1.6,0.8-2.5,0.1-4c-0.1-0.1-0.1-0.3-0.2-0.6c-0.2-1-0.2-2.8,0.6-3.7c1.2-1.3,3.5-1.7,4.6-0.4c0.2,0.3,0.4,0.6,0.6,0.9
						c0.5,1,0.6,2.2,0.1,3.3c1.1-0.2,1.9,0.4,2.3,1c0.2,0.2,0.4,0.6,0.4,1C197.9,149,197.6,150.3,196.4,151.1z"/>
					<path class="st43" d="M169.1,185.4c-0.2,0-0.5,0.1-0.7,0.1c-0.1,0-0.2,0-0.3,0c-10,1-19.5-3.7-22.5-12.2
						c-1.9-5.4-2.2-12.4,3.3-18c0,0,0.1,0,0.1-0.1C162.2,148.5,178.1,181.1,169.1,185.4z"/>
					<path class="st12" d="M165.6,184.5c-8.9,0-16.3-4.5-18.8-11.5c-1.3-3.7-2.8-10.8,2.9-16.7c1-0.5,2-0.7,3.1-0.7
						c7.1,0,15.2,11,17.3,20.4c1,4.2,0.5,7.3-1.3,8.3c-0.2,0-0.3,0.1-0.5,0.1c-0.1,0-0.2,0-0.2,0
						C167.2,184.4,166.4,184.5,165.6,184.5z"/>
					<path class="st42" d="M154.6,167.4c-1.3,0-1.7,1-1.4,2.2c0.2,0.8,1.2,1.4,1.7,2.1c0.6,0.9,1.1,1.6,2.3,1.9
						c1.5,0.4,1.6-1.1,1.7-2.1c0.1-1.2-0.3-2.5-1.3-3.4C156.6,167.3,155.8,167.4,154.6,167.4z"/>
					<g class="st44">
						<path class="st3" d="M151.7,164.7c-0.4,0.8-1.1,1.5-1.5,2.4c-0.4,1.1-0.4,2.2-0.1,3.4c0.4,1.5,1.6,2.8,2.5,4.1
							c1.3,1.7,3.6,3,5.8,3.1c2,0.1,3.7-1.7,3.1-3.7c0.2,1.9-1.4,3.3-3.3,3.1c-1.6-0.2-3.3-1.2-4.5-2.4c-0.7-0.7-1.2-1.5-1.8-2.3
							c-0.6-0.8-1.1-1.6-1.4-2.5c-0.2-0.9-0.2-1.9,0.1-2.8C151,166.2,151.4,165.5,151.7,164.7z"/>
						<path class="st3" d="M163.7,175.6c0-0.6-0.2-1.2-0.4-1.8c-0.1-0.5-0.4-0.9-0.6-1.4c-0.2-0.5-0.2-1-0.3-1.6
							c-0.1-0.6-0.2-1.1-0.3-1.7c-0.4-1.7-1.7-2.9-3.2-3.6c-1.6-0.7-4-1-5.5,0.2c1.2-0.7,3.1-0.5,4.3-0.1c1.2,0.3,2.2,1.2,3,2.1
							c0.5,0.6,0.7,1.7,0.8,2.6c0.1,0.7,0.2,1.4,0.3,2c0.2,0.6,0.6,1.2,0.8,1.9c0.4,1.4,0.6,2.8-0.5,3.9c-0.5,0.5-1.1,0.7-1.9,0.8
							c-0.4,0.1-1.1,0.2-1.4-0.1c0.1,0.2,0.4,0.2,0.6,0.3c1,0.2,2.2,0.1,3-0.6C163.4,177.9,163.8,176.8,163.7,175.6z"/>
						<path class="st3" d="M167.4,176.4c-0.4-1.5-1.4-2.8-2.1-4.2c-0.7-1.5-1-3.3-1.4-4.9c-0.5-2.2-2-3.9-4-5
							c-2.1-1.2-4.5-1.5-6.9-1.3c-2.1,0.2-4.8,1-5.1,3.4c-0.1,1.1,0,2.3,0,3.5c0,0.7,0,1.4,0,2c0.1-1.7,0.2-3.4,0.3-5
							c0.1-1.2,0.6-2,1.7-2.5c0.9-0.4,1.9-0.6,2.9-0.7c3.9-0.4,9,1.3,10.2,5.4c0.5,1.7,0.7,3.4,1.4,5c0.2,0.5,0.5,1,0.8,1.5
							c0.5,0.9,1.2,1.8,1.5,2.8c0.3,1,0.5,2,0.5,3.1c0,1.1-0.2,2.3-1.2,2.8c-0.9,0.5-2.2,0.4-3.1,0.3c-0.9-0.1-1.7-0.5-2.4-0.9
							c0.8,0.6,1.6,1,2.6,1.2c1,0.2,2.3,0.2,3.2-0.2C168.3,181.6,167.9,178.3,167.4,176.4z"/>
						<path class="st3" d="M153.4,177c-0.9-0.8-1.8-1.6-2.7-2.5c-0.4-0.4-0.8-0.9-1.1-1.3c-0.2-0.3-0.5-0.7-0.6-1.1
							c-0.1,0.5,0.2,1,0.4,1.4c0.3,0.6,0.7,1.1,1,1.6c0.7,1,1.7,1.8,2.6,2.7c1.6,1.5,3.3,3.4,5.7,3.5
							C156.4,180.6,155,178.6,153.4,177z"/>
						<path class="st3" d="M150.7,159.3c0.6-0.2,1.2-0.3,1.8-0.4c1.1-0.1,2.1-0.1,3.2,0.1c1.8,0.6,3.3,1.9,4.9,3
							c-1.2-1.6-2.9-3.3-4.9-3.8c-1.1-0.3-2.3-0.3-3.4,0.1c-0.7,0.2-1.3,0.4-2,0.8c-0.5,0.2-1.1,0.6-1.3,1.1
							C149.4,159.7,150.2,159.5,150.7,159.3z"/>
					</g>
				</g>
				<path class="st45" d="M196.4,151.1c-1.6,1.1-4.2,0.6-5.5,0.2l-3.2,2c0,0.1,0,0.2,0,0.3c-0.7,0.9-2.1,2.9-3.3,4.9
					c-3.7,6.5-2.8,11.1-6.2,18.2c-2,3.4-4.7,6.9-9.1,8.7c-0.1,0-0.9,0.2-1,0.2c-6.9,0.7-13.4-1.3-17.9-5.3c7.6,3.4,14.8,3.4,21.5,0
					c6.3-7.1,9.3-15.1,6.7-24.4l2,3.1c1.8-0.7,3.1-2.2,3.9-4.5c0.1-0.3,0.2-0.7,0.3-1.1c1.2-0.1,3.4-1.4,5-2.5
					c1-0.7,1.7-1.4,1.9-1.7c0.5,0.4,1,0.7,1.4,0.9c2.5,1.1,4.8-0.3,4.8-2C197.9,149,197.6,150.3,196.4,151.1z"/>
				<path class="st45" d="M194.9,146l-1.4,0.2c1.2-0.7,1.6-1.9,1.2-3.4C195.3,143.8,195.3,145,194.9,146z"/>
			</g>
		</g>
	</g>
</g>
</svg>
